<?xml version="1.0" encoding="UTF-8" standalone="no"?>
<!DOCTYPE svg PUBLIC "-//W3C//DTD SVG 1.1//EN"
 "http://www.w3.org/Graphics/SVG/1.1/DTD/svg11.dtd">
<!-- Generated by graphviz version 2.38.0 (20140413.2041)
 -->
<!-- Title: g Pages: 1 -->
<svg width="333pt" height="136pt"
 viewBox="0.00 0.00 333.00 136.00" xmlns="http://www.w3.org/2000/svg" xmlns:xlink="http://www.w3.org/1999/xlink">
<g id="graph0" class="graph" transform="scale(1 1) rotate(0) translate(4 132)">
<title>g</title>
<polygon fill="white" stroke="none" points="-4,4 -4,-132 329,-132 329,4 -4,4"/>
<text text-anchor="middle" x="162.5" y="-7" font-family="Verdana" font-size="10.00">Table: SalesReason</text>
<!-- struct0 -->
<g id="node1" class="node"><title>struct0</title>
<polygon fill="#f7f7f9" stroke="#555555" points="128,-55.5 128,-127.5 325,-127.5 325,-55.5 128,-55.5"/>
<text text-anchor="middle" x="226.5" y="-116.3" font-family="Verdana" font-size="9.00" fill="#555555">Table: SalesOrderHeaderSalesReason</text>
<polyline fill="none" stroke="#555555" points="128,-109.5 325,-109.5 "/>
<text text-anchor="middle" x="226.5" y="-98.3" font-family="Verdana" font-size="9.00" fill="#555555">+ SalesOrderID</text>
<polyline fill="none" stroke="#555555" points="128,-91.5 325,-91.5 "/>
<text text-anchor="middle" x="226.5" y="-80.3" font-family="Verdana" font-size="9.00" fill="#555555">+ SalesReasonID</text>
<polyline fill="none" stroke="#555555" points="128,-73.5 325,-73.5 "/>
<text text-anchor="middle" x="226.5" y="-62.3" font-family="Verdana" font-size="9.00" fill="#555555">ModifiedDate</text>
</g>
<!-- struct1 -->
<g id="node2" class="node"><title>struct1</title>
<polygon fill="#d9edf7" stroke="#1b809e" points="0,-19.5 0,-109.5 110,-109.5 110,-19.5 0,-19.5"/>
<text text-anchor="middle" x="55" y="-98.3" font-family="Verdana" font-size="9.00" fill="#1b809e">Table: SalesReason</text>
<polyline fill="none" stroke="#1b809e" points="0,-91.5 110,-91.5 "/>
<text text-anchor="middle" x="55" y="-80.3" font-family="Verdana" font-size="9.00" fill="#1b809e">SalesReasonID +</text>
<polyline fill="none" stroke="#1b809e" points="0,-73.5 110,-73.5 "/>
<text text-anchor="middle" x="55" y="-62.3" font-family="Verdana" font-size="9.00" fill="#1b809e">Name</text>
<polyline fill="none" stroke="#1b809e" points="0,-55.5 110,-55.5 "/>
<text text-anchor="middle" x="55" y="-44.3" font-family="Verdana" font-size="9.00" fill="#1b809e">ReasonType</text>
<polyline fill="none" stroke="#1b809e" points="0,-37.5 110,-37.5 "/>
<text text-anchor="middle" x="55" y="-26.3" font-family="Verdana" font-size="9.00" fill="#1b809e">ModifiedDate</text>
</g>
<!-- struct1&#45;&gt;struct0 -->
<g id="edge1" class="edge"><title>struct1:c1554104577_1&#45;&gt;struct0:c1266103551_2</title>
<path fill="none" stroke="black" d="M110,-82.5C113.25,-82.5 115.51,-82.5 117.584,-82.5"/>
<polygon fill="black" stroke="black" points="118,-86.0001 128,-82.5 118,-79.0001 118,-86.0001"/>
</g>
</g>
</svg>
