<?xml version="1.0" encoding="UTF-8" standalone="no"?>
<!DOCTYPE svg PUBLIC "-//W3C//DTD SVG 1.1//EN"
 "http://www.w3.org/Graphics/SVG/1.1/DTD/svg11.dtd">
<!-- Generated by graphviz version 2.38.0 (20140413.2041)
 -->
<!-- Title: g Pages: 1 -->
<svg width="442pt" height="966pt"
 viewBox="0.00 0.00 442.00 966.00" xmlns="http://www.w3.org/2000/svg" xmlns:xlink="http://www.w3.org/1999/xlink">
<g id="graph0" class="graph" transform="scale(1 1) rotate(0) translate(4 962)">
<title>g</title>
<polygon fill="white" stroke="none" points="-4,4 -4,-962 438,-962 438,4 -4,4"/>
<text text-anchor="middle" x="217" y="-7" font-family="Verdana" font-size="10.00">Table: SalesPerson</text>
<!-- struct0 -->
<g id="node1" class="node"><title>struct0</title>
<polygon fill="none" stroke="#337ab7" points="7.5,-236.5 7.5,-542.5 113.5,-542.5 113.5,-236.5 7.5,-236.5"/>
<text text-anchor="middle" x="60.5" y="-531.3" font-family="Verdana" font-size="9.00" fill="#337ab7">Table: Employee</text>
<polyline fill="none" stroke="#337ab7" points="7.5,-524.5 113.5,-524.5 "/>
<text text-anchor="middle" x="60.5" y="-513.3" font-family="Verdana" font-size="9.00" fill="#337ab7">BusinessEntityID +</text>
<polyline fill="none" stroke="#337ab7" points="7.5,-506.5 113.5,-506.5 "/>
<text text-anchor="middle" x="60.5" y="-495.3" font-family="Verdana" font-size="9.00" fill="#337ab7">NationalIDNumber</text>
<polyline fill="none" stroke="#337ab7" points="7.5,-488.5 113.5,-488.5 "/>
<text text-anchor="middle" x="60.5" y="-477.3" font-family="Verdana" font-size="9.00" fill="#337ab7">LoginID</text>
<polyline fill="none" stroke="#337ab7" points="7.5,-470.5 113.5,-470.5 "/>
<text text-anchor="middle" x="60.5" y="-459.3" font-family="Verdana" font-size="9.00" fill="#337ab7">OrganizationNode</text>
<polyline fill="none" stroke="#337ab7" points="7.5,-452.5 113.5,-452.5 "/>
<text text-anchor="middle" x="60.5" y="-441.3" font-family="Verdana" font-size="9.00" fill="#337ab7">OrganizationLevel</text>
<polyline fill="none" stroke="#337ab7" points="7.5,-434.5 113.5,-434.5 "/>
<text text-anchor="middle" x="60.5" y="-423.3" font-family="Verdana" font-size="9.00" fill="#337ab7">JobTitle</text>
<polyline fill="none" stroke="#337ab7" points="7.5,-416.5 113.5,-416.5 "/>
<text text-anchor="middle" x="60.5" y="-405.3" font-family="Verdana" font-size="9.00" fill="#337ab7">BirthDate</text>
<polyline fill="none" stroke="#337ab7" points="7.5,-398.5 113.5,-398.5 "/>
<text text-anchor="middle" x="60.5" y="-387.3" font-family="Verdana" font-size="9.00" fill="#337ab7">MaritalStatus</text>
<polyline fill="none" stroke="#337ab7" points="7.5,-380.5 113.5,-380.5 "/>
<text text-anchor="middle" x="60.5" y="-369.3" font-family="Verdana" font-size="9.00" fill="#337ab7">Gender</text>
<polyline fill="none" stroke="#337ab7" points="7.5,-362.5 113.5,-362.5 "/>
<text text-anchor="middle" x="60.5" y="-351.3" font-family="Verdana" font-size="9.00" fill="#337ab7">HireDate</text>
<polyline fill="none" stroke="#337ab7" points="7.5,-344.5 113.5,-344.5 "/>
<text text-anchor="middle" x="60.5" y="-333.3" font-family="Verdana" font-size="9.00" fill="#337ab7">SalariedFlag</text>
<polyline fill="none" stroke="#337ab7" points="7.5,-326.5 113.5,-326.5 "/>
<text text-anchor="middle" x="60.5" y="-315.3" font-family="Verdana" font-size="9.00" fill="#337ab7">VacationHours</text>
<polyline fill="none" stroke="#337ab7" points="7.5,-308.5 113.5,-308.5 "/>
<text text-anchor="middle" x="60.5" y="-297.3" font-family="Verdana" font-size="9.00" fill="#337ab7">SickLeaveHours</text>
<polyline fill="none" stroke="#337ab7" points="7.5,-290.5 113.5,-290.5 "/>
<text text-anchor="middle" x="60.5" y="-279.3" font-family="Verdana" font-size="9.00" fill="#337ab7">CurrentFlag</text>
<polyline fill="none" stroke="#337ab7" points="7.5,-272.5 113.5,-272.5 "/>
<text text-anchor="middle" x="60.5" y="-261.3" font-family="Verdana" font-size="9.00" fill="#337ab7">rowguid</text>
<polyline fill="none" stroke="#337ab7" points="7.5,-254.5 113.5,-254.5 "/>
<text text-anchor="middle" x="60.5" y="-243.3" font-family="Verdana" font-size="9.00" fill="#337ab7">ModifiedDate</text>
</g>
<!-- struct2 -->
<g id="node3" class="node"><title>struct2</title>
<polygon fill="none" stroke="black" points="139,-208.5 139,-388.5 246,-388.5 246,-208.5 139,-208.5"/>
<text text-anchor="middle" x="192.5" y="-377.3" font-family="Verdana" font-size="9.00">Table: SalesPerson</text>
<polyline fill="none" stroke="black" points="139,-370.5 246,-370.5 "/>
<text text-anchor="middle" x="192.5" y="-359.3" font-family="Verdana" font-size="9.00">BusinessEntityID +</text>
<polyline fill="none" stroke="black" points="139,-352.5 246,-352.5 "/>
<text text-anchor="middle" x="192.5" y="-341.3" font-family="Verdana" font-size="9.00">+ TerritoryID</text>
<polyline fill="none" stroke="black" points="139,-334.5 246,-334.5 "/>
<text text-anchor="middle" x="192.5" y="-323.3" font-family="Verdana" font-size="9.00">SalesQuota</text>
<polyline fill="none" stroke="black" points="139,-316.5 246,-316.5 "/>
<text text-anchor="middle" x="192.5" y="-305.3" font-family="Verdana" font-size="9.00">Bonus</text>
<polyline fill="none" stroke="black" points="139,-298.5 246,-298.5 "/>
<text text-anchor="middle" x="192.5" y="-287.3" font-family="Verdana" font-size="9.00">CommissionPct</text>
<polyline fill="none" stroke="black" points="139,-280.5 246,-280.5 "/>
<text text-anchor="middle" x="192.5" y="-269.3" font-family="Verdana" font-size="9.00">SalesYTD</text>
<polyline fill="none" stroke="black" points="139,-262.5 246,-262.5 "/>
<text text-anchor="middle" x="192.5" y="-251.3" font-family="Verdana" font-size="9.00">SalesLastYear</text>
<polyline fill="none" stroke="black" points="139,-244.5 246,-244.5 "/>
<text text-anchor="middle" x="192.5" y="-233.3" font-family="Verdana" font-size="9.00">rowguid</text>
<polyline fill="none" stroke="black" points="139,-226.5 246,-226.5 "/>
<text text-anchor="middle" x="192.5" y="-215.3" font-family="Verdana" font-size="9.00">ModifiedDate</text>
</g>
<!-- struct0&#45;&gt;struct2 -->
<g id="edge5" class="edge"><title>struct0:c981578535_1&#45;&gt;struct2:c1298103665_1</title>
<path fill="none" stroke="#337ab7" d="M114.5,-515.5C179.88,-515.5 82.0329,-378.451 128.922,-362.926"/>
<polygon fill="#337ab7" stroke="#337ab7" points="129.589,-366.367 139,-361.5 128.608,-359.436 129.589,-366.367"/>
</g>
<!-- struct1 -->
<g id="node2" class="node"><title>struct1</title>
<polygon fill="none" stroke="#337ab7" points="281,-471.5 281,-957.5 417,-957.5 417,-471.5 281,-471.5"/>
<text text-anchor="middle" x="349" y="-946.3" font-family="Verdana" font-size="9.00" fill="#337ab7">Table: SalesOrderHeader</text>
<polyline fill="none" stroke="#337ab7" points="281,-939.5 417,-939.5 "/>
<text text-anchor="middle" x="349" y="-928.3" font-family="Verdana" font-size="9.00" fill="#337ab7">SalesOrderID +</text>
<polyline fill="none" stroke="#337ab7" points="281,-921.5 417,-921.5 "/>
<text text-anchor="middle" x="349" y="-910.3" font-family="Verdana" font-size="9.00" fill="#337ab7">RevisionNumber</text>
<polyline fill="none" stroke="#337ab7" points="281,-903.5 417,-903.5 "/>
<text text-anchor="middle" x="349" y="-892.3" font-family="Verdana" font-size="9.00" fill="#337ab7">OrderDate</text>
<polyline fill="none" stroke="#337ab7" points="281,-885.5 417,-885.5 "/>
<text text-anchor="middle" x="349" y="-874.3" font-family="Verdana" font-size="9.00" fill="#337ab7">DueDate</text>
<polyline fill="none" stroke="#337ab7" points="281,-867.5 417,-867.5 "/>
<text text-anchor="middle" x="349" y="-856.3" font-family="Verdana" font-size="9.00" fill="#337ab7">ShipDate</text>
<polyline fill="none" stroke="#337ab7" points="281,-849.5 417,-849.5 "/>
<text text-anchor="middle" x="349" y="-838.3" font-family="Verdana" font-size="9.00" fill="#337ab7">Status</text>
<polyline fill="none" stroke="#337ab7" points="281,-831.5 417,-831.5 "/>
<text text-anchor="middle" x="349" y="-820.3" font-family="Verdana" font-size="9.00" fill="#337ab7">OnlineOrderFlag</text>
<polyline fill="none" stroke="#337ab7" points="281,-813.5 417,-813.5 "/>
<text text-anchor="middle" x="349" y="-802.3" font-family="Verdana" font-size="9.00" fill="#337ab7">SalesOrderNumber</text>
<polyline fill="none" stroke="#337ab7" points="281,-795.5 417,-795.5 "/>
<text text-anchor="middle" x="349" y="-784.3" font-family="Verdana" font-size="9.00" fill="#337ab7">PurchaseOrderNumber</text>
<polyline fill="none" stroke="#337ab7" points="281,-777.5 417,-777.5 "/>
<text text-anchor="middle" x="349" y="-766.3" font-family="Verdana" font-size="9.00" fill="#337ab7">AccountNumber</text>
<polyline fill="none" stroke="#337ab7" points="281,-759.5 417,-759.5 "/>
<text text-anchor="middle" x="349" y="-748.3" font-family="Verdana" font-size="9.00" fill="#337ab7">+ CustomerID</text>
<polyline fill="none" stroke="#337ab7" points="281,-741.5 417,-741.5 "/>
<text text-anchor="middle" x="349" y="-730.3" font-family="Verdana" font-size="9.00" fill="#337ab7">+ SalesPersonID</text>
<polyline fill="none" stroke="#337ab7" points="281,-723.5 417,-723.5 "/>
<text text-anchor="middle" x="349" y="-712.3" font-family="Verdana" font-size="9.00" fill="#337ab7">+ TerritoryID</text>
<polyline fill="none" stroke="#337ab7" points="281,-705.5 417,-705.5 "/>
<text text-anchor="middle" x="349" y="-694.3" font-family="Verdana" font-size="9.00" fill="#337ab7">+ BillToAddressID</text>
<polyline fill="none" stroke="#337ab7" points="281,-687.5 417,-687.5 "/>
<text text-anchor="middle" x="349" y="-676.3" font-family="Verdana" font-size="9.00" fill="#337ab7">+ ShipToAddressID</text>
<polyline fill="none" stroke="#337ab7" points="281,-669.5 417,-669.5 "/>
<text text-anchor="middle" x="349" y="-658.3" font-family="Verdana" font-size="9.00" fill="#337ab7">+ ShipMethodID</text>
<polyline fill="none" stroke="#337ab7" points="281,-651.5 417,-651.5 "/>
<text text-anchor="middle" x="349" y="-640.3" font-family="Verdana" font-size="9.00" fill="#337ab7">+ CreditCardID</text>
<polyline fill="none" stroke="#337ab7" points="281,-633.5 417,-633.5 "/>
<text text-anchor="middle" x="349" y="-622.3" font-family="Verdana" font-size="9.00" fill="#337ab7">CreditCardApprovalCode</text>
<polyline fill="none" stroke="#337ab7" points="281,-615.5 417,-615.5 "/>
<text text-anchor="middle" x="349" y="-604.3" font-family="Verdana" font-size="9.00" fill="#337ab7">+ CurrencyRateID</text>
<polyline fill="none" stroke="#337ab7" points="281,-597.5 417,-597.5 "/>
<text text-anchor="middle" x="349" y="-586.3" font-family="Verdana" font-size="9.00" fill="#337ab7">SubTotal</text>
<polyline fill="none" stroke="#337ab7" points="281,-579.5 417,-579.5 "/>
<text text-anchor="middle" x="349" y="-568.3" font-family="Verdana" font-size="9.00" fill="#337ab7">TaxAmt</text>
<polyline fill="none" stroke="#337ab7" points="281,-561.5 417,-561.5 "/>
<text text-anchor="middle" x="349" y="-550.3" font-family="Verdana" font-size="9.00" fill="#337ab7">Freight</text>
<polyline fill="none" stroke="#337ab7" points="281,-543.5 417,-543.5 "/>
<text text-anchor="middle" x="349" y="-532.3" font-family="Verdana" font-size="9.00" fill="#337ab7">TotalDue</text>
<polyline fill="none" stroke="#337ab7" points="281,-525.5 417,-525.5 "/>
<text text-anchor="middle" x="349" y="-514.3" font-family="Verdana" font-size="9.00" fill="#337ab7">Comment</text>
<polyline fill="none" stroke="#337ab7" points="281,-507.5 417,-507.5 "/>
<text text-anchor="middle" x="349" y="-496.3" font-family="Verdana" font-size="9.00" fill="#337ab7">rowguid</text>
<polyline fill="none" stroke="#337ab7" points="281,-489.5 417,-489.5 "/>
<text text-anchor="middle" x="349" y="-478.3" font-family="Verdana" font-size="9.00" fill="#337ab7">ModifiedDate</text>
</g>
<!-- struct2&#45;&gt;struct1 -->
<g id="edge1" class="edge"><title>struct2:c1298103665_1&#45;&gt;struct1:c1010102639_12</title>
<path fill="none" stroke="black" d="M246,-361.5C264.798,-361.5 260.423,-667.513 274.967,-723.695"/>
<polygon fill="black" stroke="black" points="271.999,-725.555 280,-732.5 278.076,-722.081 271.999,-725.555"/>
</g>
<!-- struct3 -->
<g id="node4" class="node"><title>struct3</title>
<polygon fill="none" stroke="#337ab7" points="264,-344.5 264,-452.5 434,-452.5 434,-344.5 264,-344.5"/>
<text text-anchor="middle" x="349" y="-441.3" font-family="Verdana" font-size="9.00" fill="#337ab7">Table: SalesPersonQuotaHistory</text>
<polyline fill="none" stroke="#337ab7" points="264,-434.5 434,-434.5 "/>
<text text-anchor="middle" x="349" y="-423.3" font-family="Verdana" font-size="9.00" fill="#337ab7">+ BusinessEntityID</text>
<polyline fill="none" stroke="#337ab7" points="264,-416.5 434,-416.5 "/>
<text text-anchor="middle" x="349" y="-405.3" font-family="Verdana" font-size="9.00" fill="#337ab7">QuotaDate</text>
<polyline fill="none" stroke="#337ab7" points="264,-398.5 434,-398.5 "/>
<text text-anchor="middle" x="349" y="-387.3" font-family="Verdana" font-size="9.00" fill="#337ab7">SalesQuota</text>
<polyline fill="none" stroke="#337ab7" points="264,-380.5 434,-380.5 "/>
<text text-anchor="middle" x="349" y="-369.3" font-family="Verdana" font-size="9.00" fill="#337ab7">rowguid</text>
<polyline fill="none" stroke="#337ab7" points="264,-362.5 434,-362.5 "/>
<text text-anchor="middle" x="349" y="-351.3" font-family="Verdana" font-size="9.00" fill="#337ab7">ModifiedDate</text>
</g>
<!-- struct2&#45;&gt;struct3 -->
<g id="edge2" class="edge"><title>struct2:c1298103665_1&#45;&gt;struct3:c1490104349_1</title>
<path fill="none" stroke="black" d="M246,-361.5C270.931,-361.5 245.57,-407.063 254.785,-421.301"/>
<polygon fill="black" stroke="black" points="253.449,-424.538 264,-425.5 256.351,-418.168 253.449,-424.538"/>
</g>
<!-- struct5 -->
<g id="node6" class="node"><title>struct5</title>
<polygon fill="none" stroke="#337ab7" points="275.5,-199.5 275.5,-325.5 422.5,-325.5 422.5,-199.5 275.5,-199.5"/>
<text text-anchor="middle" x="349" y="-314.3" font-family="Verdana" font-size="9.00" fill="#337ab7">Table: SalesTerritoryHistory</text>
<polyline fill="none" stroke="#337ab7" points="275.5,-307.5 422.5,-307.5 "/>
<text text-anchor="middle" x="349" y="-296.3" font-family="Verdana" font-size="9.00" fill="#337ab7">+ BusinessEntityID</text>
<polyline fill="none" stroke="#337ab7" points="275.5,-289.5 422.5,-289.5 "/>
<text text-anchor="middle" x="349" y="-278.3" font-family="Verdana" font-size="9.00" fill="#337ab7">+ TerritoryID</text>
<polyline fill="none" stroke="#337ab7" points="275.5,-271.5 422.5,-271.5 "/>
<text text-anchor="middle" x="349" y="-260.3" font-family="Verdana" font-size="9.00" fill="#337ab7">StartDate</text>
<polyline fill="none" stroke="#337ab7" points="275.5,-253.5 422.5,-253.5 "/>
<text text-anchor="middle" x="349" y="-242.3" font-family="Verdana" font-size="9.00" fill="#337ab7">EndDate</text>
<polyline fill="none" stroke="#337ab7" points="275.5,-235.5 422.5,-235.5 "/>
<text text-anchor="middle" x="349" y="-224.3" font-family="Verdana" font-size="9.00" fill="#337ab7">rowguid</text>
<polyline fill="none" stroke="#337ab7" points="275.5,-217.5 422.5,-217.5 "/>
<text text-anchor="middle" x="349" y="-206.3" font-family="Verdana" font-size="9.00" fill="#337ab7">ModifiedDate</text>
</g>
<!-- struct2&#45;&gt;struct5 -->
<g id="edge3" class="edge"><title>struct2:c1298103665_1&#45;&gt;struct5:c1842105603_1</title>
<path fill="none" stroke="black" d="M246,-361.5C272.332,-361.5 251.456,-314.973 264.51,-301.887"/>
<polygon fill="black" stroke="black" points="265.758,-305.158 274,-298.5 263.405,-298.565 265.758,-305.158"/>
</g>
<!-- struct6 -->
<g id="node7" class="node"><title>struct6</title>
<polygon fill="none" stroke="#337ab7" points="296,-54.5 296,-180.5 402,-180.5 402,-54.5 296,-54.5"/>
<text text-anchor="middle" x="349" y="-169.3" font-family="Verdana" font-size="9.00" fill="#337ab7">Table: Store</text>
<polyline fill="none" stroke="#337ab7" points="296,-162.5 402,-162.5 "/>
<text text-anchor="middle" x="349" y="-151.3" font-family="Verdana" font-size="9.00" fill="#337ab7">BusinessEntityID +</text>
<polyline fill="none" stroke="#337ab7" points="296,-144.5 402,-144.5 "/>
<text text-anchor="middle" x="349" y="-133.3" font-family="Verdana" font-size="9.00" fill="#337ab7">Name</text>
<polyline fill="none" stroke="#337ab7" points="296,-126.5 402,-126.5 "/>
<text text-anchor="middle" x="349" y="-115.3" font-family="Verdana" font-size="9.00" fill="#337ab7">+ SalesPersonID</text>
<polyline fill="none" stroke="#337ab7" points="296,-108.5 402,-108.5 "/>
<text text-anchor="middle" x="349" y="-97.3" font-family="Verdana" font-size="9.00" fill="#337ab7">Demographics</text>
<polyline fill="none" stroke="#337ab7" points="296,-90.5 402,-90.5 "/>
<text text-anchor="middle" x="349" y="-79.3" font-family="Verdana" font-size="9.00" fill="#337ab7">rowguid</text>
<polyline fill="none" stroke="#337ab7" points="296,-72.5 402,-72.5 "/>
<text text-anchor="middle" x="349" y="-61.3" font-family="Verdana" font-size="9.00" fill="#337ab7">ModifiedDate</text>
</g>
<!-- struct2&#45;&gt;struct6 -->
<g id="edge4" class="edge"><title>struct2:c1298103665_1&#45;&gt;struct6:c270624007_3</title>
<path fill="none" stroke="black" d="M246,-361.5C265.215,-361.5 259.145,-208.092 264,-189.5 271.805,-159.609 262.749,-126.116 284.888,-118.912"/>
<polygon fill="black" stroke="black" points="285.58,-122.349 295,-117.5 284.612,-115.416 285.58,-122.349"/>
</g>
<!-- struct4 -->
<g id="node5" class="node"><title>struct4</title>
<polygon fill="none" stroke="#337ab7" points="0,-19.5 0,-217.5 121,-217.5 121,-19.5 0,-19.5"/>
<text text-anchor="middle" x="60.5" y="-206.3" font-family="Verdana" font-size="9.00" fill="#337ab7">Table: SalesTerritory</text>
<polyline fill="none" stroke="#337ab7" points="0,-199.5 121,-199.5 "/>
<text text-anchor="middle" x="60.5" y="-188.3" font-family="Verdana" font-size="9.00" fill="#337ab7">TerritoryID +</text>
<polyline fill="none" stroke="#337ab7" points="0,-181.5 121,-181.5 "/>
<text text-anchor="middle" x="60.5" y="-170.3" font-family="Verdana" font-size="9.00" fill="#337ab7">Name</text>
<polyline fill="none" stroke="#337ab7" points="0,-163.5 121,-163.5 "/>
<text text-anchor="middle" x="60.5" y="-152.3" font-family="Verdana" font-size="9.00" fill="#337ab7">+ CountryRegionCode</text>
<polyline fill="none" stroke="#337ab7" points="0,-145.5 121,-145.5 "/>
<text text-anchor="middle" x="60.5" y="-134.3" font-family="Verdana" font-size="9.00" fill="#337ab7">Group</text>
<polyline fill="none" stroke="#337ab7" points="0,-127.5 121,-127.5 "/>
<text text-anchor="middle" x="60.5" y="-116.3" font-family="Verdana" font-size="9.00" fill="#337ab7">SalesYTD</text>
<polyline fill="none" stroke="#337ab7" points="0,-109.5 121,-109.5 "/>
<text text-anchor="middle" x="60.5" y="-98.3" font-family="Verdana" font-size="9.00" fill="#337ab7">SalesLastYear</text>
<polyline fill="none" stroke="#337ab7" points="0,-91.5 121,-91.5 "/>
<text text-anchor="middle" x="60.5" y="-80.3" font-family="Verdana" font-size="9.00" fill="#337ab7">CostYTD</text>
<polyline fill="none" stroke="#337ab7" points="0,-73.5 121,-73.5 "/>
<text text-anchor="middle" x="60.5" y="-62.3" font-family="Verdana" font-size="9.00" fill="#337ab7">CostLastYear</text>
<polyline fill="none" stroke="#337ab7" points="0,-55.5 121,-55.5 "/>
<text text-anchor="middle" x="60.5" y="-44.3" font-family="Verdana" font-size="9.00" fill="#337ab7">rowguid</text>
<polyline fill="none" stroke="#337ab7" points="0,-37.5 121,-37.5 "/>
<text text-anchor="middle" x="60.5" y="-26.3" font-family="Verdana" font-size="9.00" fill="#337ab7">ModifiedDate</text>
</g>
<!-- struct4&#45;&gt;struct2 -->
<g id="edge6" class="edge"><title>struct4:c1666104976_1&#45;&gt;struct2:c1298103665_2</title>
<path fill="none" stroke="#337ab7" d="M121,-190.5C151.356,-190.5 115.113,-310.799 130.38,-338.055"/>
<polygon fill="#337ab7" stroke="#337ab7" points="128.676,-341.118 139,-343.5 132.415,-335.2 128.676,-341.118"/>
</g>
</g>
</svg>
