<?xml version="1.0" encoding="UTF-8" standalone="no"?>
<!DOCTYPE svg PUBLIC "-//W3C//DTD SVG 1.1//EN"
 "http://www.w3.org/Graphics/SVG/1.1/DTD/svg11.dtd">
<!-- Generated by graphviz version 2.38.0 (20140413.2041)
 -->
<!-- Title: g Pages: 1 -->
<svg width="489pt" height="2146pt"
 viewBox="0.00 0.00 489.00 2146.00" xmlns="http://www.w3.org/2000/svg" xmlns:xlink="http://www.w3.org/1999/xlink">
<g id="graph0" class="graph" transform="scale(1 1) rotate(0) translate(4 2142)">
<title>g</title>
<polygon fill="white" stroke="none" points="-4,4 -4,-2142 485,-2142 485,4 -4,4"/>
<text text-anchor="middle" x="240.5" y="-7" font-family="Verdana" font-size="10.00">Table: Product</text>
<!-- struct0 -->
<g id="node1" class="node"><title>struct0</title>
<polygon fill="#f7f7f9" stroke="#555555" points="344,-1957.5 344,-2137.5 461,-2137.5 461,-1957.5 344,-1957.5"/>
<text text-anchor="middle" x="402.5" y="-2126.3" font-family="Verdana" font-size="9.00" fill="#555555">Table: BillOfMaterials</text>
<polyline fill="none" stroke="#555555" points="344,-2119.5 461,-2119.5 "/>
<text text-anchor="middle" x="402.5" y="-2108.3" font-family="Verdana" font-size="9.00" fill="#555555">BillOfMaterialsID</text>
<polyline fill="none" stroke="#555555" points="344,-2101.5 461,-2101.5 "/>
<text text-anchor="middle" x="402.5" y="-2090.3" font-family="Verdana" font-size="9.00" fill="#555555">+ ProductAssemblyID</text>
<polyline fill="none" stroke="#555555" points="344,-2083.5 461,-2083.5 "/>
<text text-anchor="middle" x="402.5" y="-2072.3" font-family="Verdana" font-size="9.00" fill="#555555">+ ComponentID</text>
<polyline fill="none" stroke="#555555" points="344,-2065.5 461,-2065.5 "/>
<text text-anchor="middle" x="402.5" y="-2054.3" font-family="Verdana" font-size="9.00" fill="#555555">StartDate</text>
<polyline fill="none" stroke="#555555" points="344,-2047.5 461,-2047.5 "/>
<text text-anchor="middle" x="402.5" y="-2036.3" font-family="Verdana" font-size="9.00" fill="#555555">EndDate</text>
<polyline fill="none" stroke="#555555" points="344,-2029.5 461,-2029.5 "/>
<text text-anchor="middle" x="402.5" y="-2018.3" font-family="Verdana" font-size="9.00" fill="#555555">+ UnitMeasureCode</text>
<polyline fill="none" stroke="#555555" points="344,-2011.5 461,-2011.5 "/>
<text text-anchor="middle" x="402.5" y="-2000.3" font-family="Verdana" font-size="9.00" fill="#555555">BOMLevel</text>
<polyline fill="none" stroke="#555555" points="344,-1993.5 461,-1993.5 "/>
<text text-anchor="middle" x="402.5" y="-1982.3" font-family="Verdana" font-size="9.00" fill="#555555">PerAssemblyQty</text>
<polyline fill="none" stroke="#555555" points="344,-1975.5 461,-1975.5 "/>
<text text-anchor="middle" x="402.5" y="-1964.3" font-family="Verdana" font-size="9.00" fill="#555555">ModifiedDate</text>
</g>
<!-- struct1 -->
<g id="node2" class="node"><title>struct1</title>
<polygon fill="#d9edf7" stroke="#1b809e" points="162,-898.5 162,-1366.5 306,-1366.5 306,-898.5 162,-898.5"/>
<text text-anchor="middle" x="234" y="-1355.3" font-family="Verdana" font-size="9.00" fill="#1b809e">Table: Product</text>
<polyline fill="none" stroke="#1b809e" points="162,-1348.5 306,-1348.5 "/>
<text text-anchor="middle" x="234" y="-1337.3" font-family="Verdana" font-size="9.00" fill="#1b809e">ProductID +</text>
<polyline fill="none" stroke="#1b809e" points="162,-1330.5 306,-1330.5 "/>
<text text-anchor="middle" x="234" y="-1319.3" font-family="Verdana" font-size="9.00" fill="#1b809e">Name</text>
<polyline fill="none" stroke="#1b809e" points="162,-1312.5 306,-1312.5 "/>
<text text-anchor="middle" x="234" y="-1301.3" font-family="Verdana" font-size="9.00" fill="#1b809e">ProductNumber</text>
<polyline fill="none" stroke="#1b809e" points="162,-1294.5 306,-1294.5 "/>
<text text-anchor="middle" x="234" y="-1283.3" font-family="Verdana" font-size="9.00" fill="#1b809e">MakeFlag</text>
<polyline fill="none" stroke="#1b809e" points="162,-1276.5 306,-1276.5 "/>
<text text-anchor="middle" x="234" y="-1265.3" font-family="Verdana" font-size="9.00" fill="#1b809e">FinishedGoodsFlag</text>
<polyline fill="none" stroke="#1b809e" points="162,-1258.5 306,-1258.5 "/>
<text text-anchor="middle" x="234" y="-1247.3" font-family="Verdana" font-size="9.00" fill="#1b809e">Color</text>
<polyline fill="none" stroke="#1b809e" points="162,-1240.5 306,-1240.5 "/>
<text text-anchor="middle" x="234" y="-1229.3" font-family="Verdana" font-size="9.00" fill="#1b809e">SafetyStockLevel</text>
<polyline fill="none" stroke="#1b809e" points="162,-1222.5 306,-1222.5 "/>
<text text-anchor="middle" x="234" y="-1211.3" font-family="Verdana" font-size="9.00" fill="#1b809e">ReorderPoint</text>
<polyline fill="none" stroke="#1b809e" points="162,-1204.5 306,-1204.5 "/>
<text text-anchor="middle" x="234" y="-1193.3" font-family="Verdana" font-size="9.00" fill="#1b809e">StandardCost</text>
<polyline fill="none" stroke="#1b809e" points="162,-1186.5 306,-1186.5 "/>
<text text-anchor="middle" x="234" y="-1175.3" font-family="Verdana" font-size="9.00" fill="#1b809e">ListPrice</text>
<polyline fill="none" stroke="#1b809e" points="162,-1168.5 306,-1168.5 "/>
<text text-anchor="middle" x="234" y="-1157.3" font-family="Verdana" font-size="9.00" fill="#1b809e">Size</text>
<polyline fill="none" stroke="#1b809e" points="162,-1150.5 306,-1150.5 "/>
<text text-anchor="middle" x="234" y="-1139.3" font-family="Verdana" font-size="9.00" fill="#1b809e">+ SizeUnitMeasureCode</text>
<polyline fill="none" stroke="#1b809e" points="162,-1132.5 306,-1132.5 "/>
<text text-anchor="middle" x="234" y="-1121.3" font-family="Verdana" font-size="9.00" fill="#1b809e">+ WeightUnitMeasureCode</text>
<polyline fill="none" stroke="#1b809e" points="162,-1114.5 306,-1114.5 "/>
<text text-anchor="middle" x="234" y="-1103.3" font-family="Verdana" font-size="9.00" fill="#1b809e">Weight</text>
<polyline fill="none" stroke="#1b809e" points="162,-1096.5 306,-1096.5 "/>
<text text-anchor="middle" x="234" y="-1085.3" font-family="Verdana" font-size="9.00" fill="#1b809e">DaysToManufacture</text>
<polyline fill="none" stroke="#1b809e" points="162,-1078.5 306,-1078.5 "/>
<text text-anchor="middle" x="234" y="-1067.3" font-family="Verdana" font-size="9.00" fill="#1b809e">ProductLine</text>
<polyline fill="none" stroke="#1b809e" points="162,-1060.5 306,-1060.5 "/>
<text text-anchor="middle" x="234" y="-1049.3" font-family="Verdana" font-size="9.00" fill="#1b809e">Class</text>
<polyline fill="none" stroke="#1b809e" points="162,-1042.5 306,-1042.5 "/>
<text text-anchor="middle" x="234" y="-1031.3" font-family="Verdana" font-size="9.00" fill="#1b809e">Style</text>
<polyline fill="none" stroke="#1b809e" points="162,-1024.5 306,-1024.5 "/>
<text text-anchor="middle" x="234" y="-1013.3" font-family="Verdana" font-size="9.00" fill="#1b809e">+ ProductSubcategoryID</text>
<polyline fill="none" stroke="#1b809e" points="162,-1006.5 306,-1006.5 "/>
<text text-anchor="middle" x="234" y="-995.3" font-family="Verdana" font-size="9.00" fill="#1b809e">+ ProductModelID</text>
<polyline fill="none" stroke="#1b809e" points="162,-988.5 306,-988.5 "/>
<text text-anchor="middle" x="234" y="-977.3" font-family="Verdana" font-size="9.00" fill="#1b809e">SellStartDate</text>
<polyline fill="none" stroke="#1b809e" points="162,-970.5 306,-970.5 "/>
<text text-anchor="middle" x="234" y="-959.3" font-family="Verdana" font-size="9.00" fill="#1b809e">SellEndDate</text>
<polyline fill="none" stroke="#1b809e" points="162,-952.5 306,-952.5 "/>
<text text-anchor="middle" x="234" y="-941.3" font-family="Verdana" font-size="9.00" fill="#1b809e">DiscontinuedDate</text>
<polyline fill="none" stroke="#1b809e" points="162,-934.5 306,-934.5 "/>
<text text-anchor="middle" x="234" y="-923.3" font-family="Verdana" font-size="9.00" fill="#1b809e">rowguid</text>
<polyline fill="none" stroke="#1b809e" points="162,-916.5 306,-916.5 "/>
<text text-anchor="middle" x="234" y="-905.3" font-family="Verdana" font-size="9.00" fill="#1b809e">ModifiedDate</text>
</g>
<!-- struct1&#45;&gt;struct0 -->
<g id="edge6" class="edge"><title>struct1:c1717581157_1&#45;&gt;struct0:c213575799_2</title>
<path fill="none" stroke="black" d="M306,-1339.5C322.924,-1339.5 322.67,-1931.63 324,-1948.5 328.773,-2009.06 283.769,-2083.22 332.314,-2091.7"/>
<polygon fill="black" stroke="black" points="332.256,-2095.2 342.5,-2092.5 332.805,-2088.23 332.256,-2095.2"/>
</g>
<!-- struct1&#45;&gt;struct0 -->
<g id="edge7" class="edge"><title>struct1:c1717581157_1&#45;&gt;struct0:c213575799_3</title>
<path fill="none" stroke="black" d="M306,-1339.5C322.924,-1339.5 322.518,-1931.64 324,-1948.5 328.626,-2001.14 291.406,-2065.31 332.499,-2073.6"/>
<polygon fill="black" stroke="black" points="332.227,-2077.09 342.5,-2074.5 332.853,-2070.12 332.227,-2077.09"/>
</g>
<!-- struct2 -->
<g id="node3" class="node"><title>struct2</title>
<polygon fill="#f7f7f9" stroke="#555555" points="332.5,-1830.5 332.5,-1938.5 472.5,-1938.5 472.5,-1830.5 332.5,-1830.5"/>
<text text-anchor="middle" x="402.5" y="-1927.3" font-family="Verdana" font-size="9.00" fill="#555555">Table: ProductCostHistory</text>
<polyline fill="none" stroke="#555555" points="332.5,-1920.5 472.5,-1920.5 "/>
<text text-anchor="middle" x="402.5" y="-1909.3" font-family="Verdana" font-size="9.00" fill="#555555">+ ProductID</text>
<polyline fill="none" stroke="#555555" points="332.5,-1902.5 472.5,-1902.5 "/>
<text text-anchor="middle" x="402.5" y="-1891.3" font-family="Verdana" font-size="9.00" fill="#555555">StartDate</text>
<polyline fill="none" stroke="#555555" points="332.5,-1884.5 472.5,-1884.5 "/>
<text text-anchor="middle" x="402.5" y="-1873.3" font-family="Verdana" font-size="9.00" fill="#555555">EndDate</text>
<polyline fill="none" stroke="#555555" points="332.5,-1866.5 472.5,-1866.5 "/>
<text text-anchor="middle" x="402.5" y="-1855.3" font-family="Verdana" font-size="9.00" fill="#555555">StandardCost</text>
<polyline fill="none" stroke="#555555" points="332.5,-1848.5 472.5,-1848.5 "/>
<text text-anchor="middle" x="402.5" y="-1837.3" font-family="Verdana" font-size="9.00" fill="#555555">ModifiedDate</text>
</g>
<!-- struct1&#45;&gt;struct2 -->
<g id="edge2" class="edge"><title>struct1:c1717581157_1&#45;&gt;struct2:c2005582183_1</title>
<path fill="none" stroke="black" d="M306,-1339.5C335.511,-1339.5 304.835,-1831.82 325.647,-1902.97"/>
<polygon fill="black" stroke="black" points="322.956,-1905.24 331.5,-1911.5 328.728,-1901.27 322.956,-1905.24"/>
</g>
<!-- struct3 -->
<g id="node4" class="node"><title>struct3</title>
<polygon fill="#f7f7f9" stroke="#555555" points="336.5,-1739.5 336.5,-1811.5 468.5,-1811.5 468.5,-1739.5 336.5,-1739.5"/>
<text text-anchor="middle" x="402.5" y="-1800.3" font-family="Verdana" font-size="9.00" fill="#555555">Table: ProductDocument</text>
<polyline fill="none" stroke="#555555" points="336.5,-1793.5 468.5,-1793.5 "/>
<text text-anchor="middle" x="402.5" y="-1782.3" font-family="Verdana" font-size="9.00" fill="#555555">+ ProductID</text>
<polyline fill="none" stroke="#555555" points="336.5,-1775.5 468.5,-1775.5 "/>
<text text-anchor="middle" x="402.5" y="-1764.3" font-family="Verdana" font-size="9.00" fill="#555555">+ DocumentNode</text>
<polyline fill="none" stroke="#555555" points="336.5,-1757.5 468.5,-1757.5 "/>
<text text-anchor="middle" x="402.5" y="-1746.3" font-family="Verdana" font-size="9.00" fill="#555555">ModifiedDate</text>
</g>
<!-- struct1&#45;&gt;struct3 -->
<g id="edge5" class="edge"><title>struct1:c1717581157_1&#45;&gt;struct3:c2117582582_1</title>
<path fill="none" stroke="black" d="M306,-1339.5C327.745,-1339.5 321.226,-1708.93 324,-1730.5 326.543,-1750.27 316.347,-1773.56 325.595,-1781.6"/>
<polygon fill="black" stroke="black" points="324.92,-1785.05 335.5,-1784.5 326.885,-1778.33 324.92,-1785.05"/>
</g>
<!-- struct4 -->
<g id="node5" class="node"><title>struct4</title>
<polygon fill="#f7f7f9" stroke="#555555" points="337,-1576.5 337,-1720.5 468,-1720.5 468,-1576.5 337,-1576.5"/>
<text text-anchor="middle" x="402.5" y="-1709.3" font-family="Verdana" font-size="9.00" fill="#555555">Table: ProductInventory</text>
<polyline fill="none" stroke="#555555" points="337,-1702.5 468,-1702.5 "/>
<text text-anchor="middle" x="402.5" y="-1691.3" font-family="Verdana" font-size="9.00" fill="#555555">+ ProductID</text>
<polyline fill="none" stroke="#555555" points="337,-1684.5 468,-1684.5 "/>
<text text-anchor="middle" x="402.5" y="-1673.3" font-family="Verdana" font-size="9.00" fill="#555555">+ LocationID</text>
<polyline fill="none" stroke="#555555" points="337,-1666.5 468,-1666.5 "/>
<text text-anchor="middle" x="402.5" y="-1655.3" font-family="Verdana" font-size="9.00" fill="#555555">Shelf</text>
<polyline fill="none" stroke="#555555" points="337,-1648.5 468,-1648.5 "/>
<text text-anchor="middle" x="402.5" y="-1637.3" font-family="Verdana" font-size="9.00" fill="#555555">Bin</text>
<polyline fill="none" stroke="#555555" points="337,-1630.5 468,-1630.5 "/>
<text text-anchor="middle" x="402.5" y="-1619.3" font-family="Verdana" font-size="9.00" fill="#555555">Quantity</text>
<polyline fill="none" stroke="#555555" points="337,-1612.5 468,-1612.5 "/>
<text text-anchor="middle" x="402.5" y="-1601.3" font-family="Verdana" font-size="9.00" fill="#555555">rowguid</text>
<polyline fill="none" stroke="#555555" points="337,-1594.5 468,-1594.5 "/>
<text text-anchor="middle" x="402.5" y="-1583.3" font-family="Verdana" font-size="9.00" fill="#555555">ModifiedDate</text>
</g>
<!-- struct1&#45;&gt;struct4 -->
<g id="edge4" class="edge"><title>struct1:c1717581157_1&#45;&gt;struct4:c2099048_1</title>
<path fill="none" stroke="black" d="M306,-1339.5C342.309,-1339.5 303.378,-1639.07 327.637,-1687.05"/>
<polygon fill="black" stroke="black" points="325.548,-1689.87 335.5,-1693.5 329.986,-1684.45 325.548,-1689.87"/>
</g>
<!-- struct5 -->
<g id="node6" class="node"><title>struct5</title>
<polygon fill="#f7f7f9" stroke="#555555" points="324,-1449.5 324,-1557.5 481,-1557.5 481,-1449.5 324,-1449.5"/>
<text text-anchor="middle" x="402.5" y="-1546.3" font-family="Verdana" font-size="9.00" fill="#555555">Table: ProductListPriceHistory</text>
<polyline fill="none" stroke="#555555" points="324,-1539.5 481,-1539.5 "/>
<text text-anchor="middle" x="402.5" y="-1528.3" font-family="Verdana" font-size="9.00" fill="#555555">+ ProductID</text>
<polyline fill="none" stroke="#555555" points="324,-1521.5 481,-1521.5 "/>
<text text-anchor="middle" x="402.5" y="-1510.3" font-family="Verdana" font-size="9.00" fill="#555555">StartDate</text>
<polyline fill="none" stroke="#555555" points="324,-1503.5 481,-1503.5 "/>
<text text-anchor="middle" x="402.5" y="-1492.3" font-family="Verdana" font-size="9.00" fill="#555555">EndDate</text>
<polyline fill="none" stroke="#555555" points="324,-1485.5 481,-1485.5 "/>
<text text-anchor="middle" x="402.5" y="-1474.3" font-family="Verdana" font-size="9.00" fill="#555555">ListPrice</text>
<polyline fill="none" stroke="#555555" points="324,-1467.5 481,-1467.5 "/>
<text text-anchor="middle" x="402.5" y="-1456.3" font-family="Verdana" font-size="9.00" fill="#555555">ModifiedDate</text>
</g>
<!-- struct1&#45;&gt;struct5 -->
<g id="edge14" class="edge"><title>struct1:c1717581157_1&#45;&gt;struct5:c98099390_1</title>
<path fill="none" stroke="black" d="M306,-1339.5C344.636,-1339.5 293.014,-1496.37 314.726,-1525.78"/>
<polygon fill="black" stroke="black" points="313.5,-1529.08 324,-1530.5 316.676,-1522.84 313.5,-1529.08"/>
</g>
<!-- struct7 -->
<g id="node8" class="node"><title>struct7</title>
<polygon fill="#f7f7f9" stroke="#555555" points="328,-1340.5 328,-1430.5 477,-1430.5 477,-1340.5 328,-1340.5"/>
<text text-anchor="middle" x="402.5" y="-1419.3" font-family="Verdana" font-size="9.00" fill="#555555">Table: ProductProductPhoto</text>
<polyline fill="none" stroke="#555555" points="328,-1412.5 477,-1412.5 "/>
<text text-anchor="middle" x="402.5" y="-1401.3" font-family="Verdana" font-size="9.00" fill="#555555">+ ProductID</text>
<polyline fill="none" stroke="#555555" points="328,-1394.5 477,-1394.5 "/>
<text text-anchor="middle" x="402.5" y="-1383.3" font-family="Verdana" font-size="9.00" fill="#555555">+ ProductPhotoID</text>
<polyline fill="none" stroke="#555555" points="328,-1376.5 477,-1376.5 "/>
<text text-anchor="middle" x="402.5" y="-1365.3" font-family="Verdana" font-size="9.00" fill="#555555">Primary</text>
<polyline fill="none" stroke="#555555" points="328,-1358.5 477,-1358.5 "/>
<text text-anchor="middle" x="402.5" y="-1347.3" font-family="Verdana" font-size="9.00" fill="#555555">ModifiedDate</text>
</g>
<!-- struct1&#45;&gt;struct7 -->
<g id="edge8" class="edge"><title>struct1:c1717581157_1&#45;&gt;struct7:c306100131_1</title>
<path fill="none" stroke="black" d="M306,-1339.5C331.201,-1339.5 307.206,-1385.06 317.033,-1399.3"/>
<polygon fill="black" stroke="black" points="315.94,-1402.64 326.5,-1403.5 318.778,-1396.25 315.94,-1402.64"/>
</g>
<!-- struct8 -->
<g id="node9" class="node"><title>struct8</title>
<polygon fill="#f7f7f9" stroke="#555555" points="343,-1159.5 343,-1321.5 462,-1321.5 462,-1159.5 343,-1159.5"/>
<text text-anchor="middle" x="402.5" y="-1310.3" font-family="Verdana" font-size="9.00" fill="#555555">Table: ProductReview</text>
<polyline fill="none" stroke="#555555" points="343,-1303.5 462,-1303.5 "/>
<text text-anchor="middle" x="402.5" y="-1292.3" font-family="Verdana" font-size="9.00" fill="#555555">ProductReviewID</text>
<polyline fill="none" stroke="#555555" points="343,-1285.5 462,-1285.5 "/>
<text text-anchor="middle" x="402.5" y="-1274.3" font-family="Verdana" font-size="9.00" fill="#555555">+ ProductID</text>
<polyline fill="none" stroke="#555555" points="343,-1267.5 462,-1267.5 "/>
<text text-anchor="middle" x="402.5" y="-1256.3" font-family="Verdana" font-size="9.00" fill="#555555">ReviewerName</text>
<polyline fill="none" stroke="#555555" points="343,-1249.5 462,-1249.5 "/>
<text text-anchor="middle" x="402.5" y="-1238.3" font-family="Verdana" font-size="9.00" fill="#555555">ReviewDate</text>
<polyline fill="none" stroke="#555555" points="343,-1231.5 462,-1231.5 "/>
<text text-anchor="middle" x="402.5" y="-1220.3" font-family="Verdana" font-size="9.00" fill="#555555">EmailAddress</text>
<polyline fill="none" stroke="#555555" points="343,-1213.5 462,-1213.5 "/>
<text text-anchor="middle" x="402.5" y="-1202.3" font-family="Verdana" font-size="9.00" fill="#555555">Rating</text>
<polyline fill="none" stroke="#555555" points="343,-1195.5 462,-1195.5 "/>
<text text-anchor="middle" x="402.5" y="-1184.3" font-family="Verdana" font-size="9.00" fill="#555555">Comments</text>
<polyline fill="none" stroke="#555555" points="343,-1177.5 462,-1177.5 "/>
<text text-anchor="middle" x="402.5" y="-1166.3" font-family="Verdana" font-size="9.00" fill="#555555">ModifiedDate</text>
</g>
<!-- struct1&#45;&gt;struct8 -->
<g id="edge10" class="edge"><title>struct1:c1717581157_1&#45;&gt;struct8:c354100302_2</title>
<path fill="none" stroke="black" d="M306,-1339.5C333.871,-1339.5 315.93,-1292.12 331.633,-1279.54"/>
<polygon fill="black" stroke="black" points="332.973,-1282.79 341.5,-1276.5 330.913,-1276.1 332.973,-1282.79"/>
</g>
<!-- struct10 -->
<g id="node11" class="node"><title>struct10</title>
<polygon fill="#f7f7f9" stroke="#555555" points="343,-924.5 343,-1140.5 462,-1140.5 462,-924.5 343,-924.5"/>
<text text-anchor="middle" x="402.5" y="-1129.3" font-family="Verdana" font-size="9.00" fill="#555555">Table: ProductVendor</text>
<polyline fill="none" stroke="#555555" points="343,-1122.5 462,-1122.5 "/>
<text text-anchor="middle" x="402.5" y="-1111.3" font-family="Verdana" font-size="9.00" fill="#555555">+ ProductID</text>
<polyline fill="none" stroke="#555555" points="343,-1104.5 462,-1104.5 "/>
<text text-anchor="middle" x="402.5" y="-1093.3" font-family="Verdana" font-size="9.00" fill="#555555">+ BusinessEntityID</text>
<polyline fill="none" stroke="#555555" points="343,-1086.5 462,-1086.5 "/>
<text text-anchor="middle" x="402.5" y="-1075.3" font-family="Verdana" font-size="9.00" fill="#555555">AverageLeadTime</text>
<polyline fill="none" stroke="#555555" points="343,-1068.5 462,-1068.5 "/>
<text text-anchor="middle" x="402.5" y="-1057.3" font-family="Verdana" font-size="9.00" fill="#555555">StandardPrice</text>
<polyline fill="none" stroke="#555555" points="343,-1050.5 462,-1050.5 "/>
<text text-anchor="middle" x="402.5" y="-1039.3" font-family="Verdana" font-size="9.00" fill="#555555">LastReceiptCost</text>
<polyline fill="none" stroke="#555555" points="343,-1032.5 462,-1032.5 "/>
<text text-anchor="middle" x="402.5" y="-1021.3" font-family="Verdana" font-size="9.00" fill="#555555">LastReceiptDate</text>
<polyline fill="none" stroke="#555555" points="343,-1014.5 462,-1014.5 "/>
<text text-anchor="middle" x="402.5" y="-1003.3" font-family="Verdana" font-size="9.00" fill="#555555">MinOrderQty</text>
<polyline fill="none" stroke="#555555" points="343,-996.5 462,-996.5 "/>
<text text-anchor="middle" x="402.5" y="-985.3" font-family="Verdana" font-size="9.00" fill="#555555">MaxOrderQty</text>
<polyline fill="none" stroke="#555555" points="343,-978.5 462,-978.5 "/>
<text text-anchor="middle" x="402.5" y="-967.3" font-family="Verdana" font-size="9.00" fill="#555555">OnOrderQty</text>
<polyline fill="none" stroke="#555555" points="343,-960.5 462,-960.5 "/>
<text text-anchor="middle" x="402.5" y="-949.3" font-family="Verdana" font-size="9.00" fill="#555555">+ UnitMeasureCode</text>
<polyline fill="none" stroke="#555555" points="343,-942.5 462,-942.5 "/>
<text text-anchor="middle" x="402.5" y="-931.3" font-family="Verdana" font-size="9.00" fill="#555555">ModifiedDate</text>
</g>
<!-- struct1&#45;&gt;struct10 -->
<g id="edge11" class="edge"><title>struct1:c1717581157_1&#45;&gt;struct10:c466100701_1</title>
<path fill="none" stroke="black" d="M306,-1339.5C327.095,-1339.5 318.406,-1170.84 324,-1150.5 327.618,-1137.35 325.42,-1123.11 331.77,-1116.81"/>
<polygon fill="black" stroke="black" points="333.163,-1120.04 341.5,-1113.5 330.906,-1113.41 333.163,-1120.04"/>
</g>
<!-- struct11 -->
<g id="node12" class="node"><title>struct11</title>
<polygon fill="#f7f7f9" stroke="#555555" points="329.5,-689.5 329.5,-905.5 475.5,-905.5 475.5,-689.5 329.5,-689.5"/>
<text text-anchor="middle" x="402.5" y="-894.3" font-family="Verdana" font-size="9.00" fill="#555555">Table: PurchaseOrderDetail</text>
<polyline fill="none" stroke="#555555" points="329.5,-887.5 475.5,-887.5 "/>
<text text-anchor="middle" x="402.5" y="-876.3" font-family="Verdana" font-size="9.00" fill="#555555">+ PurchaseOrderID</text>
<polyline fill="none" stroke="#555555" points="329.5,-869.5 475.5,-869.5 "/>
<text text-anchor="middle" x="402.5" y="-858.3" font-family="Verdana" font-size="9.00" fill="#555555">PurchaseOrderDetailID</text>
<polyline fill="none" stroke="#555555" points="329.5,-851.5 475.5,-851.5 "/>
<text text-anchor="middle" x="402.5" y="-840.3" font-family="Verdana" font-size="9.00" fill="#555555">DueDate</text>
<polyline fill="none" stroke="#555555" points="329.5,-833.5 475.5,-833.5 "/>
<text text-anchor="middle" x="402.5" y="-822.3" font-family="Verdana" font-size="9.00" fill="#555555">OrderQty</text>
<polyline fill="none" stroke="#555555" points="329.5,-815.5 475.5,-815.5 "/>
<text text-anchor="middle" x="402.5" y="-804.3" font-family="Verdana" font-size="9.00" fill="#555555">+ ProductID</text>
<polyline fill="none" stroke="#555555" points="329.5,-797.5 475.5,-797.5 "/>
<text text-anchor="middle" x="402.5" y="-786.3" font-family="Verdana" font-size="9.00" fill="#555555">UnitPrice</text>
<polyline fill="none" stroke="#555555" points="329.5,-779.5 475.5,-779.5 "/>
<text text-anchor="middle" x="402.5" y="-768.3" font-family="Verdana" font-size="9.00" fill="#555555">LineTotal</text>
<polyline fill="none" stroke="#555555" points="329.5,-761.5 475.5,-761.5 "/>
<text text-anchor="middle" x="402.5" y="-750.3" font-family="Verdana" font-size="9.00" fill="#555555">ReceivedQty</text>
<polyline fill="none" stroke="#555555" points="329.5,-743.5 475.5,-743.5 "/>
<text text-anchor="middle" x="402.5" y="-732.3" font-family="Verdana" font-size="9.00" fill="#555555">RejectedQty</text>
<polyline fill="none" stroke="#555555" points="329.5,-725.5 475.5,-725.5 "/>
<text text-anchor="middle" x="402.5" y="-714.3" font-family="Verdana" font-size="9.00" fill="#555555">StockedQty</text>
<polyline fill="none" stroke="#555555" points="329.5,-707.5 475.5,-707.5 "/>
<text text-anchor="middle" x="402.5" y="-696.3" font-family="Verdana" font-size="9.00" fill="#555555">ModifiedDate</text>
</g>
<!-- struct1&#45;&gt;struct11 -->
<g id="edge13" class="edge"><title>struct1:c1717581157_1&#45;&gt;struct11:c594101157_5</title>
<path fill="none" stroke="black" d="M306,-1339.5C333.438,-1339.5 303.955,-882.681 322.944,-814.872"/>
<polygon fill="black" stroke="black" points="325.887,-816.768 328.5,-806.5 320.054,-812.897 325.887,-816.768"/>
</g>
<!-- struct12 -->
<g id="node13" class="node"><title>struct12</title>
<polygon fill="#f7f7f9" stroke="#555555" points="335,-544.5 335,-670.5 470,-670.5 470,-544.5 335,-544.5"/>
<text text-anchor="middle" x="402.5" y="-659.3" font-family="Verdana" font-size="9.00" fill="#555555">Table: ShoppingCartItem</text>
<polyline fill="none" stroke="#555555" points="335,-652.5 470,-652.5 "/>
<text text-anchor="middle" x="402.5" y="-641.3" font-family="Verdana" font-size="9.00" fill="#555555">ShoppingCartItemID</text>
<polyline fill="none" stroke="#555555" points="335,-634.5 470,-634.5 "/>
<text text-anchor="middle" x="402.5" y="-623.3" font-family="Verdana" font-size="9.00" fill="#555555">ShoppingCartID</text>
<polyline fill="none" stroke="#555555" points="335,-616.5 470,-616.5 "/>
<text text-anchor="middle" x="402.5" y="-605.3" font-family="Verdana" font-size="9.00" fill="#555555">Quantity</text>
<polyline fill="none" stroke="#555555" points="335,-598.5 470,-598.5 "/>
<text text-anchor="middle" x="402.5" y="-587.3" font-family="Verdana" font-size="9.00" fill="#555555">+ ProductID</text>
<polyline fill="none" stroke="#555555" points="335,-580.5 470,-580.5 "/>
<text text-anchor="middle" x="402.5" y="-569.3" font-family="Verdana" font-size="9.00" fill="#555555">DateCreated</text>
<polyline fill="none" stroke="#555555" points="335,-562.5 470,-562.5 "/>
<text text-anchor="middle" x="402.5" y="-551.3" font-family="Verdana" font-size="9.00" fill="#555555">ModifiedDate</text>
</g>
<!-- struct1&#45;&gt;struct12 -->
<g id="edge3" class="edge"><title>struct1:c1717581157_1&#45;&gt;struct12:c2082106458_4</title>
<path fill="none" stroke="black" d="M306,-1339.5C345.17,-1339.5 298.215,-677.571 326.956,-597.415"/>
<polygon fill="black" stroke="black" points="329.826,-599.437 333.5,-589.5 324.431,-594.977 329.826,-599.437"/>
</g>
<!-- struct13 -->
<g id="node14" class="node"><title>struct13</title>
<polygon fill="#f7f7f9" stroke="#555555" points="332,-435.5 332,-525.5 473,-525.5 473,-435.5 332,-435.5"/>
<text text-anchor="middle" x="402.5" y="-514.3" font-family="Verdana" font-size="9.00" fill="#555555">Table: SpecialOfferProduct</text>
<polyline fill="none" stroke="#555555" points="332,-507.5 473,-507.5 "/>
<text text-anchor="middle" x="402.5" y="-496.3" font-family="Verdana" font-size="9.00" fill="#555555">SpecialOfferID +</text>
<polyline fill="none" stroke="#555555" points="332,-489.5 473,-489.5 "/>
<text text-anchor="middle" x="402.5" y="-478.3" font-family="Verdana" font-size="9.00" fill="#555555">ProductID +</text>
<polyline fill="none" stroke="#555555" points="332,-471.5 473,-471.5 "/>
<text text-anchor="middle" x="402.5" y="-460.3" font-family="Verdana" font-size="9.00" fill="#555555">rowguid</text>
<polyline fill="none" stroke="#555555" points="332,-453.5 473,-453.5 "/>
<text text-anchor="middle" x="402.5" y="-442.3" font-family="Verdana" font-size="9.00" fill="#555555">ModifiedDate</text>
</g>
<!-- struct1&#45;&gt;struct13 -->
<g id="edge1" class="edge"><title>struct1:c1717581157_1&#45;&gt;struct13:c158623608_2</title>
<path fill="none" stroke="black" d="M306,-1339.5C351.131,-1339.5 290.167,-571.884 323.694,-487.926"/>
<polygon fill="black" stroke="black" points="326.324,-490.237 330.5,-480.5 321.163,-485.507 326.324,-490.237"/>
</g>
<!-- struct14 -->
<g id="node15" class="node"><title>struct14</title>
<polygon fill="#f7f7f9" stroke="#555555" points="334,-236.5 334,-416.5 471,-416.5 471,-236.5 334,-236.5"/>
<text text-anchor="middle" x="402.5" y="-405.3" font-family="Verdana" font-size="9.00" fill="#555555">Table: TransactionHistory</text>
<polyline fill="none" stroke="#555555" points="334,-398.5 471,-398.5 "/>
<text text-anchor="middle" x="402.5" y="-387.3" font-family="Verdana" font-size="9.00" fill="#555555">TransactionID</text>
<polyline fill="none" stroke="#555555" points="334,-380.5 471,-380.5 "/>
<text text-anchor="middle" x="402.5" y="-369.3" font-family="Verdana" font-size="9.00" fill="#555555">+ ProductID</text>
<polyline fill="none" stroke="#555555" points="334,-362.5 471,-362.5 "/>
<text text-anchor="middle" x="402.5" y="-351.3" font-family="Verdana" font-size="9.00" fill="#555555">ReferenceOrderID</text>
<polyline fill="none" stroke="#555555" points="334,-344.5 471,-344.5 "/>
<text text-anchor="middle" x="402.5" y="-333.3" font-family="Verdana" font-size="9.00" fill="#555555">ReferenceOrderLineID</text>
<polyline fill="none" stroke="#555555" points="334,-326.5 471,-326.5 "/>
<text text-anchor="middle" x="402.5" y="-315.3" font-family="Verdana" font-size="9.00" fill="#555555">TransactionDate</text>
<polyline fill="none" stroke="#555555" points="334,-308.5 471,-308.5 "/>
<text text-anchor="middle" x="402.5" y="-297.3" font-family="Verdana" font-size="9.00" fill="#555555">TransactionType</text>
<polyline fill="none" stroke="#555555" points="334,-290.5 471,-290.5 "/>
<text text-anchor="middle" x="402.5" y="-279.3" font-family="Verdana" font-size="9.00" fill="#555555">Quantity</text>
<polyline fill="none" stroke="#555555" points="334,-272.5 471,-272.5 "/>
<text text-anchor="middle" x="402.5" y="-261.3" font-family="Verdana" font-size="9.00" fill="#555555">ActualCost</text>
<polyline fill="none" stroke="#555555" points="334,-254.5 471,-254.5 "/>
<text text-anchor="middle" x="402.5" y="-243.3" font-family="Verdana" font-size="9.00" fill="#555555">ModifiedDate</text>
</g>
<!-- struct1&#45;&gt;struct14 -->
<g id="edge9" class="edge"><title>struct1:c1717581157_1&#45;&gt;struct14:c318624178_2</title>
<path fill="none" stroke="black" d="M306,-1339.5C331.349,-1339.5 308.567,-479.833 328.369,-380.77"/>
<polygon fill="black" stroke="black" points="331.627,-382.059 332.5,-371.5 325.233,-379.21 331.627,-382.059"/>
</g>
<!-- struct16 -->
<g id="node17" class="node"><title>struct16</title>
<polygon fill="#f7f7f9" stroke="#555555" points="352,-19.5 352,-217.5 453,-217.5 453,-19.5 352,-19.5"/>
<text text-anchor="middle" x="402.5" y="-206.3" font-family="Verdana" font-size="9.00" fill="#555555">Table: WorkOrder</text>
<polyline fill="none" stroke="#555555" points="352,-199.5 453,-199.5 "/>
<text text-anchor="middle" x="402.5" y="-188.3" font-family="Verdana" font-size="9.00" fill="#555555">WorkOrderID +</text>
<polyline fill="none" stroke="#555555" points="352,-181.5 453,-181.5 "/>
<text text-anchor="middle" x="402.5" y="-170.3" font-family="Verdana" font-size="9.00" fill="#555555">+ ProductID</text>
<polyline fill="none" stroke="#555555" points="352,-163.5 453,-163.5 "/>
<text text-anchor="middle" x="402.5" y="-152.3" font-family="Verdana" font-size="9.00" fill="#555555">OrderQty</text>
<polyline fill="none" stroke="#555555" points="352,-145.5 453,-145.5 "/>
<text text-anchor="middle" x="402.5" y="-134.3" font-family="Verdana" font-size="9.00" fill="#555555">StockedQty</text>
<polyline fill="none" stroke="#555555" points="352,-127.5 453,-127.5 "/>
<text text-anchor="middle" x="402.5" y="-116.3" font-family="Verdana" font-size="9.00" fill="#555555">ScrappedQty</text>
<polyline fill="none" stroke="#555555" points="352,-109.5 453,-109.5 "/>
<text text-anchor="middle" x="402.5" y="-98.3" font-family="Verdana" font-size="9.00" fill="#555555">StartDate</text>
<polyline fill="none" stroke="#555555" points="352,-91.5 453,-91.5 "/>
<text text-anchor="middle" x="402.5" y="-80.3" font-family="Verdana" font-size="9.00" fill="#555555">EndDate</text>
<polyline fill="none" stroke="#555555" points="352,-73.5 453,-73.5 "/>
<text text-anchor="middle" x="402.5" y="-62.3" font-family="Verdana" font-size="9.00" fill="#555555">DueDate</text>
<polyline fill="none" stroke="#555555" points="352,-55.5 453,-55.5 "/>
<text text-anchor="middle" x="402.5" y="-44.3" font-family="Verdana" font-size="9.00" fill="#555555">+ ScrapReasonID</text>
<polyline fill="none" stroke="#555555" points="352,-37.5 453,-37.5 "/>
<text text-anchor="middle" x="402.5" y="-26.3" font-family="Verdana" font-size="9.00" fill="#555555">ModifiedDate</text>
</g>
<!-- struct1&#45;&gt;struct16 -->
<g id="edge12" class="edge"><title>struct1:c1717581157_1&#45;&gt;struct16:c590625147_2</title>
<path fill="none" stroke="black" d="M306,-1339.5C336.921,-1339.5 316.764,-256.562 324,-226.5 329.327,-204.366 325.412,-180.77 340.641,-174.253"/>
<polygon fill="black" stroke="black" points="341.267,-177.697 350.5,-172.5 340.042,-170.805 341.267,-177.697"/>
</g>
<!-- struct6 -->
<g id="node7" class="node"><title>struct6</title>
<polygon fill="#f7f7f9" stroke="#555555" points="15.5,-798.5 15.5,-924.5 128.5,-924.5 128.5,-798.5 15.5,-798.5"/>
<text text-anchor="middle" x="72" y="-913.3" font-family="Verdana" font-size="9.00" fill="#555555">Table: ProductModel</text>
<polyline fill="none" stroke="#555555" points="15.5,-906.5 128.5,-906.5 "/>
<text text-anchor="middle" x="72" y="-895.3" font-family="Verdana" font-size="9.00" fill="#555555">ProductModelID +</text>
<polyline fill="none" stroke="#555555" points="15.5,-888.5 128.5,-888.5 "/>
<text text-anchor="middle" x="72" y="-877.3" font-family="Verdana" font-size="9.00" fill="#555555">Name</text>
<polyline fill="none" stroke="#555555" points="15.5,-870.5 128.5,-870.5 "/>
<text text-anchor="middle" x="72" y="-859.3" font-family="Verdana" font-size="9.00" fill="#555555">CatalogDescription</text>
<polyline fill="none" stroke="#555555" points="15.5,-852.5 128.5,-852.5 "/>
<text text-anchor="middle" x="72" y="-841.3" font-family="Verdana" font-size="9.00" fill="#555555">Instructions</text>
<polyline fill="none" stroke="#555555" points="15.5,-834.5 128.5,-834.5 "/>
<text text-anchor="middle" x="72" y="-823.3" font-family="Verdana" font-size="9.00" fill="#555555">rowguid</text>
<polyline fill="none" stroke="#555555" points="15.5,-816.5 128.5,-816.5 "/>
<text text-anchor="middle" x="72" y="-805.3" font-family="Verdana" font-size="9.00" fill="#555555">ModifiedDate</text>
</g>
<!-- struct6&#45;&gt;struct1 -->
<g id="edge18" class="edge"><title>struct6:c162099618_1&#45;&gt;struct1:c1717581157_20</title>
<path fill="none" stroke="#337ab7" d="M130,-897.5C149.869,-897.5 142.184,-970.016 153.873,-991.544"/>
<polygon fill="#337ab7" stroke="#337ab7" points="151.865,-994.412 162,-997.5 156.003,-988.766 151.865,-994.412"/>
</g>
<!-- struct9 -->
<g id="node10" class="node"><title>struct9</title>
<polygon fill="#f7f7f9" stroke="#555555" points="0,-943.5 0,-1051.5 144,-1051.5 144,-943.5 0,-943.5"/>
<text text-anchor="middle" x="72" y="-1040.3" font-family="Verdana" font-size="9.00" fill="#555555">Table: ProductSubcategory</text>
<polyline fill="none" stroke="#555555" points="0,-1033.5 144,-1033.5 "/>
<text text-anchor="middle" x="72" y="-1022.3" font-family="Verdana" font-size="9.00" fill="#555555">ProductSubcategoryID +</text>
<polyline fill="none" stroke="#555555" points="0,-1015.5 144,-1015.5 "/>
<text text-anchor="middle" x="72" y="-1004.3" font-family="Verdana" font-size="9.00" fill="#555555">+ ProductCategoryID</text>
<polyline fill="none" stroke="#555555" points="0,-997.5 144,-997.5 "/>
<text text-anchor="middle" x="72" y="-986.3" font-family="Verdana" font-size="9.00" fill="#555555">Name</text>
<polyline fill="none" stroke="#555555" points="0,-979.5 144,-979.5 "/>
<text text-anchor="middle" x="72" y="-968.3" font-family="Verdana" font-size="9.00" fill="#555555">rowguid</text>
<polyline fill="none" stroke="#555555" points="0,-961.5 144,-961.5 "/>
<text text-anchor="middle" x="72" y="-950.3" font-family="Verdana" font-size="9.00" fill="#555555">ModifiedDate</text>
</g>
<!-- struct9&#45;&gt;struct1 -->
<g id="edge17" class="edge"><title>struct9:c418100530_1&#45;&gt;struct1:c1717581157_19</title>
<path fill="none" stroke="#337ab7" d="M144,-1024.5C148.472,-1024.5 150.736,-1022.25 153,-1020"/>
<polygon fill="#337ab7" stroke="#337ab7" points="154.621,-1023.1 162,-1015.5 151.49,-1016.84 154.621,-1023.1"/>
</g>
<!-- struct15 -->
<g id="node16" class="node"><title>struct15</title>
<polygon fill="#f7f7f9" stroke="#555555" points="17,-1087.5 17,-1159.5 127,-1159.5 127,-1087.5 17,-1087.5"/>
<text text-anchor="middle" x="72" y="-1148.3" font-family="Verdana" font-size="9.00" fill="#555555">Table: UnitMeasure</text>
<polyline fill="none" stroke="#555555" points="17,-1141.5 127,-1141.5 "/>
<text text-anchor="middle" x="72" y="-1130.3" font-family="Verdana" font-size="9.00" fill="#555555">UnitMeasureCode +</text>
<polyline fill="none" stroke="#555555" points="17,-1123.5 127,-1123.5 "/>
<text text-anchor="middle" x="72" y="-1112.3" font-family="Verdana" font-size="9.00" fill="#555555">Name</text>
<polyline fill="none" stroke="#555555" points="17,-1105.5 127,-1105.5 "/>
<text text-anchor="middle" x="72" y="-1094.3" font-family="Verdana" font-size="9.00" fill="#555555">ModifiedDate</text>
</g>
<!-- struct15&#45;&gt;struct1 -->
<g id="edge15" class="edge"><title>struct15:c478624748_1&#45;&gt;struct1:c1717581157_12</title>
<path fill="none" stroke="#337ab7" d="M128,-1132.5C139.479,-1132.5 144.005,-1137.35 151.79,-1139.93"/>
<polygon fill="#337ab7" stroke="#337ab7" points="151.585,-1143.44 162,-1141.5 152.647,-1136.52 151.585,-1143.44"/>
</g>
<!-- struct15&#45;&gt;struct1 -->
<g id="edge16" class="edge"><title>struct15:c478624748_1&#45;&gt;struct1:c1717581157_13</title>
<path fill="none" stroke="#337ab7" d="M128,-1132.5C139.479,-1132.5 144.005,-1127.65 151.79,-1125.07"/>
<polygon fill="#337ab7" stroke="#337ab7" points="152.647,-1128.48 162,-1123.5 151.585,-1121.56 152.647,-1128.48"/>
</g>
</g>
</svg>
