<?xml version="1.0" encoding="UTF-8" standalone="no"?>
<!DOCTYPE svg PUBLIC "-//W3C//DTD SVG 1.1//EN"
 "http://www.w3.org/Graphics/SVG/1.1/DTD/svg11.dtd">
<!-- Generated by graphviz version 2.38.0 (20140413.2041)
 -->
<!-- Title: g Pages: 1 -->
<svg width="290pt" height="136pt"
 viewBox="0.00 0.00 290.00 136.00" xmlns="http://www.w3.org/2000/svg" xmlns:xlink="http://www.w3.org/1999/xlink">
<g id="graph0" class="graph" transform="scale(1 1) rotate(0) translate(4 132)">
<title>g</title>
<polygon fill="white" stroke="none" points="-4,4 -4,-132 286,-132 286,4 -4,4"/>
<text text-anchor="middle" x="141" y="-7" font-family="Verdana" font-size="10.00">Table: PhoneNumberType</text>
<!-- struct0 -->
<g id="node1" class="node"><title>struct0</title>
<polygon fill="none" stroke="#337ab7" points="156,-37.5 156,-127.5 282,-127.5 282,-37.5 156,-37.5"/>
<text text-anchor="middle" x="219" y="-116.3" font-family="Verdana" font-size="9.00" fill="#337ab7">Table: PersonPhone</text>
<polyline fill="none" stroke="#337ab7" points="156,-109.5 282,-109.5 "/>
<text text-anchor="middle" x="219" y="-98.3" font-family="Verdana" font-size="9.00" fill="#337ab7">+ BusinessEntityID</text>
<polyline fill="none" stroke="#337ab7" points="156,-91.5 282,-91.5 "/>
<text text-anchor="middle" x="219" y="-80.3" font-family="Verdana" font-size="9.00" fill="#337ab7">PhoneNumber</text>
<polyline fill="none" stroke="#337ab7" points="156,-73.5 282,-73.5 "/>
<text text-anchor="middle" x="219" y="-62.3" font-family="Verdana" font-size="9.00" fill="#337ab7">+ PhoneNumberTypeID</text>
<polyline fill="none" stroke="#337ab7" points="156,-55.5 282,-55.5 "/>
<text text-anchor="middle" x="219" y="-44.3" font-family="Verdana" font-size="9.00" fill="#337ab7">ModifiedDate</text>
</g>
<!-- struct1 -->
<g id="node2" class="node"><title>struct1</title>
<polygon fill="none" stroke="black" points="0,-19.5 0,-91.5 138,-91.5 138,-19.5 0,-19.5"/>
<text text-anchor="middle" x="69" y="-80.3" font-family="Verdana" font-size="9.00">Table: PhoneNumberType</text>
<polyline fill="none" stroke="black" points="0,-73.5 138,-73.5 "/>
<text text-anchor="middle" x="69" y="-62.3" font-family="Verdana" font-size="9.00">PhoneNumberTypeID +</text>
<polyline fill="none" stroke="black" points="0,-55.5 138,-55.5 "/>
<text text-anchor="middle" x="69" y="-44.3" font-family="Verdana" font-size="9.00">Name</text>
<polyline fill="none" stroke="black" points="0,-37.5 138,-37.5 "/>
<text text-anchor="middle" x="69" y="-26.3" font-family="Verdana" font-size="9.00">ModifiedDate</text>
</g>
<!-- struct1&#45;&gt;struct0 -->
<g id="edge1" class="edge"><title>struct1:c1685581043_1&#45;&gt;struct0:c1653580929_3</title>
<path fill="none" stroke="black" d="M138,-64.5C141.25,-64.5 143.51,-64.5 145.584,-64.5"/>
<polygon fill="black" stroke="black" points="146,-68.0001 156,-64.5 146,-61.0001 146,-68.0001"/>
</g>
</g>
</svg>
