<?xml version="1.0" encoding="UTF-8" standalone="no"?>
<!DOCTYPE svg PUBLIC "-//W3C//DTD SVG 1.1//EN"
 "http://www.w3.org/Graphics/SVG/1.1/DTD/svg11.dtd">
<!-- Generated by graphviz version 2.38.0 (20140413.2041)
 -->
<!-- Title: g Pages: 1 -->
<svg width="308pt" height="191pt"
 viewBox="0.00 0.00 308.00 191.00" xmlns="http://www.w3.org/2000/svg" xmlns:xlink="http://www.w3.org/1999/xlink">
<g id="graph0" class="graph" transform="scale(1 1) rotate(0) translate(4 187)">
<title>g</title>
<polygon fill="white" stroke="none" points="-4,4 -4,-187 304,-187 304,4 -4,4"/>
<text text-anchor="middle" x="150" y="-7" font-family="Verdana" font-size="10.00">Table: CountryRegionCurrency</text>
<!-- struct0 -->
<g id="node1" class="node"><title>struct0</title>
<polygon fill="#f7f7f9" stroke="#555555" points="0,-110.5 0,-182.5 121,-182.5 121,-110.5 0,-110.5"/>
<text text-anchor="middle" x="60.5" y="-171.3" font-family="Verdana" font-size="9.00" fill="#555555">Table: CountryRegion</text>
<polyline fill="none" stroke="#555555" points="0,-164.5 121,-164.5 "/>
<text text-anchor="middle" x="60.5" y="-153.3" font-family="Verdana" font-size="9.00" fill="#555555">CountryRegionCode +</text>
<polyline fill="none" stroke="#555555" points="0,-146.5 121,-146.5 "/>
<text text-anchor="middle" x="60.5" y="-135.3" font-family="Verdana" font-size="9.00" fill="#555555">Name</text>
<polyline fill="none" stroke="#555555" points="0,-128.5 121,-128.5 "/>
<text text-anchor="middle" x="60.5" y="-117.3" font-family="Verdana" font-size="9.00" fill="#555555">ModifiedDate</text>
</g>
<!-- struct1 -->
<g id="node2" class="node"><title>struct1</title>
<polygon fill="#d9edf7" stroke="#1b809e" points="139,-73.5 139,-145.5 300,-145.5 300,-73.5 139,-73.5"/>
<text text-anchor="middle" x="219.5" y="-134.3" font-family="Verdana" font-size="9.00" fill="#1b809e">Table: CountryRegionCurrency</text>
<polyline fill="none" stroke="#1b809e" points="139,-127.5 300,-127.5 "/>
<text text-anchor="middle" x="219.5" y="-116.3" font-family="Verdana" font-size="9.00" fill="#1b809e">+ CountryRegionCode</text>
<polyline fill="none" stroke="#1b809e" points="139,-109.5 300,-109.5 "/>
<text text-anchor="middle" x="219.5" y="-98.3" font-family="Verdana" font-size="9.00" fill="#1b809e">+ CurrencyCode</text>
<polyline fill="none" stroke="#1b809e" points="139,-91.5 300,-91.5 "/>
<text text-anchor="middle" x="219.5" y="-80.3" font-family="Verdana" font-size="9.00" fill="#1b809e">ModifiedDate</text>
</g>
<!-- struct0&#45;&gt;struct1 -->
<g id="edge1" class="edge"><title>struct0:c549576996_1&#45;&gt;struct1:c517576882_1</title>
<path fill="none" stroke="#337ab7" d="M121,-155.5C134.572,-155.5 127.84,-135.119 130.943,-124.61"/>
<polygon fill="#337ab7" stroke="#337ab7" points="133.147,-127.331 139,-118.5 128.917,-121.754 133.147,-127.331"/>
</g>
<!-- struct2 -->
<g id="node3" class="node"><title>struct2</title>
<polygon fill="#f7f7f9" stroke="#555555" points="14,-19.5 14,-91.5 107,-91.5 107,-19.5 14,-19.5"/>
<text text-anchor="middle" x="60.5" y="-80.3" font-family="Verdana" font-size="9.00" fill="#555555">Table: Currency</text>
<polyline fill="none" stroke="#555555" points="14,-73.5 107,-73.5 "/>
<text text-anchor="middle" x="60.5" y="-62.3" font-family="Verdana" font-size="9.00" fill="#555555">CurrencyCode +</text>
<polyline fill="none" stroke="#555555" points="14,-55.5 107,-55.5 "/>
<text text-anchor="middle" x="60.5" y="-44.3" font-family="Verdana" font-size="9.00" fill="#555555">Name</text>
<polyline fill="none" stroke="#555555" points="14,-37.5 107,-37.5 "/>
<text text-anchor="middle" x="60.5" y="-26.3" font-family="Verdana" font-size="9.00" fill="#555555">ModifiedDate</text>
</g>
<!-- struct2&#45;&gt;struct1 -->
<g id="edge2" class="edge"><title>struct2:c645577338_1&#45;&gt;struct1:c517576882_2</title>
<path fill="none" stroke="#337ab7" d="M108.5,-64.5C125.211,-64.5 121.34,-87.3604 129.69,-96.6474"/>
<polygon fill="#337ab7" stroke="#337ab7" points="128.422,-99.9104 139,-100.5 131.098,-93.4423 128.422,-99.9104"/>
</g>
</g>
</svg>
