<?xml version="1.0" encoding="UTF-8" standalone="no"?>
<!DOCTYPE svg PUBLIC "-//W3C//DTD SVG 1.1//EN"
 "http://www.w3.org/Graphics/SVG/1.1/DTD/svg11.dtd">
<!-- Generated by graphviz version 2.38.0 (20140413.2041)
 -->
<!-- Title: g Pages: 1 -->
<svg width="298pt" height="136pt"
 viewBox="0.00 0.00 298.00 136.00" xmlns="http://www.w3.org/2000/svg" xmlns:xlink="http://www.w3.org/1999/xlink">
<g id="graph0" class="graph" transform="scale(1 1) rotate(0) translate(4 132)">
<title>g</title>
<polygon fill="white" stroke="none" points="-4,4 -4,-132 294,-132 294,4 -4,4"/>
<text text-anchor="middle" x="145" y="-7" font-family="Verdana" font-size="10.00">Table: ProductCategory</text>
<!-- struct0 -->
<g id="node1" class="node"><title>struct0</title>
<polygon fill="#d9edf7" stroke="#1b809e" points="0,-19.5 0,-109.5 128,-109.5 128,-19.5 0,-19.5"/>
<text text-anchor="middle" x="64" y="-98.3" font-family="Verdana" font-size="9.00" fill="#1b809e">Table: ProductCategory</text>
<polyline fill="none" stroke="#1b809e" points="0,-91.5 128,-91.5 "/>
<text text-anchor="middle" x="64" y="-80.3" font-family="Verdana" font-size="9.00" fill="#1b809e">ProductCategoryID +</text>
<polyline fill="none" stroke="#1b809e" points="0,-73.5 128,-73.5 "/>
<text text-anchor="middle" x="64" y="-62.3" font-family="Verdana" font-size="9.00" fill="#1b809e">Name</text>
<polyline fill="none" stroke="#1b809e" points="0,-55.5 128,-55.5 "/>
<text text-anchor="middle" x="64" y="-44.3" font-family="Verdana" font-size="9.00" fill="#1b809e">rowguid</text>
<polyline fill="none" stroke="#1b809e" points="0,-37.5 128,-37.5 "/>
<text text-anchor="middle" x="64" y="-26.3" font-family="Verdana" font-size="9.00" fill="#1b809e">ModifiedDate</text>
</g>
<!-- struct1 -->
<g id="node2" class="node"><title>struct1</title>
<polygon fill="#f7f7f9" stroke="#555555" points="146,-19.5 146,-127.5 290,-127.5 290,-19.5 146,-19.5"/>
<text text-anchor="middle" x="218" y="-116.3" font-family="Verdana" font-size="9.00" fill="#555555">Table: ProductSubcategory</text>
<polyline fill="none" stroke="#555555" points="146,-109.5 290,-109.5 "/>
<text text-anchor="middle" x="218" y="-98.3" font-family="Verdana" font-size="9.00" fill="#555555">ProductSubcategoryID +</text>
<polyline fill="none" stroke="#555555" points="146,-91.5 290,-91.5 "/>
<text text-anchor="middle" x="218" y="-80.3" font-family="Verdana" font-size="9.00" fill="#555555">+ ProductCategoryID</text>
<polyline fill="none" stroke="#555555" points="146,-73.5 290,-73.5 "/>
<text text-anchor="middle" x="218" y="-62.3" font-family="Verdana" font-size="9.00" fill="#555555">Name</text>
<polyline fill="none" stroke="#555555" points="146,-55.5 290,-55.5 "/>
<text text-anchor="middle" x="218" y="-44.3" font-family="Verdana" font-size="9.00" fill="#555555">rowguid</text>
<polyline fill="none" stroke="#555555" points="146,-37.5 290,-37.5 "/>
<text text-anchor="middle" x="218" y="-26.3" font-family="Verdana" font-size="9.00" fill="#555555">ModifiedDate</text>
</g>
<!-- struct0&#45;&gt;struct1 -->
<g id="edge1" class="edge"><title>struct0:c1957582012_1&#45;&gt;struct1:c418100530_2</title>
<path fill="none" stroke="black" d="M128,-82.5C131.25,-82.5 133.51,-82.5 135.584,-82.5"/>
<polygon fill="black" stroke="black" points="136,-86.0001 146,-82.5 136,-79.0001 136,-86.0001"/>
</g>
</g>
</svg>
