<?xml version="1.0" encoding="UTF-8" standalone="no"?>
<!DOCTYPE svg PUBLIC "-//W3C//DTD SVG 1.1//EN"
 "http://www.w3.org/Graphics/SVG/1.1/DTD/svg11.dtd">
<!-- Generated by graphviz version 2.38.0 (20140413.2041)
 -->
<!-- Title: g Pages: 1 -->
<svg width="245pt" height="352pt"
 viewBox="0.00 0.00 245.00 352.00" xmlns="http://www.w3.org/2000/svg" xmlns:xlink="http://www.w3.org/1999/xlink">
<g id="graph0" class="graph" transform="scale(1 1) rotate(0) translate(4 348)">
<title>g</title>
<polygon fill="white" stroke="none" points="-4,4 -4,-348 241,-348 241,4 -4,4"/>
<text text-anchor="middle" x="118.5" y="-7" font-family="Verdana" font-size="10.00">Table: JobCandidate</text>
<!-- struct0 -->
<g id="node1" class="node"><title>struct0</title>
<polygon fill="#f7f7f9" stroke="#555555" points="0,-19.5 0,-325.5 106,-325.5 106,-19.5 0,-19.5"/>
<text text-anchor="middle" x="53" y="-314.3" font-family="Verdana" font-size="9.00" fill="#555555">Table: Employee</text>
<polyline fill="none" stroke="#555555" points="0,-307.5 106,-307.5 "/>
<text text-anchor="middle" x="53" y="-296.3" font-family="Verdana" font-size="9.00" fill="#555555">BusinessEntityID +</text>
<polyline fill="none" stroke="#555555" points="0,-289.5 106,-289.5 "/>
<text text-anchor="middle" x="53" y="-278.3" font-family="Verdana" font-size="9.00" fill="#555555">NationalIDNumber</text>
<polyline fill="none" stroke="#555555" points="0,-271.5 106,-271.5 "/>
<text text-anchor="middle" x="53" y="-260.3" font-family="Verdana" font-size="9.00" fill="#555555">LoginID</text>
<polyline fill="none" stroke="#555555" points="0,-253.5 106,-253.5 "/>
<text text-anchor="middle" x="53" y="-242.3" font-family="Verdana" font-size="9.00" fill="#555555">OrganizationNode</text>
<polyline fill="none" stroke="#555555" points="0,-235.5 106,-235.5 "/>
<text text-anchor="middle" x="53" y="-224.3" font-family="Verdana" font-size="9.00" fill="#555555">OrganizationLevel</text>
<polyline fill="none" stroke="#555555" points="0,-217.5 106,-217.5 "/>
<text text-anchor="middle" x="53" y="-206.3" font-family="Verdana" font-size="9.00" fill="#555555">JobTitle</text>
<polyline fill="none" stroke="#555555" points="0,-199.5 106,-199.5 "/>
<text text-anchor="middle" x="53" y="-188.3" font-family="Verdana" font-size="9.00" fill="#555555">BirthDate</text>
<polyline fill="none" stroke="#555555" points="0,-181.5 106,-181.5 "/>
<text text-anchor="middle" x="53" y="-170.3" font-family="Verdana" font-size="9.00" fill="#555555">MaritalStatus</text>
<polyline fill="none" stroke="#555555" points="0,-163.5 106,-163.5 "/>
<text text-anchor="middle" x="53" y="-152.3" font-family="Verdana" font-size="9.00" fill="#555555">Gender</text>
<polyline fill="none" stroke="#555555" points="0,-145.5 106,-145.5 "/>
<text text-anchor="middle" x="53" y="-134.3" font-family="Verdana" font-size="9.00" fill="#555555">HireDate</text>
<polyline fill="none" stroke="#555555" points="0,-127.5 106,-127.5 "/>
<text text-anchor="middle" x="53" y="-116.3" font-family="Verdana" font-size="9.00" fill="#555555">SalariedFlag</text>
<polyline fill="none" stroke="#555555" points="0,-109.5 106,-109.5 "/>
<text text-anchor="middle" x="53" y="-98.3" font-family="Verdana" font-size="9.00" fill="#555555">VacationHours</text>
<polyline fill="none" stroke="#555555" points="0,-91.5 106,-91.5 "/>
<text text-anchor="middle" x="53" y="-80.3" font-family="Verdana" font-size="9.00" fill="#555555">SickLeaveHours</text>
<polyline fill="none" stroke="#555555" points="0,-73.5 106,-73.5 "/>
<text text-anchor="middle" x="53" y="-62.3" font-family="Verdana" font-size="9.00" fill="#555555">CurrentFlag</text>
<polyline fill="none" stroke="#555555" points="0,-55.5 106,-55.5 "/>
<text text-anchor="middle" x="53" y="-44.3" font-family="Verdana" font-size="9.00" fill="#555555">rowguid</text>
<polyline fill="none" stroke="#555555" points="0,-37.5 106,-37.5 "/>
<text text-anchor="middle" x="53" y="-26.3" font-family="Verdana" font-size="9.00" fill="#555555">ModifiedDate</text>
</g>
<!-- struct1 -->
<g id="node2" class="node"><title>struct1</title>
<polygon fill="#d9edf7" stroke="#1b809e" points="124,-253.5 124,-343.5 237,-343.5 237,-253.5 124,-253.5"/>
<text text-anchor="middle" x="180.5" y="-332.3" font-family="Verdana" font-size="9.00" fill="#1b809e">Table: JobCandidate</text>
<polyline fill="none" stroke="#1b809e" points="124,-325.5 237,-325.5 "/>
<text text-anchor="middle" x="180.5" y="-314.3" font-family="Verdana" font-size="9.00" fill="#1b809e">JobCandidateID</text>
<polyline fill="none" stroke="#1b809e" points="124,-307.5 237,-307.5 "/>
<text text-anchor="middle" x="180.5" y="-296.3" font-family="Verdana" font-size="9.00" fill="#1b809e">+ BusinessEntityID</text>
<polyline fill="none" stroke="#1b809e" points="124,-289.5 237,-289.5 "/>
<text text-anchor="middle" x="180.5" y="-278.3" font-family="Verdana" font-size="9.00" fill="#1b809e">Resume</text>
<polyline fill="none" stroke="#1b809e" points="124,-271.5 237,-271.5 "/>
<text text-anchor="middle" x="180.5" y="-260.3" font-family="Verdana" font-size="9.00" fill="#1b809e">ModifiedDate</text>
</g>
<!-- struct0&#45;&gt;struct1 -->
<g id="edge1" class="edge"><title>struct0:c981578535_1&#45;&gt;struct1:c1333579789_2</title>
<path fill="none" stroke="#337ab7" d="M106,-298.5C109.25,-298.5 111.51,-298.5 113.584,-298.5"/>
<polygon fill="#337ab7" stroke="#337ab7" points="114,-302 124,-298.5 114,-295 114,-302"/>
</g>
</g>
</svg>
