<?xml version="1.0" encoding="UTF-8" standalone="no"?>
<!DOCTYPE svg PUBLIC "-//W3C//DTD SVG 1.1//EN"
 "http://www.w3.org/Graphics/SVG/1.1/DTD/svg11.dtd">
<!-- Generated by graphviz version 2.38.0 (20140413.2041)
 -->
<!-- Title: g Pages: 1 -->
<svg width="272pt" height="244pt"
 viewBox="0.00 0.00 272.00 244.00" xmlns="http://www.w3.org/2000/svg" xmlns:xlink="http://www.w3.org/1999/xlink">
<g id="graph0" class="graph" transform="scale(1 1) rotate(0) translate(4 240)">
<title>g</title>
<polygon fill="white" stroke="none" points="-4,4 -4,-240 268,-240 268,4 -4,4"/>
<text text-anchor="middle" x="132" y="-7" font-family="Verdana" font-size="10.00">Table: SpecialOffer</text>
<!-- struct0 -->
<g id="node1" class="node"><title>struct0</title>
<polygon fill="#d9edf7" stroke="#1b809e" points="0,-19.5 0,-235.5 105,-235.5 105,-19.5 0,-19.5"/>
<text text-anchor="middle" x="52.5" y="-224.3" font-family="Verdana" font-size="9.00" fill="#1b809e">Table: SpecialOffer</text>
<polyline fill="none" stroke="#1b809e" points="0,-217.5 105,-217.5 "/>
<text text-anchor="middle" x="52.5" y="-206.3" font-family="Verdana" font-size="9.00" fill="#1b809e">SpecialOfferID +</text>
<polyline fill="none" stroke="#1b809e" points="0,-199.5 105,-199.5 "/>
<text text-anchor="middle" x="52.5" y="-188.3" font-family="Verdana" font-size="9.00" fill="#1b809e">Description</text>
<polyline fill="none" stroke="#1b809e" points="0,-181.5 105,-181.5 "/>
<text text-anchor="middle" x="52.5" y="-170.3" font-family="Verdana" font-size="9.00" fill="#1b809e">DiscountPct</text>
<polyline fill="none" stroke="#1b809e" points="0,-163.5 105,-163.5 "/>
<text text-anchor="middle" x="52.5" y="-152.3" font-family="Verdana" font-size="9.00" fill="#1b809e">Type</text>
<polyline fill="none" stroke="#1b809e" points="0,-145.5 105,-145.5 "/>
<text text-anchor="middle" x="52.5" y="-134.3" font-family="Verdana" font-size="9.00" fill="#1b809e">Category</text>
<polyline fill="none" stroke="#1b809e" points="0,-127.5 105,-127.5 "/>
<text text-anchor="middle" x="52.5" y="-116.3" font-family="Verdana" font-size="9.00" fill="#1b809e">StartDate</text>
<polyline fill="none" stroke="#1b809e" points="0,-109.5 105,-109.5 "/>
<text text-anchor="middle" x="52.5" y="-98.3" font-family="Verdana" font-size="9.00" fill="#1b809e">EndDate</text>
<polyline fill="none" stroke="#1b809e" points="0,-91.5 105,-91.5 "/>
<text text-anchor="middle" x="52.5" y="-80.3" font-family="Verdana" font-size="9.00" fill="#1b809e">MinQty</text>
<polyline fill="none" stroke="#1b809e" points="0,-73.5 105,-73.5 "/>
<text text-anchor="middle" x="52.5" y="-62.3" font-family="Verdana" font-size="9.00" fill="#1b809e">MaxQty</text>
<polyline fill="none" stroke="#1b809e" points="0,-55.5 105,-55.5 "/>
<text text-anchor="middle" x="52.5" y="-44.3" font-family="Verdana" font-size="9.00" fill="#1b809e">rowguid</text>
<polyline fill="none" stroke="#1b809e" points="0,-37.5 105,-37.5 "/>
<text text-anchor="middle" x="52.5" y="-26.3" font-family="Verdana" font-size="9.00" fill="#1b809e">ModifiedDate</text>
</g>
<!-- struct1 -->
<g id="node2" class="node"><title>struct1</title>
<polygon fill="#f7f7f9" stroke="#555555" points="123,-145.5 123,-235.5 264,-235.5 264,-145.5 123,-145.5"/>
<text text-anchor="middle" x="193.5" y="-224.3" font-family="Verdana" font-size="9.00" fill="#555555">Table: SpecialOfferProduct</text>
<polyline fill="none" stroke="#555555" points="123,-217.5 264,-217.5 "/>
<text text-anchor="middle" x="193.5" y="-206.3" font-family="Verdana" font-size="9.00" fill="#555555">SpecialOfferID +</text>
<polyline fill="none" stroke="#555555" points="123,-199.5 264,-199.5 "/>
<text text-anchor="middle" x="193.5" y="-188.3" font-family="Verdana" font-size="9.00" fill="#555555">ProductID +</text>
<polyline fill="none" stroke="#555555" points="123,-181.5 264,-181.5 "/>
<text text-anchor="middle" x="193.5" y="-170.3" font-family="Verdana" font-size="9.00" fill="#555555">rowguid</text>
<polyline fill="none" stroke="#555555" points="123,-163.5 264,-163.5 "/>
<text text-anchor="middle" x="193.5" y="-152.3" font-family="Verdana" font-size="9.00" fill="#555555">ModifiedDate</text>
</g>
<!-- struct0&#45;&gt;struct1 -->
<g id="edge1" class="edge"><title>struct0:c14623095_1&#45;&gt;struct1:c158623608_1</title>
<path fill="none" stroke="black" d="M105,-208.5C108.25,-208.5 110.51,-208.5 112.584,-208.5"/>
<polygon fill="black" stroke="black" points="113,-212 123,-208.5 113,-205 113,-212"/>
</g>
</g>
</svg>
