<?xml version="1.0" encoding="UTF-8" standalone="no"?>
<!DOCTYPE svg PUBLIC "-//W3C//DTD SVG 1.1//EN"
 "http://www.w3.org/Graphics/SVG/1.1/DTD/svg11.dtd">
<!-- Generated by graphviz version 2.38.0 (20140413.2041)
 -->
<!-- Title: g Pages: 1 -->
<svg width="363pt" height="307pt"
 viewBox="0.00 0.00 363.00 307.00" xmlns="http://www.w3.org/2000/svg" xmlns:xlink="http://www.w3.org/1999/xlink">
<g id="graph0" class="graph" transform="scale(1 1) rotate(0) translate(4 303)">
<title>g</title>
<polygon fill="white" stroke="none" points="-4,4 -4,-303 359,-303 359,4 -4,4"/>
<text text-anchor="middle" x="177.5" y="-7" font-family="Verdana" font-size="10.00">Table: Store</text>
<!-- struct0 -->
<g id="node1" class="node"><title>struct0</title>
<polygon fill="#f7f7f9" stroke="#555555" points="0,-218.5 0,-290.5 118,-290.5 118,-218.5 0,-218.5"/>
<text text-anchor="middle" x="59" y="-279.3" font-family="Verdana" font-size="9.00" fill="#555555">Table: BusinessEntity</text>
<polyline fill="none" stroke="#555555" points="0,-272.5 118,-272.5 "/>
<text text-anchor="middle" x="59" y="-261.3" font-family="Verdana" font-size="9.00" fill="#555555">BusinessEntityID +</text>
<polyline fill="none" stroke="#555555" points="0,-254.5 118,-254.5 "/>
<text text-anchor="middle" x="59" y="-243.3" font-family="Verdana" font-size="9.00" fill="#555555">rowguid</text>
<polyline fill="none" stroke="#555555" points="0,-236.5 118,-236.5 "/>
<text text-anchor="middle" x="59" y="-225.3" font-family="Verdana" font-size="9.00" fill="#555555">ModifiedDate</text>
</g>
<!-- struct3 -->
<g id="node4" class="node"><title>struct3</title>
<polygon fill="#d9edf7" stroke="#1b809e" points="136,-136.5 136,-262.5 242,-262.5 242,-136.5 136,-136.5"/>
<text text-anchor="middle" x="189" y="-251.3" font-family="Verdana" font-size="9.00" fill="#1b809e">Table: Store</text>
<polyline fill="none" stroke="#1b809e" points="136,-244.5 242,-244.5 "/>
<text text-anchor="middle" x="189" y="-233.3" font-family="Verdana" font-size="9.00" fill="#1b809e">BusinessEntityID +</text>
<polyline fill="none" stroke="#1b809e" points="136,-226.5 242,-226.5 "/>
<text text-anchor="middle" x="189" y="-215.3" font-family="Verdana" font-size="9.00" fill="#1b809e">Name</text>
<polyline fill="none" stroke="#1b809e" points="136,-208.5 242,-208.5 "/>
<text text-anchor="middle" x="189" y="-197.3" font-family="Verdana" font-size="9.00" fill="#1b809e">+ SalesPersonID</text>
<polyline fill="none" stroke="#1b809e" points="136,-190.5 242,-190.5 "/>
<text text-anchor="middle" x="189" y="-179.3" font-family="Verdana" font-size="9.00" fill="#1b809e">Demographics</text>
<polyline fill="none" stroke="#1b809e" points="136,-172.5 242,-172.5 "/>
<text text-anchor="middle" x="189" y="-161.3" font-family="Verdana" font-size="9.00" fill="#1b809e">rowguid</text>
<polyline fill="none" stroke="#1b809e" points="136,-154.5 242,-154.5 "/>
<text text-anchor="middle" x="189" y="-143.3" font-family="Verdana" font-size="9.00" fill="#1b809e">ModifiedDate</text>
</g>
<!-- struct0&#45;&gt;struct3 -->
<g id="edge2" class="edge"><title>struct0:c341576255_1&#45;&gt;struct3:c270624007_1</title>
<path fill="none" stroke="#337ab7" d="M118,-263.5C128.171,-263.5 125.872,-250.266 128.249,-241.994"/>
<polygon fill="#337ab7" stroke="#337ab7" points="130.583,-244.605 136,-235.5 126.087,-239.24 130.583,-244.605"/>
</g>
<!-- struct1 -->
<g id="node2" class="node"><title>struct1</title>
<polygon fill="#f7f7f9" stroke="#555555" points="260,-154.5 260,-298.5 355,-298.5 355,-154.5 260,-154.5"/>
<text text-anchor="middle" x="307.5" y="-287.3" font-family="Verdana" font-size="9.00" fill="#555555">Table: Customer</text>
<polyline fill="none" stroke="#555555" points="260,-280.5 355,-280.5 "/>
<text text-anchor="middle" x="307.5" y="-269.3" font-family="Verdana" font-size="9.00" fill="#555555">CustomerID +</text>
<polyline fill="none" stroke="#555555" points="260,-262.5 355,-262.5 "/>
<text text-anchor="middle" x="307.5" y="-251.3" font-family="Verdana" font-size="9.00" fill="#555555">+ PersonID</text>
<polyline fill="none" stroke="#555555" points="260,-244.5 355,-244.5 "/>
<text text-anchor="middle" x="307.5" y="-233.3" font-family="Verdana" font-size="9.00" fill="#555555">+ StoreID</text>
<polyline fill="none" stroke="#555555" points="260,-226.5 355,-226.5 "/>
<text text-anchor="middle" x="307.5" y="-215.3" font-family="Verdana" font-size="9.00" fill="#555555">+ TerritoryID</text>
<polyline fill="none" stroke="#555555" points="260,-208.5 355,-208.5 "/>
<text text-anchor="middle" x="307.5" y="-197.3" font-family="Verdana" font-size="9.00" fill="#555555">AccountNumber</text>
<polyline fill="none" stroke="#555555" points="260,-190.5 355,-190.5 "/>
<text text-anchor="middle" x="307.5" y="-179.3" font-family="Verdana" font-size="9.00" fill="#555555">rowguid</text>
<polyline fill="none" stroke="#555555" points="260,-172.5 355,-172.5 "/>
<text text-anchor="middle" x="307.5" y="-161.3" font-family="Verdana" font-size="9.00" fill="#555555">ModifiedDate</text>
</g>
<!-- struct2 -->
<g id="node3" class="node"><title>struct2</title>
<polygon fill="#f7f7f9" stroke="#555555" points="5.5,-19.5 5.5,-199.5 112.5,-199.5 112.5,-19.5 5.5,-19.5"/>
<text text-anchor="middle" x="59" y="-188.3" font-family="Verdana" font-size="9.00" fill="#555555">Table: SalesPerson</text>
<polyline fill="none" stroke="#555555" points="5.5,-181.5 112.5,-181.5 "/>
<text text-anchor="middle" x="59" y="-170.3" font-family="Verdana" font-size="9.00" fill="#555555">BusinessEntityID +</text>
<polyline fill="none" stroke="#555555" points="5.5,-163.5 112.5,-163.5 "/>
<text text-anchor="middle" x="59" y="-152.3" font-family="Verdana" font-size="9.00" fill="#555555">+ TerritoryID</text>
<polyline fill="none" stroke="#555555" points="5.5,-145.5 112.5,-145.5 "/>
<text text-anchor="middle" x="59" y="-134.3" font-family="Verdana" font-size="9.00" fill="#555555">SalesQuota</text>
<polyline fill="none" stroke="#555555" points="5.5,-127.5 112.5,-127.5 "/>
<text text-anchor="middle" x="59" y="-116.3" font-family="Verdana" font-size="9.00" fill="#555555">Bonus</text>
<polyline fill="none" stroke="#555555" points="5.5,-109.5 112.5,-109.5 "/>
<text text-anchor="middle" x="59" y="-98.3" font-family="Verdana" font-size="9.00" fill="#555555">CommissionPct</text>
<polyline fill="none" stroke="#555555" points="5.5,-91.5 112.5,-91.5 "/>
<text text-anchor="middle" x="59" y="-80.3" font-family="Verdana" font-size="9.00" fill="#555555">SalesYTD</text>
<polyline fill="none" stroke="#555555" points="5.5,-73.5 112.5,-73.5 "/>
<text text-anchor="middle" x="59" y="-62.3" font-family="Verdana" font-size="9.00" fill="#555555">SalesLastYear</text>
<polyline fill="none" stroke="#555555" points="5.5,-55.5 112.5,-55.5 "/>
<text text-anchor="middle" x="59" y="-44.3" font-family="Verdana" font-size="9.00" fill="#555555">rowguid</text>
<polyline fill="none" stroke="#555555" points="5.5,-37.5 112.5,-37.5 "/>
<text text-anchor="middle" x="59" y="-26.3" font-family="Verdana" font-size="9.00" fill="#555555">ModifiedDate</text>
</g>
<!-- struct2&#45;&gt;struct3 -->
<g id="edge3" class="edge"><title>struct2:c1298103665_1&#45;&gt;struct3:c270624007_3</title>
<path fill="none" stroke="#337ab7" d="M114,-172.5C125.005,-172.5 123.658,-186.147 127.522,-194.036"/>
<polygon fill="#337ab7" stroke="#337ab7" points="125.698,-197.025 136,-199.5 129.49,-191.141 125.698,-197.025"/>
</g>
<!-- struct3&#45;&gt;struct1 -->
<g id="edge1" class="edge"><title>struct3:c270624007_1&#45;&gt;struct1:c709577566_3</title>
<path fill="none" stroke="black" d="M242,-235.5C245.25,-235.5 247.51,-235.5 249.584,-235.5"/>
<polygon fill="black" stroke="black" points="250,-239 260,-235.5 250,-232 250,-239"/>
</g>
</g>
</svg>
