<?xml version="1.0" encoding="UTF-8" standalone="no"?>
<!DOCTYPE svg PUBLIC "-//W3C//DTD SVG 1.1//EN"
 "http://www.w3.org/Graphics/SVG/1.1/DTD/svg11.dtd">
<!-- Generated by graphviz version 2.38.0 (20140413.2041)
 -->
<!-- Title: g Pages: 1 -->
<svg width="284pt" height="785pt"
 viewBox="0.00 0.00 284.00 785.00" xmlns="http://www.w3.org/2000/svg" xmlns:xlink="http://www.w3.org/1999/xlink">
<g id="graph0" class="graph" transform="scale(1 1) rotate(0) translate(4 781)">
<title>g</title>
<polygon fill="white" stroke="none" points="-4,4 -4,-781 280,-781 280,4 -4,4"/>
<text text-anchor="middle" x="138" y="-7" font-family="Verdana" font-size="10.00">Table: ShipMethod</text>
<!-- struct0 -->
<g id="node1" class="node"><title>struct0</title>
<polygon fill="none" stroke="#337ab7" points="122,-524.5 122,-776.5 276,-776.5 276,-524.5 122,-524.5"/>
<text text-anchor="middle" x="199" y="-765.3" font-family="Verdana" font-size="9.00" fill="#337ab7">Table: PurchaseOrderHeader</text>
<polyline fill="none" stroke="#337ab7" points="122,-758.5 276,-758.5 "/>
<text text-anchor="middle" x="199" y="-747.3" font-family="Verdana" font-size="9.00" fill="#337ab7">PurchaseOrderID +</text>
<polyline fill="none" stroke="#337ab7" points="122,-740.5 276,-740.5 "/>
<text text-anchor="middle" x="199" y="-729.3" font-family="Verdana" font-size="9.00" fill="#337ab7">RevisionNumber</text>
<polyline fill="none" stroke="#337ab7" points="122,-722.5 276,-722.5 "/>
<text text-anchor="middle" x="199" y="-711.3" font-family="Verdana" font-size="9.00" fill="#337ab7">Status</text>
<polyline fill="none" stroke="#337ab7" points="122,-704.5 276,-704.5 "/>
<text text-anchor="middle" x="199" y="-693.3" font-family="Verdana" font-size="9.00" fill="#337ab7">+ EmployeeID</text>
<polyline fill="none" stroke="#337ab7" points="122,-686.5 276,-686.5 "/>
<text text-anchor="middle" x="199" y="-675.3" font-family="Verdana" font-size="9.00" fill="#337ab7">+ VendorID</text>
<polyline fill="none" stroke="#337ab7" points="122,-668.5 276,-668.5 "/>
<text text-anchor="middle" x="199" y="-657.3" font-family="Verdana" font-size="9.00" fill="#337ab7">+ ShipMethodID</text>
<polyline fill="none" stroke="#337ab7" points="122,-650.5 276,-650.5 "/>
<text text-anchor="middle" x="199" y="-639.3" font-family="Verdana" font-size="9.00" fill="#337ab7">OrderDate</text>
<polyline fill="none" stroke="#337ab7" points="122,-632.5 276,-632.5 "/>
<text text-anchor="middle" x="199" y="-621.3" font-family="Verdana" font-size="9.00" fill="#337ab7">ShipDate</text>
<polyline fill="none" stroke="#337ab7" points="122,-614.5 276,-614.5 "/>
<text text-anchor="middle" x="199" y="-603.3" font-family="Verdana" font-size="9.00" fill="#337ab7">SubTotal</text>
<polyline fill="none" stroke="#337ab7" points="122,-596.5 276,-596.5 "/>
<text text-anchor="middle" x="199" y="-585.3" font-family="Verdana" font-size="9.00" fill="#337ab7">TaxAmt</text>
<polyline fill="none" stroke="#337ab7" points="122,-578.5 276,-578.5 "/>
<text text-anchor="middle" x="199" y="-567.3" font-family="Verdana" font-size="9.00" fill="#337ab7">Freight</text>
<polyline fill="none" stroke="#337ab7" points="122,-560.5 276,-560.5 "/>
<text text-anchor="middle" x="199" y="-549.3" font-family="Verdana" font-size="9.00" fill="#337ab7">TotalDue</text>
<polyline fill="none" stroke="#337ab7" points="122,-542.5 276,-542.5 "/>
<text text-anchor="middle" x="199" y="-531.3" font-family="Verdana" font-size="9.00" fill="#337ab7">ModifiedDate</text>
</g>
<!-- struct1 -->
<g id="node2" class="node"><title>struct1</title>
<polygon fill="none" stroke="#337ab7" points="131,-19.5 131,-505.5 267,-505.5 267,-19.5 131,-19.5"/>
<text text-anchor="middle" x="199" y="-494.3" font-family="Verdana" font-size="9.00" fill="#337ab7">Table: SalesOrderHeader</text>
<polyline fill="none" stroke="#337ab7" points="131,-487.5 267,-487.5 "/>
<text text-anchor="middle" x="199" y="-476.3" font-family="Verdana" font-size="9.00" fill="#337ab7">SalesOrderID +</text>
<polyline fill="none" stroke="#337ab7" points="131,-469.5 267,-469.5 "/>
<text text-anchor="middle" x="199" y="-458.3" font-family="Verdana" font-size="9.00" fill="#337ab7">RevisionNumber</text>
<polyline fill="none" stroke="#337ab7" points="131,-451.5 267,-451.5 "/>
<text text-anchor="middle" x="199" y="-440.3" font-family="Verdana" font-size="9.00" fill="#337ab7">OrderDate</text>
<polyline fill="none" stroke="#337ab7" points="131,-433.5 267,-433.5 "/>
<text text-anchor="middle" x="199" y="-422.3" font-family="Verdana" font-size="9.00" fill="#337ab7">DueDate</text>
<polyline fill="none" stroke="#337ab7" points="131,-415.5 267,-415.5 "/>
<text text-anchor="middle" x="199" y="-404.3" font-family="Verdana" font-size="9.00" fill="#337ab7">ShipDate</text>
<polyline fill="none" stroke="#337ab7" points="131,-397.5 267,-397.5 "/>
<text text-anchor="middle" x="199" y="-386.3" font-family="Verdana" font-size="9.00" fill="#337ab7">Status</text>
<polyline fill="none" stroke="#337ab7" points="131,-379.5 267,-379.5 "/>
<text text-anchor="middle" x="199" y="-368.3" font-family="Verdana" font-size="9.00" fill="#337ab7">OnlineOrderFlag</text>
<polyline fill="none" stroke="#337ab7" points="131,-361.5 267,-361.5 "/>
<text text-anchor="middle" x="199" y="-350.3" font-family="Verdana" font-size="9.00" fill="#337ab7">SalesOrderNumber</text>
<polyline fill="none" stroke="#337ab7" points="131,-343.5 267,-343.5 "/>
<text text-anchor="middle" x="199" y="-332.3" font-family="Verdana" font-size="9.00" fill="#337ab7">PurchaseOrderNumber</text>
<polyline fill="none" stroke="#337ab7" points="131,-325.5 267,-325.5 "/>
<text text-anchor="middle" x="199" y="-314.3" font-family="Verdana" font-size="9.00" fill="#337ab7">AccountNumber</text>
<polyline fill="none" stroke="#337ab7" points="131,-307.5 267,-307.5 "/>
<text text-anchor="middle" x="199" y="-296.3" font-family="Verdana" font-size="9.00" fill="#337ab7">+ CustomerID</text>
<polyline fill="none" stroke="#337ab7" points="131,-289.5 267,-289.5 "/>
<text text-anchor="middle" x="199" y="-278.3" font-family="Verdana" font-size="9.00" fill="#337ab7">+ SalesPersonID</text>
<polyline fill="none" stroke="#337ab7" points="131,-271.5 267,-271.5 "/>
<text text-anchor="middle" x="199" y="-260.3" font-family="Verdana" font-size="9.00" fill="#337ab7">+ TerritoryID</text>
<polyline fill="none" stroke="#337ab7" points="131,-253.5 267,-253.5 "/>
<text text-anchor="middle" x="199" y="-242.3" font-family="Verdana" font-size="9.00" fill="#337ab7">+ BillToAddressID</text>
<polyline fill="none" stroke="#337ab7" points="131,-235.5 267,-235.5 "/>
<text text-anchor="middle" x="199" y="-224.3" font-family="Verdana" font-size="9.00" fill="#337ab7">+ ShipToAddressID</text>
<polyline fill="none" stroke="#337ab7" points="131,-217.5 267,-217.5 "/>
<text text-anchor="middle" x="199" y="-206.3" font-family="Verdana" font-size="9.00" fill="#337ab7">+ ShipMethodID</text>
<polyline fill="none" stroke="#337ab7" points="131,-199.5 267,-199.5 "/>
<text text-anchor="middle" x="199" y="-188.3" font-family="Verdana" font-size="9.00" fill="#337ab7">+ CreditCardID</text>
<polyline fill="none" stroke="#337ab7" points="131,-181.5 267,-181.5 "/>
<text text-anchor="middle" x="199" y="-170.3" font-family="Verdana" font-size="9.00" fill="#337ab7">CreditCardApprovalCode</text>
<polyline fill="none" stroke="#337ab7" points="131,-163.5 267,-163.5 "/>
<text text-anchor="middle" x="199" y="-152.3" font-family="Verdana" font-size="9.00" fill="#337ab7">+ CurrencyRateID</text>
<polyline fill="none" stroke="#337ab7" points="131,-145.5 267,-145.5 "/>
<text text-anchor="middle" x="199" y="-134.3" font-family="Verdana" font-size="9.00" fill="#337ab7">SubTotal</text>
<polyline fill="none" stroke="#337ab7" points="131,-127.5 267,-127.5 "/>
<text text-anchor="middle" x="199" y="-116.3" font-family="Verdana" font-size="9.00" fill="#337ab7">TaxAmt</text>
<polyline fill="none" stroke="#337ab7" points="131,-109.5 267,-109.5 "/>
<text text-anchor="middle" x="199" y="-98.3" font-family="Verdana" font-size="9.00" fill="#337ab7">Freight</text>
<polyline fill="none" stroke="#337ab7" points="131,-91.5 267,-91.5 "/>
<text text-anchor="middle" x="199" y="-80.3" font-family="Verdana" font-size="9.00" fill="#337ab7">TotalDue</text>
<polyline fill="none" stroke="#337ab7" points="131,-73.5 267,-73.5 "/>
<text text-anchor="middle" x="199" y="-62.3" font-family="Verdana" font-size="9.00" fill="#337ab7">Comment</text>
<polyline fill="none" stroke="#337ab7" points="131,-55.5 267,-55.5 "/>
<text text-anchor="middle" x="199" y="-44.3" font-family="Verdana" font-size="9.00" fill="#337ab7">rowguid</text>
<polyline fill="none" stroke="#337ab7" points="131,-37.5 267,-37.5 "/>
<text text-anchor="middle" x="199" y="-26.3" font-family="Verdana" font-size="9.00" fill="#337ab7">ModifiedDate</text>
</g>
<!-- struct2 -->
<g id="node3" class="node"><title>struct2</title>
<polygon fill="none" stroke="black" points="0,-334.5 0,-460.5 104,-460.5 104,-334.5 0,-334.5"/>
<text text-anchor="middle" x="52" y="-449.3" font-family="Verdana" font-size="9.00">Table: ShipMethod</text>
<polyline fill="none" stroke="black" points="0,-442.5 104,-442.5 "/>
<text text-anchor="middle" x="52" y="-431.3" font-family="Verdana" font-size="9.00">ShipMethodID +</text>
<polyline fill="none" stroke="black" points="0,-424.5 104,-424.5 "/>
<text text-anchor="middle" x="52" y="-413.3" font-family="Verdana" font-size="9.00">Name</text>
<polyline fill="none" stroke="black" points="0,-406.5 104,-406.5 "/>
<text text-anchor="middle" x="52" y="-395.3" font-family="Verdana" font-size="9.00">ShipBase</text>
<polyline fill="none" stroke="black" points="0,-388.5 104,-388.5 "/>
<text text-anchor="middle" x="52" y="-377.3" font-family="Verdana" font-size="9.00">ShipRate</text>
<polyline fill="none" stroke="black" points="0,-370.5 104,-370.5 "/>
<text text-anchor="middle" x="52" y="-359.3" font-family="Verdana" font-size="9.00">rowguid</text>
<polyline fill="none" stroke="black" points="0,-352.5 104,-352.5 "/>
<text text-anchor="middle" x="52" y="-341.3" font-family="Verdana" font-size="9.00">ModifiedDate</text>
</g>
<!-- struct2&#45;&gt;struct0 -->
<g id="edge2" class="edge"><title>struct2:c1970106059_1&#45;&gt;struct0:c690101499_6</title>
<path fill="none" stroke="black" d="M104,-433.5C150.445,-433.5 83.7377,-625.567 112.503,-655.577"/>
<polygon fill="black" stroke="black" points="111.421,-658.917 122,-659.5 114.094,-652.447 111.421,-658.917"/>
</g>
<!-- struct2&#45;&gt;struct1 -->
<g id="edge1" class="edge"><title>struct2:c1970106059_1&#45;&gt;struct1:c1010102639_16</title>
<path fill="none" stroke="black" d="M104,-433.5C200.93,-433.5 41.9673,-224.889 119.905,-209.407"/>
<polygon fill="black" stroke="black" points="120.353,-212.88 130,-208.5 119.727,-205.909 120.353,-212.88"/>
</g>
</g>
</svg>
