<?xml version="1.0" encoding="UTF-8" standalone="no"?>
<!DOCTYPE svg PUBLIC "-//W3C//DTD SVG 1.1//EN"
 "http://www.w3.org/Graphics/SVG/1.1/DTD/svg11.dtd">
<!-- Generated by graphviz version 2.38.0 (20140413.2041)
 -->
<!-- Title: g Pages: 1 -->
<svg width="453pt" height="1149pt"
 viewBox="0.00 0.00 453.00 1149.00" xmlns="http://www.w3.org/2000/svg" xmlns:xlink="http://www.w3.org/1999/xlink">
<g id="graph0" class="graph" transform="scale(1 1) rotate(0) translate(4 1145)">
<title>g</title>
<polygon fill="white" stroke="none" points="-4,4 -4,-1145 449,-1145 449,4 -4,4"/>
<text text-anchor="middle" x="222.5" y="-7" font-family="Verdana" font-size="10.00">Table: Employee</text>
<!-- struct0 -->
<g id="node1" class="node"><title>struct0</title>
<polygon fill="none" stroke="#337ab7" points="299.5,-870.5 299.5,-1140.5 406.5,-1140.5 406.5,-870.5 299.5,-870.5"/>
<text text-anchor="middle" x="353" y="-1129.3" font-family="Verdana" font-size="9.00" fill="#337ab7">Table: Document</text>
<polyline fill="none" stroke="#337ab7" points="299.5,-1122.5 406.5,-1122.5 "/>
<text text-anchor="middle" x="353" y="-1111.3" font-family="Verdana" font-size="9.00" fill="#337ab7">DocumentNode +</text>
<polyline fill="none" stroke="#337ab7" points="299.5,-1104.5 406.5,-1104.5 "/>
<text text-anchor="middle" x="353" y="-1093.3" font-family="Verdana" font-size="9.00" fill="#337ab7">DocumentLevel</text>
<polyline fill="none" stroke="#337ab7" points="299.5,-1086.5 406.5,-1086.5 "/>
<text text-anchor="middle" x="353" y="-1075.3" font-family="Verdana" font-size="9.00" fill="#337ab7">Title</text>
<polyline fill="none" stroke="#337ab7" points="299.5,-1068.5 406.5,-1068.5 "/>
<text text-anchor="middle" x="353" y="-1057.3" font-family="Verdana" font-size="9.00" fill="#337ab7">+ Owner</text>
<polyline fill="none" stroke="#337ab7" points="299.5,-1050.5 406.5,-1050.5 "/>
<text text-anchor="middle" x="353" y="-1039.3" font-family="Verdana" font-size="9.00" fill="#337ab7">FolderFlag</text>
<polyline fill="none" stroke="#337ab7" points="299.5,-1032.5 406.5,-1032.5 "/>
<text text-anchor="middle" x="353" y="-1021.3" font-family="Verdana" font-size="9.00" fill="#337ab7">FileName</text>
<polyline fill="none" stroke="#337ab7" points="299.5,-1014.5 406.5,-1014.5 "/>
<text text-anchor="middle" x="353" y="-1003.3" font-family="Verdana" font-size="9.00" fill="#337ab7">FileExtension</text>
<polyline fill="none" stroke="#337ab7" points="299.5,-996.5 406.5,-996.5 "/>
<text text-anchor="middle" x="353" y="-985.3" font-family="Verdana" font-size="9.00" fill="#337ab7">Revision</text>
<polyline fill="none" stroke="#337ab7" points="299.5,-978.5 406.5,-978.5 "/>
<text text-anchor="middle" x="353" y="-967.3" font-family="Verdana" font-size="9.00" fill="#337ab7">ChangeNumber</text>
<polyline fill="none" stroke="#337ab7" points="299.5,-960.5 406.5,-960.5 "/>
<text text-anchor="middle" x="353" y="-949.3" font-family="Verdana" font-size="9.00" fill="#337ab7">Status</text>
<polyline fill="none" stroke="#337ab7" points="299.5,-942.5 406.5,-942.5 "/>
<text text-anchor="middle" x="353" y="-931.3" font-family="Verdana" font-size="9.00" fill="#337ab7">DocumentSummary</text>
<polyline fill="none" stroke="#337ab7" points="299.5,-924.5 406.5,-924.5 "/>
<text text-anchor="middle" x="353" y="-913.3" font-family="Verdana" font-size="9.00" fill="#337ab7">Document</text>
<polyline fill="none" stroke="#337ab7" points="299.5,-906.5 406.5,-906.5 "/>
<text text-anchor="middle" x="353" y="-895.3" font-family="Verdana" font-size="9.00" fill="#337ab7">rowguid</text>
<polyline fill="none" stroke="#337ab7" points="299.5,-888.5 406.5,-888.5 "/>
<text text-anchor="middle" x="353" y="-877.3" font-family="Verdana" font-size="9.00" fill="#337ab7">ModifiedDate</text>
</g>
<!-- struct1 -->
<g id="node2" class="node"><title>struct1</title>
<polygon fill="none" stroke="black" points="137,-327.5 137,-633.5 243,-633.5 243,-327.5 137,-327.5"/>
<text text-anchor="middle" x="190" y="-622.3" font-family="Verdana" font-size="9.00">Table: Employee</text>
<polyline fill="none" stroke="black" points="137,-615.5 243,-615.5 "/>
<text text-anchor="middle" x="190" y="-604.3" font-family="Verdana" font-size="9.00">BusinessEntityID +</text>
<polyline fill="none" stroke="black" points="137,-597.5 243,-597.5 "/>
<text text-anchor="middle" x="190" y="-586.3" font-family="Verdana" font-size="9.00">NationalIDNumber</text>
<polyline fill="none" stroke="black" points="137,-579.5 243,-579.5 "/>
<text text-anchor="middle" x="190" y="-568.3" font-family="Verdana" font-size="9.00">LoginID</text>
<polyline fill="none" stroke="black" points="137,-561.5 243,-561.5 "/>
<text text-anchor="middle" x="190" y="-550.3" font-family="Verdana" font-size="9.00">OrganizationNode</text>
<polyline fill="none" stroke="black" points="137,-543.5 243,-543.5 "/>
<text text-anchor="middle" x="190" y="-532.3" font-family="Verdana" font-size="9.00">OrganizationLevel</text>
<polyline fill="none" stroke="black" points="137,-525.5 243,-525.5 "/>
<text text-anchor="middle" x="190" y="-514.3" font-family="Verdana" font-size="9.00">JobTitle</text>
<polyline fill="none" stroke="black" points="137,-507.5 243,-507.5 "/>
<text text-anchor="middle" x="190" y="-496.3" font-family="Verdana" font-size="9.00">BirthDate</text>
<polyline fill="none" stroke="black" points="137,-489.5 243,-489.5 "/>
<text text-anchor="middle" x="190" y="-478.3" font-family="Verdana" font-size="9.00">MaritalStatus</text>
<polyline fill="none" stroke="black" points="137,-471.5 243,-471.5 "/>
<text text-anchor="middle" x="190" y="-460.3" font-family="Verdana" font-size="9.00">Gender</text>
<polyline fill="none" stroke="black" points="137,-453.5 243,-453.5 "/>
<text text-anchor="middle" x="190" y="-442.3" font-family="Verdana" font-size="9.00">HireDate</text>
<polyline fill="none" stroke="black" points="137,-435.5 243,-435.5 "/>
<text text-anchor="middle" x="190" y="-424.3" font-family="Verdana" font-size="9.00">SalariedFlag</text>
<polyline fill="none" stroke="black" points="137,-417.5 243,-417.5 "/>
<text text-anchor="middle" x="190" y="-406.3" font-family="Verdana" font-size="9.00">VacationHours</text>
<polyline fill="none" stroke="black" points="137,-399.5 243,-399.5 "/>
<text text-anchor="middle" x="190" y="-388.3" font-family="Verdana" font-size="9.00">SickLeaveHours</text>
<polyline fill="none" stroke="black" points="137,-381.5 243,-381.5 "/>
<text text-anchor="middle" x="190" y="-370.3" font-family="Verdana" font-size="9.00">CurrentFlag</text>
<polyline fill="none" stroke="black" points="137,-363.5 243,-363.5 "/>
<text text-anchor="middle" x="190" y="-352.3" font-family="Verdana" font-size="9.00">rowguid</text>
<polyline fill="none" stroke="black" points="137,-345.5 243,-345.5 "/>
<text text-anchor="middle" x="190" y="-334.3" font-family="Verdana" font-size="9.00">ModifiedDate</text>
</g>
<!-- struct1&#45;&gt;struct0 -->
<g id="edge6" class="edge"><title>struct1:c981578535_1&#45;&gt;struct0:c789577851_4</title>
<path fill="none" stroke="black" d="M243,-606.5C257.202,-606.5 259.193,-847.414 261,-861.5 271.925,-946.653 213.593,-1050.58 287.743,-1058.96"/>
<polygon fill="black" stroke="black" points="287.829,-1062.47 298,-1059.5 288.199,-1055.48 287.829,-1062.47"/>
</g>
<!-- struct2 -->
<g id="node3" class="node"><title>struct2</title>
<polygon fill="none" stroke="#337ab7" points="261,-725.5 261,-851.5 445,-851.5 445,-725.5 261,-725.5"/>
<text text-anchor="middle" x="353" y="-840.3" font-family="Verdana" font-size="9.00" fill="#337ab7">Table: EmployeeDepartmentHistory</text>
<polyline fill="none" stroke="#337ab7" points="261,-833.5 445,-833.5 "/>
<text text-anchor="middle" x="353" y="-822.3" font-family="Verdana" font-size="9.00" fill="#337ab7">+ BusinessEntityID</text>
<polyline fill="none" stroke="#337ab7" points="261,-815.5 445,-815.5 "/>
<text text-anchor="middle" x="353" y="-804.3" font-family="Verdana" font-size="9.00" fill="#337ab7">+ DepartmentID</text>
<polyline fill="none" stroke="#337ab7" points="261,-797.5 445,-797.5 "/>
<text text-anchor="middle" x="353" y="-786.3" font-family="Verdana" font-size="9.00" fill="#337ab7">+ ShiftID</text>
<polyline fill="none" stroke="#337ab7" points="261,-779.5 445,-779.5 "/>
<text text-anchor="middle" x="353" y="-768.3" font-family="Verdana" font-size="9.00" fill="#337ab7">StartDate</text>
<polyline fill="none" stroke="#337ab7" points="261,-761.5 445,-761.5 "/>
<text text-anchor="middle" x="353" y="-750.3" font-family="Verdana" font-size="9.00" fill="#337ab7">EndDate</text>
<polyline fill="none" stroke="#337ab7" points="261,-743.5 445,-743.5 "/>
<text text-anchor="middle" x="353" y="-732.3" font-family="Verdana" font-size="9.00" fill="#337ab7">ModifiedDate</text>
</g>
<!-- struct1&#45;&gt;struct2 -->
<g id="edge1" class="edge"><title>struct1:c981578535_1&#45;&gt;struct2:c1189579276_1</title>
<path fill="none" stroke="black" d="M243,-606.5C287.622,-606.5 224.527,-790.201 251.477,-820.34"/>
<polygon fill="black" stroke="black" points="250.435,-823.704 261,-824.5 253.237,-817.289 250.435,-823.704"/>
</g>
<!-- struct3 -->
<g id="node4" class="node"><title>struct3</title>
<polygon fill="none" stroke="#337ab7" points="280.5,-598.5 280.5,-706.5 425.5,-706.5 425.5,-598.5 280.5,-598.5"/>
<text text-anchor="middle" x="353" y="-695.3" font-family="Verdana" font-size="9.00" fill="#337ab7">Table: EmployeePayHistory</text>
<polyline fill="none" stroke="#337ab7" points="280.5,-688.5 425.5,-688.5 "/>
<text text-anchor="middle" x="353" y="-677.3" font-family="Verdana" font-size="9.00" fill="#337ab7">+ BusinessEntityID</text>
<polyline fill="none" stroke="#337ab7" points="280.5,-670.5 425.5,-670.5 "/>
<text text-anchor="middle" x="353" y="-659.3" font-family="Verdana" font-size="9.00" fill="#337ab7">RateChangeDate</text>
<polyline fill="none" stroke="#337ab7" points="280.5,-652.5 425.5,-652.5 "/>
<text text-anchor="middle" x="353" y="-641.3" font-family="Verdana" font-size="9.00" fill="#337ab7">Rate</text>
<polyline fill="none" stroke="#337ab7" points="280.5,-634.5 425.5,-634.5 "/>
<text text-anchor="middle" x="353" y="-623.3" font-family="Verdana" font-size="9.00" fill="#337ab7">PayFrequency</text>
<polyline fill="none" stroke="#337ab7" points="280.5,-616.5 425.5,-616.5 "/>
<text text-anchor="middle" x="353" y="-605.3" font-family="Verdana" font-size="9.00" fill="#337ab7">ModifiedDate</text>
</g>
<!-- struct1&#45;&gt;struct3 -->
<g id="edge2" class="edge"><title>struct1:c981578535_1&#45;&gt;struct3:c1237579447_1</title>
<path fill="none" stroke="black" d="M243,-606.5C275.077,-606.5 250.13,-663.898 269.287,-676.902"/>
<polygon fill="black" stroke="black" points="268.435,-680.297 279,-679.5 270.244,-673.535 268.435,-680.297"/>
</g>
<!-- struct4 -->
<g id="node5" class="node"><title>struct4</title>
<polygon fill="none" stroke="#337ab7" points="296.5,-489.5 296.5,-579.5 409.5,-579.5 409.5,-489.5 296.5,-489.5"/>
<text text-anchor="middle" x="353" y="-568.3" font-family="Verdana" font-size="9.00" fill="#337ab7">Table: JobCandidate</text>
<polyline fill="none" stroke="#337ab7" points="296.5,-561.5 409.5,-561.5 "/>
<text text-anchor="middle" x="353" y="-550.3" font-family="Verdana" font-size="9.00" fill="#337ab7">JobCandidateID</text>
<polyline fill="none" stroke="#337ab7" points="296.5,-543.5 409.5,-543.5 "/>
<text text-anchor="middle" x="353" y="-532.3" font-family="Verdana" font-size="9.00" fill="#337ab7">+ BusinessEntityID</text>
<polyline fill="none" stroke="#337ab7" points="296.5,-525.5 409.5,-525.5 "/>
<text text-anchor="middle" x="353" y="-514.3" font-family="Verdana" font-size="9.00" fill="#337ab7">Resume</text>
<polyline fill="none" stroke="#337ab7" points="296.5,-507.5 409.5,-507.5 "/>
<text text-anchor="middle" x="353" y="-496.3" font-family="Verdana" font-size="9.00" fill="#337ab7">ModifiedDate</text>
</g>
<!-- struct1&#45;&gt;struct4 -->
<g id="edge4" class="edge"><title>struct1:c981578535_1&#45;&gt;struct4:c1333579789_2</title>
<path fill="none" stroke="black" d="M243,-606.5C259.499,-606.5 270.959,-556.187 285.804,-539.678"/>
<polygon fill="black" stroke="black" points="288.004,-542.456 295,-534.5 284.569,-536.357 288.004,-542.456"/>
</g>
<!-- struct6 -->
<g id="node7" class="node"><title>struct6</title>
<polygon fill="none" stroke="#337ab7" points="276,-218.5 276,-470.5 430,-470.5 430,-218.5 276,-218.5"/>
<text text-anchor="middle" x="353" y="-459.3" font-family="Verdana" font-size="9.00" fill="#337ab7">Table: PurchaseOrderHeader</text>
<polyline fill="none" stroke="#337ab7" points="276,-452.5 430,-452.5 "/>
<text text-anchor="middle" x="353" y="-441.3" font-family="Verdana" font-size="9.00" fill="#337ab7">PurchaseOrderID +</text>
<polyline fill="none" stroke="#337ab7" points="276,-434.5 430,-434.5 "/>
<text text-anchor="middle" x="353" y="-423.3" font-family="Verdana" font-size="9.00" fill="#337ab7">RevisionNumber</text>
<polyline fill="none" stroke="#337ab7" points="276,-416.5 430,-416.5 "/>
<text text-anchor="middle" x="353" y="-405.3" font-family="Verdana" font-size="9.00" fill="#337ab7">Status</text>
<polyline fill="none" stroke="#337ab7" points="276,-398.5 430,-398.5 "/>
<text text-anchor="middle" x="353" y="-387.3" font-family="Verdana" font-size="9.00" fill="#337ab7">+ EmployeeID</text>
<polyline fill="none" stroke="#337ab7" points="276,-380.5 430,-380.5 "/>
<text text-anchor="middle" x="353" y="-369.3" font-family="Verdana" font-size="9.00" fill="#337ab7">+ VendorID</text>
<polyline fill="none" stroke="#337ab7" points="276,-362.5 430,-362.5 "/>
<text text-anchor="middle" x="353" y="-351.3" font-family="Verdana" font-size="9.00" fill="#337ab7">+ ShipMethodID</text>
<polyline fill="none" stroke="#337ab7" points="276,-344.5 430,-344.5 "/>
<text text-anchor="middle" x="353" y="-333.3" font-family="Verdana" font-size="9.00" fill="#337ab7">OrderDate</text>
<polyline fill="none" stroke="#337ab7" points="276,-326.5 430,-326.5 "/>
<text text-anchor="middle" x="353" y="-315.3" font-family="Verdana" font-size="9.00" fill="#337ab7">ShipDate</text>
<polyline fill="none" stroke="#337ab7" points="276,-308.5 430,-308.5 "/>
<text text-anchor="middle" x="353" y="-297.3" font-family="Verdana" font-size="9.00" fill="#337ab7">SubTotal</text>
<polyline fill="none" stroke="#337ab7" points="276,-290.5 430,-290.5 "/>
<text text-anchor="middle" x="353" y="-279.3" font-family="Verdana" font-size="9.00" fill="#337ab7">TaxAmt</text>
<polyline fill="none" stroke="#337ab7" points="276,-272.5 430,-272.5 "/>
<text text-anchor="middle" x="353" y="-261.3" font-family="Verdana" font-size="9.00" fill="#337ab7">Freight</text>
<polyline fill="none" stroke="#337ab7" points="276,-254.5 430,-254.5 "/>
<text text-anchor="middle" x="353" y="-243.3" font-family="Verdana" font-size="9.00" fill="#337ab7">TotalDue</text>
<polyline fill="none" stroke="#337ab7" points="276,-236.5 430,-236.5 "/>
<text text-anchor="middle" x="353" y="-225.3" font-family="Verdana" font-size="9.00" fill="#337ab7">ModifiedDate</text>
</g>
<!-- struct1&#45;&gt;struct6 -->
<g id="edge5" class="edge"><title>struct1:c981578535_1&#45;&gt;struct6:c690101499_4</title>
<path fill="none" stroke="black" d="M243,-606.5C264.659,-606.5 253.847,-435.127 268.275,-396.97"/>
<polygon fill="black" stroke="black" points="270.911,-399.274 275,-389.5 265.708,-394.59 270.911,-399.274"/>
</g>
<!-- struct7 -->
<g id="node8" class="node"><title>struct7</title>
<polygon fill="none" stroke="#337ab7" points="299.5,-19.5 299.5,-199.5 406.5,-199.5 406.5,-19.5 299.5,-19.5"/>
<text text-anchor="middle" x="353" y="-188.3" font-family="Verdana" font-size="9.00" fill="#337ab7">Table: SalesPerson</text>
<polyline fill="none" stroke="#337ab7" points="299.5,-181.5 406.5,-181.5 "/>
<text text-anchor="middle" x="353" y="-170.3" font-family="Verdana" font-size="9.00" fill="#337ab7">BusinessEntityID +</text>
<polyline fill="none" stroke="#337ab7" points="299.5,-163.5 406.5,-163.5 "/>
<text text-anchor="middle" x="353" y="-152.3" font-family="Verdana" font-size="9.00" fill="#337ab7">+ TerritoryID</text>
<polyline fill="none" stroke="#337ab7" points="299.5,-145.5 406.5,-145.5 "/>
<text text-anchor="middle" x="353" y="-134.3" font-family="Verdana" font-size="9.00" fill="#337ab7">SalesQuota</text>
<polyline fill="none" stroke="#337ab7" points="299.5,-127.5 406.5,-127.5 "/>
<text text-anchor="middle" x="353" y="-116.3" font-family="Verdana" font-size="9.00" fill="#337ab7">Bonus</text>
<polyline fill="none" stroke="#337ab7" points="299.5,-109.5 406.5,-109.5 "/>
<text text-anchor="middle" x="353" y="-98.3" font-family="Verdana" font-size="9.00" fill="#337ab7">CommissionPct</text>
<polyline fill="none" stroke="#337ab7" points="299.5,-91.5 406.5,-91.5 "/>
<text text-anchor="middle" x="353" y="-80.3" font-family="Verdana" font-size="9.00" fill="#337ab7">SalesYTD</text>
<polyline fill="none" stroke="#337ab7" points="299.5,-73.5 406.5,-73.5 "/>
<text text-anchor="middle" x="353" y="-62.3" font-family="Verdana" font-size="9.00" fill="#337ab7">SalesLastYear</text>
<polyline fill="none" stroke="#337ab7" points="299.5,-55.5 406.5,-55.5 "/>
<text text-anchor="middle" x="353" y="-44.3" font-family="Verdana" font-size="9.00" fill="#337ab7">rowguid</text>
<polyline fill="none" stroke="#337ab7" points="299.5,-37.5 406.5,-37.5 "/>
<text text-anchor="middle" x="353" y="-26.3" font-family="Verdana" font-size="9.00" fill="#337ab7">ModifiedDate</text>
</g>
<!-- struct1&#45;&gt;struct7 -->
<g id="edge3" class="edge"><title>struct1:c981578535_1&#45;&gt;struct7:c1298103665_1</title>
<path fill="none" stroke="black" d="M243,-606.5C265.134,-606.5 251.931,-228.691 261,-208.5 268.785,-191.168 273.316,-177.854 287.673,-173.789"/>
<polygon fill="black" stroke="black" points="288.51,-177.212 298,-172.5 287.643,-170.265 288.51,-177.212"/>
</g>
<!-- struct5 -->
<g id="node6" class="node"><title>struct5</title>
<polygon fill="none" stroke="#337ab7" points="0,-381.5 0,-633.5 119,-633.5 119,-381.5 0,-381.5"/>
<text text-anchor="middle" x="59.5" y="-622.3" font-family="Verdana" font-size="9.00" fill="#337ab7">Table: Person</text>
<polyline fill="none" stroke="#337ab7" points="0,-615.5 119,-615.5 "/>
<text text-anchor="middle" x="59.5" y="-604.3" font-family="Verdana" font-size="9.00" fill="#337ab7">BusinessEntityID +</text>
<polyline fill="none" stroke="#337ab7" points="0,-597.5 119,-597.5 "/>
<text text-anchor="middle" x="59.5" y="-586.3" font-family="Verdana" font-size="9.00" fill="#337ab7">PersonType</text>
<polyline fill="none" stroke="#337ab7" points="0,-579.5 119,-579.5 "/>
<text text-anchor="middle" x="59.5" y="-568.3" font-family="Verdana" font-size="9.00" fill="#337ab7">NameStyle</text>
<polyline fill="none" stroke="#337ab7" points="0,-561.5 119,-561.5 "/>
<text text-anchor="middle" x="59.5" y="-550.3" font-family="Verdana" font-size="9.00" fill="#337ab7">Title</text>
<polyline fill="none" stroke="#337ab7" points="0,-543.5 119,-543.5 "/>
<text text-anchor="middle" x="59.5" y="-532.3" font-family="Verdana" font-size="9.00" fill="#337ab7">FirstName</text>
<polyline fill="none" stroke="#337ab7" points="0,-525.5 119,-525.5 "/>
<text text-anchor="middle" x="59.5" y="-514.3" font-family="Verdana" font-size="9.00" fill="#337ab7">MiddleName</text>
<polyline fill="none" stroke="#337ab7" points="0,-507.5 119,-507.5 "/>
<text text-anchor="middle" x="59.5" y="-496.3" font-family="Verdana" font-size="9.00" fill="#337ab7">LastName</text>
<polyline fill="none" stroke="#337ab7" points="0,-489.5 119,-489.5 "/>
<text text-anchor="middle" x="59.5" y="-478.3" font-family="Verdana" font-size="9.00" fill="#337ab7">Suffix</text>
<polyline fill="none" stroke="#337ab7" points="0,-471.5 119,-471.5 "/>
<text text-anchor="middle" x="59.5" y="-460.3" font-family="Verdana" font-size="9.00" fill="#337ab7">EmailPromotion</text>
<polyline fill="none" stroke="#337ab7" points="0,-453.5 119,-453.5 "/>
<text text-anchor="middle" x="59.5" y="-442.3" font-family="Verdana" font-size="9.00" fill="#337ab7">AdditionalContactInfo</text>
<polyline fill="none" stroke="#337ab7" points="0,-435.5 119,-435.5 "/>
<text text-anchor="middle" x="59.5" y="-424.3" font-family="Verdana" font-size="9.00" fill="#337ab7">Demographics</text>
<polyline fill="none" stroke="#337ab7" points="0,-417.5 119,-417.5 "/>
<text text-anchor="middle" x="59.5" y="-406.3" font-family="Verdana" font-size="9.00" fill="#337ab7">rowguid</text>
<polyline fill="none" stroke="#337ab7" points="0,-399.5 119,-399.5 "/>
<text text-anchor="middle" x="59.5" y="-388.3" font-family="Verdana" font-size="9.00" fill="#337ab7">ModifiedDate</text>
</g>
<!-- struct5&#45;&gt;struct1 -->
<g id="edge7" class="edge"><title>struct5:c1509580416_1&#45;&gt;struct1:c981578535_1</title>
<path fill="none" stroke="#337ab7" d="M119,-606.5C122.25,-606.5 124.51,-606.5 126.584,-606.5"/>
<polygon fill="#337ab7" stroke="#337ab7" points="127,-610 137,-606.5 127,-603 127,-610"/>
</g>
</g>
</svg>
