<?xml version="1.0" encoding="UTF-8" standalone="no"?>
<!DOCTYPE svg PUBLIC "-//W3C//DTD SVG 1.1//EN"
 "http://www.w3.org/Graphics/SVG/1.1/DTD/svg11.dtd">
<!-- Generated by graphviz version 2.38.0 (20140413.2041)
 -->
<!-- Title: g Pages: 1 -->
<svg width="307pt" height="514pt"
 viewBox="0.00 0.00 307.00 514.00" xmlns="http://www.w3.org/2000/svg" xmlns:xlink="http://www.w3.org/1999/xlink">
<g id="graph0" class="graph" transform="scale(1 1) rotate(0) translate(4 510)">
<title>g</title>
<polygon fill="white" stroke="none" points="-4,4 -4,-510 303,-510 303,4 -4,4"/>
<text text-anchor="middle" x="149.5" y="-7" font-family="Verdana" font-size="10.00">Table: TransactionHistory</text>
<!-- struct0 -->
<g id="node1" class="node"><title>struct0</title>
<polygon fill="none" stroke="#337ab7" points="0,-19.5 0,-487.5 144,-487.5 144,-19.5 0,-19.5"/>
<text text-anchor="middle" x="72" y="-476.3" font-family="Verdana" font-size="9.00" fill="#337ab7">Table: Product</text>
<polyline fill="none" stroke="#337ab7" points="0,-469.5 144,-469.5 "/>
<text text-anchor="middle" x="72" y="-458.3" font-family="Verdana" font-size="9.00" fill="#337ab7">ProductID +</text>
<polyline fill="none" stroke="#337ab7" points="0,-451.5 144,-451.5 "/>
<text text-anchor="middle" x="72" y="-440.3" font-family="Verdana" font-size="9.00" fill="#337ab7">Name</text>
<polyline fill="none" stroke="#337ab7" points="0,-433.5 144,-433.5 "/>
<text text-anchor="middle" x="72" y="-422.3" font-family="Verdana" font-size="9.00" fill="#337ab7">ProductNumber</text>
<polyline fill="none" stroke="#337ab7" points="0,-415.5 144,-415.5 "/>
<text text-anchor="middle" x="72" y="-404.3" font-family="Verdana" font-size="9.00" fill="#337ab7">MakeFlag</text>
<polyline fill="none" stroke="#337ab7" points="0,-397.5 144,-397.5 "/>
<text text-anchor="middle" x="72" y="-386.3" font-family="Verdana" font-size="9.00" fill="#337ab7">FinishedGoodsFlag</text>
<polyline fill="none" stroke="#337ab7" points="0,-379.5 144,-379.5 "/>
<text text-anchor="middle" x="72" y="-368.3" font-family="Verdana" font-size="9.00" fill="#337ab7">Color</text>
<polyline fill="none" stroke="#337ab7" points="0,-361.5 144,-361.5 "/>
<text text-anchor="middle" x="72" y="-350.3" font-family="Verdana" font-size="9.00" fill="#337ab7">SafetyStockLevel</text>
<polyline fill="none" stroke="#337ab7" points="0,-343.5 144,-343.5 "/>
<text text-anchor="middle" x="72" y="-332.3" font-family="Verdana" font-size="9.00" fill="#337ab7">ReorderPoint</text>
<polyline fill="none" stroke="#337ab7" points="0,-325.5 144,-325.5 "/>
<text text-anchor="middle" x="72" y="-314.3" font-family="Verdana" font-size="9.00" fill="#337ab7">StandardCost</text>
<polyline fill="none" stroke="#337ab7" points="0,-307.5 144,-307.5 "/>
<text text-anchor="middle" x="72" y="-296.3" font-family="Verdana" font-size="9.00" fill="#337ab7">ListPrice</text>
<polyline fill="none" stroke="#337ab7" points="0,-289.5 144,-289.5 "/>
<text text-anchor="middle" x="72" y="-278.3" font-family="Verdana" font-size="9.00" fill="#337ab7">Size</text>
<polyline fill="none" stroke="#337ab7" points="0,-271.5 144,-271.5 "/>
<text text-anchor="middle" x="72" y="-260.3" font-family="Verdana" font-size="9.00" fill="#337ab7">+ SizeUnitMeasureCode</text>
<polyline fill="none" stroke="#337ab7" points="0,-253.5 144,-253.5 "/>
<text text-anchor="middle" x="72" y="-242.3" font-family="Verdana" font-size="9.00" fill="#337ab7">+ WeightUnitMeasureCode</text>
<polyline fill="none" stroke="#337ab7" points="0,-235.5 144,-235.5 "/>
<text text-anchor="middle" x="72" y="-224.3" font-family="Verdana" font-size="9.00" fill="#337ab7">Weight</text>
<polyline fill="none" stroke="#337ab7" points="0,-217.5 144,-217.5 "/>
<text text-anchor="middle" x="72" y="-206.3" font-family="Verdana" font-size="9.00" fill="#337ab7">DaysToManufacture</text>
<polyline fill="none" stroke="#337ab7" points="0,-199.5 144,-199.5 "/>
<text text-anchor="middle" x="72" y="-188.3" font-family="Verdana" font-size="9.00" fill="#337ab7">ProductLine</text>
<polyline fill="none" stroke="#337ab7" points="0,-181.5 144,-181.5 "/>
<text text-anchor="middle" x="72" y="-170.3" font-family="Verdana" font-size="9.00" fill="#337ab7">Class</text>
<polyline fill="none" stroke="#337ab7" points="0,-163.5 144,-163.5 "/>
<text text-anchor="middle" x="72" y="-152.3" font-family="Verdana" font-size="9.00" fill="#337ab7">Style</text>
<polyline fill="none" stroke="#337ab7" points="0,-145.5 144,-145.5 "/>
<text text-anchor="middle" x="72" y="-134.3" font-family="Verdana" font-size="9.00" fill="#337ab7">+ ProductSubcategoryID</text>
<polyline fill="none" stroke="#337ab7" points="0,-127.5 144,-127.5 "/>
<text text-anchor="middle" x="72" y="-116.3" font-family="Verdana" font-size="9.00" fill="#337ab7">+ ProductModelID</text>
<polyline fill="none" stroke="#337ab7" points="0,-109.5 144,-109.5 "/>
<text text-anchor="middle" x="72" y="-98.3" font-family="Verdana" font-size="9.00" fill="#337ab7">SellStartDate</text>
<polyline fill="none" stroke="#337ab7" points="0,-91.5 144,-91.5 "/>
<text text-anchor="middle" x="72" y="-80.3" font-family="Verdana" font-size="9.00" fill="#337ab7">SellEndDate</text>
<polyline fill="none" stroke="#337ab7" points="0,-73.5 144,-73.5 "/>
<text text-anchor="middle" x="72" y="-62.3" font-family="Verdana" font-size="9.00" fill="#337ab7">DiscontinuedDate</text>
<polyline fill="none" stroke="#337ab7" points="0,-55.5 144,-55.5 "/>
<text text-anchor="middle" x="72" y="-44.3" font-family="Verdana" font-size="9.00" fill="#337ab7">rowguid</text>
<polyline fill="none" stroke="#337ab7" points="0,-37.5 144,-37.5 "/>
<text text-anchor="middle" x="72" y="-26.3" font-family="Verdana" font-size="9.00" fill="#337ab7">ModifiedDate</text>
</g>
<!-- struct1 -->
<g id="node2" class="node"><title>struct1</title>
<polygon fill="none" stroke="black" points="162,-325.5 162,-505.5 299,-505.5 299,-325.5 162,-325.5"/>
<text text-anchor="middle" x="230.5" y="-494.3" font-family="Verdana" font-size="9.00">Table: TransactionHistory</text>
<polyline fill="none" stroke="black" points="162,-487.5 299,-487.5 "/>
<text text-anchor="middle" x="230.5" y="-476.3" font-family="Verdana" font-size="9.00">TransactionID</text>
<polyline fill="none" stroke="black" points="162,-469.5 299,-469.5 "/>
<text text-anchor="middle" x="230.5" y="-458.3" font-family="Verdana" font-size="9.00">+ ProductID</text>
<polyline fill="none" stroke="black" points="162,-451.5 299,-451.5 "/>
<text text-anchor="middle" x="230.5" y="-440.3" font-family="Verdana" font-size="9.00">ReferenceOrderID</text>
<polyline fill="none" stroke="black" points="162,-433.5 299,-433.5 "/>
<text text-anchor="middle" x="230.5" y="-422.3" font-family="Verdana" font-size="9.00">ReferenceOrderLineID</text>
<polyline fill="none" stroke="black" points="162,-415.5 299,-415.5 "/>
<text text-anchor="middle" x="230.5" y="-404.3" font-family="Verdana" font-size="9.00">TransactionDate</text>
<polyline fill="none" stroke="black" points="162,-397.5 299,-397.5 "/>
<text text-anchor="middle" x="230.5" y="-386.3" font-family="Verdana" font-size="9.00">TransactionType</text>
<polyline fill="none" stroke="black" points="162,-379.5 299,-379.5 "/>
<text text-anchor="middle" x="230.5" y="-368.3" font-family="Verdana" font-size="9.00">Quantity</text>
<polyline fill="none" stroke="black" points="162,-361.5 299,-361.5 "/>
<text text-anchor="middle" x="230.5" y="-350.3" font-family="Verdana" font-size="9.00">ActualCost</text>
<polyline fill="none" stroke="black" points="162,-343.5 299,-343.5 "/>
<text text-anchor="middle" x="230.5" y="-332.3" font-family="Verdana" font-size="9.00">ModifiedDate</text>
</g>
<!-- struct0&#45;&gt;struct1 -->
<g id="edge1" class="edge"><title>struct0:c1717581157_1&#45;&gt;struct1:c318624178_2</title>
<path fill="none" stroke="#337ab7" d="M144,-460.5C147.25,-460.5 149.51,-460.5 151.584,-460.5"/>
<polygon fill="#337ab7" stroke="#337ab7" points="152,-464 162,-460.5 152,-457 152,-464"/>
</g>
</g>
</svg>
