<?xml version="1.0" encoding="UTF-8" standalone="no"?>
<!DOCTYPE svg PUBLIC "-//W3C//DTD SVG 1.1//EN"
 "http://www.w3.org/Graphics/SVG/1.1/DTD/svg11.dtd">
<!-- Generated by graphviz version 2.38.0 (20140413.2041)
 -->
<!-- Title: g Pages: 1 -->
<svg width="290pt" height="118pt"
 viewBox="0.00 0.00 290.00 118.00" xmlns="http://www.w3.org/2000/svg" xmlns:xlink="http://www.w3.org/1999/xlink">
<g id="graph0" class="graph" transform="scale(1 1) rotate(0) translate(4 114)">
<title>g</title>
<polygon fill="white" stroke="none" points="-4,4 -4,-114 286,-114 286,4 -4,4"/>
<text text-anchor="middle" x="141" y="-7" font-family="Verdana" font-size="10.00">Table: Illustration</text>
<!-- struct0 -->
<g id="node1" class="node"><title>struct0</title>
<polygon fill="#d9edf7" stroke="#1b809e" points="0,-19.5 0,-91.5 100,-91.5 100,-19.5 0,-19.5"/>
<text text-anchor="middle" x="50" y="-80.3" font-family="Verdana" font-size="9.00" fill="#1b809e">Table: Illustration</text>
<polyline fill="none" stroke="#1b809e" points="0,-73.5 100,-73.5 "/>
<text text-anchor="middle" x="50" y="-62.3" font-family="Verdana" font-size="9.00" fill="#1b809e">IllustrationID +</text>
<polyline fill="none" stroke="#1b809e" points="0,-55.5 100,-55.5 "/>
<text text-anchor="middle" x="50" y="-44.3" font-family="Verdana" font-size="9.00" fill="#1b809e">Diagram</text>
<polyline fill="none" stroke="#1b809e" points="0,-37.5 100,-37.5 "/>
<text text-anchor="middle" x="50" y="-26.3" font-family="Verdana" font-size="9.00" fill="#1b809e">ModifiedDate</text>
</g>
<!-- struct1 -->
<g id="node2" class="node"><title>struct1</title>
<polygon fill="#f7f7f9" stroke="#555555" points="118,-37.5 118,-109.5 282,-109.5 282,-37.5 118,-37.5"/>
<text text-anchor="middle" x="200" y="-98.3" font-family="Verdana" font-size="9.00" fill="#555555">Table: ProductModelIllustration</text>
<polyline fill="none" stroke="#555555" points="118,-91.5 282,-91.5 "/>
<text text-anchor="middle" x="200" y="-80.3" font-family="Verdana" font-size="9.00" fill="#555555">+ ProductModelID</text>
<polyline fill="none" stroke="#555555" points="118,-73.5 282,-73.5 "/>
<text text-anchor="middle" x="200" y="-62.3" font-family="Verdana" font-size="9.00" fill="#555555">+ IllustrationID</text>
<polyline fill="none" stroke="#555555" points="118,-55.5 282,-55.5 "/>
<text text-anchor="middle" x="200" y="-44.3" font-family="Verdana" font-size="9.00" fill="#555555">ModifiedDate</text>
</g>
<!-- struct0&#45;&gt;struct1 -->
<g id="edge1" class="edge"><title>struct0:c1301579675_1&#45;&gt;struct1:c210099789_2</title>
<path fill="none" stroke="black" d="M100,-64.5C103.25,-64.5 105.51,-64.5 107.584,-64.5"/>
<polygon fill="black" stroke="black" points="108,-68.0001 118,-64.5 108,-61.0001 108,-68.0001"/>
</g>
</g>
</svg>
