<?xml version="1.0" encoding="UTF-8" standalone="no"?>
<!DOCTYPE svg PUBLIC "-//W3C//DTD SVG 1.1//EN"
 "http://www.w3.org/Graphics/SVG/1.1/DTD/svg11.dtd">
<!-- Generated by graphviz version 2.38.0 (20140413.2041)
 -->
<!-- Title: g Pages: 1 -->
<svg width="315pt" height="154pt"
 viewBox="0.00 0.00 315.00 154.00" xmlns="http://www.w3.org/2000/svg" xmlns:xlink="http://www.w3.org/1999/xlink">
<g id="graph0" class="graph" transform="scale(1 1) rotate(0) translate(4 150)">
<title>g</title>
<polygon fill="white" stroke="none" points="-4,4 -4,-150 311,-150 311,4 -4,4"/>
<text text-anchor="middle" x="153.5" y="-7" font-family="Verdana" font-size="10.00">Table: Department</text>
<!-- struct0 -->
<g id="node1" class="node"><title>struct0</title>
<polygon fill="#d9edf7" stroke="#1b809e" points="0,-37.5 0,-127.5 105,-127.5 105,-37.5 0,-37.5"/>
<text text-anchor="middle" x="52.5" y="-116.3" font-family="Verdana" font-size="9.00" fill="#1b809e">Table: Department</text>
<polyline fill="none" stroke="#1b809e" points="0,-109.5 105,-109.5 "/>
<text text-anchor="middle" x="52.5" y="-98.3" font-family="Verdana" font-size="9.00" fill="#1b809e">DepartmentID +</text>
<polyline fill="none" stroke="#1b809e" points="0,-91.5 105,-91.5 "/>
<text text-anchor="middle" x="52.5" y="-80.3" font-family="Verdana" font-size="9.00" fill="#1b809e">Name</text>
<polyline fill="none" stroke="#1b809e" points="0,-73.5 105,-73.5 "/>
<text text-anchor="middle" x="52.5" y="-62.3" font-family="Verdana" font-size="9.00" fill="#1b809e">GroupName</text>
<polyline fill="none" stroke="#1b809e" points="0,-55.5 105,-55.5 "/>
<text text-anchor="middle" x="52.5" y="-44.3" font-family="Verdana" font-size="9.00" fill="#1b809e">ModifiedDate</text>
</g>
<!-- struct1 -->
<g id="node2" class="node"><title>struct1</title>
<polygon fill="#f7f7f9" stroke="#555555" points="123,-19.5 123,-145.5 307,-145.5 307,-19.5 123,-19.5"/>
<text text-anchor="middle" x="215" y="-134.3" font-family="Verdana" font-size="9.00" fill="#555555">Table: EmployeeDepartmentHistory</text>
<polyline fill="none" stroke="#555555" points="123,-127.5 307,-127.5 "/>
<text text-anchor="middle" x="215" y="-116.3" font-family="Verdana" font-size="9.00" fill="#555555">+ BusinessEntityID</text>
<polyline fill="none" stroke="#555555" points="123,-109.5 307,-109.5 "/>
<text text-anchor="middle" x="215" y="-98.3" font-family="Verdana" font-size="9.00" fill="#555555">+ DepartmentID</text>
<polyline fill="none" stroke="#555555" points="123,-91.5 307,-91.5 "/>
<text text-anchor="middle" x="215" y="-80.3" font-family="Verdana" font-size="9.00" fill="#555555">+ ShiftID</text>
<polyline fill="none" stroke="#555555" points="123,-73.5 307,-73.5 "/>
<text text-anchor="middle" x="215" y="-62.3" font-family="Verdana" font-size="9.00" fill="#555555">StartDate</text>
<polyline fill="none" stroke="#555555" points="123,-55.5 307,-55.5 "/>
<text text-anchor="middle" x="215" y="-44.3" font-family="Verdana" font-size="9.00" fill="#555555">EndDate</text>
<polyline fill="none" stroke="#555555" points="123,-37.5 307,-37.5 "/>
<text text-anchor="middle" x="215" y="-26.3" font-family="Verdana" font-size="9.00" fill="#555555">ModifiedDate</text>
</g>
<!-- struct0&#45;&gt;struct1 -->
<g id="edge1" class="edge"><title>struct0:c757577737_1&#45;&gt;struct1:c1189579276_2</title>
<path fill="none" stroke="black" d="M105,-100.5C108.25,-100.5 110.51,-100.5 112.584,-100.5"/>
<polygon fill="black" stroke="black" points="113,-104 123,-100.5 113,-97.0001 113,-104"/>
</g>
</g>
</svg>
