<?xml version="1.0" encoding="UTF-8" standalone="no"?>
<!DOCTYPE svg PUBLIC "-//W3C//DTD SVG 1.1//EN"
 "http://www.w3.org/Graphics/SVG/1.1/DTD/svg11.dtd">
<!-- Generated by graphviz version 2.38.0 (20140413.2041)
 -->
<!-- Title: g Pages: 1 -->
<svg width="300pt" height="860pt"
 viewBox="0.00 0.00 300.00 860.00" xmlns="http://www.w3.org/2000/svg" xmlns:xlink="http://www.w3.org/1999/xlink">
<g id="graph0" class="graph" transform="scale(1 1) rotate(0) translate(4 856)">
<title>g</title>
<polygon fill="white" stroke="none" points="-4,4 -4,-856 296,-856 296,4 -4,4"/>
<text text-anchor="middle" x="146" y="-7" font-family="Verdana" font-size="10.00">Table: BusinessEntity</text>
<!-- struct0 -->
<g id="node1" class="node"><title>struct0</title>
<polygon fill="none" stroke="black" points="0,-525.5 0,-597.5 118,-597.5 118,-525.5 0,-525.5"/>
<text text-anchor="middle" x="59" y="-586.3" font-family="Verdana" font-size="9.00">Table: BusinessEntity</text>
<polyline fill="none" stroke="black" points="0,-579.5 118,-579.5 "/>
<text text-anchor="middle" x="59" y="-568.3" font-family="Verdana" font-size="9.00">BusinessEntityID +</text>
<polyline fill="none" stroke="black" points="0,-561.5 118,-561.5 "/>
<text text-anchor="middle" x="59" y="-550.3" font-family="Verdana" font-size="9.00">rowguid</text>
<polyline fill="none" stroke="black" points="0,-543.5 118,-543.5 "/>
<text text-anchor="middle" x="59" y="-532.3" font-family="Verdana" font-size="9.00">ModifiedDate</text>
</g>
<!-- struct1 -->
<g id="node2" class="node"><title>struct1</title>
<polygon fill="none" stroke="#337ab7" points="136,-743.5 136,-851.5 292,-851.5 292,-743.5 136,-743.5"/>
<text text-anchor="middle" x="214" y="-840.3" font-family="Verdana" font-size="9.00" fill="#337ab7">Table: BusinessEntityAddress</text>
<polyline fill="none" stroke="#337ab7" points="136,-833.5 292,-833.5 "/>
<text text-anchor="middle" x="214" y="-822.3" font-family="Verdana" font-size="9.00" fill="#337ab7">+ BusinessEntityID</text>
<polyline fill="none" stroke="#337ab7" points="136,-815.5 292,-815.5 "/>
<text text-anchor="middle" x="214" y="-804.3" font-family="Verdana" font-size="9.00" fill="#337ab7">+ AddressID</text>
<polyline fill="none" stroke="#337ab7" points="136,-797.5 292,-797.5 "/>
<text text-anchor="middle" x="214" y="-786.3" font-family="Verdana" font-size="9.00" fill="#337ab7">+ AddressTypeID</text>
<polyline fill="none" stroke="#337ab7" points="136,-779.5 292,-779.5 "/>
<text text-anchor="middle" x="214" y="-768.3" font-family="Verdana" font-size="9.00" fill="#337ab7">rowguid</text>
<polyline fill="none" stroke="#337ab7" points="136,-761.5 292,-761.5 "/>
<text text-anchor="middle" x="214" y="-750.3" font-family="Verdana" font-size="9.00" fill="#337ab7">ModifiedDate</text>
</g>
<!-- struct0&#45;&gt;struct1 -->
<g id="edge3" class="edge"><title>struct0:c341576255_1&#45;&gt;struct1:c389576426_1</title>
<path fill="none" stroke="black" d="M118,-570.5C143.364,-570.5 114.979,-774.636 129.215,-816.898"/>
<polygon fill="black" stroke="black" points="126.73,-819.37 136,-824.5 131.952,-814.709 126.73,-819.37"/>
</g>
<!-- struct2 -->
<g id="node3" class="node"><title>struct2</title>
<polygon fill="none" stroke="#337ab7" points="136.5,-616.5 136.5,-724.5 291.5,-724.5 291.5,-616.5 136.5,-616.5"/>
<text text-anchor="middle" x="214" y="-713.3" font-family="Verdana" font-size="9.00" fill="#337ab7">Table: BusinessEntityContact</text>
<polyline fill="none" stroke="#337ab7" points="136.5,-706.5 291.5,-706.5 "/>
<text text-anchor="middle" x="214" y="-695.3" font-family="Verdana" font-size="9.00" fill="#337ab7">+ BusinessEntityID</text>
<polyline fill="none" stroke="#337ab7" points="136.5,-688.5 291.5,-688.5 "/>
<text text-anchor="middle" x="214" y="-677.3" font-family="Verdana" font-size="9.00" fill="#337ab7">+ PersonID</text>
<polyline fill="none" stroke="#337ab7" points="136.5,-670.5 291.5,-670.5 "/>
<text text-anchor="middle" x="214" y="-659.3" font-family="Verdana" font-size="9.00" fill="#337ab7">+ ContactTypeID</text>
<polyline fill="none" stroke="#337ab7" points="136.5,-652.5 291.5,-652.5 "/>
<text text-anchor="middle" x="214" y="-641.3" font-family="Verdana" font-size="9.00" fill="#337ab7">rowguid</text>
<polyline fill="none" stroke="#337ab7" points="136.5,-634.5 291.5,-634.5 "/>
<text text-anchor="middle" x="214" y="-623.3" font-family="Verdana" font-size="9.00" fill="#337ab7">ModifiedDate</text>
</g>
<!-- struct0&#45;&gt;struct2 -->
<g id="edge4" class="edge"><title>struct0:c341576255_1&#45;&gt;struct2:c437576597_1</title>
<path fill="none" stroke="black" d="M118,-570.5C142.719,-570.5 116.667,-666.006 127.899,-691.375"/>
<polygon fill="black" stroke="black" points="125.913,-694.26 136,-697.5 130.135,-688.677 125.913,-694.26"/>
</g>
<!-- struct3 -->
<g id="node4" class="node"><title>struct3</title>
<polygon fill="none" stroke="#337ab7" points="154.5,-345.5 154.5,-597.5 273.5,-597.5 273.5,-345.5 154.5,-345.5"/>
<text text-anchor="middle" x="214" y="-586.3" font-family="Verdana" font-size="9.00" fill="#337ab7">Table: Person</text>
<polyline fill="none" stroke="#337ab7" points="154.5,-579.5 273.5,-579.5 "/>
<text text-anchor="middle" x="214" y="-568.3" font-family="Verdana" font-size="9.00" fill="#337ab7">BusinessEntityID +</text>
<polyline fill="none" stroke="#337ab7" points="154.5,-561.5 273.5,-561.5 "/>
<text text-anchor="middle" x="214" y="-550.3" font-family="Verdana" font-size="9.00" fill="#337ab7">PersonType</text>
<polyline fill="none" stroke="#337ab7" points="154.5,-543.5 273.5,-543.5 "/>
<text text-anchor="middle" x="214" y="-532.3" font-family="Verdana" font-size="9.00" fill="#337ab7">NameStyle</text>
<polyline fill="none" stroke="#337ab7" points="154.5,-525.5 273.5,-525.5 "/>
<text text-anchor="middle" x="214" y="-514.3" font-family="Verdana" font-size="9.00" fill="#337ab7">Title</text>
<polyline fill="none" stroke="#337ab7" points="154.5,-507.5 273.5,-507.5 "/>
<text text-anchor="middle" x="214" y="-496.3" font-family="Verdana" font-size="9.00" fill="#337ab7">FirstName</text>
<polyline fill="none" stroke="#337ab7" points="154.5,-489.5 273.5,-489.5 "/>
<text text-anchor="middle" x="214" y="-478.3" font-family="Verdana" font-size="9.00" fill="#337ab7">MiddleName</text>
<polyline fill="none" stroke="#337ab7" points="154.5,-471.5 273.5,-471.5 "/>
<text text-anchor="middle" x="214" y="-460.3" font-family="Verdana" font-size="9.00" fill="#337ab7">LastName</text>
<polyline fill="none" stroke="#337ab7" points="154.5,-453.5 273.5,-453.5 "/>
<text text-anchor="middle" x="214" y="-442.3" font-family="Verdana" font-size="9.00" fill="#337ab7">Suffix</text>
<polyline fill="none" stroke="#337ab7" points="154.5,-435.5 273.5,-435.5 "/>
<text text-anchor="middle" x="214" y="-424.3" font-family="Verdana" font-size="9.00" fill="#337ab7">EmailPromotion</text>
<polyline fill="none" stroke="#337ab7" points="154.5,-417.5 273.5,-417.5 "/>
<text text-anchor="middle" x="214" y="-406.3" font-family="Verdana" font-size="9.00" fill="#337ab7">AdditionalContactInfo</text>
<polyline fill="none" stroke="#337ab7" points="154.5,-399.5 273.5,-399.5 "/>
<text text-anchor="middle" x="214" y="-388.3" font-family="Verdana" font-size="9.00" fill="#337ab7">Demographics</text>
<polyline fill="none" stroke="#337ab7" points="154.5,-381.5 273.5,-381.5 "/>
<text text-anchor="middle" x="214" y="-370.3" font-family="Verdana" font-size="9.00" fill="#337ab7">rowguid</text>
<polyline fill="none" stroke="#337ab7" points="154.5,-363.5 273.5,-363.5 "/>
<text text-anchor="middle" x="214" y="-352.3" font-family="Verdana" font-size="9.00" fill="#337ab7">ModifiedDate</text>
</g>
<!-- struct0&#45;&gt;struct3 -->
<g id="edge1" class="edge"><title>struct0:c341576255_1&#45;&gt;struct3:c1509580416_1</title>
<path fill="none" stroke="black" d="M118,-570.5C129.545,-570.5 134.664,-570.5 142.895,-570.5"/>
<polygon fill="black" stroke="black" points="143,-574 153,-570.5 143,-567 143,-574"/>
</g>
<!-- struct4 -->
<g id="node5" class="node"><title>struct4</title>
<polygon fill="none" stroke="#337ab7" points="161,-200.5 161,-326.5 267,-326.5 267,-200.5 161,-200.5"/>
<text text-anchor="middle" x="214" y="-315.3" font-family="Verdana" font-size="9.00" fill="#337ab7">Table: Store</text>
<polyline fill="none" stroke="#337ab7" points="161,-308.5 267,-308.5 "/>
<text text-anchor="middle" x="214" y="-297.3" font-family="Verdana" font-size="9.00" fill="#337ab7">BusinessEntityID +</text>
<polyline fill="none" stroke="#337ab7" points="161,-290.5 267,-290.5 "/>
<text text-anchor="middle" x="214" y="-279.3" font-family="Verdana" font-size="9.00" fill="#337ab7">Name</text>
<polyline fill="none" stroke="#337ab7" points="161,-272.5 267,-272.5 "/>
<text text-anchor="middle" x="214" y="-261.3" font-family="Verdana" font-size="9.00" fill="#337ab7">+ SalesPersonID</text>
<polyline fill="none" stroke="#337ab7" points="161,-254.5 267,-254.5 "/>
<text text-anchor="middle" x="214" y="-243.3" font-family="Verdana" font-size="9.00" fill="#337ab7">Demographics</text>
<polyline fill="none" stroke="#337ab7" points="161,-236.5 267,-236.5 "/>
<text text-anchor="middle" x="214" y="-225.3" font-family="Verdana" font-size="9.00" fill="#337ab7">rowguid</text>
<polyline fill="none" stroke="#337ab7" points="161,-218.5 267,-218.5 "/>
<text text-anchor="middle" x="214" y="-207.3" font-family="Verdana" font-size="9.00" fill="#337ab7">ModifiedDate</text>
</g>
<!-- struct0&#45;&gt;struct4 -->
<g id="edge2" class="edge"><title>struct0:c341576255_1&#45;&gt;struct4:c270624007_1</title>
<path fill="none" stroke="black" d="M118,-570.5C144.077,-570.5 127.646,-361.203 136,-336.5 140.955,-321.849 140.829,-307.282 150.185,-301.789"/>
<polygon fill="black" stroke="black" points="151.056,-305.18 160,-299.5 149.466,-298.363 151.056,-305.18"/>
</g>
<!-- struct5 -->
<g id="node6" class="node"><title>struct5</title>
<polygon fill="none" stroke="#337ab7" points="143,-19.5 143,-181.5 285,-181.5 285,-19.5 143,-19.5"/>
<text text-anchor="middle" x="214" y="-170.3" font-family="Verdana" font-size="9.00" fill="#337ab7">Table: Vendor</text>
<polyline fill="none" stroke="#337ab7" points="143,-163.5 285,-163.5 "/>
<text text-anchor="middle" x="214" y="-152.3" font-family="Verdana" font-size="9.00" fill="#337ab7">BusinessEntityID +</text>
<polyline fill="none" stroke="#337ab7" points="143,-145.5 285,-145.5 "/>
<text text-anchor="middle" x="214" y="-134.3" font-family="Verdana" font-size="9.00" fill="#337ab7">AccountNumber</text>
<polyline fill="none" stroke="#337ab7" points="143,-127.5 285,-127.5 "/>
<text text-anchor="middle" x="214" y="-116.3" font-family="Verdana" font-size="9.00" fill="#337ab7">Name</text>
<polyline fill="none" stroke="#337ab7" points="143,-109.5 285,-109.5 "/>
<text text-anchor="middle" x="214" y="-98.3" font-family="Verdana" font-size="9.00" fill="#337ab7">CreditRating</text>
<polyline fill="none" stroke="#337ab7" points="143,-91.5 285,-91.5 "/>
<text text-anchor="middle" x="214" y="-80.3" font-family="Verdana" font-size="9.00" fill="#337ab7">PreferredVendorStatus</text>
<polyline fill="none" stroke="#337ab7" points="143,-73.5 285,-73.5 "/>
<text text-anchor="middle" x="214" y="-62.3" font-family="Verdana" font-size="9.00" fill="#337ab7">ActiveFlag</text>
<polyline fill="none" stroke="#337ab7" points="143,-55.5 285,-55.5 "/>
<text text-anchor="middle" x="214" y="-44.3" font-family="Verdana" font-size="9.00" fill="#337ab7">PurchasingWebServiceURL</text>
<polyline fill="none" stroke="#337ab7" points="143,-37.5 285,-37.5 "/>
<text text-anchor="middle" x="214" y="-26.3" font-family="Verdana" font-size="9.00" fill="#337ab7">ModifiedDate</text>
</g>
<!-- struct0&#45;&gt;struct5 -->
<g id="edge5" class="edge"><title>struct0:c341576255_1&#45;&gt;struct5:c510624862_1</title>
<path fill="none" stroke="black" d="M118,-570.5C161.044,-570.5 104.78,-210.943 133.858,-160.381"/>
<polygon fill="black" stroke="black" points="135.943,-163.193 142,-154.5 131.844,-157.518 135.943,-163.193"/>
</g>
</g>
</svg>
