<?xml version="1.0" encoding="UTF-8" standalone="no"?>
<!DOCTYPE svg PUBLIC "-//W3C//DTD SVG 1.1//EN"
 "http://www.w3.org/Graphics/SVG/1.1/DTD/svg11.dtd">
<!-- Generated by graphviz version 2.38.0 (20140413.2041)
 -->
<!-- Title: g Pages: 1 -->
<svg width="262pt" height="605pt"
 viewBox="0.00 0.00 262.00 605.00" xmlns="http://www.w3.org/2000/svg" xmlns:xlink="http://www.w3.org/1999/xlink">
<g id="graph0" class="graph" transform="scale(1 1) rotate(0) translate(4 601)">
<title>g</title>
<polygon fill="white" stroke="none" points="-4,4 -4,-601 258,-601 258,4 -4,4"/>
<text text-anchor="middle" x="127" y="-7" font-family="Verdana" font-size="10.00">Table: CreditCard</text>
<!-- struct0 -->
<g id="node1" class="node"><title>struct0</title>
<polygon fill="none" stroke="black" points="0,-271.5 0,-397.5 100,-397.5 100,-271.5 0,-271.5"/>
<text text-anchor="middle" x="50" y="-386.3" font-family="Verdana" font-size="9.00">Table: CreditCard</text>
<polyline fill="none" stroke="black" points="0,-379.5 100,-379.5 "/>
<text text-anchor="middle" x="50" y="-368.3" font-family="Verdana" font-size="9.00">CreditCardID +</text>
<polyline fill="none" stroke="black" points="0,-361.5 100,-361.5 "/>
<text text-anchor="middle" x="50" y="-350.3" font-family="Verdana" font-size="9.00">CardType</text>
<polyline fill="none" stroke="black" points="0,-343.5 100,-343.5 "/>
<text text-anchor="middle" x="50" y="-332.3" font-family="Verdana" font-size="9.00">CardNumber</text>
<polyline fill="none" stroke="black" points="0,-325.5 100,-325.5 "/>
<text text-anchor="middle" x="50" y="-314.3" font-family="Verdana" font-size="9.00">ExpMonth</text>
<polyline fill="none" stroke="black" points="0,-307.5 100,-307.5 "/>
<text text-anchor="middle" x="50" y="-296.3" font-family="Verdana" font-size="9.00">ExpYear</text>
<polyline fill="none" stroke="black" points="0,-289.5 100,-289.5 "/>
<text text-anchor="middle" x="50" y="-278.3" font-family="Verdana" font-size="9.00">ModifiedDate</text>
</g>
<!-- struct1 -->
<g id="node2" class="node"><title>struct1</title>
<polygon fill="none" stroke="#337ab7" points="119.5,-524.5 119.5,-596.5 252.5,-596.5 252.5,-524.5 119.5,-524.5"/>
<text text-anchor="middle" x="186" y="-585.3" font-family="Verdana" font-size="9.00" fill="#337ab7">Table: PersonCreditCard</text>
<polyline fill="none" stroke="#337ab7" points="119.5,-578.5 252.5,-578.5 "/>
<text text-anchor="middle" x="186" y="-567.3" font-family="Verdana" font-size="9.00" fill="#337ab7">+ BusinessEntityID</text>
<polyline fill="none" stroke="#337ab7" points="119.5,-560.5 252.5,-560.5 "/>
<text text-anchor="middle" x="186" y="-549.3" font-family="Verdana" font-size="9.00" fill="#337ab7">+ CreditCardID</text>
<polyline fill="none" stroke="#337ab7" points="119.5,-542.5 252.5,-542.5 "/>
<text text-anchor="middle" x="186" y="-531.3" font-family="Verdana" font-size="9.00" fill="#337ab7">ModifiedDate</text>
</g>
<!-- struct0&#45;&gt;struct1 -->
<g id="edge2" class="edge"><title>struct0:c581577110_1&#45;&gt;struct1:c1621580815_2</title>
<path fill="none" stroke="black" d="M100,-370.5C136.473,-370.5 88.8683,-517.875 108.92,-546.659"/>
<polygon fill="black" stroke="black" points="107.529,-549.884 118,-551.5 110.823,-543.707 107.529,-549.884"/>
</g>
<!-- struct2 -->
<g id="node3" class="node"><title>struct2</title>
<polygon fill="none" stroke="#337ab7" points="118,-19.5 118,-505.5 254,-505.5 254,-19.5 118,-19.5"/>
<text text-anchor="middle" x="186" y="-494.3" font-family="Verdana" font-size="9.00" fill="#337ab7">Table: SalesOrderHeader</text>
<polyline fill="none" stroke="#337ab7" points="118,-487.5 254,-487.5 "/>
<text text-anchor="middle" x="186" y="-476.3" font-family="Verdana" font-size="9.00" fill="#337ab7">SalesOrderID +</text>
<polyline fill="none" stroke="#337ab7" points="118,-469.5 254,-469.5 "/>
<text text-anchor="middle" x="186" y="-458.3" font-family="Verdana" font-size="9.00" fill="#337ab7">RevisionNumber</text>
<polyline fill="none" stroke="#337ab7" points="118,-451.5 254,-451.5 "/>
<text text-anchor="middle" x="186" y="-440.3" font-family="Verdana" font-size="9.00" fill="#337ab7">OrderDate</text>
<polyline fill="none" stroke="#337ab7" points="118,-433.5 254,-433.5 "/>
<text text-anchor="middle" x="186" y="-422.3" font-family="Verdana" font-size="9.00" fill="#337ab7">DueDate</text>
<polyline fill="none" stroke="#337ab7" points="118,-415.5 254,-415.5 "/>
<text text-anchor="middle" x="186" y="-404.3" font-family="Verdana" font-size="9.00" fill="#337ab7">ShipDate</text>
<polyline fill="none" stroke="#337ab7" points="118,-397.5 254,-397.5 "/>
<text text-anchor="middle" x="186" y="-386.3" font-family="Verdana" font-size="9.00" fill="#337ab7">Status</text>
<polyline fill="none" stroke="#337ab7" points="118,-379.5 254,-379.5 "/>
<text text-anchor="middle" x="186" y="-368.3" font-family="Verdana" font-size="9.00" fill="#337ab7">OnlineOrderFlag</text>
<polyline fill="none" stroke="#337ab7" points="118,-361.5 254,-361.5 "/>
<text text-anchor="middle" x="186" y="-350.3" font-family="Verdana" font-size="9.00" fill="#337ab7">SalesOrderNumber</text>
<polyline fill="none" stroke="#337ab7" points="118,-343.5 254,-343.5 "/>
<text text-anchor="middle" x="186" y="-332.3" font-family="Verdana" font-size="9.00" fill="#337ab7">PurchaseOrderNumber</text>
<polyline fill="none" stroke="#337ab7" points="118,-325.5 254,-325.5 "/>
<text text-anchor="middle" x="186" y="-314.3" font-family="Verdana" font-size="9.00" fill="#337ab7">AccountNumber</text>
<polyline fill="none" stroke="#337ab7" points="118,-307.5 254,-307.5 "/>
<text text-anchor="middle" x="186" y="-296.3" font-family="Verdana" font-size="9.00" fill="#337ab7">+ CustomerID</text>
<polyline fill="none" stroke="#337ab7" points="118,-289.5 254,-289.5 "/>
<text text-anchor="middle" x="186" y="-278.3" font-family="Verdana" font-size="9.00" fill="#337ab7">+ SalesPersonID</text>
<polyline fill="none" stroke="#337ab7" points="118,-271.5 254,-271.5 "/>
<text text-anchor="middle" x="186" y="-260.3" font-family="Verdana" font-size="9.00" fill="#337ab7">+ TerritoryID</text>
<polyline fill="none" stroke="#337ab7" points="118,-253.5 254,-253.5 "/>
<text text-anchor="middle" x="186" y="-242.3" font-family="Verdana" font-size="9.00" fill="#337ab7">+ BillToAddressID</text>
<polyline fill="none" stroke="#337ab7" points="118,-235.5 254,-235.5 "/>
<text text-anchor="middle" x="186" y="-224.3" font-family="Verdana" font-size="9.00" fill="#337ab7">+ ShipToAddressID</text>
<polyline fill="none" stroke="#337ab7" points="118,-217.5 254,-217.5 "/>
<text text-anchor="middle" x="186" y="-206.3" font-family="Verdana" font-size="9.00" fill="#337ab7">+ ShipMethodID</text>
<polyline fill="none" stroke="#337ab7" points="118,-199.5 254,-199.5 "/>
<text text-anchor="middle" x="186" y="-188.3" font-family="Verdana" font-size="9.00" fill="#337ab7">+ CreditCardID</text>
<polyline fill="none" stroke="#337ab7" points="118,-181.5 254,-181.5 "/>
<text text-anchor="middle" x="186" y="-170.3" font-family="Verdana" font-size="9.00" fill="#337ab7">CreditCardApprovalCode</text>
<polyline fill="none" stroke="#337ab7" points="118,-163.5 254,-163.5 "/>
<text text-anchor="middle" x="186" y="-152.3" font-family="Verdana" font-size="9.00" fill="#337ab7">+ CurrencyRateID</text>
<polyline fill="none" stroke="#337ab7" points="118,-145.5 254,-145.5 "/>
<text text-anchor="middle" x="186" y="-134.3" font-family="Verdana" font-size="9.00" fill="#337ab7">SubTotal</text>
<polyline fill="none" stroke="#337ab7" points="118,-127.5 254,-127.5 "/>
<text text-anchor="middle" x="186" y="-116.3" font-family="Verdana" font-size="9.00" fill="#337ab7">TaxAmt</text>
<polyline fill="none" stroke="#337ab7" points="118,-109.5 254,-109.5 "/>
<text text-anchor="middle" x="186" y="-98.3" font-family="Verdana" font-size="9.00" fill="#337ab7">Freight</text>
<polyline fill="none" stroke="#337ab7" points="118,-91.5 254,-91.5 "/>
<text text-anchor="middle" x="186" y="-80.3" font-family="Verdana" font-size="9.00" fill="#337ab7">TotalDue</text>
<polyline fill="none" stroke="#337ab7" points="118,-73.5 254,-73.5 "/>
<text text-anchor="middle" x="186" y="-62.3" font-family="Verdana" font-size="9.00" fill="#337ab7">Comment</text>
<polyline fill="none" stroke="#337ab7" points="118,-55.5 254,-55.5 "/>
<text text-anchor="middle" x="186" y="-44.3" font-family="Verdana" font-size="9.00" fill="#337ab7">rowguid</text>
<polyline fill="none" stroke="#337ab7" points="118,-37.5 254,-37.5 "/>
<text text-anchor="middle" x="186" y="-26.3" font-family="Verdana" font-size="9.00" fill="#337ab7">ModifiedDate</text>
</g>
<!-- struct0&#45;&gt;struct2 -->
<g id="edge1" class="edge"><title>struct0:c581577110_1&#45;&gt;struct2:c1010102639_17</title>
<path fill="none" stroke="black" d="M100,-370.5C176.473,-370.5 51.014,-207.649 107.767,-191.746"/>
<polygon fill="black" stroke="black" points="108.496,-195.183 118,-190.5 107.65,-188.234 108.496,-195.183"/>
</g>
</g>
</svg>
