<?xml version="1.0" encoding="UTF-8" standalone="no"?>
<!DOCTYPE svg PUBLIC "-//W3C//DTD SVG 1.1//EN"
 "http://www.w3.org/Graphics/SVG/1.1/DTD/svg11.dtd">
<!-- Generated by graphviz version 2.38.0 (20140413.2041)
 -->
<!-- Title: g Pages: 1 -->
<svg width="433pt" height="1202pt"
 viewBox="0.00 0.00 433.00 1202.00" xmlns="http://www.w3.org/2000/svg" xmlns:xlink="http://www.w3.org/1999/xlink">
<g id="graph0" class="graph" transform="scale(1 1) rotate(0) translate(4 1198)">
<title>g</title>
<polygon fill="white" stroke="none" points="-4,4 -4,-1198 429,-1198 429,4 -4,4"/>
<text text-anchor="middle" x="212.5" y="-7" font-family="Verdana" font-size="10.00">Table: SalesTerritory</text>
<!-- struct0 -->
<g id="node1" class="node"><title>struct0</title>
<polygon fill="none" stroke="#337ab7" points="0,-399.5 0,-471.5 121,-471.5 121,-399.5 0,-399.5"/>
<text text-anchor="middle" x="60.5" y="-460.3" font-family="Verdana" font-size="9.00" fill="#337ab7">Table: CountryRegion</text>
<polyline fill="none" stroke="#337ab7" points="0,-453.5 121,-453.5 "/>
<text text-anchor="middle" x="60.5" y="-442.3" font-family="Verdana" font-size="9.00" fill="#337ab7">CountryRegionCode +</text>
<polyline fill="none" stroke="#337ab7" points="0,-435.5 121,-435.5 "/>
<text text-anchor="middle" x="60.5" y="-424.3" font-family="Verdana" font-size="9.00" fill="#337ab7">Name</text>
<polyline fill="none" stroke="#337ab7" points="0,-417.5 121,-417.5 "/>
<text text-anchor="middle" x="60.5" y="-406.3" font-family="Verdana" font-size="9.00" fill="#337ab7">ModifiedDate</text>
</g>
<!-- struct4 -->
<g id="node5" class="node"><title>struct4</title>
<polygon fill="none" stroke="black" points="139,-309.5 139,-507.5 260,-507.5 260,-309.5 139,-309.5"/>
<text text-anchor="middle" x="199.5" y="-496.3" font-family="Verdana" font-size="9.00">Table: SalesTerritory</text>
<polyline fill="none" stroke="black" points="139,-489.5 260,-489.5 "/>
<text text-anchor="middle" x="199.5" y="-478.3" font-family="Verdana" font-size="9.00">TerritoryID +</text>
<polyline fill="none" stroke="black" points="139,-471.5 260,-471.5 "/>
<text text-anchor="middle" x="199.5" y="-460.3" font-family="Verdana" font-size="9.00">Name</text>
<polyline fill="none" stroke="black" points="139,-453.5 260,-453.5 "/>
<text text-anchor="middle" x="199.5" y="-442.3" font-family="Verdana" font-size="9.00">+ CountryRegionCode</text>
<polyline fill="none" stroke="black" points="139,-435.5 260,-435.5 "/>
<text text-anchor="middle" x="199.5" y="-424.3" font-family="Verdana" font-size="9.00">Group</text>
<polyline fill="none" stroke="black" points="139,-417.5 260,-417.5 "/>
<text text-anchor="middle" x="199.5" y="-406.3" font-family="Verdana" font-size="9.00">SalesYTD</text>
<polyline fill="none" stroke="black" points="139,-399.5 260,-399.5 "/>
<text text-anchor="middle" x="199.5" y="-388.3" font-family="Verdana" font-size="9.00">SalesLastYear</text>
<polyline fill="none" stroke="black" points="139,-381.5 260,-381.5 "/>
<text text-anchor="middle" x="199.5" y="-370.3" font-family="Verdana" font-size="9.00">CostYTD</text>
<polyline fill="none" stroke="black" points="139,-363.5 260,-363.5 "/>
<text text-anchor="middle" x="199.5" y="-352.3" font-family="Verdana" font-size="9.00">CostLastYear</text>
<polyline fill="none" stroke="black" points="139,-345.5 260,-345.5 "/>
<text text-anchor="middle" x="199.5" y="-334.3" font-family="Verdana" font-size="9.00">rowguid</text>
<polyline fill="none" stroke="black" points="139,-327.5 260,-327.5 "/>
<text text-anchor="middle" x="199.5" y="-316.3" font-family="Verdana" font-size="9.00">ModifiedDate</text>
</g>
<!-- struct0&#45;&gt;struct4 -->
<g id="edge6" class="edge"><title>struct0:c549576996_1&#45;&gt;struct4:c1666104976_3</title>
<path fill="none" stroke="#337ab7" d="M121,-444.5C124.25,-444.5 126.51,-444.5 128.584,-444.5"/>
<polygon fill="#337ab7" stroke="#337ab7" points="129,-448 139,-444.5 129,-441 129,-448"/>
</g>
<!-- struct1 -->
<g id="node2" class="node"><title>struct1</title>
<polygon fill="none" stroke="#337ab7" points="304,-1049.5 304,-1193.5 399,-1193.5 399,-1049.5 304,-1049.5"/>
<text text-anchor="middle" x="351.5" y="-1182.3" font-family="Verdana" font-size="9.00" fill="#337ab7">Table: Customer</text>
<polyline fill="none" stroke="#337ab7" points="304,-1175.5 399,-1175.5 "/>
<text text-anchor="middle" x="351.5" y="-1164.3" font-family="Verdana" font-size="9.00" fill="#337ab7">CustomerID +</text>
<polyline fill="none" stroke="#337ab7" points="304,-1157.5 399,-1157.5 "/>
<text text-anchor="middle" x="351.5" y="-1146.3" font-family="Verdana" font-size="9.00" fill="#337ab7">+ PersonID</text>
<polyline fill="none" stroke="#337ab7" points="304,-1139.5 399,-1139.5 "/>
<text text-anchor="middle" x="351.5" y="-1128.3" font-family="Verdana" font-size="9.00" fill="#337ab7">+ StoreID</text>
<polyline fill="none" stroke="#337ab7" points="304,-1121.5 399,-1121.5 "/>
<text text-anchor="middle" x="351.5" y="-1110.3" font-family="Verdana" font-size="9.00" fill="#337ab7">+ TerritoryID</text>
<polyline fill="none" stroke="#337ab7" points="304,-1103.5 399,-1103.5 "/>
<text text-anchor="middle" x="351.5" y="-1092.3" font-family="Verdana" font-size="9.00" fill="#337ab7">AccountNumber</text>
<polyline fill="none" stroke="#337ab7" points="304,-1085.5 399,-1085.5 "/>
<text text-anchor="middle" x="351.5" y="-1074.3" font-family="Verdana" font-size="9.00" fill="#337ab7">rowguid</text>
<polyline fill="none" stroke="#337ab7" points="304,-1067.5 399,-1067.5 "/>
<text text-anchor="middle" x="351.5" y="-1056.3" font-family="Verdana" font-size="9.00" fill="#337ab7">ModifiedDate</text>
</g>
<!-- struct2 -->
<g id="node3" class="node"><title>struct2</title>
<polygon fill="none" stroke="#337ab7" points="283.5,-544.5 283.5,-1030.5 419.5,-1030.5 419.5,-544.5 283.5,-544.5"/>
<text text-anchor="middle" x="351.5" y="-1019.3" font-family="Verdana" font-size="9.00" fill="#337ab7">Table: SalesOrderHeader</text>
<polyline fill="none" stroke="#337ab7" points="283.5,-1012.5 419.5,-1012.5 "/>
<text text-anchor="middle" x="351.5" y="-1001.3" font-family="Verdana" font-size="9.00" fill="#337ab7">SalesOrderID +</text>
<polyline fill="none" stroke="#337ab7" points="283.5,-994.5 419.5,-994.5 "/>
<text text-anchor="middle" x="351.5" y="-983.3" font-family="Verdana" font-size="9.00" fill="#337ab7">RevisionNumber</text>
<polyline fill="none" stroke="#337ab7" points="283.5,-976.5 419.5,-976.5 "/>
<text text-anchor="middle" x="351.5" y="-965.3" font-family="Verdana" font-size="9.00" fill="#337ab7">OrderDate</text>
<polyline fill="none" stroke="#337ab7" points="283.5,-958.5 419.5,-958.5 "/>
<text text-anchor="middle" x="351.5" y="-947.3" font-family="Verdana" font-size="9.00" fill="#337ab7">DueDate</text>
<polyline fill="none" stroke="#337ab7" points="283.5,-940.5 419.5,-940.5 "/>
<text text-anchor="middle" x="351.5" y="-929.3" font-family="Verdana" font-size="9.00" fill="#337ab7">ShipDate</text>
<polyline fill="none" stroke="#337ab7" points="283.5,-922.5 419.5,-922.5 "/>
<text text-anchor="middle" x="351.5" y="-911.3" font-family="Verdana" font-size="9.00" fill="#337ab7">Status</text>
<polyline fill="none" stroke="#337ab7" points="283.5,-904.5 419.5,-904.5 "/>
<text text-anchor="middle" x="351.5" y="-893.3" font-family="Verdana" font-size="9.00" fill="#337ab7">OnlineOrderFlag</text>
<polyline fill="none" stroke="#337ab7" points="283.5,-886.5 419.5,-886.5 "/>
<text text-anchor="middle" x="351.5" y="-875.3" font-family="Verdana" font-size="9.00" fill="#337ab7">SalesOrderNumber</text>
<polyline fill="none" stroke="#337ab7" points="283.5,-868.5 419.5,-868.5 "/>
<text text-anchor="middle" x="351.5" y="-857.3" font-family="Verdana" font-size="9.00" fill="#337ab7">PurchaseOrderNumber</text>
<polyline fill="none" stroke="#337ab7" points="283.5,-850.5 419.5,-850.5 "/>
<text text-anchor="middle" x="351.5" y="-839.3" font-family="Verdana" font-size="9.00" fill="#337ab7">AccountNumber</text>
<polyline fill="none" stroke="#337ab7" points="283.5,-832.5 419.5,-832.5 "/>
<text text-anchor="middle" x="351.5" y="-821.3" font-family="Verdana" font-size="9.00" fill="#337ab7">+ CustomerID</text>
<polyline fill="none" stroke="#337ab7" points="283.5,-814.5 419.5,-814.5 "/>
<text text-anchor="middle" x="351.5" y="-803.3" font-family="Verdana" font-size="9.00" fill="#337ab7">+ SalesPersonID</text>
<polyline fill="none" stroke="#337ab7" points="283.5,-796.5 419.5,-796.5 "/>
<text text-anchor="middle" x="351.5" y="-785.3" font-family="Verdana" font-size="9.00" fill="#337ab7">+ TerritoryID</text>
<polyline fill="none" stroke="#337ab7" points="283.5,-778.5 419.5,-778.5 "/>
<text text-anchor="middle" x="351.5" y="-767.3" font-family="Verdana" font-size="9.00" fill="#337ab7">+ BillToAddressID</text>
<polyline fill="none" stroke="#337ab7" points="283.5,-760.5 419.5,-760.5 "/>
<text text-anchor="middle" x="351.5" y="-749.3" font-family="Verdana" font-size="9.00" fill="#337ab7">+ ShipToAddressID</text>
<polyline fill="none" stroke="#337ab7" points="283.5,-742.5 419.5,-742.5 "/>
<text text-anchor="middle" x="351.5" y="-731.3" font-family="Verdana" font-size="9.00" fill="#337ab7">+ ShipMethodID</text>
<polyline fill="none" stroke="#337ab7" points="283.5,-724.5 419.5,-724.5 "/>
<text text-anchor="middle" x="351.5" y="-713.3" font-family="Verdana" font-size="9.00" fill="#337ab7">+ CreditCardID</text>
<polyline fill="none" stroke="#337ab7" points="283.5,-706.5 419.5,-706.5 "/>
<text text-anchor="middle" x="351.5" y="-695.3" font-family="Verdana" font-size="9.00" fill="#337ab7">CreditCardApprovalCode</text>
<polyline fill="none" stroke="#337ab7" points="283.5,-688.5 419.5,-688.5 "/>
<text text-anchor="middle" x="351.5" y="-677.3" font-family="Verdana" font-size="9.00" fill="#337ab7">+ CurrencyRateID</text>
<polyline fill="none" stroke="#337ab7" points="283.5,-670.5 419.5,-670.5 "/>
<text text-anchor="middle" x="351.5" y="-659.3" font-family="Verdana" font-size="9.00" fill="#337ab7">SubTotal</text>
<polyline fill="none" stroke="#337ab7" points="283.5,-652.5 419.5,-652.5 "/>
<text text-anchor="middle" x="351.5" y="-641.3" font-family="Verdana" font-size="9.00" fill="#337ab7">TaxAmt</text>
<polyline fill="none" stroke="#337ab7" points="283.5,-634.5 419.5,-634.5 "/>
<text text-anchor="middle" x="351.5" y="-623.3" font-family="Verdana" font-size="9.00" fill="#337ab7">Freight</text>
<polyline fill="none" stroke="#337ab7" points="283.5,-616.5 419.5,-616.5 "/>
<text text-anchor="middle" x="351.5" y="-605.3" font-family="Verdana" font-size="9.00" fill="#337ab7">TotalDue</text>
<polyline fill="none" stroke="#337ab7" points="283.5,-598.5 419.5,-598.5 "/>
<text text-anchor="middle" x="351.5" y="-587.3" font-family="Verdana" font-size="9.00" fill="#337ab7">Comment</text>
<polyline fill="none" stroke="#337ab7" points="283.5,-580.5 419.5,-580.5 "/>
<text text-anchor="middle" x="351.5" y="-569.3" font-family="Verdana" font-size="9.00" fill="#337ab7">rowguid</text>
<polyline fill="none" stroke="#337ab7" points="283.5,-562.5 419.5,-562.5 "/>
<text text-anchor="middle" x="351.5" y="-551.3" font-family="Verdana" font-size="9.00" fill="#337ab7">ModifiedDate</text>
</g>
<!-- struct3 -->
<g id="node4" class="node"><title>struct3</title>
<polygon fill="none" stroke="#337ab7" points="298,-345.5 298,-525.5 405,-525.5 405,-345.5 298,-345.5"/>
<text text-anchor="middle" x="351.5" y="-514.3" font-family="Verdana" font-size="9.00" fill="#337ab7">Table: SalesPerson</text>
<polyline fill="none" stroke="#337ab7" points="298,-507.5 405,-507.5 "/>
<text text-anchor="middle" x="351.5" y="-496.3" font-family="Verdana" font-size="9.00" fill="#337ab7">BusinessEntityID +</text>
<polyline fill="none" stroke="#337ab7" points="298,-489.5 405,-489.5 "/>
<text text-anchor="middle" x="351.5" y="-478.3" font-family="Verdana" font-size="9.00" fill="#337ab7">+ TerritoryID</text>
<polyline fill="none" stroke="#337ab7" points="298,-471.5 405,-471.5 "/>
<text text-anchor="middle" x="351.5" y="-460.3" font-family="Verdana" font-size="9.00" fill="#337ab7">SalesQuota</text>
<polyline fill="none" stroke="#337ab7" points="298,-453.5 405,-453.5 "/>
<text text-anchor="middle" x="351.5" y="-442.3" font-family="Verdana" font-size="9.00" fill="#337ab7">Bonus</text>
<polyline fill="none" stroke="#337ab7" points="298,-435.5 405,-435.5 "/>
<text text-anchor="middle" x="351.5" y="-424.3" font-family="Verdana" font-size="9.00" fill="#337ab7">CommissionPct</text>
<polyline fill="none" stroke="#337ab7" points="298,-417.5 405,-417.5 "/>
<text text-anchor="middle" x="351.5" y="-406.3" font-family="Verdana" font-size="9.00" fill="#337ab7">SalesYTD</text>
<polyline fill="none" stroke="#337ab7" points="298,-399.5 405,-399.5 "/>
<text text-anchor="middle" x="351.5" y="-388.3" font-family="Verdana" font-size="9.00" fill="#337ab7">SalesLastYear</text>
<polyline fill="none" stroke="#337ab7" points="298,-381.5 405,-381.5 "/>
<text text-anchor="middle" x="351.5" y="-370.3" font-family="Verdana" font-size="9.00" fill="#337ab7">rowguid</text>
<polyline fill="none" stroke="#337ab7" points="298,-363.5 405,-363.5 "/>
<text text-anchor="middle" x="351.5" y="-352.3" font-family="Verdana" font-size="9.00" fill="#337ab7">ModifiedDate</text>
</g>
<!-- struct4&#45;&gt;struct1 -->
<g id="edge5" class="edge"><title>struct4:c1666104976_1&#45;&gt;struct1:c709577566_4</title>
<path fill="none" stroke="black" d="M260,-480.5C275.564,-480.5 275.213,-1025.19 278,-1040.5 283.344,-1069.86 272.003,-1103.49 292.528,-1110.97"/>
<polygon fill="black" stroke="black" points="292.086,-1114.45 302.5,-1112.5 293.144,-1107.53 292.086,-1114.45"/>
</g>
<!-- struct4&#45;&gt;struct2 -->
<g id="edge1" class="edge"><title>struct4:c1666104976_1&#45;&gt;struct2:c1010102639_13</title>
<path fill="none" stroke="black" d="M260,-480.5C291.13,-480.5 255.899,-734.814 275.105,-780.511"/>
<polygon fill="black" stroke="black" points="272.828,-783.175 282.5,-787.5 277.636,-778.088 272.828,-783.175"/>
</g>
<!-- struct4&#45;&gt;struct3 -->
<g id="edge2" class="edge"><title>struct4:c1666104976_1&#45;&gt;struct3:c1298103665_2</title>
<path fill="none" stroke="black" d="M260,-480.5C272.167,-480.5 277.49,-480.5 286.234,-480.5"/>
<polygon fill="black" stroke="black" points="286.5,-484 296.5,-480.5 286.5,-477 286.5,-484"/>
</g>
<!-- struct5 -->
<g id="node6" class="node"><title>struct5</title>
<polygon fill="none" stroke="#337ab7" points="278,-200.5 278,-326.5 425,-326.5 425,-200.5 278,-200.5"/>
<text text-anchor="middle" x="351.5" y="-315.3" font-family="Verdana" font-size="9.00" fill="#337ab7">Table: SalesTerritoryHistory</text>
<polyline fill="none" stroke="#337ab7" points="278,-308.5 425,-308.5 "/>
<text text-anchor="middle" x="351.5" y="-297.3" font-family="Verdana" font-size="9.00" fill="#337ab7">+ BusinessEntityID</text>
<polyline fill="none" stroke="#337ab7" points="278,-290.5 425,-290.5 "/>
<text text-anchor="middle" x="351.5" y="-279.3" font-family="Verdana" font-size="9.00" fill="#337ab7">+ TerritoryID</text>
<polyline fill="none" stroke="#337ab7" points="278,-272.5 425,-272.5 "/>
<text text-anchor="middle" x="351.5" y="-261.3" font-family="Verdana" font-size="9.00" fill="#337ab7">StartDate</text>
<polyline fill="none" stroke="#337ab7" points="278,-254.5 425,-254.5 "/>
<text text-anchor="middle" x="351.5" y="-243.3" font-family="Verdana" font-size="9.00" fill="#337ab7">EndDate</text>
<polyline fill="none" stroke="#337ab7" points="278,-236.5 425,-236.5 "/>
<text text-anchor="middle" x="351.5" y="-225.3" font-family="Verdana" font-size="9.00" fill="#337ab7">rowguid</text>
<polyline fill="none" stroke="#337ab7" points="278,-218.5 425,-218.5 "/>
<text text-anchor="middle" x="351.5" y="-207.3" font-family="Verdana" font-size="9.00" fill="#337ab7">ModifiedDate</text>
</g>
<!-- struct4&#45;&gt;struct5 -->
<g id="edge3" class="edge"><title>struct4:c1666104976_1&#45;&gt;struct5:c1842105603_2</title>
<path fill="none" stroke="black" d="M260,-480.5C300.413,-480.5 245.39,-315.652 268.655,-286.03"/>
<polygon fill="black" stroke="black" points="270.528,-289.012 278,-281.5 267.475,-282.713 270.528,-289.012"/>
</g>
<!-- struct6 -->
<g id="node7" class="node"><title>struct6</title>
<polygon fill="none" stroke="#337ab7" points="286,-19.5 286,-181.5 417,-181.5 417,-19.5 286,-19.5"/>
<text text-anchor="middle" x="351.5" y="-170.3" font-family="Verdana" font-size="9.00" fill="#337ab7">Table: StateProvince</text>
<polyline fill="none" stroke="#337ab7" points="286,-163.5 417,-163.5 "/>
<text text-anchor="middle" x="351.5" y="-152.3" font-family="Verdana" font-size="9.00" fill="#337ab7">StateProvinceID +</text>
<polyline fill="none" stroke="#337ab7" points="286,-145.5 417,-145.5 "/>
<text text-anchor="middle" x="351.5" y="-134.3" font-family="Verdana" font-size="9.00" fill="#337ab7">StateProvinceCode</text>
<polyline fill="none" stroke="#337ab7" points="286,-127.5 417,-127.5 "/>
<text text-anchor="middle" x="351.5" y="-116.3" font-family="Verdana" font-size="9.00" fill="#337ab7">+ CountryRegionCode</text>
<polyline fill="none" stroke="#337ab7" points="286,-109.5 417,-109.5 "/>
<text text-anchor="middle" x="351.5" y="-98.3" font-family="Verdana" font-size="9.00" fill="#337ab7">IsOnlyStateProvinceFlag</text>
<polyline fill="none" stroke="#337ab7" points="286,-91.5 417,-91.5 "/>
<text text-anchor="middle" x="351.5" y="-80.3" font-family="Verdana" font-size="9.00" fill="#337ab7">Name</text>
<polyline fill="none" stroke="#337ab7" points="286,-73.5 417,-73.5 "/>
<text text-anchor="middle" x="351.5" y="-62.3" font-family="Verdana" font-size="9.00" fill="#337ab7">+ TerritoryID</text>
<polyline fill="none" stroke="#337ab7" points="286,-55.5 417,-55.5 "/>
<text text-anchor="middle" x="351.5" y="-44.3" font-family="Verdana" font-size="9.00" fill="#337ab7">rowguid</text>
<polyline fill="none" stroke="#337ab7" points="286,-37.5 417,-37.5 "/>
<text text-anchor="middle" x="351.5" y="-26.3" font-family="Verdana" font-size="9.00" fill="#337ab7">ModifiedDate</text>
</g>
<!-- struct4&#45;&gt;struct6 -->
<g id="edge4" class="edge"><title>struct4:c1666104976_1&#45;&gt;struct6:c206623779_6</title>
<path fill="none" stroke="black" d="M260,-480.5C303.047,-480.5 247.209,-120.943 276.35,-70.3807"/>
<polygon fill="black" stroke="black" points="278.439,-73.1898 284.5,-64.5 274.343,-67.5134 278.439,-73.1898"/>
</g>
</g>
</svg>
