<?xml version="1.0" encoding="UTF-8" standalone="no"?>
<!DOCTYPE svg PUBLIC "-//W3C//DTD SVG 1.1//EN"
 "http://www.w3.org/Graphics/SVG/1.1/DTD/svg11.dtd">
<!-- Generated by graphviz version 2.38.0 (20140413.2041)
 -->
<!-- Title: g Pages: 1 -->
<svg width="289pt" height="514pt"
 viewBox="0.00 0.00 289.00 514.00" xmlns="http://www.w3.org/2000/svg" xmlns:xlink="http://www.w3.org/1999/xlink">
<g id="graph0" class="graph" transform="scale(1 1) rotate(0) translate(4 510)">
<title>g</title>
<polygon fill="white" stroke="none" points="-4,4 -4,-510 285,-510 285,4 -4,4"/>
<text text-anchor="middle" x="140.5" y="-7" font-family="Verdana" font-size="10.00">Table: ProductReview</text>
<!-- struct0 -->
<g id="node1" class="node"><title>struct0</title>
<polygon fill="#f7f7f9" stroke="#555555" points="0,-19.5 0,-487.5 144,-487.5 144,-19.5 0,-19.5"/>
<text text-anchor="middle" x="72" y="-476.3" font-family="Verdana" font-size="9.00" fill="#555555">Table: Product</text>
<polyline fill="none" stroke="#555555" points="0,-469.5 144,-469.5 "/>
<text text-anchor="middle" x="72" y="-458.3" font-family="Verdana" font-size="9.00" fill="#555555">ProductID +</text>
<polyline fill="none" stroke="#555555" points="0,-451.5 144,-451.5 "/>
<text text-anchor="middle" x="72" y="-440.3" font-family="Verdana" font-size="9.00" fill="#555555">Name</text>
<polyline fill="none" stroke="#555555" points="0,-433.5 144,-433.5 "/>
<text text-anchor="middle" x="72" y="-422.3" font-family="Verdana" font-size="9.00" fill="#555555">ProductNumber</text>
<polyline fill="none" stroke="#555555" points="0,-415.5 144,-415.5 "/>
<text text-anchor="middle" x="72" y="-404.3" font-family="Verdana" font-size="9.00" fill="#555555">MakeFlag</text>
<polyline fill="none" stroke="#555555" points="0,-397.5 144,-397.5 "/>
<text text-anchor="middle" x="72" y="-386.3" font-family="Verdana" font-size="9.00" fill="#555555">FinishedGoodsFlag</text>
<polyline fill="none" stroke="#555555" points="0,-379.5 144,-379.5 "/>
<text text-anchor="middle" x="72" y="-368.3" font-family="Verdana" font-size="9.00" fill="#555555">Color</text>
<polyline fill="none" stroke="#555555" points="0,-361.5 144,-361.5 "/>
<text text-anchor="middle" x="72" y="-350.3" font-family="Verdana" font-size="9.00" fill="#555555">SafetyStockLevel</text>
<polyline fill="none" stroke="#555555" points="0,-343.5 144,-343.5 "/>
<text text-anchor="middle" x="72" y="-332.3" font-family="Verdana" font-size="9.00" fill="#555555">ReorderPoint</text>
<polyline fill="none" stroke="#555555" points="0,-325.5 144,-325.5 "/>
<text text-anchor="middle" x="72" y="-314.3" font-family="Verdana" font-size="9.00" fill="#555555">StandardCost</text>
<polyline fill="none" stroke="#555555" points="0,-307.5 144,-307.5 "/>
<text text-anchor="middle" x="72" y="-296.3" font-family="Verdana" font-size="9.00" fill="#555555">ListPrice</text>
<polyline fill="none" stroke="#555555" points="0,-289.5 144,-289.5 "/>
<text text-anchor="middle" x="72" y="-278.3" font-family="Verdana" font-size="9.00" fill="#555555">Size</text>
<polyline fill="none" stroke="#555555" points="0,-271.5 144,-271.5 "/>
<text text-anchor="middle" x="72" y="-260.3" font-family="Verdana" font-size="9.00" fill="#555555">+ SizeUnitMeasureCode</text>
<polyline fill="none" stroke="#555555" points="0,-253.5 144,-253.5 "/>
<text text-anchor="middle" x="72" y="-242.3" font-family="Verdana" font-size="9.00" fill="#555555">+ WeightUnitMeasureCode</text>
<polyline fill="none" stroke="#555555" points="0,-235.5 144,-235.5 "/>
<text text-anchor="middle" x="72" y="-224.3" font-family="Verdana" font-size="9.00" fill="#555555">Weight</text>
<polyline fill="none" stroke="#555555" points="0,-217.5 144,-217.5 "/>
<text text-anchor="middle" x="72" y="-206.3" font-family="Verdana" font-size="9.00" fill="#555555">DaysToManufacture</text>
<polyline fill="none" stroke="#555555" points="0,-199.5 144,-199.5 "/>
<text text-anchor="middle" x="72" y="-188.3" font-family="Verdana" font-size="9.00" fill="#555555">ProductLine</text>
<polyline fill="none" stroke="#555555" points="0,-181.5 144,-181.5 "/>
<text text-anchor="middle" x="72" y="-170.3" font-family="Verdana" font-size="9.00" fill="#555555">Class</text>
<polyline fill="none" stroke="#555555" points="0,-163.5 144,-163.5 "/>
<text text-anchor="middle" x="72" y="-152.3" font-family="Verdana" font-size="9.00" fill="#555555">Style</text>
<polyline fill="none" stroke="#555555" points="0,-145.5 144,-145.5 "/>
<text text-anchor="middle" x="72" y="-134.3" font-family="Verdana" font-size="9.00" fill="#555555">+ ProductSubcategoryID</text>
<polyline fill="none" stroke="#555555" points="0,-127.5 144,-127.5 "/>
<text text-anchor="middle" x="72" y="-116.3" font-family="Verdana" font-size="9.00" fill="#555555">+ ProductModelID</text>
<polyline fill="none" stroke="#555555" points="0,-109.5 144,-109.5 "/>
<text text-anchor="middle" x="72" y="-98.3" font-family="Verdana" font-size="9.00" fill="#555555">SellStartDate</text>
<polyline fill="none" stroke="#555555" points="0,-91.5 144,-91.5 "/>
<text text-anchor="middle" x="72" y="-80.3" font-family="Verdana" font-size="9.00" fill="#555555">SellEndDate</text>
<polyline fill="none" stroke="#555555" points="0,-73.5 144,-73.5 "/>
<text text-anchor="middle" x="72" y="-62.3" font-family="Verdana" font-size="9.00" fill="#555555">DiscontinuedDate</text>
<polyline fill="none" stroke="#555555" points="0,-55.5 144,-55.5 "/>
<text text-anchor="middle" x="72" y="-44.3" font-family="Verdana" font-size="9.00" fill="#555555">rowguid</text>
<polyline fill="none" stroke="#555555" points="0,-37.5 144,-37.5 "/>
<text text-anchor="middle" x="72" y="-26.3" font-family="Verdana" font-size="9.00" fill="#555555">ModifiedDate</text>
</g>
<!-- struct1 -->
<g id="node2" class="node"><title>struct1</title>
<polygon fill="#d9edf7" stroke="#1b809e" points="162,-343.5 162,-505.5 281,-505.5 281,-343.5 162,-343.5"/>
<text text-anchor="middle" x="221.5" y="-494.3" font-family="Verdana" font-size="9.00" fill="#1b809e">Table: ProductReview</text>
<polyline fill="none" stroke="#1b809e" points="162,-487.5 281,-487.5 "/>
<text text-anchor="middle" x="221.5" y="-476.3" font-family="Verdana" font-size="9.00" fill="#1b809e">ProductReviewID</text>
<polyline fill="none" stroke="#1b809e" points="162,-469.5 281,-469.5 "/>
<text text-anchor="middle" x="221.5" y="-458.3" font-family="Verdana" font-size="9.00" fill="#1b809e">+ ProductID</text>
<polyline fill="none" stroke="#1b809e" points="162,-451.5 281,-451.5 "/>
<text text-anchor="middle" x="221.5" y="-440.3" font-family="Verdana" font-size="9.00" fill="#1b809e">ReviewerName</text>
<polyline fill="none" stroke="#1b809e" points="162,-433.5 281,-433.5 "/>
<text text-anchor="middle" x="221.5" y="-422.3" font-family="Verdana" font-size="9.00" fill="#1b809e">ReviewDate</text>
<polyline fill="none" stroke="#1b809e" points="162,-415.5 281,-415.5 "/>
<text text-anchor="middle" x="221.5" y="-404.3" font-family="Verdana" font-size="9.00" fill="#1b809e">EmailAddress</text>
<polyline fill="none" stroke="#1b809e" points="162,-397.5 281,-397.5 "/>
<text text-anchor="middle" x="221.5" y="-386.3" font-family="Verdana" font-size="9.00" fill="#1b809e">Rating</text>
<polyline fill="none" stroke="#1b809e" points="162,-379.5 281,-379.5 "/>
<text text-anchor="middle" x="221.5" y="-368.3" font-family="Verdana" font-size="9.00" fill="#1b809e">Comments</text>
<polyline fill="none" stroke="#1b809e" points="162,-361.5 281,-361.5 "/>
<text text-anchor="middle" x="221.5" y="-350.3" font-family="Verdana" font-size="9.00" fill="#1b809e">ModifiedDate</text>
</g>
<!-- struct0&#45;&gt;struct1 -->
<g id="edge1" class="edge"><title>struct0:c1717581157_1&#45;&gt;struct1:c354100302_2</title>
<path fill="none" stroke="#337ab7" d="M144,-460.5C147.25,-460.5 149.51,-460.5 151.584,-460.5"/>
<polygon fill="#337ab7" stroke="#337ab7" points="152,-464 162,-460.5 152,-457 152,-464"/>
</g>
</g>
</svg>
