<?xml version="1.0" encoding="UTF-8" standalone="no"?>
<!DOCTYPE svg PUBLIC "-//W3C//DTD SVG 1.1//EN"
 "http://www.w3.org/Graphics/SVG/1.1/DTD/svg11.dtd">
<!-- Generated by graphviz version 2.38.0 (20140413.2041)
 -->
<!-- Title: g Pages: 1 -->
<svg width="301pt" height="623pt"
 viewBox="0.00 0.00 301.00 623.00" xmlns="http://www.w3.org/2000/svg" xmlns:xlink="http://www.w3.org/1999/xlink">
<g id="graph0" class="graph" transform="scale(1 1) rotate(0) translate(4 619)">
<title>g</title>
<polygon fill="white" stroke="none" points="-4,4 -4,-619 297,-619 297,4 -4,4"/>
<text text-anchor="middle" x="146.5" y="-7" font-family="Verdana" font-size="10.00">Table: ProductInventory</text>
<!-- struct0 -->
<g id="node1" class="node"><title>struct0</title>
<polygon fill="none" stroke="#337ab7" points="27.5,-19.5 27.5,-127.5 116.5,-127.5 116.5,-19.5 27.5,-19.5"/>
<text text-anchor="middle" x="72" y="-116.3" font-family="Verdana" font-size="9.00" fill="#337ab7">Table: Location</text>
<polyline fill="none" stroke="#337ab7" points="27.5,-109.5 116.5,-109.5 "/>
<text text-anchor="middle" x="72" y="-98.3" font-family="Verdana" font-size="9.00" fill="#337ab7">LocationID +</text>
<polyline fill="none" stroke="#337ab7" points="27.5,-91.5 116.5,-91.5 "/>
<text text-anchor="middle" x="72" y="-80.3" font-family="Verdana" font-size="9.00" fill="#337ab7">Name</text>
<polyline fill="none" stroke="#337ab7" points="27.5,-73.5 116.5,-73.5 "/>
<text text-anchor="middle" x="72" y="-62.3" font-family="Verdana" font-size="9.00" fill="#337ab7">CostRate</text>
<polyline fill="none" stroke="#337ab7" points="27.5,-55.5 116.5,-55.5 "/>
<text text-anchor="middle" x="72" y="-44.3" font-family="Verdana" font-size="9.00" fill="#337ab7">Availability</text>
<polyline fill="none" stroke="#337ab7" points="27.5,-37.5 116.5,-37.5 "/>
<text text-anchor="middle" x="72" y="-26.3" font-family="Verdana" font-size="9.00" fill="#337ab7">ModifiedDate</text>
</g>
<!-- struct2 -->
<g id="node3" class="node"><title>struct2</title>
<polygon fill="none" stroke="black" points="162,-235.5 162,-379.5 293,-379.5 293,-235.5 162,-235.5"/>
<text text-anchor="middle" x="227.5" y="-368.3" font-family="Verdana" font-size="9.00">Table: ProductInventory</text>
<polyline fill="none" stroke="black" points="162,-361.5 293,-361.5 "/>
<text text-anchor="middle" x="227.5" y="-350.3" font-family="Verdana" font-size="9.00">+ ProductID</text>
<polyline fill="none" stroke="black" points="162,-343.5 293,-343.5 "/>
<text text-anchor="middle" x="227.5" y="-332.3" font-family="Verdana" font-size="9.00">+ LocationID</text>
<polyline fill="none" stroke="black" points="162,-325.5 293,-325.5 "/>
<text text-anchor="middle" x="227.5" y="-314.3" font-family="Verdana" font-size="9.00">Shelf</text>
<polyline fill="none" stroke="black" points="162,-307.5 293,-307.5 "/>
<text text-anchor="middle" x="227.5" y="-296.3" font-family="Verdana" font-size="9.00">Bin</text>
<polyline fill="none" stroke="black" points="162,-289.5 293,-289.5 "/>
<text text-anchor="middle" x="227.5" y="-278.3" font-family="Verdana" font-size="9.00">Quantity</text>
<polyline fill="none" stroke="black" points="162,-271.5 293,-271.5 "/>
<text text-anchor="middle" x="227.5" y="-260.3" font-family="Verdana" font-size="9.00">rowguid</text>
<polyline fill="none" stroke="black" points="162,-253.5 293,-253.5 "/>
<text text-anchor="middle" x="227.5" y="-242.3" font-family="Verdana" font-size="9.00">ModifiedDate</text>
</g>
<!-- struct0&#45;&gt;struct2 -->
<g id="edge2" class="edge"><title>struct0:c1365579903_1&#45;&gt;struct2:c2099048_2</title>
<path fill="none" stroke="#337ab7" d="M118,-100.5C137.737,-100.5 137.083,-118.015 144,-136.5 150.774,-154.603 142.562,-292.62 155.202,-326.841"/>
<polygon fill="#337ab7" stroke="#337ab7" points="152.744,-329.345 162,-334.5 157.979,-324.698 152.744,-329.345"/>
</g>
<!-- struct1 -->
<g id="node2" class="node"><title>struct1</title>
<polygon fill="none" stroke="#337ab7" points="0,-146.5 0,-614.5 144,-614.5 144,-146.5 0,-146.5"/>
<text text-anchor="middle" x="72" y="-603.3" font-family="Verdana" font-size="9.00" fill="#337ab7">Table: Product</text>
<polyline fill="none" stroke="#337ab7" points="0,-596.5 144,-596.5 "/>
<text text-anchor="middle" x="72" y="-585.3" font-family="Verdana" font-size="9.00" fill="#337ab7">ProductID +</text>
<polyline fill="none" stroke="#337ab7" points="0,-578.5 144,-578.5 "/>
<text text-anchor="middle" x="72" y="-567.3" font-family="Verdana" font-size="9.00" fill="#337ab7">Name</text>
<polyline fill="none" stroke="#337ab7" points="0,-560.5 144,-560.5 "/>
<text text-anchor="middle" x="72" y="-549.3" font-family="Verdana" font-size="9.00" fill="#337ab7">ProductNumber</text>
<polyline fill="none" stroke="#337ab7" points="0,-542.5 144,-542.5 "/>
<text text-anchor="middle" x="72" y="-531.3" font-family="Verdana" font-size="9.00" fill="#337ab7">MakeFlag</text>
<polyline fill="none" stroke="#337ab7" points="0,-524.5 144,-524.5 "/>
<text text-anchor="middle" x="72" y="-513.3" font-family="Verdana" font-size="9.00" fill="#337ab7">FinishedGoodsFlag</text>
<polyline fill="none" stroke="#337ab7" points="0,-506.5 144,-506.5 "/>
<text text-anchor="middle" x="72" y="-495.3" font-family="Verdana" font-size="9.00" fill="#337ab7">Color</text>
<polyline fill="none" stroke="#337ab7" points="0,-488.5 144,-488.5 "/>
<text text-anchor="middle" x="72" y="-477.3" font-family="Verdana" font-size="9.00" fill="#337ab7">SafetyStockLevel</text>
<polyline fill="none" stroke="#337ab7" points="0,-470.5 144,-470.5 "/>
<text text-anchor="middle" x="72" y="-459.3" font-family="Verdana" font-size="9.00" fill="#337ab7">ReorderPoint</text>
<polyline fill="none" stroke="#337ab7" points="0,-452.5 144,-452.5 "/>
<text text-anchor="middle" x="72" y="-441.3" font-family="Verdana" font-size="9.00" fill="#337ab7">StandardCost</text>
<polyline fill="none" stroke="#337ab7" points="0,-434.5 144,-434.5 "/>
<text text-anchor="middle" x="72" y="-423.3" font-family="Verdana" font-size="9.00" fill="#337ab7">ListPrice</text>
<polyline fill="none" stroke="#337ab7" points="0,-416.5 144,-416.5 "/>
<text text-anchor="middle" x="72" y="-405.3" font-family="Verdana" font-size="9.00" fill="#337ab7">Size</text>
<polyline fill="none" stroke="#337ab7" points="0,-398.5 144,-398.5 "/>
<text text-anchor="middle" x="72" y="-387.3" font-family="Verdana" font-size="9.00" fill="#337ab7">+ SizeUnitMeasureCode</text>
<polyline fill="none" stroke="#337ab7" points="0,-380.5 144,-380.5 "/>
<text text-anchor="middle" x="72" y="-369.3" font-family="Verdana" font-size="9.00" fill="#337ab7">+ WeightUnitMeasureCode</text>
<polyline fill="none" stroke="#337ab7" points="0,-362.5 144,-362.5 "/>
<text text-anchor="middle" x="72" y="-351.3" font-family="Verdana" font-size="9.00" fill="#337ab7">Weight</text>
<polyline fill="none" stroke="#337ab7" points="0,-344.5 144,-344.5 "/>
<text text-anchor="middle" x="72" y="-333.3" font-family="Verdana" font-size="9.00" fill="#337ab7">DaysToManufacture</text>
<polyline fill="none" stroke="#337ab7" points="0,-326.5 144,-326.5 "/>
<text text-anchor="middle" x="72" y="-315.3" font-family="Verdana" font-size="9.00" fill="#337ab7">ProductLine</text>
<polyline fill="none" stroke="#337ab7" points="0,-308.5 144,-308.5 "/>
<text text-anchor="middle" x="72" y="-297.3" font-family="Verdana" font-size="9.00" fill="#337ab7">Class</text>
<polyline fill="none" stroke="#337ab7" points="0,-290.5 144,-290.5 "/>
<text text-anchor="middle" x="72" y="-279.3" font-family="Verdana" font-size="9.00" fill="#337ab7">Style</text>
<polyline fill="none" stroke="#337ab7" points="0,-272.5 144,-272.5 "/>
<text text-anchor="middle" x="72" y="-261.3" font-family="Verdana" font-size="9.00" fill="#337ab7">+ ProductSubcategoryID</text>
<polyline fill="none" stroke="#337ab7" points="0,-254.5 144,-254.5 "/>
<text text-anchor="middle" x="72" y="-243.3" font-family="Verdana" font-size="9.00" fill="#337ab7">+ ProductModelID</text>
<polyline fill="none" stroke="#337ab7" points="0,-236.5 144,-236.5 "/>
<text text-anchor="middle" x="72" y="-225.3" font-family="Verdana" font-size="9.00" fill="#337ab7">SellStartDate</text>
<polyline fill="none" stroke="#337ab7" points="0,-218.5 144,-218.5 "/>
<text text-anchor="middle" x="72" y="-207.3" font-family="Verdana" font-size="9.00" fill="#337ab7">SellEndDate</text>
<polyline fill="none" stroke="#337ab7" points="0,-200.5 144,-200.5 "/>
<text text-anchor="middle" x="72" y="-189.3" font-family="Verdana" font-size="9.00" fill="#337ab7">DiscontinuedDate</text>
<polyline fill="none" stroke="#337ab7" points="0,-182.5 144,-182.5 "/>
<text text-anchor="middle" x="72" y="-171.3" font-family="Verdana" font-size="9.00" fill="#337ab7">rowguid</text>
<polyline fill="none" stroke="#337ab7" points="0,-164.5 144,-164.5 "/>
<text text-anchor="middle" x="72" y="-153.3" font-family="Verdana" font-size="9.00" fill="#337ab7">ModifiedDate</text>
</g>
<!-- struct1&#45;&gt;struct2 -->
<g id="edge1" class="edge"><title>struct1:c1717581157_1&#45;&gt;struct2:c2099048_1</title>
<path fill="none" stroke="#337ab7" d="M144,-587.5C245.068,-587.5 70.3484,-368.733 152.025,-353.351"/>
<polygon fill="#337ab7" stroke="#337ab7" points="152.334,-356.837 162,-352.5 151.739,-349.863 152.334,-356.837"/>
</g>
</g>
</svg>
