<?xml version="1.0" encoding="UTF-8" standalone="no"?>
<!DOCTYPE svg PUBLIC "-//W3C//DTD SVG 1.1//EN"
 "http://www.w3.org/Graphics/SVG/1.1/DTD/svg11.dtd">
<!-- Generated by graphviz version 2.38.0 (20140413.2041)
 -->
<!-- Title: g Pages: 1 -->
<svg width="359pt" height="623pt"
 viewBox="0.00 0.00 359.00 623.00" xmlns="http://www.w3.org/2000/svg" xmlns:xlink="http://www.w3.org/1999/xlink">
<g id="graph0" class="graph" transform="scale(1 1) rotate(0) translate(4 619)">
<title>g</title>
<polygon fill="white" stroke="none" points="-4,4 -4,-619 355,-619 355,4 -4,4"/>
<text text-anchor="middle" x="175.5" y="-7" font-family="Verdana" font-size="10.00">Table: SalesOrderHeaderSalesReason</text>
<!-- struct0 -->
<g id="node1" class="node"><title>struct0</title>
<polygon fill="none" stroke="#337ab7" points="0,-128.5 0,-614.5 136,-614.5 136,-128.5 0,-128.5"/>
<text text-anchor="middle" x="68" y="-603.3" font-family="Verdana" font-size="9.00" fill="#337ab7">Table: SalesOrderHeader</text>
<polyline fill="none" stroke="#337ab7" points="0,-596.5 136,-596.5 "/>
<text text-anchor="middle" x="68" y="-585.3" font-family="Verdana" font-size="9.00" fill="#337ab7">SalesOrderID +</text>
<polyline fill="none" stroke="#337ab7" points="0,-578.5 136,-578.5 "/>
<text text-anchor="middle" x="68" y="-567.3" font-family="Verdana" font-size="9.00" fill="#337ab7">RevisionNumber</text>
<polyline fill="none" stroke="#337ab7" points="0,-560.5 136,-560.5 "/>
<text text-anchor="middle" x="68" y="-549.3" font-family="Verdana" font-size="9.00" fill="#337ab7">OrderDate</text>
<polyline fill="none" stroke="#337ab7" points="0,-542.5 136,-542.5 "/>
<text text-anchor="middle" x="68" y="-531.3" font-family="Verdana" font-size="9.00" fill="#337ab7">DueDate</text>
<polyline fill="none" stroke="#337ab7" points="0,-524.5 136,-524.5 "/>
<text text-anchor="middle" x="68" y="-513.3" font-family="Verdana" font-size="9.00" fill="#337ab7">ShipDate</text>
<polyline fill="none" stroke="#337ab7" points="0,-506.5 136,-506.5 "/>
<text text-anchor="middle" x="68" y="-495.3" font-family="Verdana" font-size="9.00" fill="#337ab7">Status</text>
<polyline fill="none" stroke="#337ab7" points="0,-488.5 136,-488.5 "/>
<text text-anchor="middle" x="68" y="-477.3" font-family="Verdana" font-size="9.00" fill="#337ab7">OnlineOrderFlag</text>
<polyline fill="none" stroke="#337ab7" points="0,-470.5 136,-470.5 "/>
<text text-anchor="middle" x="68" y="-459.3" font-family="Verdana" font-size="9.00" fill="#337ab7">SalesOrderNumber</text>
<polyline fill="none" stroke="#337ab7" points="0,-452.5 136,-452.5 "/>
<text text-anchor="middle" x="68" y="-441.3" font-family="Verdana" font-size="9.00" fill="#337ab7">PurchaseOrderNumber</text>
<polyline fill="none" stroke="#337ab7" points="0,-434.5 136,-434.5 "/>
<text text-anchor="middle" x="68" y="-423.3" font-family="Verdana" font-size="9.00" fill="#337ab7">AccountNumber</text>
<polyline fill="none" stroke="#337ab7" points="0,-416.5 136,-416.5 "/>
<text text-anchor="middle" x="68" y="-405.3" font-family="Verdana" font-size="9.00" fill="#337ab7">+ CustomerID</text>
<polyline fill="none" stroke="#337ab7" points="0,-398.5 136,-398.5 "/>
<text text-anchor="middle" x="68" y="-387.3" font-family="Verdana" font-size="9.00" fill="#337ab7">+ SalesPersonID</text>
<polyline fill="none" stroke="#337ab7" points="0,-380.5 136,-380.5 "/>
<text text-anchor="middle" x="68" y="-369.3" font-family="Verdana" font-size="9.00" fill="#337ab7">+ TerritoryID</text>
<polyline fill="none" stroke="#337ab7" points="0,-362.5 136,-362.5 "/>
<text text-anchor="middle" x="68" y="-351.3" font-family="Verdana" font-size="9.00" fill="#337ab7">+ BillToAddressID</text>
<polyline fill="none" stroke="#337ab7" points="0,-344.5 136,-344.5 "/>
<text text-anchor="middle" x="68" y="-333.3" font-family="Verdana" font-size="9.00" fill="#337ab7">+ ShipToAddressID</text>
<polyline fill="none" stroke="#337ab7" points="0,-326.5 136,-326.5 "/>
<text text-anchor="middle" x="68" y="-315.3" font-family="Verdana" font-size="9.00" fill="#337ab7">+ ShipMethodID</text>
<polyline fill="none" stroke="#337ab7" points="0,-308.5 136,-308.5 "/>
<text text-anchor="middle" x="68" y="-297.3" font-family="Verdana" font-size="9.00" fill="#337ab7">+ CreditCardID</text>
<polyline fill="none" stroke="#337ab7" points="0,-290.5 136,-290.5 "/>
<text text-anchor="middle" x="68" y="-279.3" font-family="Verdana" font-size="9.00" fill="#337ab7">CreditCardApprovalCode</text>
<polyline fill="none" stroke="#337ab7" points="0,-272.5 136,-272.5 "/>
<text text-anchor="middle" x="68" y="-261.3" font-family="Verdana" font-size="9.00" fill="#337ab7">+ CurrencyRateID</text>
<polyline fill="none" stroke="#337ab7" points="0,-254.5 136,-254.5 "/>
<text text-anchor="middle" x="68" y="-243.3" font-family="Verdana" font-size="9.00" fill="#337ab7">SubTotal</text>
<polyline fill="none" stroke="#337ab7" points="0,-236.5 136,-236.5 "/>
<text text-anchor="middle" x="68" y="-225.3" font-family="Verdana" font-size="9.00" fill="#337ab7">TaxAmt</text>
<polyline fill="none" stroke="#337ab7" points="0,-218.5 136,-218.5 "/>
<text text-anchor="middle" x="68" y="-207.3" font-family="Verdana" font-size="9.00" fill="#337ab7">Freight</text>
<polyline fill="none" stroke="#337ab7" points="0,-200.5 136,-200.5 "/>
<text text-anchor="middle" x="68" y="-189.3" font-family="Verdana" font-size="9.00" fill="#337ab7">TotalDue</text>
<polyline fill="none" stroke="#337ab7" points="0,-182.5 136,-182.5 "/>
<text text-anchor="middle" x="68" y="-171.3" font-family="Verdana" font-size="9.00" fill="#337ab7">Comment</text>
<polyline fill="none" stroke="#337ab7" points="0,-164.5 136,-164.5 "/>
<text text-anchor="middle" x="68" y="-153.3" font-family="Verdana" font-size="9.00" fill="#337ab7">rowguid</text>
<polyline fill="none" stroke="#337ab7" points="0,-146.5 136,-146.5 "/>
<text text-anchor="middle" x="68" y="-135.3" font-family="Verdana" font-size="9.00" fill="#337ab7">ModifiedDate</text>
</g>
<!-- struct1 -->
<g id="node2" class="node"><title>struct1</title>
<polygon fill="none" stroke="black" points="154,-298.5 154,-370.5 351,-370.5 351,-298.5 154,-298.5"/>
<text text-anchor="middle" x="252.5" y="-359.3" font-family="Verdana" font-size="9.00">Table: SalesOrderHeaderSalesReason</text>
<polyline fill="none" stroke="black" points="154,-352.5 351,-352.5 "/>
<text text-anchor="middle" x="252.5" y="-341.3" font-family="Verdana" font-size="9.00">+ SalesOrderID</text>
<polyline fill="none" stroke="black" points="154,-334.5 351,-334.5 "/>
<text text-anchor="middle" x="252.5" y="-323.3" font-family="Verdana" font-size="9.00">+ SalesReasonID</text>
<polyline fill="none" stroke="black" points="154,-316.5 351,-316.5 "/>
<text text-anchor="middle" x="252.5" y="-305.3" font-family="Verdana" font-size="9.00">ModifiedDate</text>
</g>
<!-- struct0&#45;&gt;struct1 -->
<g id="edge1" class="edge"><title>struct0:c1010102639_1&#45;&gt;struct1:c1266103551_1</title>
<path fill="none" stroke="#337ab7" d="M136,-587.5C241.022,-587.5 58.537,-359.895 143.906,-344.336"/>
<polygon fill="#337ab7" stroke="#337ab7" points="144.323,-347.813 154,-343.5 143.745,-340.837 144.323,-347.813"/>
</g>
<!-- struct2 -->
<g id="node3" class="node"><title>struct2</title>
<polygon fill="none" stroke="#337ab7" points="13,-19.5 13,-109.5 123,-109.5 123,-19.5 13,-19.5"/>
<text text-anchor="middle" x="68" y="-98.3" font-family="Verdana" font-size="9.00" fill="#337ab7">Table: SalesReason</text>
<polyline fill="none" stroke="#337ab7" points="13,-91.5 123,-91.5 "/>
<text text-anchor="middle" x="68" y="-80.3" font-family="Verdana" font-size="9.00" fill="#337ab7">SalesReasonID +</text>
<polyline fill="none" stroke="#337ab7" points="13,-73.5 123,-73.5 "/>
<text text-anchor="middle" x="68" y="-62.3" font-family="Verdana" font-size="9.00" fill="#337ab7">Name</text>
<polyline fill="none" stroke="#337ab7" points="13,-55.5 123,-55.5 "/>
<text text-anchor="middle" x="68" y="-44.3" font-family="Verdana" font-size="9.00" fill="#337ab7">ReasonType</text>
<polyline fill="none" stroke="#337ab7" points="13,-37.5 123,-37.5 "/>
<text text-anchor="middle" x="68" y="-26.3" font-family="Verdana" font-size="9.00" fill="#337ab7">ModifiedDate</text>
</g>
<!-- struct2&#45;&gt;struct1 -->
<g id="edge2" class="edge"><title>struct2:c1554104577_1&#45;&gt;struct1:c1266103551_2</title>
<path fill="none" stroke="#337ab7" d="M124,-82.5C148.389,-82.5 131.296,-277.795 147.096,-318.227"/>
<polygon fill="#337ab7" stroke="#337ab7" points="144.577,-320.657 154,-325.5 149.654,-315.838 144.577,-320.657"/>
</g>
</g>
</svg>
