<?xml version="1.0" encoding="UTF-8" standalone="no"?>
<!DOCTYPE svg PUBLIC "-//W3C//DTD SVG 1.1//EN"
 "http://www.w3.org/Graphics/SVG/1.1/DTD/svg11.dtd">
<!-- Generated by graphviz version 2.38.0 (20140413.2041)
 -->
<!-- Title: g Pages: 1 -->
<svg width="280pt" height="930pt"
 viewBox="0.00 0.00 280.00 930.00" xmlns="http://www.w3.org/2000/svg" xmlns:xlink="http://www.w3.org/1999/xlink">
<g id="graph0" class="graph" transform="scale(1 1) rotate(0) translate(4 926)">
<title>g</title>
<polygon fill="white" stroke="none" points="-4,4 -4,-926 276,-926 276,4 -4,4"/>
<text text-anchor="middle" x="136" y="-7" font-family="Verdana" font-size="10.00">Table: UnitMeasure</text>
<!-- struct0 -->
<g id="node1" class="node"><title>struct0</title>
<polygon fill="none" stroke="#337ab7" points="141.5,-741.5 141.5,-921.5 258.5,-921.5 258.5,-741.5 141.5,-741.5"/>
<text text-anchor="middle" x="200" y="-910.3" font-family="Verdana" font-size="9.00" fill="#337ab7">Table: BillOfMaterials</text>
<polyline fill="none" stroke="#337ab7" points="141.5,-903.5 258.5,-903.5 "/>
<text text-anchor="middle" x="200" y="-892.3" font-family="Verdana" font-size="9.00" fill="#337ab7">BillOfMaterialsID</text>
<polyline fill="none" stroke="#337ab7" points="141.5,-885.5 258.5,-885.5 "/>
<text text-anchor="middle" x="200" y="-874.3" font-family="Verdana" font-size="9.00" fill="#337ab7">+ ProductAssemblyID</text>
<polyline fill="none" stroke="#337ab7" points="141.5,-867.5 258.5,-867.5 "/>
<text text-anchor="middle" x="200" y="-856.3" font-family="Verdana" font-size="9.00" fill="#337ab7">+ ComponentID</text>
<polyline fill="none" stroke="#337ab7" points="141.5,-849.5 258.5,-849.5 "/>
<text text-anchor="middle" x="200" y="-838.3" font-family="Verdana" font-size="9.00" fill="#337ab7">StartDate</text>
<polyline fill="none" stroke="#337ab7" points="141.5,-831.5 258.5,-831.5 "/>
<text text-anchor="middle" x="200" y="-820.3" font-family="Verdana" font-size="9.00" fill="#337ab7">EndDate</text>
<polyline fill="none" stroke="#337ab7" points="141.5,-813.5 258.5,-813.5 "/>
<text text-anchor="middle" x="200" y="-802.3" font-family="Verdana" font-size="9.00" fill="#337ab7">+ UnitMeasureCode</text>
<polyline fill="none" stroke="#337ab7" points="141.5,-795.5 258.5,-795.5 "/>
<text text-anchor="middle" x="200" y="-784.3" font-family="Verdana" font-size="9.00" fill="#337ab7">BOMLevel</text>
<polyline fill="none" stroke="#337ab7" points="141.5,-777.5 258.5,-777.5 "/>
<text text-anchor="middle" x="200" y="-766.3" font-family="Verdana" font-size="9.00" fill="#337ab7">PerAssemblyQty</text>
<polyline fill="none" stroke="#337ab7" points="141.5,-759.5 258.5,-759.5 "/>
<text text-anchor="middle" x="200" y="-748.3" font-family="Verdana" font-size="9.00" fill="#337ab7">ModifiedDate</text>
</g>
<!-- struct1 -->
<g id="node2" class="node"><title>struct1</title>
<polygon fill="none" stroke="#337ab7" points="128,-254.5 128,-722.5 272,-722.5 272,-254.5 128,-254.5"/>
<text text-anchor="middle" x="200" y="-711.3" font-family="Verdana" font-size="9.00" fill="#337ab7">Table: Product</text>
<polyline fill="none" stroke="#337ab7" points="128,-704.5 272,-704.5 "/>
<text text-anchor="middle" x="200" y="-693.3" font-family="Verdana" font-size="9.00" fill="#337ab7">ProductID +</text>
<polyline fill="none" stroke="#337ab7" points="128,-686.5 272,-686.5 "/>
<text text-anchor="middle" x="200" y="-675.3" font-family="Verdana" font-size="9.00" fill="#337ab7">Name</text>
<polyline fill="none" stroke="#337ab7" points="128,-668.5 272,-668.5 "/>
<text text-anchor="middle" x="200" y="-657.3" font-family="Verdana" font-size="9.00" fill="#337ab7">ProductNumber</text>
<polyline fill="none" stroke="#337ab7" points="128,-650.5 272,-650.5 "/>
<text text-anchor="middle" x="200" y="-639.3" font-family="Verdana" font-size="9.00" fill="#337ab7">MakeFlag</text>
<polyline fill="none" stroke="#337ab7" points="128,-632.5 272,-632.5 "/>
<text text-anchor="middle" x="200" y="-621.3" font-family="Verdana" font-size="9.00" fill="#337ab7">FinishedGoodsFlag</text>
<polyline fill="none" stroke="#337ab7" points="128,-614.5 272,-614.5 "/>
<text text-anchor="middle" x="200" y="-603.3" font-family="Verdana" font-size="9.00" fill="#337ab7">Color</text>
<polyline fill="none" stroke="#337ab7" points="128,-596.5 272,-596.5 "/>
<text text-anchor="middle" x="200" y="-585.3" font-family="Verdana" font-size="9.00" fill="#337ab7">SafetyStockLevel</text>
<polyline fill="none" stroke="#337ab7" points="128,-578.5 272,-578.5 "/>
<text text-anchor="middle" x="200" y="-567.3" font-family="Verdana" font-size="9.00" fill="#337ab7">ReorderPoint</text>
<polyline fill="none" stroke="#337ab7" points="128,-560.5 272,-560.5 "/>
<text text-anchor="middle" x="200" y="-549.3" font-family="Verdana" font-size="9.00" fill="#337ab7">StandardCost</text>
<polyline fill="none" stroke="#337ab7" points="128,-542.5 272,-542.5 "/>
<text text-anchor="middle" x="200" y="-531.3" font-family="Verdana" font-size="9.00" fill="#337ab7">ListPrice</text>
<polyline fill="none" stroke="#337ab7" points="128,-524.5 272,-524.5 "/>
<text text-anchor="middle" x="200" y="-513.3" font-family="Verdana" font-size="9.00" fill="#337ab7">Size</text>
<polyline fill="none" stroke="#337ab7" points="128,-506.5 272,-506.5 "/>
<text text-anchor="middle" x="200" y="-495.3" font-family="Verdana" font-size="9.00" fill="#337ab7">+ SizeUnitMeasureCode</text>
<polyline fill="none" stroke="#337ab7" points="128,-488.5 272,-488.5 "/>
<text text-anchor="middle" x="200" y="-477.3" font-family="Verdana" font-size="9.00" fill="#337ab7">+ WeightUnitMeasureCode</text>
<polyline fill="none" stroke="#337ab7" points="128,-470.5 272,-470.5 "/>
<text text-anchor="middle" x="200" y="-459.3" font-family="Verdana" font-size="9.00" fill="#337ab7">Weight</text>
<polyline fill="none" stroke="#337ab7" points="128,-452.5 272,-452.5 "/>
<text text-anchor="middle" x="200" y="-441.3" font-family="Verdana" font-size="9.00" fill="#337ab7">DaysToManufacture</text>
<polyline fill="none" stroke="#337ab7" points="128,-434.5 272,-434.5 "/>
<text text-anchor="middle" x="200" y="-423.3" font-family="Verdana" font-size="9.00" fill="#337ab7">ProductLine</text>
<polyline fill="none" stroke="#337ab7" points="128,-416.5 272,-416.5 "/>
<text text-anchor="middle" x="200" y="-405.3" font-family="Verdana" font-size="9.00" fill="#337ab7">Class</text>
<polyline fill="none" stroke="#337ab7" points="128,-398.5 272,-398.5 "/>
<text text-anchor="middle" x="200" y="-387.3" font-family="Verdana" font-size="9.00" fill="#337ab7">Style</text>
<polyline fill="none" stroke="#337ab7" points="128,-380.5 272,-380.5 "/>
<text text-anchor="middle" x="200" y="-369.3" font-family="Verdana" font-size="9.00" fill="#337ab7">+ ProductSubcategoryID</text>
<polyline fill="none" stroke="#337ab7" points="128,-362.5 272,-362.5 "/>
<text text-anchor="middle" x="200" y="-351.3" font-family="Verdana" font-size="9.00" fill="#337ab7">+ ProductModelID</text>
<polyline fill="none" stroke="#337ab7" points="128,-344.5 272,-344.5 "/>
<text text-anchor="middle" x="200" y="-333.3" font-family="Verdana" font-size="9.00" fill="#337ab7">SellStartDate</text>
<polyline fill="none" stroke="#337ab7" points="128,-326.5 272,-326.5 "/>
<text text-anchor="middle" x="200" y="-315.3" font-family="Verdana" font-size="9.00" fill="#337ab7">SellEndDate</text>
<polyline fill="none" stroke="#337ab7" points="128,-308.5 272,-308.5 "/>
<text text-anchor="middle" x="200" y="-297.3" font-family="Verdana" font-size="9.00" fill="#337ab7">DiscontinuedDate</text>
<polyline fill="none" stroke="#337ab7" points="128,-290.5 272,-290.5 "/>
<text text-anchor="middle" x="200" y="-279.3" font-family="Verdana" font-size="9.00" fill="#337ab7">rowguid</text>
<polyline fill="none" stroke="#337ab7" points="128,-272.5 272,-272.5 "/>
<text text-anchor="middle" x="200" y="-261.3" font-family="Verdana" font-size="9.00" fill="#337ab7">ModifiedDate</text>
</g>
<!-- struct2 -->
<g id="node3" class="node"><title>struct2</title>
<polygon fill="none" stroke="#337ab7" points="140.5,-19.5 140.5,-235.5 259.5,-235.5 259.5,-19.5 140.5,-19.5"/>
<text text-anchor="middle" x="200" y="-224.3" font-family="Verdana" font-size="9.00" fill="#337ab7">Table: ProductVendor</text>
<polyline fill="none" stroke="#337ab7" points="140.5,-217.5 259.5,-217.5 "/>
<text text-anchor="middle" x="200" y="-206.3" font-family="Verdana" font-size="9.00" fill="#337ab7">+ ProductID</text>
<polyline fill="none" stroke="#337ab7" points="140.5,-199.5 259.5,-199.5 "/>
<text text-anchor="middle" x="200" y="-188.3" font-family="Verdana" font-size="9.00" fill="#337ab7">+ BusinessEntityID</text>
<polyline fill="none" stroke="#337ab7" points="140.5,-181.5 259.5,-181.5 "/>
<text text-anchor="middle" x="200" y="-170.3" font-family="Verdana" font-size="9.00" fill="#337ab7">AverageLeadTime</text>
<polyline fill="none" stroke="#337ab7" points="140.5,-163.5 259.5,-163.5 "/>
<text text-anchor="middle" x="200" y="-152.3" font-family="Verdana" font-size="9.00" fill="#337ab7">StandardPrice</text>
<polyline fill="none" stroke="#337ab7" points="140.5,-145.5 259.5,-145.5 "/>
<text text-anchor="middle" x="200" y="-134.3" font-family="Verdana" font-size="9.00" fill="#337ab7">LastReceiptCost</text>
<polyline fill="none" stroke="#337ab7" points="140.5,-127.5 259.5,-127.5 "/>
<text text-anchor="middle" x="200" y="-116.3" font-family="Verdana" font-size="9.00" fill="#337ab7">LastReceiptDate</text>
<polyline fill="none" stroke="#337ab7" points="140.5,-109.5 259.5,-109.5 "/>
<text text-anchor="middle" x="200" y="-98.3" font-family="Verdana" font-size="9.00" fill="#337ab7">MinOrderQty</text>
<polyline fill="none" stroke="#337ab7" points="140.5,-91.5 259.5,-91.5 "/>
<text text-anchor="middle" x="200" y="-80.3" font-family="Verdana" font-size="9.00" fill="#337ab7">MaxOrderQty</text>
<polyline fill="none" stroke="#337ab7" points="140.5,-73.5 259.5,-73.5 "/>
<text text-anchor="middle" x="200" y="-62.3" font-family="Verdana" font-size="9.00" fill="#337ab7">OnOrderQty</text>
<polyline fill="none" stroke="#337ab7" points="140.5,-55.5 259.5,-55.5 "/>
<text text-anchor="middle" x="200" y="-44.3" font-family="Verdana" font-size="9.00" fill="#337ab7">+ UnitMeasureCode</text>
<polyline fill="none" stroke="#337ab7" points="140.5,-37.5 259.5,-37.5 "/>
<text text-anchor="middle" x="200" y="-26.3" font-family="Verdana" font-size="9.00" fill="#337ab7">ModifiedDate</text>
</g>
<!-- struct3 -->
<g id="node4" class="node"><title>struct3</title>
<polygon fill="none" stroke="black" points="0,-443.5 0,-515.5 110,-515.5 110,-443.5 0,-443.5"/>
<text text-anchor="middle" x="55" y="-504.3" font-family="Verdana" font-size="9.00">Table: UnitMeasure</text>
<polyline fill="none" stroke="black" points="0,-497.5 110,-497.5 "/>
<text text-anchor="middle" x="55" y="-486.3" font-family="Verdana" font-size="9.00">UnitMeasureCode +</text>
<polyline fill="none" stroke="black" points="0,-479.5 110,-479.5 "/>
<text text-anchor="middle" x="55" y="-468.3" font-family="Verdana" font-size="9.00">Name</text>
<polyline fill="none" stroke="black" points="0,-461.5 110,-461.5 "/>
<text text-anchor="middle" x="55" y="-450.3" font-family="Verdana" font-size="9.00">ModifiedDate</text>
</g>
<!-- struct3&#45;&gt;struct0 -->
<g id="edge3" class="edge"><title>struct3:c478624748_1&#45;&gt;struct0:c213575799_6</title>
<path fill="none" stroke="black" d="M110,-488.5C142.169,-488.5 111.271,-751.394 132.354,-797.606"/>
<polygon fill="black" stroke="black" points="130.229,-800.403 140,-804.5 134.917,-795.204 130.229,-800.403"/>
</g>
<!-- struct3&#45;&gt;struct1 -->
<g id="edge1" class="edge"><title>struct3:c478624748_1&#45;&gt;struct1:c1717581157_12</title>
<path fill="none" stroke="black" d="M110,-488.5C114.472,-488.5 116.736,-490.75 119,-493"/>
<polygon fill="black" stroke="black" points="117.49,-496.158 128,-497.5 120.621,-489.897 117.49,-496.158"/>
</g>
<!-- struct3&#45;&gt;struct1 -->
<g id="edge2" class="edge"><title>struct3:c478624748_1&#45;&gt;struct1:c1717581157_13</title>
<path fill="none" stroke="black" d="M110,-488.5C114.472,-488.5 116.736,-486.25 119,-484"/>
<polygon fill="black" stroke="black" points="120.621,-487.103 128,-479.5 117.49,-480.842 120.621,-487.103"/>
</g>
<!-- struct3&#45;&gt;struct2 -->
<g id="edge4" class="edge"><title>struct3:c478624748_1&#45;&gt;struct2:c466100701_10</title>
<path fill="none" stroke="black" d="M110,-488.5C132.542,-488.5 117.471,-117.625 133.695,-55.3291"/>
<polygon fill="black" stroke="black" points="136.85,-56.8744 139,-46.5 130.85,-53.2693 136.85,-56.8744"/>
</g>
</g>
</svg>
