<?xml version="1.0" encoding="UTF-8" standalone="no"?>
<!DOCTYPE svg PUBLIC "-//W3C//DTD SVG 1.1//EN"
 "http://www.w3.org/Graphics/SVG/1.1/DTD/svg11.dtd">
<!-- Generated by graphviz version 2.38.0 (20140413.2041)
 -->
<!-- Title: g Pages: 1 -->
<svg width="300pt" height="462pt"
 viewBox="0.00 0.00 300.00 462.00" xmlns="http://www.w3.org/2000/svg" xmlns:xlink="http://www.w3.org/1999/xlink">
<g id="graph0" class="graph" transform="scale(1 1) rotate(0) translate(4 458)">
<title>g</title>
<polygon fill="white" stroke="none" points="-4,4 -4,-458 296,-458 296,4 -4,4"/>
<text text-anchor="middle" x="146" y="-7" font-family="Verdana" font-size="10.00">Table: BusinessEntityContact</text>
<!-- struct0 -->
<g id="node1" class="node"><title>struct0</title>
<polygon fill="#f7f7f9" stroke="#555555" points="0.5,-381.5 0.5,-453.5 118.5,-453.5 118.5,-381.5 0.5,-381.5"/>
<text text-anchor="middle" x="59.5" y="-442.3" font-family="Verdana" font-size="9.00" fill="#555555">Table: BusinessEntity</text>
<polyline fill="none" stroke="#555555" points="0.5,-435.5 118.5,-435.5 "/>
<text text-anchor="middle" x="59.5" y="-424.3" font-family="Verdana" font-size="9.00" fill="#555555">BusinessEntityID +</text>
<polyline fill="none" stroke="#555555" points="0.5,-417.5 118.5,-417.5 "/>
<text text-anchor="middle" x="59.5" y="-406.3" font-family="Verdana" font-size="9.00" fill="#555555">rowguid</text>
<polyline fill="none" stroke="#555555" points="0.5,-399.5 118.5,-399.5 "/>
<text text-anchor="middle" x="59.5" y="-388.3" font-family="Verdana" font-size="9.00" fill="#555555">ModifiedDate</text>
</g>
<!-- struct1 -->
<g id="node2" class="node"><title>struct1</title>
<polygon fill="#d9edf7" stroke="#1b809e" points="137,-272.5 137,-380.5 292,-380.5 292,-272.5 137,-272.5"/>
<text text-anchor="middle" x="214.5" y="-369.3" font-family="Verdana" font-size="9.00" fill="#1b809e">Table: BusinessEntityContact</text>
<polyline fill="none" stroke="#1b809e" points="137,-362.5 292,-362.5 "/>
<text text-anchor="middle" x="214.5" y="-351.3" font-family="Verdana" font-size="9.00" fill="#1b809e">+ BusinessEntityID</text>
<polyline fill="none" stroke="#1b809e" points="137,-344.5 292,-344.5 "/>
<text text-anchor="middle" x="214.5" y="-333.3" font-family="Verdana" font-size="9.00" fill="#1b809e">+ PersonID</text>
<polyline fill="none" stroke="#1b809e" points="137,-326.5 292,-326.5 "/>
<text text-anchor="middle" x="214.5" y="-315.3" font-family="Verdana" font-size="9.00" fill="#1b809e">+ ContactTypeID</text>
<polyline fill="none" stroke="#1b809e" points="137,-308.5 292,-308.5 "/>
<text text-anchor="middle" x="214.5" y="-297.3" font-family="Verdana" font-size="9.00" fill="#1b809e">rowguid</text>
<polyline fill="none" stroke="#1b809e" points="137,-290.5 292,-290.5 "/>
<text text-anchor="middle" x="214.5" y="-279.3" font-family="Verdana" font-size="9.00" fill="#1b809e">ModifiedDate</text>
</g>
<!-- struct0&#45;&gt;struct1 -->
<g id="edge1" class="edge"><title>struct0:c341576255_1&#45;&gt;struct1:c437576597_1</title>
<path fill="none" stroke="#337ab7" d="M119,-426.5C147.717,-426.5 115.691,-372.588 127.325,-357.425"/>
<polygon fill="#337ab7" stroke="#337ab7" points="129.049,-360.502 137,-353.5 126.418,-354.016 129.049,-360.502"/>
</g>
<!-- struct2 -->
<g id="node3" class="node"><title>struct2</title>
<polygon fill="#f7f7f9" stroke="#555555" points="5.5,-19.5 5.5,-91.5 113.5,-91.5 113.5,-19.5 5.5,-19.5"/>
<text text-anchor="middle" x="59.5" y="-80.3" font-family="Verdana" font-size="9.00" fill="#555555">Table: ContactType</text>
<polyline fill="none" stroke="#555555" points="5.5,-73.5 113.5,-73.5 "/>
<text text-anchor="middle" x="59.5" y="-62.3" font-family="Verdana" font-size="9.00" fill="#555555">ContactTypeID +</text>
<polyline fill="none" stroke="#555555" points="5.5,-55.5 113.5,-55.5 "/>
<text text-anchor="middle" x="59.5" y="-44.3" font-family="Verdana" font-size="9.00" fill="#555555">Name</text>
<polyline fill="none" stroke="#555555" points="5.5,-37.5 113.5,-37.5 "/>
<text text-anchor="middle" x="59.5" y="-26.3" font-family="Verdana" font-size="9.00" fill="#555555">ModifiedDate</text>
</g>
<!-- struct2&#45;&gt;struct1 -->
<g id="edge3" class="edge"><title>struct2:c485576768_1&#45;&gt;struct1:c437576597_3</title>
<path fill="none" stroke="#337ab7" d="M114.5,-64.5C139.801,-64.5 115.139,-267.832 130.096,-309.928"/>
<polygon fill="#337ab7" stroke="#337ab7" points="127.676,-312.469 137,-317.5 132.849,-307.752 127.676,-312.469"/>
</g>
<!-- struct3 -->
<g id="node4" class="node"><title>struct3</title>
<polygon fill="#f7f7f9" stroke="#555555" points="0,-110.5 0,-362.5 119,-362.5 119,-110.5 0,-110.5"/>
<text text-anchor="middle" x="59.5" y="-351.3" font-family="Verdana" font-size="9.00" fill="#555555">Table: Person</text>
<polyline fill="none" stroke="#555555" points="0,-344.5 119,-344.5 "/>
<text text-anchor="middle" x="59.5" y="-333.3" font-family="Verdana" font-size="9.00" fill="#555555">BusinessEntityID +</text>
<polyline fill="none" stroke="#555555" points="0,-326.5 119,-326.5 "/>
<text text-anchor="middle" x="59.5" y="-315.3" font-family="Verdana" font-size="9.00" fill="#555555">PersonType</text>
<polyline fill="none" stroke="#555555" points="0,-308.5 119,-308.5 "/>
<text text-anchor="middle" x="59.5" y="-297.3" font-family="Verdana" font-size="9.00" fill="#555555">NameStyle</text>
<polyline fill="none" stroke="#555555" points="0,-290.5 119,-290.5 "/>
<text text-anchor="middle" x="59.5" y="-279.3" font-family="Verdana" font-size="9.00" fill="#555555">Title</text>
<polyline fill="none" stroke="#555555" points="0,-272.5 119,-272.5 "/>
<text text-anchor="middle" x="59.5" y="-261.3" font-family="Verdana" font-size="9.00" fill="#555555">FirstName</text>
<polyline fill="none" stroke="#555555" points="0,-254.5 119,-254.5 "/>
<text text-anchor="middle" x="59.5" y="-243.3" font-family="Verdana" font-size="9.00" fill="#555555">MiddleName</text>
<polyline fill="none" stroke="#555555" points="0,-236.5 119,-236.5 "/>
<text text-anchor="middle" x="59.5" y="-225.3" font-family="Verdana" font-size="9.00" fill="#555555">LastName</text>
<polyline fill="none" stroke="#555555" points="0,-218.5 119,-218.5 "/>
<text text-anchor="middle" x="59.5" y="-207.3" font-family="Verdana" font-size="9.00" fill="#555555">Suffix</text>
<polyline fill="none" stroke="#555555" points="0,-200.5 119,-200.5 "/>
<text text-anchor="middle" x="59.5" y="-189.3" font-family="Verdana" font-size="9.00" fill="#555555">EmailPromotion</text>
<polyline fill="none" stroke="#555555" points="0,-182.5 119,-182.5 "/>
<text text-anchor="middle" x="59.5" y="-171.3" font-family="Verdana" font-size="9.00" fill="#555555">AdditionalContactInfo</text>
<polyline fill="none" stroke="#555555" points="0,-164.5 119,-164.5 "/>
<text text-anchor="middle" x="59.5" y="-153.3" font-family="Verdana" font-size="9.00" fill="#555555">Demographics</text>
<polyline fill="none" stroke="#555555" points="0,-146.5 119,-146.5 "/>
<text text-anchor="middle" x="59.5" y="-135.3" font-family="Verdana" font-size="9.00" fill="#555555">rowguid</text>
<polyline fill="none" stroke="#555555" points="0,-128.5 119,-128.5 "/>
<text text-anchor="middle" x="59.5" y="-117.3" font-family="Verdana" font-size="9.00" fill="#555555">ModifiedDate</text>
</g>
<!-- struct3&#45;&gt;struct1 -->
<g id="edge2" class="edge"><title>struct3:c1509580416_1&#45;&gt;struct1:c437576597_2</title>
<path fill="none" stroke="#337ab7" d="M119,-335.5C122.25,-335.5 124.51,-335.5 126.584,-335.5"/>
<polygon fill="#337ab7" stroke="#337ab7" points="127,-339 137,-335.5 127,-332 127,-339"/>
</g>
</g>
</svg>
