<?xml version="1.0" encoding="UTF-8" standalone="no"?>
<!DOCTYPE svg PUBLIC "-//W3C//DTD SVG 1.1//EN"
 "http://www.w3.org/Graphics/SVG/1.1/DTD/svg11.dtd">
<!-- Generated by graphviz version 2.38.0 (20140413.2041)
 -->
<!-- Title: g Pages: 1 -->
<svg width="302pt" height="785pt"
 viewBox="0.00 0.00 302.00 785.00" xmlns="http://www.w3.org/2000/svg" xmlns:xlink="http://www.w3.org/1999/xlink">
<g id="graph0" class="graph" transform="scale(1 1) rotate(0) translate(4 781)">
<title>g</title>
<polygon fill="white" stroke="none" points="-4,4 -4,-781 298,-781 298,4 -4,4"/>
<text text-anchor="middle" x="147" y="-7" font-family="Verdana" font-size="10.00">Table: ProductDocument</text>
<!-- struct0 -->
<g id="node1" class="node"><title>struct0</title>
<polygon fill="none" stroke="#337ab7" points="18.5,-19.5 18.5,-289.5 125.5,-289.5 125.5,-19.5 18.5,-19.5"/>
<text text-anchor="middle" x="72" y="-278.3" font-family="Verdana" font-size="9.00" fill="#337ab7">Table: Document</text>
<polyline fill="none" stroke="#337ab7" points="18.5,-271.5 125.5,-271.5 "/>
<text text-anchor="middle" x="72" y="-260.3" font-family="Verdana" font-size="9.00" fill="#337ab7">DocumentNode +</text>
<polyline fill="none" stroke="#337ab7" points="18.5,-253.5 125.5,-253.5 "/>
<text text-anchor="middle" x="72" y="-242.3" font-family="Verdana" font-size="9.00" fill="#337ab7">DocumentLevel</text>
<polyline fill="none" stroke="#337ab7" points="18.5,-235.5 125.5,-235.5 "/>
<text text-anchor="middle" x="72" y="-224.3" font-family="Verdana" font-size="9.00" fill="#337ab7">Title</text>
<polyline fill="none" stroke="#337ab7" points="18.5,-217.5 125.5,-217.5 "/>
<text text-anchor="middle" x="72" y="-206.3" font-family="Verdana" font-size="9.00" fill="#337ab7">+ Owner</text>
<polyline fill="none" stroke="#337ab7" points="18.5,-199.5 125.5,-199.5 "/>
<text text-anchor="middle" x="72" y="-188.3" font-family="Verdana" font-size="9.00" fill="#337ab7">FolderFlag</text>
<polyline fill="none" stroke="#337ab7" points="18.5,-181.5 125.5,-181.5 "/>
<text text-anchor="middle" x="72" y="-170.3" font-family="Verdana" font-size="9.00" fill="#337ab7">FileName</text>
<polyline fill="none" stroke="#337ab7" points="18.5,-163.5 125.5,-163.5 "/>
<text text-anchor="middle" x="72" y="-152.3" font-family="Verdana" font-size="9.00" fill="#337ab7">FileExtension</text>
<polyline fill="none" stroke="#337ab7" points="18.5,-145.5 125.5,-145.5 "/>
<text text-anchor="middle" x="72" y="-134.3" font-family="Verdana" font-size="9.00" fill="#337ab7">Revision</text>
<polyline fill="none" stroke="#337ab7" points="18.5,-127.5 125.5,-127.5 "/>
<text text-anchor="middle" x="72" y="-116.3" font-family="Verdana" font-size="9.00" fill="#337ab7">ChangeNumber</text>
<polyline fill="none" stroke="#337ab7" points="18.5,-109.5 125.5,-109.5 "/>
<text text-anchor="middle" x="72" y="-98.3" font-family="Verdana" font-size="9.00" fill="#337ab7">Status</text>
<polyline fill="none" stroke="#337ab7" points="18.5,-91.5 125.5,-91.5 "/>
<text text-anchor="middle" x="72" y="-80.3" font-family="Verdana" font-size="9.00" fill="#337ab7">DocumentSummary</text>
<polyline fill="none" stroke="#337ab7" points="18.5,-73.5 125.5,-73.5 "/>
<text text-anchor="middle" x="72" y="-62.3" font-family="Verdana" font-size="9.00" fill="#337ab7">Document</text>
<polyline fill="none" stroke="#337ab7" points="18.5,-55.5 125.5,-55.5 "/>
<text text-anchor="middle" x="72" y="-44.3" font-family="Verdana" font-size="9.00" fill="#337ab7">rowguid</text>
<polyline fill="none" stroke="#337ab7" points="18.5,-37.5 125.5,-37.5 "/>
<text text-anchor="middle" x="72" y="-26.3" font-family="Verdana" font-size="9.00" fill="#337ab7">ModifiedDate</text>
</g>
<!-- struct2 -->
<g id="node3" class="node"><title>struct2</title>
<polygon fill="none" stroke="black" points="162,-469.5 162,-541.5 294,-541.5 294,-469.5 162,-469.5"/>
<text text-anchor="middle" x="228" y="-530.3" font-family="Verdana" font-size="9.00">Table: ProductDocument</text>
<polyline fill="none" stroke="black" points="162,-523.5 294,-523.5 "/>
<text text-anchor="middle" x="228" y="-512.3" font-family="Verdana" font-size="9.00">+ ProductID</text>
<polyline fill="none" stroke="black" points="162,-505.5 294,-505.5 "/>
<text text-anchor="middle" x="228" y="-494.3" font-family="Verdana" font-size="9.00">+ DocumentNode</text>
<polyline fill="none" stroke="black" points="162,-487.5 294,-487.5 "/>
<text text-anchor="middle" x="228" y="-476.3" font-family="Verdana" font-size="9.00">ModifiedDate</text>
</g>
<!-- struct0&#45;&gt;struct2 -->
<g id="edge2" class="edge"><title>struct0:c789577851_1&#45;&gt;struct2:c2117582582_2</title>
<path fill="none" stroke="#337ab7" d="M127,-262.5C144.694,-262.5 139.35,-281.428 144,-298.5 149.08,-317.15 142.138,-454.756 155.122,-488.866"/>
<polygon fill="#337ab7" stroke="#337ab7" points="152.706,-491.413 162,-496.5 157.907,-486.728 152.706,-491.413"/>
</g>
<!-- struct1 -->
<g id="node2" class="node"><title>struct1</title>
<polygon fill="none" stroke="#337ab7" points="0,-308.5 0,-776.5 144,-776.5 144,-308.5 0,-308.5"/>
<text text-anchor="middle" x="72" y="-765.3" font-family="Verdana" font-size="9.00" fill="#337ab7">Table: Product</text>
<polyline fill="none" stroke="#337ab7" points="0,-758.5 144,-758.5 "/>
<text text-anchor="middle" x="72" y="-747.3" font-family="Verdana" font-size="9.00" fill="#337ab7">ProductID +</text>
<polyline fill="none" stroke="#337ab7" points="0,-740.5 144,-740.5 "/>
<text text-anchor="middle" x="72" y="-729.3" font-family="Verdana" font-size="9.00" fill="#337ab7">Name</text>
<polyline fill="none" stroke="#337ab7" points="0,-722.5 144,-722.5 "/>
<text text-anchor="middle" x="72" y="-711.3" font-family="Verdana" font-size="9.00" fill="#337ab7">ProductNumber</text>
<polyline fill="none" stroke="#337ab7" points="0,-704.5 144,-704.5 "/>
<text text-anchor="middle" x="72" y="-693.3" font-family="Verdana" font-size="9.00" fill="#337ab7">MakeFlag</text>
<polyline fill="none" stroke="#337ab7" points="0,-686.5 144,-686.5 "/>
<text text-anchor="middle" x="72" y="-675.3" font-family="Verdana" font-size="9.00" fill="#337ab7">FinishedGoodsFlag</text>
<polyline fill="none" stroke="#337ab7" points="0,-668.5 144,-668.5 "/>
<text text-anchor="middle" x="72" y="-657.3" font-family="Verdana" font-size="9.00" fill="#337ab7">Color</text>
<polyline fill="none" stroke="#337ab7" points="0,-650.5 144,-650.5 "/>
<text text-anchor="middle" x="72" y="-639.3" font-family="Verdana" font-size="9.00" fill="#337ab7">SafetyStockLevel</text>
<polyline fill="none" stroke="#337ab7" points="0,-632.5 144,-632.5 "/>
<text text-anchor="middle" x="72" y="-621.3" font-family="Verdana" font-size="9.00" fill="#337ab7">ReorderPoint</text>
<polyline fill="none" stroke="#337ab7" points="0,-614.5 144,-614.5 "/>
<text text-anchor="middle" x="72" y="-603.3" font-family="Verdana" font-size="9.00" fill="#337ab7">StandardCost</text>
<polyline fill="none" stroke="#337ab7" points="0,-596.5 144,-596.5 "/>
<text text-anchor="middle" x="72" y="-585.3" font-family="Verdana" font-size="9.00" fill="#337ab7">ListPrice</text>
<polyline fill="none" stroke="#337ab7" points="0,-578.5 144,-578.5 "/>
<text text-anchor="middle" x="72" y="-567.3" font-family="Verdana" font-size="9.00" fill="#337ab7">Size</text>
<polyline fill="none" stroke="#337ab7" points="0,-560.5 144,-560.5 "/>
<text text-anchor="middle" x="72" y="-549.3" font-family="Verdana" font-size="9.00" fill="#337ab7">+ SizeUnitMeasureCode</text>
<polyline fill="none" stroke="#337ab7" points="0,-542.5 144,-542.5 "/>
<text text-anchor="middle" x="72" y="-531.3" font-family="Verdana" font-size="9.00" fill="#337ab7">+ WeightUnitMeasureCode</text>
<polyline fill="none" stroke="#337ab7" points="0,-524.5 144,-524.5 "/>
<text text-anchor="middle" x="72" y="-513.3" font-family="Verdana" font-size="9.00" fill="#337ab7">Weight</text>
<polyline fill="none" stroke="#337ab7" points="0,-506.5 144,-506.5 "/>
<text text-anchor="middle" x="72" y="-495.3" font-family="Verdana" font-size="9.00" fill="#337ab7">DaysToManufacture</text>
<polyline fill="none" stroke="#337ab7" points="0,-488.5 144,-488.5 "/>
<text text-anchor="middle" x="72" y="-477.3" font-family="Verdana" font-size="9.00" fill="#337ab7">ProductLine</text>
<polyline fill="none" stroke="#337ab7" points="0,-470.5 144,-470.5 "/>
<text text-anchor="middle" x="72" y="-459.3" font-family="Verdana" font-size="9.00" fill="#337ab7">Class</text>
<polyline fill="none" stroke="#337ab7" points="0,-452.5 144,-452.5 "/>
<text text-anchor="middle" x="72" y="-441.3" font-family="Verdana" font-size="9.00" fill="#337ab7">Style</text>
<polyline fill="none" stroke="#337ab7" points="0,-434.5 144,-434.5 "/>
<text text-anchor="middle" x="72" y="-423.3" font-family="Verdana" font-size="9.00" fill="#337ab7">+ ProductSubcategoryID</text>
<polyline fill="none" stroke="#337ab7" points="0,-416.5 144,-416.5 "/>
<text text-anchor="middle" x="72" y="-405.3" font-family="Verdana" font-size="9.00" fill="#337ab7">+ ProductModelID</text>
<polyline fill="none" stroke="#337ab7" points="0,-398.5 144,-398.5 "/>
<text text-anchor="middle" x="72" y="-387.3" font-family="Verdana" font-size="9.00" fill="#337ab7">SellStartDate</text>
<polyline fill="none" stroke="#337ab7" points="0,-380.5 144,-380.5 "/>
<text text-anchor="middle" x="72" y="-369.3" font-family="Verdana" font-size="9.00" fill="#337ab7">SellEndDate</text>
<polyline fill="none" stroke="#337ab7" points="0,-362.5 144,-362.5 "/>
<text text-anchor="middle" x="72" y="-351.3" font-family="Verdana" font-size="9.00" fill="#337ab7">DiscontinuedDate</text>
<polyline fill="none" stroke="#337ab7" points="0,-344.5 144,-344.5 "/>
<text text-anchor="middle" x="72" y="-333.3" font-family="Verdana" font-size="9.00" fill="#337ab7">rowguid</text>
<polyline fill="none" stroke="#337ab7" points="0,-326.5 144,-326.5 "/>
<text text-anchor="middle" x="72" y="-315.3" font-family="Verdana" font-size="9.00" fill="#337ab7">ModifiedDate</text>
</g>
<!-- struct1&#45;&gt;struct2 -->
<g id="edge1" class="edge"><title>struct1:c1717581157_1&#45;&gt;struct2:c2117582582_1</title>
<path fill="none" stroke="#337ab7" d="M144,-749.5C245.068,-749.5 70.3484,-530.733 152.025,-515.351"/>
<polygon fill="#337ab7" stroke="#337ab7" points="152.334,-518.837 162,-514.5 151.739,-511.863 152.334,-518.837"/>
</g>
</g>
</svg>
