<?xml version="1.0" encoding="UTF-8" standalone="no"?>
<!DOCTYPE svg PUBLIC "-//W3C//DTD SVG 1.1//EN"
 "http://www.w3.org/Graphics/SVG/1.1/DTD/svg11.dtd">
<!-- Generated by graphviz version 2.38.0 (20140413.2041)
 -->
<!-- Title: g Pages: 1 -->
<svg width="190pt" height="208pt"
 viewBox="0.00 0.00 190.00 208.00" xmlns="http://www.w3.org/2000/svg" xmlns:xlink="http://www.w3.org/1999/xlink">
<g id="graph0" class="graph" transform="scale(1 1) rotate(0) translate(4 204)">
<title>g</title>
<polygon fill="white" stroke="none" points="-4,4 -4,-204 186,-204 186,4 -4,4"/>
<text text-anchor="middle" x="91" y="-7" font-family="Verdana" font-size="10.00">Table: TransactionHistoryArchive</text>
<!-- struct0 -->
<g id="node1" class="node"><title>struct0</title>
<polygon fill="none" stroke="black" points="6,-19.5 6,-199.5 176,-199.5 176,-19.5 6,-19.5"/>
<text text-anchor="middle" x="91" y="-188.3" font-family="Verdana" font-size="9.00">Table: TransactionHistoryArchive</text>
<polyline fill="none" stroke="black" points="6,-181.5 176,-181.5 "/>
<text text-anchor="middle" x="91" y="-170.3" font-family="Verdana" font-size="9.00">TransactionID</text>
<polyline fill="none" stroke="black" points="6,-163.5 176,-163.5 "/>
<text text-anchor="middle" x="91" y="-152.3" font-family="Verdana" font-size="9.00">ProductID</text>
<polyline fill="none" stroke="black" points="6,-145.5 176,-145.5 "/>
<text text-anchor="middle" x="91" y="-134.3" font-family="Verdana" font-size="9.00">ReferenceOrderID</text>
<polyline fill="none" stroke="black" points="6,-127.5 176,-127.5 "/>
<text text-anchor="middle" x="91" y="-116.3" font-family="Verdana" font-size="9.00">ReferenceOrderLineID</text>
<polyline fill="none" stroke="black" points="6,-109.5 176,-109.5 "/>
<text text-anchor="middle" x="91" y="-98.3" font-family="Verdana" font-size="9.00">TransactionDate</text>
<polyline fill="none" stroke="black" points="6,-91.5 176,-91.5 "/>
<text text-anchor="middle" x="91" y="-80.3" font-family="Verdana" font-size="9.00">TransactionType</text>
<polyline fill="none" stroke="black" points="6,-73.5 176,-73.5 "/>
<text text-anchor="middle" x="91" y="-62.3" font-family="Verdana" font-size="9.00">Quantity</text>
<polyline fill="none" stroke="black" points="6,-55.5 176,-55.5 "/>
<text text-anchor="middle" x="91" y="-44.3" font-family="Verdana" font-size="9.00">ActualCost</text>
<polyline fill="none" stroke="black" points="6,-37.5 176,-37.5 "/>
<text text-anchor="middle" x="91" y="-26.3" font-family="Verdana" font-size="9.00">ModifiedDate</text>
</g>
</g>
</svg>
