<?xml version="1.0" encoding="UTF-8" standalone="no"?>
<!DOCTYPE svg PUBLIC "-//W3C//DTD SVG 1.1//EN"
 "http://www.w3.org/Graphics/SVG/1.1/DTD/svg11.dtd">
<!-- Generated by graphviz version 2.38.0 (20140413.2041)
 -->
<!-- Title: g Pages: 1 -->
<svg width="251pt" height="280pt"
 viewBox="0.00 0.00 251.00 280.00" xmlns="http://www.w3.org/2000/svg" xmlns:xlink="http://www.w3.org/1999/xlink">
<g id="graph0" class="graph" transform="scale(1 1) rotate(0) translate(4 276)">
<title>g</title>
<polygon fill="white" stroke="none" points="-4,4 -4,-276 247,-276 247,4 -4,4"/>
<text text-anchor="middle" x="121.5" y="-7" font-family="Verdana" font-size="10.00">Table: Password</text>
<!-- struct0 -->
<g id="node1" class="node"><title>struct0</title>
<polygon fill="none" stroke="black" points="137,-163.5 137,-271.5 243,-271.5 243,-163.5 137,-163.5"/>
<text text-anchor="middle" x="190" y="-260.3" font-family="Verdana" font-size="9.00">Table: Password</text>
<polyline fill="none" stroke="black" points="137,-253.5 243,-253.5 "/>
<text text-anchor="middle" x="190" y="-242.3" font-family="Verdana" font-size="9.00">+ BusinessEntityID</text>
<polyline fill="none" stroke="black" points="137,-235.5 243,-235.5 "/>
<text text-anchor="middle" x="190" y="-224.3" font-family="Verdana" font-size="9.00">PasswordHash</text>
<polyline fill="none" stroke="black" points="137,-217.5 243,-217.5 "/>
<text text-anchor="middle" x="190" y="-206.3" font-family="Verdana" font-size="9.00">PasswordSalt</text>
<polyline fill="none" stroke="black" points="137,-199.5 243,-199.5 "/>
<text text-anchor="middle" x="190" y="-188.3" font-family="Verdana" font-size="9.00">rowguid</text>
<polyline fill="none" stroke="black" points="137,-181.5 243,-181.5 "/>
<text text-anchor="middle" x="190" y="-170.3" font-family="Verdana" font-size="9.00">ModifiedDate</text>
</g>
<!-- struct1 -->
<g id="node2" class="node"><title>struct1</title>
<polygon fill="none" stroke="#337ab7" points="0,-19.5 0,-271.5 119,-271.5 119,-19.5 0,-19.5"/>
<text text-anchor="middle" x="59.5" y="-260.3" font-family="Verdana" font-size="9.00" fill="#337ab7">Table: Person</text>
<polyline fill="none" stroke="#337ab7" points="0,-253.5 119,-253.5 "/>
<text text-anchor="middle" x="59.5" y="-242.3" font-family="Verdana" font-size="9.00" fill="#337ab7">BusinessEntityID +</text>
<polyline fill="none" stroke="#337ab7" points="0,-235.5 119,-235.5 "/>
<text text-anchor="middle" x="59.5" y="-224.3" font-family="Verdana" font-size="9.00" fill="#337ab7">PersonType</text>
<polyline fill="none" stroke="#337ab7" points="0,-217.5 119,-217.5 "/>
<text text-anchor="middle" x="59.5" y="-206.3" font-family="Verdana" font-size="9.00" fill="#337ab7">NameStyle</text>
<polyline fill="none" stroke="#337ab7" points="0,-199.5 119,-199.5 "/>
<text text-anchor="middle" x="59.5" y="-188.3" font-family="Verdana" font-size="9.00" fill="#337ab7">Title</text>
<polyline fill="none" stroke="#337ab7" points="0,-181.5 119,-181.5 "/>
<text text-anchor="middle" x="59.5" y="-170.3" font-family="Verdana" font-size="9.00" fill="#337ab7">FirstName</text>
<polyline fill="none" stroke="#337ab7" points="0,-163.5 119,-163.5 "/>
<text text-anchor="middle" x="59.5" y="-152.3" font-family="Verdana" font-size="9.00" fill="#337ab7">MiddleName</text>
<polyline fill="none" stroke="#337ab7" points="0,-145.5 119,-145.5 "/>
<text text-anchor="middle" x="59.5" y="-134.3" font-family="Verdana" font-size="9.00" fill="#337ab7">LastName</text>
<polyline fill="none" stroke="#337ab7" points="0,-127.5 119,-127.5 "/>
<text text-anchor="middle" x="59.5" y="-116.3" font-family="Verdana" font-size="9.00" fill="#337ab7">Suffix</text>
<polyline fill="none" stroke="#337ab7" points="0,-109.5 119,-109.5 "/>
<text text-anchor="middle" x="59.5" y="-98.3" font-family="Verdana" font-size="9.00" fill="#337ab7">EmailPromotion</text>
<polyline fill="none" stroke="#337ab7" points="0,-91.5 119,-91.5 "/>
<text text-anchor="middle" x="59.5" y="-80.3" font-family="Verdana" font-size="9.00" fill="#337ab7">AdditionalContactInfo</text>
<polyline fill="none" stroke="#337ab7" points="0,-73.5 119,-73.5 "/>
<text text-anchor="middle" x="59.5" y="-62.3" font-family="Verdana" font-size="9.00" fill="#337ab7">Demographics</text>
<polyline fill="none" stroke="#337ab7" points="0,-55.5 119,-55.5 "/>
<text text-anchor="middle" x="59.5" y="-44.3" font-family="Verdana" font-size="9.00" fill="#337ab7">rowguid</text>
<polyline fill="none" stroke="#337ab7" points="0,-37.5 119,-37.5 "/>
<text text-anchor="middle" x="59.5" y="-26.3" font-family="Verdana" font-size="9.00" fill="#337ab7">ModifiedDate</text>
</g>
<!-- struct1&#45;&gt;struct0 -->
<g id="edge1" class="edge"><title>struct1:c1509580416_1&#45;&gt;struct0:c1461580245_1</title>
<path fill="none" stroke="#337ab7" d="M119,-244.5C122.25,-244.5 124.51,-244.5 126.584,-244.5"/>
<polygon fill="#337ab7" stroke="#337ab7" points="127,-248 137,-244.5 127,-241 127,-248"/>
</g>
</g>
</svg>
