<?xml version="1.0" encoding="UTF-8" standalone="no"?>
<!DOCTYPE svg PUBLIC "-//W3C//DTD SVG 1.1//EN"
 "http://www.w3.org/Graphics/SVG/1.1/DTD/svg11.dtd">
<!-- Generated by graphviz version 2.38.0 (20140413.2041)
 -->
<!-- Title: g Pages: 1 -->
<svg width="237pt" height="244pt"
 viewBox="0.00 0.00 237.00 244.00" xmlns="http://www.w3.org/2000/svg" xmlns:xlink="http://www.w3.org/1999/xlink">
<g id="graph0" class="graph" transform="scale(1 1) rotate(0) translate(4 240)">
<title>g</title>
<polygon fill="white" stroke="none" points="-4,4 -4,-240 233,-240 233,4 -4,4"/>
<text text-anchor="middle" x="114.5" y="-7" font-family="Verdana" font-size="10.00">Table: ScrapReason</text>
<!-- struct0 -->
<g id="node1" class="node"><title>struct0</title>
<polygon fill="none" stroke="black" points="0,-19.5 0,-91.5 110,-91.5 110,-19.5 0,-19.5"/>
<text text-anchor="middle" x="55" y="-80.3" font-family="Verdana" font-size="9.00">Table: ScrapReason</text>
<polyline fill="none" stroke="black" points="0,-73.5 110,-73.5 "/>
<text text-anchor="middle" x="55" y="-62.3" font-family="Verdana" font-size="9.00">ScrapReasonID +</text>
<polyline fill="none" stroke="black" points="0,-55.5 110,-55.5 "/>
<text text-anchor="middle" x="55" y="-44.3" font-family="Verdana" font-size="9.00">Name</text>
<polyline fill="none" stroke="black" points="0,-37.5 110,-37.5 "/>
<text text-anchor="middle" x="55" y="-26.3" font-family="Verdana" font-size="9.00">ModifiedDate</text>
</g>
<!-- struct1 -->
<g id="node2" class="node"><title>struct1</title>
<polygon fill="none" stroke="#337ab7" points="128,-37.5 128,-235.5 229,-235.5 229,-37.5 128,-37.5"/>
<text text-anchor="middle" x="178.5" y="-224.3" font-family="Verdana" font-size="9.00" fill="#337ab7">Table: WorkOrder</text>
<polyline fill="none" stroke="#337ab7" points="128,-217.5 229,-217.5 "/>
<text text-anchor="middle" x="178.5" y="-206.3" font-family="Verdana" font-size="9.00" fill="#337ab7">WorkOrderID +</text>
<polyline fill="none" stroke="#337ab7" points="128,-199.5 229,-199.5 "/>
<text text-anchor="middle" x="178.5" y="-188.3" font-family="Verdana" font-size="9.00" fill="#337ab7">+ ProductID</text>
<polyline fill="none" stroke="#337ab7" points="128,-181.5 229,-181.5 "/>
<text text-anchor="middle" x="178.5" y="-170.3" font-family="Verdana" font-size="9.00" fill="#337ab7">OrderQty</text>
<polyline fill="none" stroke="#337ab7" points="128,-163.5 229,-163.5 "/>
<text text-anchor="middle" x="178.5" y="-152.3" font-family="Verdana" font-size="9.00" fill="#337ab7">StockedQty</text>
<polyline fill="none" stroke="#337ab7" points="128,-145.5 229,-145.5 "/>
<text text-anchor="middle" x="178.5" y="-134.3" font-family="Verdana" font-size="9.00" fill="#337ab7">ScrappedQty</text>
<polyline fill="none" stroke="#337ab7" points="128,-127.5 229,-127.5 "/>
<text text-anchor="middle" x="178.5" y="-116.3" font-family="Verdana" font-size="9.00" fill="#337ab7">StartDate</text>
<polyline fill="none" stroke="#337ab7" points="128,-109.5 229,-109.5 "/>
<text text-anchor="middle" x="178.5" y="-98.3" font-family="Verdana" font-size="9.00" fill="#337ab7">EndDate</text>
<polyline fill="none" stroke="#337ab7" points="128,-91.5 229,-91.5 "/>
<text text-anchor="middle" x="178.5" y="-80.3" font-family="Verdana" font-size="9.00" fill="#337ab7">DueDate</text>
<polyline fill="none" stroke="#337ab7" points="128,-73.5 229,-73.5 "/>
<text text-anchor="middle" x="178.5" y="-62.3" font-family="Verdana" font-size="9.00" fill="#337ab7">+ ScrapReasonID</text>
<polyline fill="none" stroke="#337ab7" points="128,-55.5 229,-55.5 "/>
<text text-anchor="middle" x="178.5" y="-44.3" font-family="Verdana" font-size="9.00" fill="#337ab7">ModifiedDate</text>
</g>
<!-- struct0&#45;&gt;struct1 -->
<g id="edge1" class="edge"><title>struct0:c1906105831_1&#45;&gt;struct1:c590625147_9</title>
<path fill="none" stroke="black" d="M110,-64.5C113.25,-64.5 115.51,-64.5 117.584,-64.5"/>
<polygon fill="black" stroke="black" points="118,-68.0001 128,-64.5 118,-61.0001 118,-68.0001"/>
</g>
</g>
</svg>
