<?xml version="1.0" encoding="UTF-8" standalone="no"?>
<!DOCTYPE svg PUBLIC "-//W3C//DTD SVG 1.1//EN"
 "http://www.w3.org/Graphics/SVG/1.1/DTD/svg11.dtd">
<!-- Generated by graphviz version 2.38.0 (20140413.2041)
 -->
<!-- Title: g Pages: 1 -->
<svg width="310pt" height="172pt"
 viewBox="0.00 0.00 310.00 172.00" xmlns="http://www.w3.org/2000/svg" xmlns:xlink="http://www.w3.org/1999/xlink">
<g id="graph0" class="graph" transform="scale(1 1) rotate(0) translate(4 168)">
<title>g</title>
<polygon fill="white" stroke="none" points="-4,4 -4,-168 306,-168 306,4 -4,4"/>
<text text-anchor="middle" x="151" y="-7" font-family="Verdana" font-size="10.00">Table: ProductPhoto</text>
<!-- struct0 -->
<g id="node1" class="node"><title>struct0</title>
<polygon fill="none" stroke="black" points="0,-19.5 0,-145.5 135,-145.5 135,-19.5 0,-19.5"/>
<text text-anchor="middle" x="67.5" y="-134.3" font-family="Verdana" font-size="9.00">Table: ProductPhoto</text>
<polyline fill="none" stroke="black" points="0,-127.5 135,-127.5 "/>
<text text-anchor="middle" x="67.5" y="-116.3" font-family="Verdana" font-size="9.00">ProductPhotoID +</text>
<polyline fill="none" stroke="black" points="0,-109.5 135,-109.5 "/>
<text text-anchor="middle" x="67.5" y="-98.3" font-family="Verdana" font-size="9.00">ThumbNailPhoto</text>
<polyline fill="none" stroke="black" points="0,-91.5 135,-91.5 "/>
<text text-anchor="middle" x="67.5" y="-80.3" font-family="Verdana" font-size="9.00">ThumbnailPhotoFileName</text>
<polyline fill="none" stroke="black" points="0,-73.5 135,-73.5 "/>
<text text-anchor="middle" x="67.5" y="-62.3" font-family="Verdana" font-size="9.00">LargePhoto</text>
<polyline fill="none" stroke="black" points="0,-55.5 135,-55.5 "/>
<text text-anchor="middle" x="67.5" y="-44.3" font-family="Verdana" font-size="9.00">LargePhotoFileName</text>
<polyline fill="none" stroke="black" points="0,-37.5 135,-37.5 "/>
<text text-anchor="middle" x="67.5" y="-26.3" font-family="Verdana" font-size="9.00">ModifiedDate</text>
</g>
<!-- struct1 -->
<g id="node2" class="node"><title>struct1</title>
<polygon fill="none" stroke="#337ab7" points="153,-73.5 153,-163.5 302,-163.5 302,-73.5 153,-73.5"/>
<text text-anchor="middle" x="227.5" y="-152.3" font-family="Verdana" font-size="9.00" fill="#337ab7">Table: ProductProductPhoto</text>
<polyline fill="none" stroke="#337ab7" points="153,-145.5 302,-145.5 "/>
<text text-anchor="middle" x="227.5" y="-134.3" font-family="Verdana" font-size="9.00" fill="#337ab7">+ ProductID</text>
<polyline fill="none" stroke="#337ab7" points="153,-127.5 302,-127.5 "/>
<text text-anchor="middle" x="227.5" y="-116.3" font-family="Verdana" font-size="9.00" fill="#337ab7">+ ProductPhotoID</text>
<polyline fill="none" stroke="#337ab7" points="153,-109.5 302,-109.5 "/>
<text text-anchor="middle" x="227.5" y="-98.3" font-family="Verdana" font-size="9.00" fill="#337ab7">Primary</text>
<polyline fill="none" stroke="#337ab7" points="153,-91.5 302,-91.5 "/>
<text text-anchor="middle" x="227.5" y="-80.3" font-family="Verdana" font-size="9.00" fill="#337ab7">ModifiedDate</text>
</g>
<!-- struct0&#45;&gt;struct1 -->
<g id="edge1" class="edge"><title>struct0:c274100017_1&#45;&gt;struct1:c306100131_2</title>
<path fill="none" stroke="black" d="M135,-118.5C138.25,-118.5 140.51,-118.5 142.584,-118.5"/>
<polygon fill="black" stroke="black" points="143,-122 153,-118.5 143,-115 143,-122"/>
</g>
</g>
</svg>
