<?xml version="1.0" encoding="UTF-8" standalone="no"?>
<!DOCTYPE svg PUBLIC "-//W3C//DTD SVG 1.1//EN"
 "http://www.w3.org/Graphics/SVG/1.1/DTD/svg11.dtd">
<!-- Generated by graphviz version 2.38.0 (20140413.2041)
 -->
<!-- Title: g Pages: 1 -->
<svg width="433pt" height="641pt"
 viewBox="0.00 0.00 433.00 641.00" xmlns="http://www.w3.org/2000/svg" xmlns:xlink="http://www.w3.org/1999/xlink">
<g id="graph0" class="graph" transform="scale(1 1) rotate(0) translate(4 637)">
<title>g</title>
<polygon fill="white" stroke="none" points="-4,4 -4,-637 429,-637 429,4 -4,4"/>
<text text-anchor="middle" x="212.5" y="-7" font-family="Verdana" font-size="10.00">Table: Address</text>
<!-- struct0 -->
<g id="node1" class="node"><title>struct0</title>
<polygon fill="none" stroke="black" points="149,-91.5 149,-271.5 251,-271.5 251,-91.5 149,-91.5"/>
<text text-anchor="middle" x="200" y="-260.3" font-family="Verdana" font-size="9.00">Table: Address</text>
<polyline fill="none" stroke="black" points="149,-253.5 251,-253.5 "/>
<text text-anchor="middle" x="200" y="-242.3" font-family="Verdana" font-size="9.00">AddressID +</text>
<polyline fill="none" stroke="black" points="149,-235.5 251,-235.5 "/>
<text text-anchor="middle" x="200" y="-224.3" font-family="Verdana" font-size="9.00">AddressLine1</text>
<polyline fill="none" stroke="black" points="149,-217.5 251,-217.5 "/>
<text text-anchor="middle" x="200" y="-206.3" font-family="Verdana" font-size="9.00">AddressLine2</text>
<polyline fill="none" stroke="black" points="149,-199.5 251,-199.5 "/>
<text text-anchor="middle" x="200" y="-188.3" font-family="Verdana" font-size="9.00">City</text>
<polyline fill="none" stroke="black" points="149,-181.5 251,-181.5 "/>
<text text-anchor="middle" x="200" y="-170.3" font-family="Verdana" font-size="9.00">+ StateProvinceID</text>
<polyline fill="none" stroke="black" points="149,-163.5 251,-163.5 "/>
<text text-anchor="middle" x="200" y="-152.3" font-family="Verdana" font-size="9.00">PostalCode</text>
<polyline fill="none" stroke="black" points="149,-145.5 251,-145.5 "/>
<text text-anchor="middle" x="200" y="-134.3" font-family="Verdana" font-size="9.00">SpatialLocation</text>
<polyline fill="none" stroke="black" points="149,-127.5 251,-127.5 "/>
<text text-anchor="middle" x="200" y="-116.3" font-family="Verdana" font-size="9.00">rowguid</text>
<polyline fill="none" stroke="black" points="149,-109.5 251,-109.5 "/>
<text text-anchor="middle" x="200" y="-98.3" font-family="Verdana" font-size="9.00">ModifiedDate</text>
</g>
<!-- struct1 -->
<g id="node2" class="node"><title>struct1</title>
<polygon fill="none" stroke="#337ab7" points="269,-524.5 269,-632.5 425,-632.5 425,-524.5 269,-524.5"/>
<text text-anchor="middle" x="347" y="-621.3" font-family="Verdana" font-size="9.00" fill="#337ab7">Table: BusinessEntityAddress</text>
<polyline fill="none" stroke="#337ab7" points="269,-614.5 425,-614.5 "/>
<text text-anchor="middle" x="347" y="-603.3" font-family="Verdana" font-size="9.00" fill="#337ab7">+ BusinessEntityID</text>
<polyline fill="none" stroke="#337ab7" points="269,-596.5 425,-596.5 "/>
<text text-anchor="middle" x="347" y="-585.3" font-family="Verdana" font-size="9.00" fill="#337ab7">+ AddressID</text>
<polyline fill="none" stroke="#337ab7" points="269,-578.5 425,-578.5 "/>
<text text-anchor="middle" x="347" y="-567.3" font-family="Verdana" font-size="9.00" fill="#337ab7">+ AddressTypeID</text>
<polyline fill="none" stroke="#337ab7" points="269,-560.5 425,-560.5 "/>
<text text-anchor="middle" x="347" y="-549.3" font-family="Verdana" font-size="9.00" fill="#337ab7">rowguid</text>
<polyline fill="none" stroke="#337ab7" points="269,-542.5 425,-542.5 "/>
<text text-anchor="middle" x="347" y="-531.3" font-family="Verdana" font-size="9.00" fill="#337ab7">ModifiedDate</text>
</g>
<!-- struct0&#45;&gt;struct1 -->
<g id="edge3" class="edge"><title>struct0:c85575343_1&#45;&gt;struct1:c389576426_2</title>
<path fill="none" stroke="black" d="M251,-244.5C285.958,-244.5 239.953,-532.306 261.312,-580.648"/>
<polygon fill="black" stroke="black" points="259.206,-583.46 269,-587.5 263.863,-578.234 259.206,-583.46"/>
</g>
<!-- struct2 -->
<g id="node3" class="node"><title>struct2</title>
<polygon fill="none" stroke="#337ab7" points="279,-19.5 279,-505.5 415,-505.5 415,-19.5 279,-19.5"/>
<text text-anchor="middle" x="347" y="-494.3" font-family="Verdana" font-size="9.00" fill="#337ab7">Table: SalesOrderHeader</text>
<polyline fill="none" stroke="#337ab7" points="279,-487.5 415,-487.5 "/>
<text text-anchor="middle" x="347" y="-476.3" font-family="Verdana" font-size="9.00" fill="#337ab7">SalesOrderID +</text>
<polyline fill="none" stroke="#337ab7" points="279,-469.5 415,-469.5 "/>
<text text-anchor="middle" x="347" y="-458.3" font-family="Verdana" font-size="9.00" fill="#337ab7">RevisionNumber</text>
<polyline fill="none" stroke="#337ab7" points="279,-451.5 415,-451.5 "/>
<text text-anchor="middle" x="347" y="-440.3" font-family="Verdana" font-size="9.00" fill="#337ab7">OrderDate</text>
<polyline fill="none" stroke="#337ab7" points="279,-433.5 415,-433.5 "/>
<text text-anchor="middle" x="347" y="-422.3" font-family="Verdana" font-size="9.00" fill="#337ab7">DueDate</text>
<polyline fill="none" stroke="#337ab7" points="279,-415.5 415,-415.5 "/>
<text text-anchor="middle" x="347" y="-404.3" font-family="Verdana" font-size="9.00" fill="#337ab7">ShipDate</text>
<polyline fill="none" stroke="#337ab7" points="279,-397.5 415,-397.5 "/>
<text text-anchor="middle" x="347" y="-386.3" font-family="Verdana" font-size="9.00" fill="#337ab7">Status</text>
<polyline fill="none" stroke="#337ab7" points="279,-379.5 415,-379.5 "/>
<text text-anchor="middle" x="347" y="-368.3" font-family="Verdana" font-size="9.00" fill="#337ab7">OnlineOrderFlag</text>
<polyline fill="none" stroke="#337ab7" points="279,-361.5 415,-361.5 "/>
<text text-anchor="middle" x="347" y="-350.3" font-family="Verdana" font-size="9.00" fill="#337ab7">SalesOrderNumber</text>
<polyline fill="none" stroke="#337ab7" points="279,-343.5 415,-343.5 "/>
<text text-anchor="middle" x="347" y="-332.3" font-family="Verdana" font-size="9.00" fill="#337ab7">PurchaseOrderNumber</text>
<polyline fill="none" stroke="#337ab7" points="279,-325.5 415,-325.5 "/>
<text text-anchor="middle" x="347" y="-314.3" font-family="Verdana" font-size="9.00" fill="#337ab7">AccountNumber</text>
<polyline fill="none" stroke="#337ab7" points="279,-307.5 415,-307.5 "/>
<text text-anchor="middle" x="347" y="-296.3" font-family="Verdana" font-size="9.00" fill="#337ab7">+ CustomerID</text>
<polyline fill="none" stroke="#337ab7" points="279,-289.5 415,-289.5 "/>
<text text-anchor="middle" x="347" y="-278.3" font-family="Verdana" font-size="9.00" fill="#337ab7">+ SalesPersonID</text>
<polyline fill="none" stroke="#337ab7" points="279,-271.5 415,-271.5 "/>
<text text-anchor="middle" x="347" y="-260.3" font-family="Verdana" font-size="9.00" fill="#337ab7">+ TerritoryID</text>
<polyline fill="none" stroke="#337ab7" points="279,-253.5 415,-253.5 "/>
<text text-anchor="middle" x="347" y="-242.3" font-family="Verdana" font-size="9.00" fill="#337ab7">+ BillToAddressID</text>
<polyline fill="none" stroke="#337ab7" points="279,-235.5 415,-235.5 "/>
<text text-anchor="middle" x="347" y="-224.3" font-family="Verdana" font-size="9.00" fill="#337ab7">+ ShipToAddressID</text>
<polyline fill="none" stroke="#337ab7" points="279,-217.5 415,-217.5 "/>
<text text-anchor="middle" x="347" y="-206.3" font-family="Verdana" font-size="9.00" fill="#337ab7">+ ShipMethodID</text>
<polyline fill="none" stroke="#337ab7" points="279,-199.5 415,-199.5 "/>
<text text-anchor="middle" x="347" y="-188.3" font-family="Verdana" font-size="9.00" fill="#337ab7">+ CreditCardID</text>
<polyline fill="none" stroke="#337ab7" points="279,-181.5 415,-181.5 "/>
<text text-anchor="middle" x="347" y="-170.3" font-family="Verdana" font-size="9.00" fill="#337ab7">CreditCardApprovalCode</text>
<polyline fill="none" stroke="#337ab7" points="279,-163.5 415,-163.5 "/>
<text text-anchor="middle" x="347" y="-152.3" font-family="Verdana" font-size="9.00" fill="#337ab7">+ CurrencyRateID</text>
<polyline fill="none" stroke="#337ab7" points="279,-145.5 415,-145.5 "/>
<text text-anchor="middle" x="347" y="-134.3" font-family="Verdana" font-size="9.00" fill="#337ab7">SubTotal</text>
<polyline fill="none" stroke="#337ab7" points="279,-127.5 415,-127.5 "/>
<text text-anchor="middle" x="347" y="-116.3" font-family="Verdana" font-size="9.00" fill="#337ab7">TaxAmt</text>
<polyline fill="none" stroke="#337ab7" points="279,-109.5 415,-109.5 "/>
<text text-anchor="middle" x="347" y="-98.3" font-family="Verdana" font-size="9.00" fill="#337ab7">Freight</text>
<polyline fill="none" stroke="#337ab7" points="279,-91.5 415,-91.5 "/>
<text text-anchor="middle" x="347" y="-80.3" font-family="Verdana" font-size="9.00" fill="#337ab7">TotalDue</text>
<polyline fill="none" stroke="#337ab7" points="279,-73.5 415,-73.5 "/>
<text text-anchor="middle" x="347" y="-62.3" font-family="Verdana" font-size="9.00" fill="#337ab7">Comment</text>
<polyline fill="none" stroke="#337ab7" points="279,-55.5 415,-55.5 "/>
<text text-anchor="middle" x="347" y="-44.3" font-family="Verdana" font-size="9.00" fill="#337ab7">rowguid</text>
<polyline fill="none" stroke="#337ab7" points="279,-37.5 415,-37.5 "/>
<text text-anchor="middle" x="347" y="-26.3" font-family="Verdana" font-size="9.00" fill="#337ab7">ModifiedDate</text>
</g>
<!-- struct0&#45;&gt;struct2 -->
<g id="edge1" class="edge"><title>struct0:c85575343_1&#45;&gt;struct2:c1010102639_14</title>
<path fill="none" stroke="black" d="M251,-244.5C258.688,-244.5 262.681,-244.5 267.714,-244.5"/>
<polygon fill="black" stroke="black" points="268,-248 278,-244.5 268,-241 268,-248"/>
</g>
<!-- struct0&#45;&gt;struct2 -->
<g id="edge2" class="edge"><title>struct0:c85575343_1&#45;&gt;struct2:c1010102639_15</title>
<path fill="none" stroke="black" d="M251,-244.5C261.141,-244.5 263.239,-235.601 268.605,-230.317"/>
<polygon fill="black" stroke="black" points="270.053,-233.507 278,-226.5 267.418,-227.022 270.053,-233.507"/>
</g>
<!-- struct3 -->
<g id="node4" class="node"><title>struct3</title>
<polygon fill="none" stroke="#337ab7" points="0,-37.5 0,-199.5 131,-199.5 131,-37.5 0,-37.5"/>
<text text-anchor="middle" x="65.5" y="-188.3" font-family="Verdana" font-size="9.00" fill="#337ab7">Table: StateProvince</text>
<polyline fill="none" stroke="#337ab7" points="0,-181.5 131,-181.5 "/>
<text text-anchor="middle" x="65.5" y="-170.3" font-family="Verdana" font-size="9.00" fill="#337ab7">StateProvinceID +</text>
<polyline fill="none" stroke="#337ab7" points="0,-163.5 131,-163.5 "/>
<text text-anchor="middle" x="65.5" y="-152.3" font-family="Verdana" font-size="9.00" fill="#337ab7">StateProvinceCode</text>
<polyline fill="none" stroke="#337ab7" points="0,-145.5 131,-145.5 "/>
<text text-anchor="middle" x="65.5" y="-134.3" font-family="Verdana" font-size="9.00" fill="#337ab7">+ CountryRegionCode</text>
<polyline fill="none" stroke="#337ab7" points="0,-127.5 131,-127.5 "/>
<text text-anchor="middle" x="65.5" y="-116.3" font-family="Verdana" font-size="9.00" fill="#337ab7">IsOnlyStateProvinceFlag</text>
<polyline fill="none" stroke="#337ab7" points="0,-109.5 131,-109.5 "/>
<text text-anchor="middle" x="65.5" y="-98.3" font-family="Verdana" font-size="9.00" fill="#337ab7">Name</text>
<polyline fill="none" stroke="#337ab7" points="0,-91.5 131,-91.5 "/>
<text text-anchor="middle" x="65.5" y="-80.3" font-family="Verdana" font-size="9.00" fill="#337ab7">+ TerritoryID</text>
<polyline fill="none" stroke="#337ab7" points="0,-73.5 131,-73.5 "/>
<text text-anchor="middle" x="65.5" y="-62.3" font-family="Verdana" font-size="9.00" fill="#337ab7">rowguid</text>
<polyline fill="none" stroke="#337ab7" points="0,-55.5 131,-55.5 "/>
<text text-anchor="middle" x="65.5" y="-44.3" font-family="Verdana" font-size="9.00" fill="#337ab7">ModifiedDate</text>
</g>
<!-- struct3&#45;&gt;struct0 -->
<g id="edge4" class="edge"><title>struct3:c206623779_1&#45;&gt;struct0:c85575343_5</title>
<path fill="none" stroke="#337ab7" d="M131,-172.5C134.25,-172.5 136.51,-172.5 138.584,-172.5"/>
<polygon fill="#337ab7" stroke="#337ab7" points="139,-176 149,-172.5 139,-169 139,-176"/>
</g>
</g>
</svg>
