<?xml version="1.0" encoding="UTF-8" standalone="no"?>
<!DOCTYPE svg PUBLIC "-//W3C//DTD SVG 1.1//EN"
 "http://www.w3.org/Graphics/SVG/1.1/DTD/svg11.dtd">
<!-- Generated by graphviz version 2.38.0 (20140413.2041)
 -->
<!-- Title: g Pages: 1 -->
<svg width="270pt" height="208pt"
 viewBox="0.00 0.00 270.00 208.00" xmlns="http://www.w3.org/2000/svg" xmlns:xlink="http://www.w3.org/1999/xlink">
<g id="graph0" class="graph" transform="scale(1 1) rotate(0) translate(4 204)">
<title>g</title>
<polygon fill="white" stroke="none" points="-4,4 -4,-204 266,-204 266,4 -4,4"/>
<text text-anchor="middle" x="131" y="-7" font-family="Verdana" font-size="10.00">Table: SalesTaxRate</text>
<!-- struct0 -->
<g id="node1" class="node"><title>struct0</title>
<polygon fill="#d9edf7" stroke="#1b809e" points="149,-55.5 149,-199.5 262,-199.5 262,-55.5 149,-55.5"/>
<text text-anchor="middle" x="205.5" y="-188.3" font-family="Verdana" font-size="9.00" fill="#1b809e">Table: SalesTaxRate</text>
<polyline fill="none" stroke="#1b809e" points="149,-181.5 262,-181.5 "/>
<text text-anchor="middle" x="205.5" y="-170.3" font-family="Verdana" font-size="9.00" fill="#1b809e">SalesTaxRateID</text>
<polyline fill="none" stroke="#1b809e" points="149,-163.5 262,-163.5 "/>
<text text-anchor="middle" x="205.5" y="-152.3" font-family="Verdana" font-size="9.00" fill="#1b809e">+ StateProvinceID</text>
<polyline fill="none" stroke="#1b809e" points="149,-145.5 262,-145.5 "/>
<text text-anchor="middle" x="205.5" y="-134.3" font-family="Verdana" font-size="9.00" fill="#1b809e">TaxType</text>
<polyline fill="none" stroke="#1b809e" points="149,-127.5 262,-127.5 "/>
<text text-anchor="middle" x="205.5" y="-116.3" font-family="Verdana" font-size="9.00" fill="#1b809e">TaxRate</text>
<polyline fill="none" stroke="#1b809e" points="149,-109.5 262,-109.5 "/>
<text text-anchor="middle" x="205.5" y="-98.3" font-family="Verdana" font-size="9.00" fill="#1b809e">Name</text>
<polyline fill="none" stroke="#1b809e" points="149,-91.5 262,-91.5 "/>
<text text-anchor="middle" x="205.5" y="-80.3" font-family="Verdana" font-size="9.00" fill="#1b809e">rowguid</text>
<polyline fill="none" stroke="#1b809e" points="149,-73.5 262,-73.5 "/>
<text text-anchor="middle" x="205.5" y="-62.3" font-family="Verdana" font-size="9.00" fill="#1b809e">ModifiedDate</text>
</g>
<!-- struct1 -->
<g id="node2" class="node"><title>struct1</title>
<polygon fill="#f7f7f9" stroke="#555555" points="0,-19.5 0,-181.5 131,-181.5 131,-19.5 0,-19.5"/>
<text text-anchor="middle" x="65.5" y="-170.3" font-family="Verdana" font-size="9.00" fill="#555555">Table: StateProvince</text>
<polyline fill="none" stroke="#555555" points="0,-163.5 131,-163.5 "/>
<text text-anchor="middle" x="65.5" y="-152.3" font-family="Verdana" font-size="9.00" fill="#555555">StateProvinceID +</text>
<polyline fill="none" stroke="#555555" points="0,-145.5 131,-145.5 "/>
<text text-anchor="middle" x="65.5" y="-134.3" font-family="Verdana" font-size="9.00" fill="#555555">StateProvinceCode</text>
<polyline fill="none" stroke="#555555" points="0,-127.5 131,-127.5 "/>
<text text-anchor="middle" x="65.5" y="-116.3" font-family="Verdana" font-size="9.00" fill="#555555">+ CountryRegionCode</text>
<polyline fill="none" stroke="#555555" points="0,-109.5 131,-109.5 "/>
<text text-anchor="middle" x="65.5" y="-98.3" font-family="Verdana" font-size="9.00" fill="#555555">IsOnlyStateProvinceFlag</text>
<polyline fill="none" stroke="#555555" points="0,-91.5 131,-91.5 "/>
<text text-anchor="middle" x="65.5" y="-80.3" font-family="Verdana" font-size="9.00" fill="#555555">Name</text>
<polyline fill="none" stroke="#555555" points="0,-73.5 131,-73.5 "/>
<text text-anchor="middle" x="65.5" y="-62.3" font-family="Verdana" font-size="9.00" fill="#555555">+ TerritoryID</text>
<polyline fill="none" stroke="#555555" points="0,-55.5 131,-55.5 "/>
<text text-anchor="middle" x="65.5" y="-44.3" font-family="Verdana" font-size="9.00" fill="#555555">rowguid</text>
<polyline fill="none" stroke="#555555" points="0,-37.5 131,-37.5 "/>
<text text-anchor="middle" x="65.5" y="-26.3" font-family="Verdana" font-size="9.00" fill="#555555">ModifiedDate</text>
</g>
<!-- struct1&#45;&gt;struct0 -->
<g id="edge1" class="edge"><title>struct1:c206623779_1&#45;&gt;struct0:c1586104691_2</title>
<path fill="none" stroke="#337ab7" d="M131,-154.5C134.25,-154.5 136.51,-154.5 138.584,-154.5"/>
<polygon fill="#337ab7" stroke="#337ab7" points="139,-158 149,-154.5 139,-151 139,-158"/>
</g>
</g>
</svg>
