<?xml version="1.0" encoding="UTF-8" standalone="no"?>
<!DOCTYPE svg PUBLIC "-//W3C//DTD SVG 1.1//EN"
 "http://www.w3.org/Graphics/SVG/1.1/DTD/svg11.dtd">
<!-- Generated by graphviz version 2.38.0 (20140413.2041)
 -->
<!-- Title: g Pages: 1 -->
<svg width="278pt" height="425pt"
 viewBox="0.00 0.00 278.00 425.00" xmlns="http://www.w3.org/2000/svg" xmlns:xlink="http://www.w3.org/1999/xlink">
<g id="graph0" class="graph" transform="scale(1 1) rotate(0) translate(4 421)">
<title>g</title>
<polygon fill="white" stroke="none" points="-4,4 -4,-421 274,-421 274,4 -4,4"/>
<text text-anchor="middle" x="135" y="-7" font-family="Verdana" font-size="10.00">Table: PersonCreditCard</text>
<!-- struct0 -->
<g id="node1" class="node"><title>struct0</title>
<polygon fill="none" stroke="#337ab7" points="9.5,-19.5 9.5,-145.5 109.5,-145.5 109.5,-19.5 9.5,-19.5"/>
<text text-anchor="middle" x="59.5" y="-134.3" font-family="Verdana" font-size="9.00" fill="#337ab7">Table: CreditCard</text>
<polyline fill="none" stroke="#337ab7" points="9.5,-127.5 109.5,-127.5 "/>
<text text-anchor="middle" x="59.5" y="-116.3" font-family="Verdana" font-size="9.00" fill="#337ab7">CreditCardID +</text>
<polyline fill="none" stroke="#337ab7" points="9.5,-109.5 109.5,-109.5 "/>
<text text-anchor="middle" x="59.5" y="-98.3" font-family="Verdana" font-size="9.00" fill="#337ab7">CardType</text>
<polyline fill="none" stroke="#337ab7" points="9.5,-91.5 109.5,-91.5 "/>
<text text-anchor="middle" x="59.5" y="-80.3" font-family="Verdana" font-size="9.00" fill="#337ab7">CardNumber</text>
<polyline fill="none" stroke="#337ab7" points="9.5,-73.5 109.5,-73.5 "/>
<text text-anchor="middle" x="59.5" y="-62.3" font-family="Verdana" font-size="9.00" fill="#337ab7">ExpMonth</text>
<polyline fill="none" stroke="#337ab7" points="9.5,-55.5 109.5,-55.5 "/>
<text text-anchor="middle" x="59.5" y="-44.3" font-family="Verdana" font-size="9.00" fill="#337ab7">ExpYear</text>
<polyline fill="none" stroke="#337ab7" points="9.5,-37.5 109.5,-37.5 "/>
<text text-anchor="middle" x="59.5" y="-26.3" font-family="Verdana" font-size="9.00" fill="#337ab7">ModifiedDate</text>
</g>
<!-- struct2 -->
<g id="node3" class="node"><title>struct2</title>
<polygon fill="none" stroke="black" points="137,-217.5 137,-289.5 270,-289.5 270,-217.5 137,-217.5"/>
<text text-anchor="middle" x="203.5" y="-278.3" font-family="Verdana" font-size="9.00">Table: PersonCreditCard</text>
<polyline fill="none" stroke="black" points="137,-271.5 270,-271.5 "/>
<text text-anchor="middle" x="203.5" y="-260.3" font-family="Verdana" font-size="9.00">+ BusinessEntityID</text>
<polyline fill="none" stroke="black" points="137,-253.5 270,-253.5 "/>
<text text-anchor="middle" x="203.5" y="-242.3" font-family="Verdana" font-size="9.00">+ CreditCardID</text>
<polyline fill="none" stroke="black" points="137,-235.5 270,-235.5 "/>
<text text-anchor="middle" x="203.5" y="-224.3" font-family="Verdana" font-size="9.00">ModifiedDate</text>
</g>
<!-- struct0&#45;&gt;struct2 -->
<g id="edge2" class="edge"><title>struct0:c581577110_1&#45;&gt;struct2:c1621580815_2</title>
<path fill="none" stroke="#337ab7" d="M110.5,-118.5C135.424,-118.5 115.323,-214.109 128.639,-238.759"/>
<polygon fill="#337ab7" stroke="#337ab7" points="126.775,-241.725 137,-244.5 130.738,-235.954 126.775,-241.725"/>
</g>
<!-- struct1 -->
<g id="node2" class="node"><title>struct1</title>
<polygon fill="none" stroke="#337ab7" points="0,-164.5 0,-416.5 119,-416.5 119,-164.5 0,-164.5"/>
<text text-anchor="middle" x="59.5" y="-405.3" font-family="Verdana" font-size="9.00" fill="#337ab7">Table: Person</text>
<polyline fill="none" stroke="#337ab7" points="0,-398.5 119,-398.5 "/>
<text text-anchor="middle" x="59.5" y="-387.3" font-family="Verdana" font-size="9.00" fill="#337ab7">BusinessEntityID +</text>
<polyline fill="none" stroke="#337ab7" points="0,-380.5 119,-380.5 "/>
<text text-anchor="middle" x="59.5" y="-369.3" font-family="Verdana" font-size="9.00" fill="#337ab7">PersonType</text>
<polyline fill="none" stroke="#337ab7" points="0,-362.5 119,-362.5 "/>
<text text-anchor="middle" x="59.5" y="-351.3" font-family="Verdana" font-size="9.00" fill="#337ab7">NameStyle</text>
<polyline fill="none" stroke="#337ab7" points="0,-344.5 119,-344.5 "/>
<text text-anchor="middle" x="59.5" y="-333.3" font-family="Verdana" font-size="9.00" fill="#337ab7">Title</text>
<polyline fill="none" stroke="#337ab7" points="0,-326.5 119,-326.5 "/>
<text text-anchor="middle" x="59.5" y="-315.3" font-family="Verdana" font-size="9.00" fill="#337ab7">FirstName</text>
<polyline fill="none" stroke="#337ab7" points="0,-308.5 119,-308.5 "/>
<text text-anchor="middle" x="59.5" y="-297.3" font-family="Verdana" font-size="9.00" fill="#337ab7">MiddleName</text>
<polyline fill="none" stroke="#337ab7" points="0,-290.5 119,-290.5 "/>
<text text-anchor="middle" x="59.5" y="-279.3" font-family="Verdana" font-size="9.00" fill="#337ab7">LastName</text>
<polyline fill="none" stroke="#337ab7" points="0,-272.5 119,-272.5 "/>
<text text-anchor="middle" x="59.5" y="-261.3" font-family="Verdana" font-size="9.00" fill="#337ab7">Suffix</text>
<polyline fill="none" stroke="#337ab7" points="0,-254.5 119,-254.5 "/>
<text text-anchor="middle" x="59.5" y="-243.3" font-family="Verdana" font-size="9.00" fill="#337ab7">EmailPromotion</text>
<polyline fill="none" stroke="#337ab7" points="0,-236.5 119,-236.5 "/>
<text text-anchor="middle" x="59.5" y="-225.3" font-family="Verdana" font-size="9.00" fill="#337ab7">AdditionalContactInfo</text>
<polyline fill="none" stroke="#337ab7" points="0,-218.5 119,-218.5 "/>
<text text-anchor="middle" x="59.5" y="-207.3" font-family="Verdana" font-size="9.00" fill="#337ab7">Demographics</text>
<polyline fill="none" stroke="#337ab7" points="0,-200.5 119,-200.5 "/>
<text text-anchor="middle" x="59.5" y="-189.3" font-family="Verdana" font-size="9.00" fill="#337ab7">rowguid</text>
<polyline fill="none" stroke="#337ab7" points="0,-182.5 119,-182.5 "/>
<text text-anchor="middle" x="59.5" y="-171.3" font-family="Verdana" font-size="9.00" fill="#337ab7">ModifiedDate</text>
</g>
<!-- struct1&#45;&gt;struct2 -->
<g id="edge1" class="edge"><title>struct1:c1509580416_1&#45;&gt;struct2:c1621580815_1</title>
<path fill="none" stroke="#337ab7" d="M119,-389.5C172,-389.5 92.7373,-279.732 127.138,-264.295"/>
<polygon fill="#337ab7" stroke="#337ab7" points="127.789,-267.734 137,-262.5 126.535,-260.848 127.789,-267.734"/>
</g>
</g>
</svg>
