<?xml version="1.0" encoding="UTF-8" standalone="no"?>
<!DOCTYPE svg PUBLIC "-//W3C//DTD SVG 1.1//EN"
 "http://www.w3.org/Graphics/SVG/1.1/DTD/svg11.dtd">
<!-- Generated by graphviz version 2.38.0 (20140413.2041)
 -->
<!-- Title: g Pages: 1 -->
<svg width="287pt" height="605pt"
 viewBox="0.00 0.00 287.00 605.00" xmlns="http://www.w3.org/2000/svg" xmlns:xlink="http://www.w3.org/1999/xlink">
<g id="graph0" class="graph" transform="scale(1 1) rotate(0) translate(4 601)">
<title>g</title>
<polygon fill="white" stroke="none" points="-4,4 -4,-601 283,-601 283,4 -4,4"/>
<text text-anchor="middle" x="139.5" y="-7" font-family="Verdana" font-size="10.00">Table: BillOfMaterials</text>
<!-- struct0 -->
<g id="node1" class="node"><title>struct0</title>
<polygon fill="none" stroke="black" points="162,-416.5 162,-596.5 279,-596.5 279,-416.5 162,-416.5"/>
<text text-anchor="middle" x="220.5" y="-585.3" font-family="Verdana" font-size="9.00">Table: BillOfMaterials</text>
<polyline fill="none" stroke="black" points="162,-578.5 279,-578.5 "/>
<text text-anchor="middle" x="220.5" y="-567.3" font-family="Verdana" font-size="9.00">BillOfMaterialsID</text>
<polyline fill="none" stroke="black" points="162,-560.5 279,-560.5 "/>
<text text-anchor="middle" x="220.5" y="-549.3" font-family="Verdana" font-size="9.00">+ ProductAssemblyID</text>
<polyline fill="none" stroke="black" points="162,-542.5 279,-542.5 "/>
<text text-anchor="middle" x="220.5" y="-531.3" font-family="Verdana" font-size="9.00">+ ComponentID</text>
<polyline fill="none" stroke="black" points="162,-524.5 279,-524.5 "/>
<text text-anchor="middle" x="220.5" y="-513.3" font-family="Verdana" font-size="9.00">StartDate</text>
<polyline fill="none" stroke="black" points="162,-506.5 279,-506.5 "/>
<text text-anchor="middle" x="220.5" y="-495.3" font-family="Verdana" font-size="9.00">EndDate</text>
<polyline fill="none" stroke="black" points="162,-488.5 279,-488.5 "/>
<text text-anchor="middle" x="220.5" y="-477.3" font-family="Verdana" font-size="9.00">+ UnitMeasureCode</text>
<polyline fill="none" stroke="black" points="162,-470.5 279,-470.5 "/>
<text text-anchor="middle" x="220.5" y="-459.3" font-family="Verdana" font-size="9.00">BOMLevel</text>
<polyline fill="none" stroke="black" points="162,-452.5 279,-452.5 "/>
<text text-anchor="middle" x="220.5" y="-441.3" font-family="Verdana" font-size="9.00">PerAssemblyQty</text>
<polyline fill="none" stroke="black" points="162,-434.5 279,-434.5 "/>
<text text-anchor="middle" x="220.5" y="-423.3" font-family="Verdana" font-size="9.00">ModifiedDate</text>
</g>
<!-- struct1 -->
<g id="node2" class="node"><title>struct1</title>
<polygon fill="none" stroke="#337ab7" points="0,-110.5 0,-578.5 144,-578.5 144,-110.5 0,-110.5"/>
<text text-anchor="middle" x="72" y="-567.3" font-family="Verdana" font-size="9.00" fill="#337ab7">Table: Product</text>
<polyline fill="none" stroke="#337ab7" points="0,-560.5 144,-560.5 "/>
<text text-anchor="middle" x="72" y="-549.3" font-family="Verdana" font-size="9.00" fill="#337ab7">ProductID +</text>
<polyline fill="none" stroke="#337ab7" points="0,-542.5 144,-542.5 "/>
<text text-anchor="middle" x="72" y="-531.3" font-family="Verdana" font-size="9.00" fill="#337ab7">Name</text>
<polyline fill="none" stroke="#337ab7" points="0,-524.5 144,-524.5 "/>
<text text-anchor="middle" x="72" y="-513.3" font-family="Verdana" font-size="9.00" fill="#337ab7">ProductNumber</text>
<polyline fill="none" stroke="#337ab7" points="0,-506.5 144,-506.5 "/>
<text text-anchor="middle" x="72" y="-495.3" font-family="Verdana" font-size="9.00" fill="#337ab7">MakeFlag</text>
<polyline fill="none" stroke="#337ab7" points="0,-488.5 144,-488.5 "/>
<text text-anchor="middle" x="72" y="-477.3" font-family="Verdana" font-size="9.00" fill="#337ab7">FinishedGoodsFlag</text>
<polyline fill="none" stroke="#337ab7" points="0,-470.5 144,-470.5 "/>
<text text-anchor="middle" x="72" y="-459.3" font-family="Verdana" font-size="9.00" fill="#337ab7">Color</text>
<polyline fill="none" stroke="#337ab7" points="0,-452.5 144,-452.5 "/>
<text text-anchor="middle" x="72" y="-441.3" font-family="Verdana" font-size="9.00" fill="#337ab7">SafetyStockLevel</text>
<polyline fill="none" stroke="#337ab7" points="0,-434.5 144,-434.5 "/>
<text text-anchor="middle" x="72" y="-423.3" font-family="Verdana" font-size="9.00" fill="#337ab7">ReorderPoint</text>
<polyline fill="none" stroke="#337ab7" points="0,-416.5 144,-416.5 "/>
<text text-anchor="middle" x="72" y="-405.3" font-family="Verdana" font-size="9.00" fill="#337ab7">StandardCost</text>
<polyline fill="none" stroke="#337ab7" points="0,-398.5 144,-398.5 "/>
<text text-anchor="middle" x="72" y="-387.3" font-family="Verdana" font-size="9.00" fill="#337ab7">ListPrice</text>
<polyline fill="none" stroke="#337ab7" points="0,-380.5 144,-380.5 "/>
<text text-anchor="middle" x="72" y="-369.3" font-family="Verdana" font-size="9.00" fill="#337ab7">Size</text>
<polyline fill="none" stroke="#337ab7" points="0,-362.5 144,-362.5 "/>
<text text-anchor="middle" x="72" y="-351.3" font-family="Verdana" font-size="9.00" fill="#337ab7">+ SizeUnitMeasureCode</text>
<polyline fill="none" stroke="#337ab7" points="0,-344.5 144,-344.5 "/>
<text text-anchor="middle" x="72" y="-333.3" font-family="Verdana" font-size="9.00" fill="#337ab7">+ WeightUnitMeasureCode</text>
<polyline fill="none" stroke="#337ab7" points="0,-326.5 144,-326.5 "/>
<text text-anchor="middle" x="72" y="-315.3" font-family="Verdana" font-size="9.00" fill="#337ab7">Weight</text>
<polyline fill="none" stroke="#337ab7" points="0,-308.5 144,-308.5 "/>
<text text-anchor="middle" x="72" y="-297.3" font-family="Verdana" font-size="9.00" fill="#337ab7">DaysToManufacture</text>
<polyline fill="none" stroke="#337ab7" points="0,-290.5 144,-290.5 "/>
<text text-anchor="middle" x="72" y="-279.3" font-family="Verdana" font-size="9.00" fill="#337ab7">ProductLine</text>
<polyline fill="none" stroke="#337ab7" points="0,-272.5 144,-272.5 "/>
<text text-anchor="middle" x="72" y="-261.3" font-family="Verdana" font-size="9.00" fill="#337ab7">Class</text>
<polyline fill="none" stroke="#337ab7" points="0,-254.5 144,-254.5 "/>
<text text-anchor="middle" x="72" y="-243.3" font-family="Verdana" font-size="9.00" fill="#337ab7">Style</text>
<polyline fill="none" stroke="#337ab7" points="0,-236.5 144,-236.5 "/>
<text text-anchor="middle" x="72" y="-225.3" font-family="Verdana" font-size="9.00" fill="#337ab7">+ ProductSubcategoryID</text>
<polyline fill="none" stroke="#337ab7" points="0,-218.5 144,-218.5 "/>
<text text-anchor="middle" x="72" y="-207.3" font-family="Verdana" font-size="9.00" fill="#337ab7">+ ProductModelID</text>
<polyline fill="none" stroke="#337ab7" points="0,-200.5 144,-200.5 "/>
<text text-anchor="middle" x="72" y="-189.3" font-family="Verdana" font-size="9.00" fill="#337ab7">SellStartDate</text>
<polyline fill="none" stroke="#337ab7" points="0,-182.5 144,-182.5 "/>
<text text-anchor="middle" x="72" y="-171.3" font-family="Verdana" font-size="9.00" fill="#337ab7">SellEndDate</text>
<polyline fill="none" stroke="#337ab7" points="0,-164.5 144,-164.5 "/>
<text text-anchor="middle" x="72" y="-153.3" font-family="Verdana" font-size="9.00" fill="#337ab7">DiscontinuedDate</text>
<polyline fill="none" stroke="#337ab7" points="0,-146.5 144,-146.5 "/>
<text text-anchor="middle" x="72" y="-135.3" font-family="Verdana" font-size="9.00" fill="#337ab7">rowguid</text>
<polyline fill="none" stroke="#337ab7" points="0,-128.5 144,-128.5 "/>
<text text-anchor="middle" x="72" y="-117.3" font-family="Verdana" font-size="9.00" fill="#337ab7">ModifiedDate</text>
</g>
<!-- struct1&#45;&gt;struct0 -->
<g id="edge1" class="edge"><title>struct1:c1717581157_1&#45;&gt;struct0:c213575799_2</title>
<path fill="none" stroke="#337ab7" d="M144,-551.5C147.25,-551.5 149.51,-551.5 151.584,-551.5"/>
<polygon fill="#337ab7" stroke="#337ab7" points="152,-555 162,-551.5 152,-548 152,-555"/>
</g>
<!-- struct1&#45;&gt;struct0 -->
<g id="edge2" class="edge"><title>struct1:c1717581157_1&#45;&gt;struct0:c213575799_3</title>
<path fill="none" stroke="#337ab7" d="M144,-551.5C150.718,-551.5 151.815,-545.154 153.967,-539.998"/>
<polygon fill="#337ab7" stroke="#337ab7" points="156.426,-542.51 162,-533.5 152.024,-537.068 156.426,-542.51"/>
</g>
<!-- struct2 -->
<g id="node3" class="node"><title>struct2</title>
<polygon fill="none" stroke="#337ab7" points="17,-19.5 17,-91.5 127,-91.5 127,-19.5 17,-19.5"/>
<text text-anchor="middle" x="72" y="-80.3" font-family="Verdana" font-size="9.00" fill="#337ab7">Table: UnitMeasure</text>
<polyline fill="none" stroke="#337ab7" points="17,-73.5 127,-73.5 "/>
<text text-anchor="middle" x="72" y="-62.3" font-family="Verdana" font-size="9.00" fill="#337ab7">UnitMeasureCode +</text>
<polyline fill="none" stroke="#337ab7" points="17,-55.5 127,-55.5 "/>
<text text-anchor="middle" x="72" y="-44.3" font-family="Verdana" font-size="9.00" fill="#337ab7">Name</text>
<polyline fill="none" stroke="#337ab7" points="17,-37.5 127,-37.5 "/>
<text text-anchor="middle" x="72" y="-26.3" font-family="Verdana" font-size="9.00" fill="#337ab7">ModifiedDate</text>
</g>
<!-- struct2&#45;&gt;struct0 -->
<g id="edge3" class="edge"><title>struct2:c478624748_1&#45;&gt;struct0:c213575799_6</title>
<path fill="none" stroke="#337ab7" d="M128,-64.5C145.916,-64.5 139.953,-84.047 144,-101.5 148.304,-120.06 142.324,-415.427 156.812,-470.646"/>
<polygon fill="#337ab7" stroke="#337ab7" points="153.925,-472.641 162,-479.5 159.965,-469.102 153.925,-472.641"/>
</g>
</g>
</svg>
