<?xml version="1.0" encoding="UTF-8" standalone="no"?>
<!DOCTYPE svg PUBLIC "-//W3C//DTD SVG 1.1//EN"
 "http://www.w3.org/Graphics/SVG/1.1/DTD/svg11.dtd">
<!-- Generated by graphviz version 2.38.0 (20140413.2041)
 -->
<!-- Title: g Pages: 1 -->
<svg width="409pt" height="479pt"
 viewBox="0.00 0.00 409.00 479.00" xmlns="http://www.w3.org/2000/svg" xmlns:xlink="http://www.w3.org/1999/xlink">
<g id="graph0" class="graph" transform="scale(1 1) rotate(0) translate(4 475)">
<title>g</title>
<polygon fill="white" stroke="none" points="-4,4 -4,-475 405,-475 405,4 -4,4"/>
<text text-anchor="middle" x="200.5" y="-7" font-family="Verdana" font-size="10.00">Table: StateProvince</text>
<!-- struct0 -->
<g id="node1" class="node"><title>struct0</title>
<polygon fill="none" stroke="#337ab7" points="293.5,-290.5 293.5,-470.5 395.5,-470.5 395.5,-290.5 293.5,-290.5"/>
<text text-anchor="middle" x="344.5" y="-459.3" font-family="Verdana" font-size="9.00" fill="#337ab7">Table: Address</text>
<polyline fill="none" stroke="#337ab7" points="293.5,-452.5 395.5,-452.5 "/>
<text text-anchor="middle" x="344.5" y="-441.3" font-family="Verdana" font-size="9.00" fill="#337ab7">AddressID +</text>
<polyline fill="none" stroke="#337ab7" points="293.5,-434.5 395.5,-434.5 "/>
<text text-anchor="middle" x="344.5" y="-423.3" font-family="Verdana" font-size="9.00" fill="#337ab7">AddressLine1</text>
<polyline fill="none" stroke="#337ab7" points="293.5,-416.5 395.5,-416.5 "/>
<text text-anchor="middle" x="344.5" y="-405.3" font-family="Verdana" font-size="9.00" fill="#337ab7">AddressLine2</text>
<polyline fill="none" stroke="#337ab7" points="293.5,-398.5 395.5,-398.5 "/>
<text text-anchor="middle" x="344.5" y="-387.3" font-family="Verdana" font-size="9.00" fill="#337ab7">City</text>
<polyline fill="none" stroke="#337ab7" points="293.5,-380.5 395.5,-380.5 "/>
<text text-anchor="middle" x="344.5" y="-369.3" font-family="Verdana" font-size="9.00" fill="#337ab7">+ StateProvinceID</text>
<polyline fill="none" stroke="#337ab7" points="293.5,-362.5 395.5,-362.5 "/>
<text text-anchor="middle" x="344.5" y="-351.3" font-family="Verdana" font-size="9.00" fill="#337ab7">PostalCode</text>
<polyline fill="none" stroke="#337ab7" points="293.5,-344.5 395.5,-344.5 "/>
<text text-anchor="middle" x="344.5" y="-333.3" font-family="Verdana" font-size="9.00" fill="#337ab7">SpatialLocation</text>
<polyline fill="none" stroke="#337ab7" points="293.5,-326.5 395.5,-326.5 "/>
<text text-anchor="middle" x="344.5" y="-315.3" font-family="Verdana" font-size="9.00" fill="#337ab7">rowguid</text>
<polyline fill="none" stroke="#337ab7" points="293.5,-308.5 395.5,-308.5 "/>
<text text-anchor="middle" x="344.5" y="-297.3" font-family="Verdana" font-size="9.00" fill="#337ab7">ModifiedDate</text>
</g>
<!-- struct1 -->
<g id="node2" class="node"><title>struct1</title>
<polygon fill="none" stroke="#337ab7" points="0,-236.5 0,-308.5 121,-308.5 121,-236.5 0,-236.5"/>
<text text-anchor="middle" x="60.5" y="-297.3" font-family="Verdana" font-size="9.00" fill="#337ab7">Table: CountryRegion</text>
<polyline fill="none" stroke="#337ab7" points="0,-290.5 121,-290.5 "/>
<text text-anchor="middle" x="60.5" y="-279.3" font-family="Verdana" font-size="9.00" fill="#337ab7">CountryRegionCode +</text>
<polyline fill="none" stroke="#337ab7" points="0,-272.5 121,-272.5 "/>
<text text-anchor="middle" x="60.5" y="-261.3" font-family="Verdana" font-size="9.00" fill="#337ab7">Name</text>
<polyline fill="none" stroke="#337ab7" points="0,-254.5 121,-254.5 "/>
<text text-anchor="middle" x="60.5" y="-243.3" font-family="Verdana" font-size="9.00" fill="#337ab7">ModifiedDate</text>
</g>
<!-- struct4 -->
<g id="node5" class="node"><title>struct4</title>
<polygon fill="none" stroke="black" points="139,-163.5 139,-325.5 270,-325.5 270,-163.5 139,-163.5"/>
<text text-anchor="middle" x="204.5" y="-314.3" font-family="Verdana" font-size="9.00">Table: StateProvince</text>
<polyline fill="none" stroke="black" points="139,-307.5 270,-307.5 "/>
<text text-anchor="middle" x="204.5" y="-296.3" font-family="Verdana" font-size="9.00">StateProvinceID +</text>
<polyline fill="none" stroke="black" points="139,-289.5 270,-289.5 "/>
<text text-anchor="middle" x="204.5" y="-278.3" font-family="Verdana" font-size="9.00">StateProvinceCode</text>
<polyline fill="none" stroke="black" points="139,-271.5 270,-271.5 "/>
<text text-anchor="middle" x="204.5" y="-260.3" font-family="Verdana" font-size="9.00">+ CountryRegionCode</text>
<polyline fill="none" stroke="black" points="139,-253.5 270,-253.5 "/>
<text text-anchor="middle" x="204.5" y="-242.3" font-family="Verdana" font-size="9.00">IsOnlyStateProvinceFlag</text>
<polyline fill="none" stroke="black" points="139,-235.5 270,-235.5 "/>
<text text-anchor="middle" x="204.5" y="-224.3" font-family="Verdana" font-size="9.00">Name</text>
<polyline fill="none" stroke="black" points="139,-217.5 270,-217.5 "/>
<text text-anchor="middle" x="204.5" y="-206.3" font-family="Verdana" font-size="9.00">+ TerritoryID</text>
<polyline fill="none" stroke="black" points="139,-199.5 270,-199.5 "/>
<text text-anchor="middle" x="204.5" y="-188.3" font-family="Verdana" font-size="9.00">rowguid</text>
<polyline fill="none" stroke="black" points="139,-181.5 270,-181.5 "/>
<text text-anchor="middle" x="204.5" y="-170.3" font-family="Verdana" font-size="9.00">ModifiedDate</text>
</g>
<!-- struct1&#45;&gt;struct4 -->
<g id="edge3" class="edge"><title>struct1:c549576996_1&#45;&gt;struct4:c206623779_3</title>
<path fill="none" stroke="#337ab7" d="M121,-281.5C128.088,-281.5 128.902,-274.445 131.089,-268.933"/>
<polygon fill="#337ab7" stroke="#337ab7" points="133.449,-271.524 139,-262.5 129.033,-266.093 133.449,-271.524"/>
</g>
<!-- struct2 -->
<g id="node3" class="node"><title>struct2</title>
<polygon fill="none" stroke="#337ab7" points="288,-127.5 288,-271.5 401,-271.5 401,-127.5 288,-127.5"/>
<text text-anchor="middle" x="344.5" y="-260.3" font-family="Verdana" font-size="9.00" fill="#337ab7">Table: SalesTaxRate</text>
<polyline fill="none" stroke="#337ab7" points="288,-253.5 401,-253.5 "/>
<text text-anchor="middle" x="344.5" y="-242.3" font-family="Verdana" font-size="9.00" fill="#337ab7">SalesTaxRateID</text>
<polyline fill="none" stroke="#337ab7" points="288,-235.5 401,-235.5 "/>
<text text-anchor="middle" x="344.5" y="-224.3" font-family="Verdana" font-size="9.00" fill="#337ab7">+ StateProvinceID</text>
<polyline fill="none" stroke="#337ab7" points="288,-217.5 401,-217.5 "/>
<text text-anchor="middle" x="344.5" y="-206.3" font-family="Verdana" font-size="9.00" fill="#337ab7">TaxType</text>
<polyline fill="none" stroke="#337ab7" points="288,-199.5 401,-199.5 "/>
<text text-anchor="middle" x="344.5" y="-188.3" font-family="Verdana" font-size="9.00" fill="#337ab7">TaxRate</text>
<polyline fill="none" stroke="#337ab7" points="288,-181.5 401,-181.5 "/>
<text text-anchor="middle" x="344.5" y="-170.3" font-family="Verdana" font-size="9.00" fill="#337ab7">Name</text>
<polyline fill="none" stroke="#337ab7" points="288,-163.5 401,-163.5 "/>
<text text-anchor="middle" x="344.5" y="-152.3" font-family="Verdana" font-size="9.00" fill="#337ab7">rowguid</text>
<polyline fill="none" stroke="#337ab7" points="288,-145.5 401,-145.5 "/>
<text text-anchor="middle" x="344.5" y="-134.3" font-family="Verdana" font-size="9.00" fill="#337ab7">ModifiedDate</text>
</g>
<!-- struct3 -->
<g id="node4" class="node"><title>struct3</title>
<polygon fill="none" stroke="#337ab7" points="0,-19.5 0,-217.5 121,-217.5 121,-19.5 0,-19.5"/>
<text text-anchor="middle" x="60.5" y="-206.3" font-family="Verdana" font-size="9.00" fill="#337ab7">Table: SalesTerritory</text>
<polyline fill="none" stroke="#337ab7" points="0,-199.5 121,-199.5 "/>
<text text-anchor="middle" x="60.5" y="-188.3" font-family="Verdana" font-size="9.00" fill="#337ab7">TerritoryID +</text>
<polyline fill="none" stroke="#337ab7" points="0,-181.5 121,-181.5 "/>
<text text-anchor="middle" x="60.5" y="-170.3" font-family="Verdana" font-size="9.00" fill="#337ab7">Name</text>
<polyline fill="none" stroke="#337ab7" points="0,-163.5 121,-163.5 "/>
<text text-anchor="middle" x="60.5" y="-152.3" font-family="Verdana" font-size="9.00" fill="#337ab7">+ CountryRegionCode</text>
<polyline fill="none" stroke="#337ab7" points="0,-145.5 121,-145.5 "/>
<text text-anchor="middle" x="60.5" y="-134.3" font-family="Verdana" font-size="9.00" fill="#337ab7">Group</text>
<polyline fill="none" stroke="#337ab7" points="0,-127.5 121,-127.5 "/>
<text text-anchor="middle" x="60.5" y="-116.3" font-family="Verdana" font-size="9.00" fill="#337ab7">SalesYTD</text>
<polyline fill="none" stroke="#337ab7" points="0,-109.5 121,-109.5 "/>
<text text-anchor="middle" x="60.5" y="-98.3" font-family="Verdana" font-size="9.00" fill="#337ab7">SalesLastYear</text>
<polyline fill="none" stroke="#337ab7" points="0,-91.5 121,-91.5 "/>
<text text-anchor="middle" x="60.5" y="-80.3" font-family="Verdana" font-size="9.00" fill="#337ab7">CostYTD</text>
<polyline fill="none" stroke="#337ab7" points="0,-73.5 121,-73.5 "/>
<text text-anchor="middle" x="60.5" y="-62.3" font-family="Verdana" font-size="9.00" fill="#337ab7">CostLastYear</text>
<polyline fill="none" stroke="#337ab7" points="0,-55.5 121,-55.5 "/>
<text text-anchor="middle" x="60.5" y="-44.3" font-family="Verdana" font-size="9.00" fill="#337ab7">rowguid</text>
<polyline fill="none" stroke="#337ab7" points="0,-37.5 121,-37.5 "/>
<text text-anchor="middle" x="60.5" y="-26.3" font-family="Verdana" font-size="9.00" fill="#337ab7">ModifiedDate</text>
</g>
<!-- struct3&#45;&gt;struct4 -->
<g id="edge4" class="edge"><title>struct3:c1666104976_1&#45;&gt;struct4:c206623779_6</title>
<path fill="none" stroke="#337ab7" d="M121,-190.5C127.718,-190.5 128.815,-196.846 130.967,-202.002"/>
<polygon fill="#337ab7" stroke="#337ab7" points="129.024,-204.932 139,-208.5 133.426,-199.49 129.024,-204.932"/>
</g>
<!-- struct4&#45;&gt;struct0 -->
<g id="edge2" class="edge"><title>struct4:c206623779_1&#45;&gt;struct0:c85575343_5</title>
<path fill="none" stroke="black" d="M270,-298.5C299.442,-298.5 269.209,-353.397 282.8,-367.979"/>
<polygon fill="black" stroke="black" points="281.906,-371.378 292.5,-371.5 284.294,-364.798 281.906,-371.378"/>
</g>
<!-- struct4&#45;&gt;struct2 -->
<g id="edge1" class="edge"><title>struct4:c206623779_1&#45;&gt;struct2:c1586104691_2</title>
<path fill="none" stroke="black" d="M270,-298.5C298.346,-298.5 266.906,-245.326 278.437,-230.371"/>
<polygon fill="black" stroke="black" points="280.044,-233.497 288,-226.5 277.417,-227.008 280.044,-233.497"/>
</g>
</g>
</svg>
