<?xml version="1.0" encoding="UTF-8" standalone="no"?>
<!DOCTYPE svg PUBLIC "-//W3C//DTD SVG 1.1//EN"
 "http://www.w3.org/Graphics/SVG/1.1/DTD/svg11.dtd">
<!-- Generated by graphviz version 2.38.0 (20140413.2041)
 -->
<!-- Title: g Pages: 1 -->
<svg width="396pt" height="642pt"
 viewBox="0.00 0.00 396.00 642.00" xmlns="http://www.w3.org/2000/svg" xmlns:xlink="http://www.w3.org/1999/xlink">
<g id="graph0" class="graph" transform="scale(1 1) rotate(0) translate(4 638)">
<title>g</title>
<polygon fill="white" stroke="none" points="-4,4 -4,-638 392,-638 392,4 -4,4"/>
<text text-anchor="middle" x="194" y="-7" font-family="Verdana" font-size="10.00">Table: Customer</text>
<!-- struct0 -->
<g id="node1" class="node"><title>struct0</title>
<polygon fill="none" stroke="black" points="139,-254.5 139,-398.5 234,-398.5 234,-254.5 139,-254.5"/>
<text text-anchor="middle" x="186.5" y="-387.3" font-family="Verdana" font-size="9.00">Table: Customer</text>
<polyline fill="none" stroke="black" points="139,-380.5 234,-380.5 "/>
<text text-anchor="middle" x="186.5" y="-369.3" font-family="Verdana" font-size="9.00">CustomerID +</text>
<polyline fill="none" stroke="black" points="139,-362.5 234,-362.5 "/>
<text text-anchor="middle" x="186.5" y="-351.3" font-family="Verdana" font-size="9.00">+ PersonID</text>
<polyline fill="none" stroke="black" points="139,-344.5 234,-344.5 "/>
<text text-anchor="middle" x="186.5" y="-333.3" font-family="Verdana" font-size="9.00">+ StoreID</text>
<polyline fill="none" stroke="black" points="139,-326.5 234,-326.5 "/>
<text text-anchor="middle" x="186.5" y="-315.3" font-family="Verdana" font-size="9.00">+ TerritoryID</text>
<polyline fill="none" stroke="black" points="139,-308.5 234,-308.5 "/>
<text text-anchor="middle" x="186.5" y="-297.3" font-family="Verdana" font-size="9.00">AccountNumber</text>
<polyline fill="none" stroke="black" points="139,-290.5 234,-290.5 "/>
<text text-anchor="middle" x="186.5" y="-279.3" font-family="Verdana" font-size="9.00">rowguid</text>
<polyline fill="none" stroke="black" points="139,-272.5 234,-272.5 "/>
<text text-anchor="middle" x="186.5" y="-261.3" font-family="Verdana" font-size="9.00">ModifiedDate</text>
</g>
<!-- struct2 -->
<g id="node3" class="node"><title>struct2</title>
<polygon fill="none" stroke="#337ab7" points="252,-92.5 252,-578.5 388,-578.5 388,-92.5 252,-92.5"/>
<text text-anchor="middle" x="320" y="-567.3" font-family="Verdana" font-size="9.00" fill="#337ab7">Table: SalesOrderHeader</text>
<polyline fill="none" stroke="#337ab7" points="252,-560.5 388,-560.5 "/>
<text text-anchor="middle" x="320" y="-549.3" font-family="Verdana" font-size="9.00" fill="#337ab7">SalesOrderID +</text>
<polyline fill="none" stroke="#337ab7" points="252,-542.5 388,-542.5 "/>
<text text-anchor="middle" x="320" y="-531.3" font-family="Verdana" font-size="9.00" fill="#337ab7">RevisionNumber</text>
<polyline fill="none" stroke="#337ab7" points="252,-524.5 388,-524.5 "/>
<text text-anchor="middle" x="320" y="-513.3" font-family="Verdana" font-size="9.00" fill="#337ab7">OrderDate</text>
<polyline fill="none" stroke="#337ab7" points="252,-506.5 388,-506.5 "/>
<text text-anchor="middle" x="320" y="-495.3" font-family="Verdana" font-size="9.00" fill="#337ab7">DueDate</text>
<polyline fill="none" stroke="#337ab7" points="252,-488.5 388,-488.5 "/>
<text text-anchor="middle" x="320" y="-477.3" font-family="Verdana" font-size="9.00" fill="#337ab7">ShipDate</text>
<polyline fill="none" stroke="#337ab7" points="252,-470.5 388,-470.5 "/>
<text text-anchor="middle" x="320" y="-459.3" font-family="Verdana" font-size="9.00" fill="#337ab7">Status</text>
<polyline fill="none" stroke="#337ab7" points="252,-452.5 388,-452.5 "/>
<text text-anchor="middle" x="320" y="-441.3" font-family="Verdana" font-size="9.00" fill="#337ab7">OnlineOrderFlag</text>
<polyline fill="none" stroke="#337ab7" points="252,-434.5 388,-434.5 "/>
<text text-anchor="middle" x="320" y="-423.3" font-family="Verdana" font-size="9.00" fill="#337ab7">SalesOrderNumber</text>
<polyline fill="none" stroke="#337ab7" points="252,-416.5 388,-416.5 "/>
<text text-anchor="middle" x="320" y="-405.3" font-family="Verdana" font-size="9.00" fill="#337ab7">PurchaseOrderNumber</text>
<polyline fill="none" stroke="#337ab7" points="252,-398.5 388,-398.5 "/>
<text text-anchor="middle" x="320" y="-387.3" font-family="Verdana" font-size="9.00" fill="#337ab7">AccountNumber</text>
<polyline fill="none" stroke="#337ab7" points="252,-380.5 388,-380.5 "/>
<text text-anchor="middle" x="320" y="-369.3" font-family="Verdana" font-size="9.00" fill="#337ab7">+ CustomerID</text>
<polyline fill="none" stroke="#337ab7" points="252,-362.5 388,-362.5 "/>
<text text-anchor="middle" x="320" y="-351.3" font-family="Verdana" font-size="9.00" fill="#337ab7">+ SalesPersonID</text>
<polyline fill="none" stroke="#337ab7" points="252,-344.5 388,-344.5 "/>
<text text-anchor="middle" x="320" y="-333.3" font-family="Verdana" font-size="9.00" fill="#337ab7">+ TerritoryID</text>
<polyline fill="none" stroke="#337ab7" points="252,-326.5 388,-326.5 "/>
<text text-anchor="middle" x="320" y="-315.3" font-family="Verdana" font-size="9.00" fill="#337ab7">+ BillToAddressID</text>
<polyline fill="none" stroke="#337ab7" points="252,-308.5 388,-308.5 "/>
<text text-anchor="middle" x="320" y="-297.3" font-family="Verdana" font-size="9.00" fill="#337ab7">+ ShipToAddressID</text>
<polyline fill="none" stroke="#337ab7" points="252,-290.5 388,-290.5 "/>
<text text-anchor="middle" x="320" y="-279.3" font-family="Verdana" font-size="9.00" fill="#337ab7">+ ShipMethodID</text>
<polyline fill="none" stroke="#337ab7" points="252,-272.5 388,-272.5 "/>
<text text-anchor="middle" x="320" y="-261.3" font-family="Verdana" font-size="9.00" fill="#337ab7">+ CreditCardID</text>
<polyline fill="none" stroke="#337ab7" points="252,-254.5 388,-254.5 "/>
<text text-anchor="middle" x="320" y="-243.3" font-family="Verdana" font-size="9.00" fill="#337ab7">CreditCardApprovalCode</text>
<polyline fill="none" stroke="#337ab7" points="252,-236.5 388,-236.5 "/>
<text text-anchor="middle" x="320" y="-225.3" font-family="Verdana" font-size="9.00" fill="#337ab7">+ CurrencyRateID</text>
<polyline fill="none" stroke="#337ab7" points="252,-218.5 388,-218.5 "/>
<text text-anchor="middle" x="320" y="-207.3" font-family="Verdana" font-size="9.00" fill="#337ab7">SubTotal</text>
<polyline fill="none" stroke="#337ab7" points="252,-200.5 388,-200.5 "/>
<text text-anchor="middle" x="320" y="-189.3" font-family="Verdana" font-size="9.00" fill="#337ab7">TaxAmt</text>
<polyline fill="none" stroke="#337ab7" points="252,-182.5 388,-182.5 "/>
<text text-anchor="middle" x="320" y="-171.3" font-family="Verdana" font-size="9.00" fill="#337ab7">Freight</text>
<polyline fill="none" stroke="#337ab7" points="252,-164.5 388,-164.5 "/>
<text text-anchor="middle" x="320" y="-153.3" font-family="Verdana" font-size="9.00" fill="#337ab7">TotalDue</text>
<polyline fill="none" stroke="#337ab7" points="252,-146.5 388,-146.5 "/>
<text text-anchor="middle" x="320" y="-135.3" font-family="Verdana" font-size="9.00" fill="#337ab7">Comment</text>
<polyline fill="none" stroke="#337ab7" points="252,-128.5 388,-128.5 "/>
<text text-anchor="middle" x="320" y="-117.3" font-family="Verdana" font-size="9.00" fill="#337ab7">rowguid</text>
<polyline fill="none" stroke="#337ab7" points="252,-110.5 388,-110.5 "/>
<text text-anchor="middle" x="320" y="-99.3" font-family="Verdana" font-size="9.00" fill="#337ab7">ModifiedDate</text>
</g>
<!-- struct0&#45;&gt;struct2 -->
<g id="edge1" class="edge"><title>struct0:c709577566_1&#45;&gt;struct2:c1010102639_11</title>
<path fill="none" stroke="black" d="M234,-371.5C237.25,-371.5 239.51,-371.5 241.584,-371.5"/>
<polygon fill="black" stroke="black" points="242,-375 252,-371.5 242,-368 242,-375"/>
</g>
<!-- struct1 -->
<g id="node2" class="node"><title>struct1</title>
<polygon fill="none" stroke="#337ab7" points="1,-381.5 1,-633.5 120,-633.5 120,-381.5 1,-381.5"/>
<text text-anchor="middle" x="60.5" y="-622.3" font-family="Verdana" font-size="9.00" fill="#337ab7">Table: Person</text>
<polyline fill="none" stroke="#337ab7" points="1,-615.5 120,-615.5 "/>
<text text-anchor="middle" x="60.5" y="-604.3" font-family="Verdana" font-size="9.00" fill="#337ab7">BusinessEntityID +</text>
<polyline fill="none" stroke="#337ab7" points="1,-597.5 120,-597.5 "/>
<text text-anchor="middle" x="60.5" y="-586.3" font-family="Verdana" font-size="9.00" fill="#337ab7">PersonType</text>
<polyline fill="none" stroke="#337ab7" points="1,-579.5 120,-579.5 "/>
<text text-anchor="middle" x="60.5" y="-568.3" font-family="Verdana" font-size="9.00" fill="#337ab7">NameStyle</text>
<polyline fill="none" stroke="#337ab7" points="1,-561.5 120,-561.5 "/>
<text text-anchor="middle" x="60.5" y="-550.3" font-family="Verdana" font-size="9.00" fill="#337ab7">Title</text>
<polyline fill="none" stroke="#337ab7" points="1,-543.5 120,-543.5 "/>
<text text-anchor="middle" x="60.5" y="-532.3" font-family="Verdana" font-size="9.00" fill="#337ab7">FirstName</text>
<polyline fill="none" stroke="#337ab7" points="1,-525.5 120,-525.5 "/>
<text text-anchor="middle" x="60.5" y="-514.3" font-family="Verdana" font-size="9.00" fill="#337ab7">MiddleName</text>
<polyline fill="none" stroke="#337ab7" points="1,-507.5 120,-507.5 "/>
<text text-anchor="middle" x="60.5" y="-496.3" font-family="Verdana" font-size="9.00" fill="#337ab7">LastName</text>
<polyline fill="none" stroke="#337ab7" points="1,-489.5 120,-489.5 "/>
<text text-anchor="middle" x="60.5" y="-478.3" font-family="Verdana" font-size="9.00" fill="#337ab7">Suffix</text>
<polyline fill="none" stroke="#337ab7" points="1,-471.5 120,-471.5 "/>
<text text-anchor="middle" x="60.5" y="-460.3" font-family="Verdana" font-size="9.00" fill="#337ab7">EmailPromotion</text>
<polyline fill="none" stroke="#337ab7" points="1,-453.5 120,-453.5 "/>
<text text-anchor="middle" x="60.5" y="-442.3" font-family="Verdana" font-size="9.00" fill="#337ab7">AdditionalContactInfo</text>
<polyline fill="none" stroke="#337ab7" points="1,-435.5 120,-435.5 "/>
<text text-anchor="middle" x="60.5" y="-424.3" font-family="Verdana" font-size="9.00" fill="#337ab7">Demographics</text>
<polyline fill="none" stroke="#337ab7" points="1,-417.5 120,-417.5 "/>
<text text-anchor="middle" x="60.5" y="-406.3" font-family="Verdana" font-size="9.00" fill="#337ab7">rowguid</text>
<polyline fill="none" stroke="#337ab7" points="1,-399.5 120,-399.5 "/>
<text text-anchor="middle" x="60.5" y="-388.3" font-family="Verdana" font-size="9.00" fill="#337ab7">ModifiedDate</text>
</g>
<!-- struct1&#45;&gt;struct0 -->
<g id="edge2" class="edge"><title>struct1:c1509580416_1&#45;&gt;struct0:c709577566_2</title>
<path fill="none" stroke="#337ab7" d="M121,-606.5C173.401,-606.5 95.2099,-387.827 129.247,-357.076"/>
<polygon fill="#337ab7" stroke="#337ab7" points="130.816,-360.229 139,-353.5 128.406,-353.657 130.816,-360.229"/>
</g>
<!-- struct3 -->
<g id="node4" class="node"><title>struct3</title>
<polygon fill="none" stroke="#337ab7" points="0,-19.5 0,-217.5 121,-217.5 121,-19.5 0,-19.5"/>
<text text-anchor="middle" x="60.5" y="-206.3" font-family="Verdana" font-size="9.00" fill="#337ab7">Table: SalesTerritory</text>
<polyline fill="none" stroke="#337ab7" points="0,-199.5 121,-199.5 "/>
<text text-anchor="middle" x="60.5" y="-188.3" font-family="Verdana" font-size="9.00" fill="#337ab7">TerritoryID +</text>
<polyline fill="none" stroke="#337ab7" points="0,-181.5 121,-181.5 "/>
<text text-anchor="middle" x="60.5" y="-170.3" font-family="Verdana" font-size="9.00" fill="#337ab7">Name</text>
<polyline fill="none" stroke="#337ab7" points="0,-163.5 121,-163.5 "/>
<text text-anchor="middle" x="60.5" y="-152.3" font-family="Verdana" font-size="9.00" fill="#337ab7">+ CountryRegionCode</text>
<polyline fill="none" stroke="#337ab7" points="0,-145.5 121,-145.5 "/>
<text text-anchor="middle" x="60.5" y="-134.3" font-family="Verdana" font-size="9.00" fill="#337ab7">Group</text>
<polyline fill="none" stroke="#337ab7" points="0,-127.5 121,-127.5 "/>
<text text-anchor="middle" x="60.5" y="-116.3" font-family="Verdana" font-size="9.00" fill="#337ab7">SalesYTD</text>
<polyline fill="none" stroke="#337ab7" points="0,-109.5 121,-109.5 "/>
<text text-anchor="middle" x="60.5" y="-98.3" font-family="Verdana" font-size="9.00" fill="#337ab7">SalesLastYear</text>
<polyline fill="none" stroke="#337ab7" points="0,-91.5 121,-91.5 "/>
<text text-anchor="middle" x="60.5" y="-80.3" font-family="Verdana" font-size="9.00" fill="#337ab7">CostYTD</text>
<polyline fill="none" stroke="#337ab7" points="0,-73.5 121,-73.5 "/>
<text text-anchor="middle" x="60.5" y="-62.3" font-family="Verdana" font-size="9.00" fill="#337ab7">CostLastYear</text>
<polyline fill="none" stroke="#337ab7" points="0,-55.5 121,-55.5 "/>
<text text-anchor="middle" x="60.5" y="-44.3" font-family="Verdana" font-size="9.00" fill="#337ab7">rowguid</text>
<polyline fill="none" stroke="#337ab7" points="0,-37.5 121,-37.5 "/>
<text text-anchor="middle" x="60.5" y="-26.3" font-family="Verdana" font-size="9.00" fill="#337ab7">ModifiedDate</text>
</g>
<!-- struct3&#45;&gt;struct0 -->
<g id="edge4" class="edge"><title>struct3:c1666104976_1&#45;&gt;struct0:c709577566_4</title>
<path fill="none" stroke="#337ab7" d="M121,-190.5C145.719,-190.5 119.667,-286.006 130.899,-311.375"/>
<polygon fill="#337ab7" stroke="#337ab7" points="128.913,-314.26 139,-317.5 133.135,-308.677 128.913,-314.26"/>
</g>
<!-- struct4 -->
<g id="node5" class="node"><title>struct4</title>
<polygon fill="none" stroke="#337ab7" points="7.5,-236.5 7.5,-362.5 113.5,-362.5 113.5,-236.5 7.5,-236.5"/>
<text text-anchor="middle" x="60.5" y="-351.3" font-family="Verdana" font-size="9.00" fill="#337ab7">Table: Store</text>
<polyline fill="none" stroke="#337ab7" points="7.5,-344.5 113.5,-344.5 "/>
<text text-anchor="middle" x="60.5" y="-333.3" font-family="Verdana" font-size="9.00" fill="#337ab7">BusinessEntityID +</text>
<polyline fill="none" stroke="#337ab7" points="7.5,-326.5 113.5,-326.5 "/>
<text text-anchor="middle" x="60.5" y="-315.3" font-family="Verdana" font-size="9.00" fill="#337ab7">Name</text>
<polyline fill="none" stroke="#337ab7" points="7.5,-308.5 113.5,-308.5 "/>
<text text-anchor="middle" x="60.5" y="-297.3" font-family="Verdana" font-size="9.00" fill="#337ab7">+ SalesPersonID</text>
<polyline fill="none" stroke="#337ab7" points="7.5,-290.5 113.5,-290.5 "/>
<text text-anchor="middle" x="60.5" y="-279.3" font-family="Verdana" font-size="9.00" fill="#337ab7">Demographics</text>
<polyline fill="none" stroke="#337ab7" points="7.5,-272.5 113.5,-272.5 "/>
<text text-anchor="middle" x="60.5" y="-261.3" font-family="Verdana" font-size="9.00" fill="#337ab7">rowguid</text>
<polyline fill="none" stroke="#337ab7" points="7.5,-254.5 113.5,-254.5 "/>
<text text-anchor="middle" x="60.5" y="-243.3" font-family="Verdana" font-size="9.00" fill="#337ab7">ModifiedDate</text>
</g>
<!-- struct4&#45;&gt;struct0 -->
<g id="edge3" class="edge"><title>struct4:c270624007_1&#45;&gt;struct0:c709577566_3</title>
<path fill="none" stroke="#337ab7" d="M114.5,-335.5C120.965,-335.5 124.551,-335.5 128.678,-335.5"/>
<polygon fill="#337ab7" stroke="#337ab7" points="129,-339 139,-335.5 129,-332 129,-339"/>
</g>
</g>
</svg>
