<?xml version="1.0" encoding="UTF-8" standalone="no"?>
<!DOCTYPE svg PUBLIC "-//W3C//DTD SVG 1.1//EN"
 "http://www.w3.org/Graphics/SVG/1.1/DTD/svg11.dtd">
<!-- Generated by graphviz version 2.38.0 (20140413.2041)
 -->
<!-- Title: g Pages: 1 -->
<svg width="264pt" height="353pt"
 viewBox="0.00 0.00 264.00 353.00" xmlns="http://www.w3.org/2000/svg" xmlns:xlink="http://www.w3.org/1999/xlink">
<g id="graph0" class="graph" transform="scale(1 1) rotate(0) translate(4 349)">
<title>g</title>
<polygon fill="white" stroke="none" points="-4,4 -4,-349 260,-349 260,4 -4,4"/>
<text text-anchor="middle" x="128" y="-7" font-family="Verdana" font-size="10.00">Table: WorkOrderRouting</text>
<!-- struct0 -->
<g id="node1" class="node"><title>struct0</title>
<polygon fill="#f7f7f9" stroke="#555555" points="6,-19.5 6,-127.5 95,-127.5 95,-19.5 6,-19.5"/>
<text text-anchor="middle" x="50.5" y="-116.3" font-family="Verdana" font-size="9.00" fill="#555555">Table: Location</text>
<polyline fill="none" stroke="#555555" points="6,-109.5 95,-109.5 "/>
<text text-anchor="middle" x="50.5" y="-98.3" font-family="Verdana" font-size="9.00" fill="#555555">LocationID +</text>
<polyline fill="none" stroke="#555555" points="6,-91.5 95,-91.5 "/>
<text text-anchor="middle" x="50.5" y="-80.3" font-family="Verdana" font-size="9.00" fill="#555555">Name</text>
<polyline fill="none" stroke="#555555" points="6,-73.5 95,-73.5 "/>
<text text-anchor="middle" x="50.5" y="-62.3" font-family="Verdana" font-size="9.00" fill="#555555">CostRate</text>
<polyline fill="none" stroke="#555555" points="6,-55.5 95,-55.5 "/>
<text text-anchor="middle" x="50.5" y="-44.3" font-family="Verdana" font-size="9.00" fill="#555555">Availability</text>
<polyline fill="none" stroke="#555555" points="6,-37.5 95,-37.5 "/>
<text text-anchor="middle" x="50.5" y="-26.3" font-family="Verdana" font-size="9.00" fill="#555555">ModifiedDate</text>
</g>
<!-- struct2 -->
<g id="node3" class="node"><title>struct2</title>
<polygon fill="#d9edf7" stroke="#1b809e" points="119,-28.5 119,-262.5 256,-262.5 256,-28.5 119,-28.5"/>
<text text-anchor="middle" x="187.5" y="-251.3" font-family="Verdana" font-size="9.00" fill="#1b809e">Table: WorkOrderRouting</text>
<polyline fill="none" stroke="#1b809e" points="119,-244.5 256,-244.5 "/>
<text text-anchor="middle" x="187.5" y="-233.3" font-family="Verdana" font-size="9.00" fill="#1b809e">+ WorkOrderID</text>
<polyline fill="none" stroke="#1b809e" points="119,-226.5 256,-226.5 "/>
<text text-anchor="middle" x="187.5" y="-215.3" font-family="Verdana" font-size="9.00" fill="#1b809e">ProductID</text>
<polyline fill="none" stroke="#1b809e" points="119,-208.5 256,-208.5 "/>
<text text-anchor="middle" x="187.5" y="-197.3" font-family="Verdana" font-size="9.00" fill="#1b809e">OperationSequence</text>
<polyline fill="none" stroke="#1b809e" points="119,-190.5 256,-190.5 "/>
<text text-anchor="middle" x="187.5" y="-179.3" font-family="Verdana" font-size="9.00" fill="#1b809e">+ LocationID</text>
<polyline fill="none" stroke="#1b809e" points="119,-172.5 256,-172.5 "/>
<text text-anchor="middle" x="187.5" y="-161.3" font-family="Verdana" font-size="9.00" fill="#1b809e">ScheduledStartDate</text>
<polyline fill="none" stroke="#1b809e" points="119,-154.5 256,-154.5 "/>
<text text-anchor="middle" x="187.5" y="-143.3" font-family="Verdana" font-size="9.00" fill="#1b809e">ScheduledEndDate</text>
<polyline fill="none" stroke="#1b809e" points="119,-136.5 256,-136.5 "/>
<text text-anchor="middle" x="187.5" y="-125.3" font-family="Verdana" font-size="9.00" fill="#1b809e">ActualStartDate</text>
<polyline fill="none" stroke="#1b809e" points="119,-118.5 256,-118.5 "/>
<text text-anchor="middle" x="187.5" y="-107.3" font-family="Verdana" font-size="9.00" fill="#1b809e">ActualEndDate</text>
<polyline fill="none" stroke="#1b809e" points="119,-100.5 256,-100.5 "/>
<text text-anchor="middle" x="187.5" y="-89.3" font-family="Verdana" font-size="9.00" fill="#1b809e">ActualResourceHrs</text>
<polyline fill="none" stroke="#1b809e" points="119,-82.5 256,-82.5 "/>
<text text-anchor="middle" x="187.5" y="-71.3" font-family="Verdana" font-size="9.00" fill="#1b809e">PlannedCost</text>
<polyline fill="none" stroke="#1b809e" points="119,-64.5 256,-64.5 "/>
<text text-anchor="middle" x="187.5" y="-53.3" font-family="Verdana" font-size="9.00" fill="#1b809e">ActualCost</text>
<polyline fill="none" stroke="#1b809e" points="119,-46.5 256,-46.5 "/>
<text text-anchor="middle" x="187.5" y="-35.3" font-family="Verdana" font-size="9.00" fill="#1b809e">ModifiedDate</text>
</g>
<!-- struct0&#45;&gt;struct2 -->
<g id="edge2" class="edge"><title>struct0:c1365579903_1&#45;&gt;struct2:c670625432_4</title>
<path fill="none" stroke="#337ab7" d="M96.5,-100.5C129.485,-100.5 92.6471,-163.628 109.267,-178.424"/>
<polygon fill="#337ab7" stroke="#337ab7" points="108.41,-181.823 119,-181.5 110.52,-175.149 108.41,-181.823"/>
</g>
<!-- struct1 -->
<g id="node2" class="node"><title>struct1</title>
<polygon fill="#f7f7f9" stroke="#555555" points="0,-146.5 0,-344.5 101,-344.5 101,-146.5 0,-146.5"/>
<text text-anchor="middle" x="50.5" y="-333.3" font-family="Verdana" font-size="9.00" fill="#555555">Table: WorkOrder</text>
<polyline fill="none" stroke="#555555" points="0,-326.5 101,-326.5 "/>
<text text-anchor="middle" x="50.5" y="-315.3" font-family="Verdana" font-size="9.00" fill="#555555">WorkOrderID +</text>
<polyline fill="none" stroke="#555555" points="0,-308.5 101,-308.5 "/>
<text text-anchor="middle" x="50.5" y="-297.3" font-family="Verdana" font-size="9.00" fill="#555555">+ ProductID</text>
<polyline fill="none" stroke="#555555" points="0,-290.5 101,-290.5 "/>
<text text-anchor="middle" x="50.5" y="-279.3" font-family="Verdana" font-size="9.00" fill="#555555">OrderQty</text>
<polyline fill="none" stroke="#555555" points="0,-272.5 101,-272.5 "/>
<text text-anchor="middle" x="50.5" y="-261.3" font-family="Verdana" font-size="9.00" fill="#555555">StockedQty</text>
<polyline fill="none" stroke="#555555" points="0,-254.5 101,-254.5 "/>
<text text-anchor="middle" x="50.5" y="-243.3" font-family="Verdana" font-size="9.00" fill="#555555">ScrappedQty</text>
<polyline fill="none" stroke="#555555" points="0,-236.5 101,-236.5 "/>
<text text-anchor="middle" x="50.5" y="-225.3" font-family="Verdana" font-size="9.00" fill="#555555">StartDate</text>
<polyline fill="none" stroke="#555555" points="0,-218.5 101,-218.5 "/>
<text text-anchor="middle" x="50.5" y="-207.3" font-family="Verdana" font-size="9.00" fill="#555555">EndDate</text>
<polyline fill="none" stroke="#555555" points="0,-200.5 101,-200.5 "/>
<text text-anchor="middle" x="50.5" y="-189.3" font-family="Verdana" font-size="9.00" fill="#555555">DueDate</text>
<polyline fill="none" stroke="#555555" points="0,-182.5 101,-182.5 "/>
<text text-anchor="middle" x="50.5" y="-171.3" font-family="Verdana" font-size="9.00" fill="#555555">+ ScrapReasonID</text>
<polyline fill="none" stroke="#555555" points="0,-164.5 101,-164.5 "/>
<text text-anchor="middle" x="50.5" y="-153.3" font-family="Verdana" font-size="9.00" fill="#555555">ModifiedDate</text>
</g>
<!-- struct1&#45;&gt;struct2 -->
<g id="edge1" class="edge"><title>struct1:c590625147_1&#45;&gt;struct2:c670625432_1</title>
<path fill="none" stroke="#337ab7" d="M101,-317.5C133.94,-317.5 93.6691,-253.593 109.45,-238.614"/>
<polygon fill="#337ab7" stroke="#337ab7" points="110.578,-241.928 119,-235.5 108.408,-235.273 110.578,-241.928"/>
</g>
</g>
</svg>
