<?xml version="1.0" encoding="UTF-8" standalone="no"?>
<!DOCTYPE svg PUBLIC "-//W3C//DTD SVG 1.1//EN"
 "http://www.w3.org/Graphics/SVG/1.1/DTD/svg11.dtd">
<!-- Generated by graphviz version 2.38.0 (20140413.2041)
 -->
<!-- Title: g Pages: 1 -->
<svg width="303pt" height="208pt"
 viewBox="0.00 0.00 303.00 208.00" xmlns="http://www.w3.org/2000/svg" xmlns:xlink="http://www.w3.org/1999/xlink">
<g id="graph0" class="graph" transform="scale(1 1) rotate(0) translate(4 204)">
<title>g</title>
<polygon fill="white" stroke="none" points="-4,4 -4,-204 299,-204 299,4 -4,4"/>
<text text-anchor="middle" x="147.5" y="-7" font-family="Verdana" font-size="10.00">Table: SalesPersonQuotaHistory</text>
<!-- struct0 -->
<g id="node1" class="node"><title>struct0</title>
<polygon fill="none" stroke="#337ab7" points="0,-19.5 0,-199.5 107,-199.5 107,-19.5 0,-19.5"/>
<text text-anchor="middle" x="53.5" y="-188.3" font-family="Verdana" font-size="9.00" fill="#337ab7">Table: SalesPerson</text>
<polyline fill="none" stroke="#337ab7" points="0,-181.5 107,-181.5 "/>
<text text-anchor="middle" x="53.5" y="-170.3" font-family="Verdana" font-size="9.00" fill="#337ab7">BusinessEntityID +</text>
<polyline fill="none" stroke="#337ab7" points="0,-163.5 107,-163.5 "/>
<text text-anchor="middle" x="53.5" y="-152.3" font-family="Verdana" font-size="9.00" fill="#337ab7">+ TerritoryID</text>
<polyline fill="none" stroke="#337ab7" points="0,-145.5 107,-145.5 "/>
<text text-anchor="middle" x="53.5" y="-134.3" font-family="Verdana" font-size="9.00" fill="#337ab7">SalesQuota</text>
<polyline fill="none" stroke="#337ab7" points="0,-127.5 107,-127.5 "/>
<text text-anchor="middle" x="53.5" y="-116.3" font-family="Verdana" font-size="9.00" fill="#337ab7">Bonus</text>
<polyline fill="none" stroke="#337ab7" points="0,-109.5 107,-109.5 "/>
<text text-anchor="middle" x="53.5" y="-98.3" font-family="Verdana" font-size="9.00" fill="#337ab7">CommissionPct</text>
<polyline fill="none" stroke="#337ab7" points="0,-91.5 107,-91.5 "/>
<text text-anchor="middle" x="53.5" y="-80.3" font-family="Verdana" font-size="9.00" fill="#337ab7">SalesYTD</text>
<polyline fill="none" stroke="#337ab7" points="0,-73.5 107,-73.5 "/>
<text text-anchor="middle" x="53.5" y="-62.3" font-family="Verdana" font-size="9.00" fill="#337ab7">SalesLastYear</text>
<polyline fill="none" stroke="#337ab7" points="0,-55.5 107,-55.5 "/>
<text text-anchor="middle" x="53.5" y="-44.3" font-family="Verdana" font-size="9.00" fill="#337ab7">rowguid</text>
<polyline fill="none" stroke="#337ab7" points="0,-37.5 107,-37.5 "/>
<text text-anchor="middle" x="53.5" y="-26.3" font-family="Verdana" font-size="9.00" fill="#337ab7">ModifiedDate</text>
</g>
<!-- struct1 -->
<g id="node2" class="node"><title>struct1</title>
<polygon fill="none" stroke="black" points="125,-91.5 125,-199.5 295,-199.5 295,-91.5 125,-91.5"/>
<text text-anchor="middle" x="210" y="-188.3" font-family="Verdana" font-size="9.00">Table: SalesPersonQuotaHistory</text>
<polyline fill="none" stroke="black" points="125,-181.5 295,-181.5 "/>
<text text-anchor="middle" x="210" y="-170.3" font-family="Verdana" font-size="9.00">+ BusinessEntityID</text>
<polyline fill="none" stroke="black" points="125,-163.5 295,-163.5 "/>
<text text-anchor="middle" x="210" y="-152.3" font-family="Verdana" font-size="9.00">QuotaDate</text>
<polyline fill="none" stroke="black" points="125,-145.5 295,-145.5 "/>
<text text-anchor="middle" x="210" y="-134.3" font-family="Verdana" font-size="9.00">SalesQuota</text>
<polyline fill="none" stroke="black" points="125,-127.5 295,-127.5 "/>
<text text-anchor="middle" x="210" y="-116.3" font-family="Verdana" font-size="9.00">rowguid</text>
<polyline fill="none" stroke="black" points="125,-109.5 295,-109.5 "/>
<text text-anchor="middle" x="210" y="-98.3" font-family="Verdana" font-size="9.00">ModifiedDate</text>
</g>
<!-- struct0&#45;&gt;struct1 -->
<g id="edge1" class="edge"><title>struct0:c1298103665_1&#45;&gt;struct1:c1490104349_1</title>
<path fill="none" stroke="#337ab7" d="M107,-172.5C110.25,-172.5 112.51,-172.5 114.584,-172.5"/>
<polygon fill="#337ab7" stroke="#337ab7" points="115,-176 125,-172.5 115,-169 115,-176"/>
</g>
</g>
</svg>
