<?xml version="1.0" encoding="UTF-8" standalone="no"?>
<!DOCTYPE svg PUBLIC "-//W3C//DTD SVG 1.1//EN"
 "http://www.w3.org/Graphics/SVG/1.1/DTD/svg11.dtd">
<!-- Generated by graphviz version 2.38.0 (20140413.2041)
 -->
<!-- Title: g Pages: 1 -->
<svg width="326pt" height="767pt"
 viewBox="0.00 0.00 326.00 767.00" xmlns="http://www.w3.org/2000/svg" xmlns:xlink="http://www.w3.org/1999/xlink">
<g id="graph0" class="graph" transform="scale(1 1) rotate(0) translate(4 763)">
<title>g</title>
<polygon fill="white" stroke="none" points="-4,4 -4,-763 322,-763 322,4 -4,4"/>
<text text-anchor="middle" x="159" y="-7" font-family="Verdana" font-size="10.00">Table: PurchaseOrderDetail</text>
<!-- struct0 -->
<g id="node1" class="node"><title>struct0</title>
<polygon fill="none" stroke="#337ab7" points="5,-19.5 5,-487.5 149,-487.5 149,-19.5 5,-19.5"/>
<text text-anchor="middle" x="77" y="-476.3" font-family="Verdana" font-size="9.00" fill="#337ab7">Table: Product</text>
<polyline fill="none" stroke="#337ab7" points="5,-469.5 149,-469.5 "/>
<text text-anchor="middle" x="77" y="-458.3" font-family="Verdana" font-size="9.00" fill="#337ab7">ProductID +</text>
<polyline fill="none" stroke="#337ab7" points="5,-451.5 149,-451.5 "/>
<text text-anchor="middle" x="77" y="-440.3" font-family="Verdana" font-size="9.00" fill="#337ab7">Name</text>
<polyline fill="none" stroke="#337ab7" points="5,-433.5 149,-433.5 "/>
<text text-anchor="middle" x="77" y="-422.3" font-family="Verdana" font-size="9.00" fill="#337ab7">ProductNumber</text>
<polyline fill="none" stroke="#337ab7" points="5,-415.5 149,-415.5 "/>
<text text-anchor="middle" x="77" y="-404.3" font-family="Verdana" font-size="9.00" fill="#337ab7">MakeFlag</text>
<polyline fill="none" stroke="#337ab7" points="5,-397.5 149,-397.5 "/>
<text text-anchor="middle" x="77" y="-386.3" font-family="Verdana" font-size="9.00" fill="#337ab7">FinishedGoodsFlag</text>
<polyline fill="none" stroke="#337ab7" points="5,-379.5 149,-379.5 "/>
<text text-anchor="middle" x="77" y="-368.3" font-family="Verdana" font-size="9.00" fill="#337ab7">Color</text>
<polyline fill="none" stroke="#337ab7" points="5,-361.5 149,-361.5 "/>
<text text-anchor="middle" x="77" y="-350.3" font-family="Verdana" font-size="9.00" fill="#337ab7">SafetyStockLevel</text>
<polyline fill="none" stroke="#337ab7" points="5,-343.5 149,-343.5 "/>
<text text-anchor="middle" x="77" y="-332.3" font-family="Verdana" font-size="9.00" fill="#337ab7">ReorderPoint</text>
<polyline fill="none" stroke="#337ab7" points="5,-325.5 149,-325.5 "/>
<text text-anchor="middle" x="77" y="-314.3" font-family="Verdana" font-size="9.00" fill="#337ab7">StandardCost</text>
<polyline fill="none" stroke="#337ab7" points="5,-307.5 149,-307.5 "/>
<text text-anchor="middle" x="77" y="-296.3" font-family="Verdana" font-size="9.00" fill="#337ab7">ListPrice</text>
<polyline fill="none" stroke="#337ab7" points="5,-289.5 149,-289.5 "/>
<text text-anchor="middle" x="77" y="-278.3" font-family="Verdana" font-size="9.00" fill="#337ab7">Size</text>
<polyline fill="none" stroke="#337ab7" points="5,-271.5 149,-271.5 "/>
<text text-anchor="middle" x="77" y="-260.3" font-family="Verdana" font-size="9.00" fill="#337ab7">+ SizeUnitMeasureCode</text>
<polyline fill="none" stroke="#337ab7" points="5,-253.5 149,-253.5 "/>
<text text-anchor="middle" x="77" y="-242.3" font-family="Verdana" font-size="9.00" fill="#337ab7">+ WeightUnitMeasureCode</text>
<polyline fill="none" stroke="#337ab7" points="5,-235.5 149,-235.5 "/>
<text text-anchor="middle" x="77" y="-224.3" font-family="Verdana" font-size="9.00" fill="#337ab7">Weight</text>
<polyline fill="none" stroke="#337ab7" points="5,-217.5 149,-217.5 "/>
<text text-anchor="middle" x="77" y="-206.3" font-family="Verdana" font-size="9.00" fill="#337ab7">DaysToManufacture</text>
<polyline fill="none" stroke="#337ab7" points="5,-199.5 149,-199.5 "/>
<text text-anchor="middle" x="77" y="-188.3" font-family="Verdana" font-size="9.00" fill="#337ab7">ProductLine</text>
<polyline fill="none" stroke="#337ab7" points="5,-181.5 149,-181.5 "/>
<text text-anchor="middle" x="77" y="-170.3" font-family="Verdana" font-size="9.00" fill="#337ab7">Class</text>
<polyline fill="none" stroke="#337ab7" points="5,-163.5 149,-163.5 "/>
<text text-anchor="middle" x="77" y="-152.3" font-family="Verdana" font-size="9.00" fill="#337ab7">Style</text>
<polyline fill="none" stroke="#337ab7" points="5,-145.5 149,-145.5 "/>
<text text-anchor="middle" x="77" y="-134.3" font-family="Verdana" font-size="9.00" fill="#337ab7">+ ProductSubcategoryID</text>
<polyline fill="none" stroke="#337ab7" points="5,-127.5 149,-127.5 "/>
<text text-anchor="middle" x="77" y="-116.3" font-family="Verdana" font-size="9.00" fill="#337ab7">+ ProductModelID</text>
<polyline fill="none" stroke="#337ab7" points="5,-109.5 149,-109.5 "/>
<text text-anchor="middle" x="77" y="-98.3" font-family="Verdana" font-size="9.00" fill="#337ab7">SellStartDate</text>
<polyline fill="none" stroke="#337ab7" points="5,-91.5 149,-91.5 "/>
<text text-anchor="middle" x="77" y="-80.3" font-family="Verdana" font-size="9.00" fill="#337ab7">SellEndDate</text>
<polyline fill="none" stroke="#337ab7" points="5,-73.5 149,-73.5 "/>
<text text-anchor="middle" x="77" y="-62.3" font-family="Verdana" font-size="9.00" fill="#337ab7">DiscontinuedDate</text>
<polyline fill="none" stroke="#337ab7" points="5,-55.5 149,-55.5 "/>
<text text-anchor="middle" x="77" y="-44.3" font-family="Verdana" font-size="9.00" fill="#337ab7">rowguid</text>
<polyline fill="none" stroke="#337ab7" points="5,-37.5 149,-37.5 "/>
<text text-anchor="middle" x="77" y="-26.3" font-family="Verdana" font-size="9.00" fill="#337ab7">ModifiedDate</text>
</g>
<!-- struct1 -->
<g id="node2" class="node"><title>struct1</title>
<polygon fill="none" stroke="black" points="172,-442.5 172,-658.5 318,-658.5 318,-442.5 172,-442.5"/>
<text text-anchor="middle" x="245" y="-647.3" font-family="Verdana" font-size="9.00">Table: PurchaseOrderDetail</text>
<polyline fill="none" stroke="black" points="172,-640.5 318,-640.5 "/>
<text text-anchor="middle" x="245" y="-629.3" font-family="Verdana" font-size="9.00">+ PurchaseOrderID</text>
<polyline fill="none" stroke="black" points="172,-622.5 318,-622.5 "/>
<text text-anchor="middle" x="245" y="-611.3" font-family="Verdana" font-size="9.00">PurchaseOrderDetailID</text>
<polyline fill="none" stroke="black" points="172,-604.5 318,-604.5 "/>
<text text-anchor="middle" x="245" y="-593.3" font-family="Verdana" font-size="9.00">DueDate</text>
<polyline fill="none" stroke="black" points="172,-586.5 318,-586.5 "/>
<text text-anchor="middle" x="245" y="-575.3" font-family="Verdana" font-size="9.00">OrderQty</text>
<polyline fill="none" stroke="black" points="172,-568.5 318,-568.5 "/>
<text text-anchor="middle" x="245" y="-557.3" font-family="Verdana" font-size="9.00">+ ProductID</text>
<polyline fill="none" stroke="black" points="172,-550.5 318,-550.5 "/>
<text text-anchor="middle" x="245" y="-539.3" font-family="Verdana" font-size="9.00">UnitPrice</text>
<polyline fill="none" stroke="black" points="172,-532.5 318,-532.5 "/>
<text text-anchor="middle" x="245" y="-521.3" font-family="Verdana" font-size="9.00">LineTotal</text>
<polyline fill="none" stroke="black" points="172,-514.5 318,-514.5 "/>
<text text-anchor="middle" x="245" y="-503.3" font-family="Verdana" font-size="9.00">ReceivedQty</text>
<polyline fill="none" stroke="black" points="172,-496.5 318,-496.5 "/>
<text text-anchor="middle" x="245" y="-485.3" font-family="Verdana" font-size="9.00">RejectedQty</text>
<polyline fill="none" stroke="black" points="172,-478.5 318,-478.5 "/>
<text text-anchor="middle" x="245" y="-467.3" font-family="Verdana" font-size="9.00">StockedQty</text>
<polyline fill="none" stroke="black" points="172,-460.5 318,-460.5 "/>
<text text-anchor="middle" x="245" y="-449.3" font-family="Verdana" font-size="9.00">ModifiedDate</text>
</g>
<!-- struct0&#45;&gt;struct1 -->
<g id="edge2" class="edge"><title>struct0:c1717581157_1&#45;&gt;struct1:c594101157_5</title>
<path fill="none" stroke="#337ab7" d="M150,-460.5C190.848,-460.5 138.709,-541.808 162.122,-557.053"/>
<polygon fill="#337ab7" stroke="#337ab7" points="161.452,-560.493 172,-559.5 163.135,-553.698 161.452,-560.493"/>
</g>
<!-- struct2 -->
<g id="node3" class="node"><title>struct2</title>
<polygon fill="none" stroke="#337ab7" points="0,-506.5 0,-758.5 154,-758.5 154,-506.5 0,-506.5"/>
<text text-anchor="middle" x="77" y="-747.3" font-family="Verdana" font-size="9.00" fill="#337ab7">Table: PurchaseOrderHeader</text>
<polyline fill="none" stroke="#337ab7" points="0,-740.5 154,-740.5 "/>
<text text-anchor="middle" x="77" y="-729.3" font-family="Verdana" font-size="9.00" fill="#337ab7">PurchaseOrderID +</text>
<polyline fill="none" stroke="#337ab7" points="0,-722.5 154,-722.5 "/>
<text text-anchor="middle" x="77" y="-711.3" font-family="Verdana" font-size="9.00" fill="#337ab7">RevisionNumber</text>
<polyline fill="none" stroke="#337ab7" points="0,-704.5 154,-704.5 "/>
<text text-anchor="middle" x="77" y="-693.3" font-family="Verdana" font-size="9.00" fill="#337ab7">Status</text>
<polyline fill="none" stroke="#337ab7" points="0,-686.5 154,-686.5 "/>
<text text-anchor="middle" x="77" y="-675.3" font-family="Verdana" font-size="9.00" fill="#337ab7">+ EmployeeID</text>
<polyline fill="none" stroke="#337ab7" points="0,-668.5 154,-668.5 "/>
<text text-anchor="middle" x="77" y="-657.3" font-family="Verdana" font-size="9.00" fill="#337ab7">+ VendorID</text>
<polyline fill="none" stroke="#337ab7" points="0,-650.5 154,-650.5 "/>
<text text-anchor="middle" x="77" y="-639.3" font-family="Verdana" font-size="9.00" fill="#337ab7">+ ShipMethodID</text>
<polyline fill="none" stroke="#337ab7" points="0,-632.5 154,-632.5 "/>
<text text-anchor="middle" x="77" y="-621.3" font-family="Verdana" font-size="9.00" fill="#337ab7">OrderDate</text>
<polyline fill="none" stroke="#337ab7" points="0,-614.5 154,-614.5 "/>
<text text-anchor="middle" x="77" y="-603.3" font-family="Verdana" font-size="9.00" fill="#337ab7">ShipDate</text>
<polyline fill="none" stroke="#337ab7" points="0,-596.5 154,-596.5 "/>
<text text-anchor="middle" x="77" y="-585.3" font-family="Verdana" font-size="9.00" fill="#337ab7">SubTotal</text>
<polyline fill="none" stroke="#337ab7" points="0,-578.5 154,-578.5 "/>
<text text-anchor="middle" x="77" y="-567.3" font-family="Verdana" font-size="9.00" fill="#337ab7">TaxAmt</text>
<polyline fill="none" stroke="#337ab7" points="0,-560.5 154,-560.5 "/>
<text text-anchor="middle" x="77" y="-549.3" font-family="Verdana" font-size="9.00" fill="#337ab7">Freight</text>
<polyline fill="none" stroke="#337ab7" points="0,-542.5 154,-542.5 "/>
<text text-anchor="middle" x="77" y="-531.3" font-family="Verdana" font-size="9.00" fill="#337ab7">TotalDue</text>
<polyline fill="none" stroke="#337ab7" points="0,-524.5 154,-524.5 "/>
<text text-anchor="middle" x="77" y="-513.3" font-family="Verdana" font-size="9.00" fill="#337ab7">ModifiedDate</text>
</g>
<!-- struct2&#45;&gt;struct1 -->
<g id="edge1" class="edge"><title>struct2:c690101499_1&#45;&gt;struct1:c594101157_1</title>
<path fill="none" stroke="#337ab7" d="M154,-731.5C194.925,-731.5 139.368,-649.371 162.203,-633.972"/>
<polygon fill="#337ab7" stroke="#337ab7" points="163.16,-637.34 172,-631.5 161.448,-630.553 163.16,-637.34"/>
</g>
</g>
</svg>
