<?xml version="1.0" encoding="UTF-8" standalone="no"?>
<!DOCTYPE svg PUBLIC "-//W3C//DTD SVG 1.1//EN"
 "http://www.w3.org/Graphics/SVG/1.1/DTD/svg11.dtd">
<!-- Generated by graphviz version 2.38.0 (20140413.2041)
 -->
<!-- Title: g Pages: 1 -->
<svg width="295pt" height="659pt"
 viewBox="0.00 0.00 295.00 659.00" xmlns="http://www.w3.org/2000/svg" xmlns:xlink="http://www.w3.org/1999/xlink">
<g id="graph0" class="graph" transform="scale(1 1) rotate(0) translate(4 655)">
<title>g</title>
<polygon fill="white" stroke="none" points="-4,4 -4,-655 291,-655 291,4 -4,4"/>
<text text-anchor="middle" x="143.5" y="-7" font-family="Verdana" font-size="10.00">Table: SalesOrderDetail</text>
<!-- struct0 -->
<g id="node1" class="node"><title>struct0</title>
<polygon fill="#d9edf7" stroke="#1b809e" points="159,-19.5 159,-235.5 287,-235.5 287,-19.5 159,-19.5"/>
<text text-anchor="middle" x="223" y="-224.3" font-family="Verdana" font-size="9.00" fill="#1b809e">Table: SalesOrderDetail</text>
<polyline fill="none" stroke="#1b809e" points="159,-217.5 287,-217.5 "/>
<text text-anchor="middle" x="223" y="-206.3" font-family="Verdana" font-size="9.00" fill="#1b809e">+ SalesOrderID</text>
<polyline fill="none" stroke="#1b809e" points="159,-199.5 287,-199.5 "/>
<text text-anchor="middle" x="223" y="-188.3" font-family="Verdana" font-size="9.00" fill="#1b809e">SalesOrderDetailID</text>
<polyline fill="none" stroke="#1b809e" points="159,-181.5 287,-181.5 "/>
<text text-anchor="middle" x="223" y="-170.3" font-family="Verdana" font-size="9.00" fill="#1b809e">CarrierTrackingNumber</text>
<polyline fill="none" stroke="#1b809e" points="159,-163.5 287,-163.5 "/>
<text text-anchor="middle" x="223" y="-152.3" font-family="Verdana" font-size="9.00" fill="#1b809e">OrderQty</text>
<polyline fill="none" stroke="#1b809e" points="159,-145.5 287,-145.5 "/>
<text text-anchor="middle" x="223" y="-134.3" font-family="Verdana" font-size="9.00" fill="#1b809e">+ ProductID</text>
<polyline fill="none" stroke="#1b809e" points="159,-127.5 287,-127.5 "/>
<text text-anchor="middle" x="223" y="-116.3" font-family="Verdana" font-size="9.00" fill="#1b809e">+ SpecialOfferID</text>
<polyline fill="none" stroke="#1b809e" points="159,-109.5 287,-109.5 "/>
<text text-anchor="middle" x="223" y="-98.3" font-family="Verdana" font-size="9.00" fill="#1b809e">UnitPrice</text>
<polyline fill="none" stroke="#1b809e" points="159,-91.5 287,-91.5 "/>
<text text-anchor="middle" x="223" y="-80.3" font-family="Verdana" font-size="9.00" fill="#1b809e">UnitPriceDiscount</text>
<polyline fill="none" stroke="#1b809e" points="159,-73.5 287,-73.5 "/>
<text text-anchor="middle" x="223" y="-62.3" font-family="Verdana" font-size="9.00" fill="#1b809e">LineTotal</text>
<polyline fill="none" stroke="#1b809e" points="159,-55.5 287,-55.5 "/>
<text text-anchor="middle" x="223" y="-44.3" font-family="Verdana" font-size="9.00" fill="#1b809e">rowguid</text>
<polyline fill="none" stroke="#1b809e" points="159,-37.5 287,-37.5 "/>
<text text-anchor="middle" x="223" y="-26.3" font-family="Verdana" font-size="9.00" fill="#1b809e">ModifiedDate</text>
</g>
<!-- struct1 -->
<g id="node2" class="node"><title>struct1</title>
<polygon fill="#f7f7f9" stroke="#555555" points="2.5,-164.5 2.5,-650.5 138.5,-650.5 138.5,-164.5 2.5,-164.5"/>
<text text-anchor="middle" x="70.5" y="-639.3" font-family="Verdana" font-size="9.00" fill="#555555">Table: SalesOrderHeader</text>
<polyline fill="none" stroke="#555555" points="2.5,-632.5 138.5,-632.5 "/>
<text text-anchor="middle" x="70.5" y="-621.3" font-family="Verdana" font-size="9.00" fill="#555555">SalesOrderID +</text>
<polyline fill="none" stroke="#555555" points="2.5,-614.5 138.5,-614.5 "/>
<text text-anchor="middle" x="70.5" y="-603.3" font-family="Verdana" font-size="9.00" fill="#555555">RevisionNumber</text>
<polyline fill="none" stroke="#555555" points="2.5,-596.5 138.5,-596.5 "/>
<text text-anchor="middle" x="70.5" y="-585.3" font-family="Verdana" font-size="9.00" fill="#555555">OrderDate</text>
<polyline fill="none" stroke="#555555" points="2.5,-578.5 138.5,-578.5 "/>
<text text-anchor="middle" x="70.5" y="-567.3" font-family="Verdana" font-size="9.00" fill="#555555">DueDate</text>
<polyline fill="none" stroke="#555555" points="2.5,-560.5 138.5,-560.5 "/>
<text text-anchor="middle" x="70.5" y="-549.3" font-family="Verdana" font-size="9.00" fill="#555555">ShipDate</text>
<polyline fill="none" stroke="#555555" points="2.5,-542.5 138.5,-542.5 "/>
<text text-anchor="middle" x="70.5" y="-531.3" font-family="Verdana" font-size="9.00" fill="#555555">Status</text>
<polyline fill="none" stroke="#555555" points="2.5,-524.5 138.5,-524.5 "/>
<text text-anchor="middle" x="70.5" y="-513.3" font-family="Verdana" font-size="9.00" fill="#555555">OnlineOrderFlag</text>
<polyline fill="none" stroke="#555555" points="2.5,-506.5 138.5,-506.5 "/>
<text text-anchor="middle" x="70.5" y="-495.3" font-family="Verdana" font-size="9.00" fill="#555555">SalesOrderNumber</text>
<polyline fill="none" stroke="#555555" points="2.5,-488.5 138.5,-488.5 "/>
<text text-anchor="middle" x="70.5" y="-477.3" font-family="Verdana" font-size="9.00" fill="#555555">PurchaseOrderNumber</text>
<polyline fill="none" stroke="#555555" points="2.5,-470.5 138.5,-470.5 "/>
<text text-anchor="middle" x="70.5" y="-459.3" font-family="Verdana" font-size="9.00" fill="#555555">AccountNumber</text>
<polyline fill="none" stroke="#555555" points="2.5,-452.5 138.5,-452.5 "/>
<text text-anchor="middle" x="70.5" y="-441.3" font-family="Verdana" font-size="9.00" fill="#555555">+ CustomerID</text>
<polyline fill="none" stroke="#555555" points="2.5,-434.5 138.5,-434.5 "/>
<text text-anchor="middle" x="70.5" y="-423.3" font-family="Verdana" font-size="9.00" fill="#555555">+ SalesPersonID</text>
<polyline fill="none" stroke="#555555" points="2.5,-416.5 138.5,-416.5 "/>
<text text-anchor="middle" x="70.5" y="-405.3" font-family="Verdana" font-size="9.00" fill="#555555">+ TerritoryID</text>
<polyline fill="none" stroke="#555555" points="2.5,-398.5 138.5,-398.5 "/>
<text text-anchor="middle" x="70.5" y="-387.3" font-family="Verdana" font-size="9.00" fill="#555555">+ BillToAddressID</text>
<polyline fill="none" stroke="#555555" points="2.5,-380.5 138.5,-380.5 "/>
<text text-anchor="middle" x="70.5" y="-369.3" font-family="Verdana" font-size="9.00" fill="#555555">+ ShipToAddressID</text>
<polyline fill="none" stroke="#555555" points="2.5,-362.5 138.5,-362.5 "/>
<text text-anchor="middle" x="70.5" y="-351.3" font-family="Verdana" font-size="9.00" fill="#555555">+ ShipMethodID</text>
<polyline fill="none" stroke="#555555" points="2.5,-344.5 138.5,-344.5 "/>
<text text-anchor="middle" x="70.5" y="-333.3" font-family="Verdana" font-size="9.00" fill="#555555">+ CreditCardID</text>
<polyline fill="none" stroke="#555555" points="2.5,-326.5 138.5,-326.5 "/>
<text text-anchor="middle" x="70.5" y="-315.3" font-family="Verdana" font-size="9.00" fill="#555555">CreditCardApprovalCode</text>
<polyline fill="none" stroke="#555555" points="2.5,-308.5 138.5,-308.5 "/>
<text text-anchor="middle" x="70.5" y="-297.3" font-family="Verdana" font-size="9.00" fill="#555555">+ CurrencyRateID</text>
<polyline fill="none" stroke="#555555" points="2.5,-290.5 138.5,-290.5 "/>
<text text-anchor="middle" x="70.5" y="-279.3" font-family="Verdana" font-size="9.00" fill="#555555">SubTotal</text>
<polyline fill="none" stroke="#555555" points="2.5,-272.5 138.5,-272.5 "/>
<text text-anchor="middle" x="70.5" y="-261.3" font-family="Verdana" font-size="9.00" fill="#555555">TaxAmt</text>
<polyline fill="none" stroke="#555555" points="2.5,-254.5 138.5,-254.5 "/>
<text text-anchor="middle" x="70.5" y="-243.3" font-family="Verdana" font-size="9.00" fill="#555555">Freight</text>
<polyline fill="none" stroke="#555555" points="2.5,-236.5 138.5,-236.5 "/>
<text text-anchor="middle" x="70.5" y="-225.3" font-family="Verdana" font-size="9.00" fill="#555555">TotalDue</text>
<polyline fill="none" stroke="#555555" points="2.5,-218.5 138.5,-218.5 "/>
<text text-anchor="middle" x="70.5" y="-207.3" font-family="Verdana" font-size="9.00" fill="#555555">Comment</text>
<polyline fill="none" stroke="#555555" points="2.5,-200.5 138.5,-200.5 "/>
<text text-anchor="middle" x="70.5" y="-189.3" font-family="Verdana" font-size="9.00" fill="#555555">rowguid</text>
<polyline fill="none" stroke="#555555" points="2.5,-182.5 138.5,-182.5 "/>
<text text-anchor="middle" x="70.5" y="-171.3" font-family="Verdana" font-size="9.00" fill="#555555">ModifiedDate</text>
</g>
<!-- struct1&#45;&gt;struct0 -->
<g id="edge1" class="edge"><title>struct1:c1010102639_1&#45;&gt;struct0:c898102240_1</title>
<path fill="none" stroke="#337ab7" d="M139.5,-623.5C320.542,-623.5 -12.1879,-224.553 148.784,-208.969"/>
<polygon fill="#337ab7" stroke="#337ab7" points="149.171,-212.455 159,-208.5 148.85,-205.462 149.171,-212.455"/>
</g>
<!-- struct2 -->
<g id="node3" class="node"><title>struct2</title>
<polygon fill="#f7f7f9" stroke="#555555" points="0,-55.5 0,-145.5 141,-145.5 141,-55.5 0,-55.5"/>
<text text-anchor="middle" x="70.5" y="-134.3" font-family="Verdana" font-size="9.00" fill="#555555">Table: SpecialOfferProduct</text>
<polyline fill="none" stroke="#555555" points="0,-127.5 141,-127.5 "/>
<text text-anchor="middle" x="70.5" y="-116.3" font-family="Verdana" font-size="9.00" fill="#555555">SpecialOfferID +</text>
<polyline fill="none" stroke="#555555" points="0,-109.5 141,-109.5 "/>
<text text-anchor="middle" x="70.5" y="-98.3" font-family="Verdana" font-size="9.00" fill="#555555">ProductID +</text>
<polyline fill="none" stroke="#555555" points="0,-91.5 141,-91.5 "/>
<text text-anchor="middle" x="70.5" y="-80.3" font-family="Verdana" font-size="9.00" fill="#555555">rowguid</text>
<polyline fill="none" stroke="#555555" points="0,-73.5 141,-73.5 "/>
<text text-anchor="middle" x="70.5" y="-62.3" font-family="Verdana" font-size="9.00" fill="#555555">ModifiedDate</text>
</g>
<!-- struct2&#45;&gt;struct0 -->
<g id="edge2" class="edge"><title>struct2:c158623608_2&#45;&gt;struct0:c898102240_5</title>
<path fill="none" stroke="#337ab7" d="M141,-100.5C154.137,-100.5 148.039,-119.915 150.958,-130.229"/>
<polygon fill="#337ab7" stroke="#337ab7" points="148.962,-133.111 159,-136.5 153.266,-127.591 148.962,-133.111"/>
</g>
<!-- struct2&#45;&gt;struct0 -->
<g id="edge3" class="edge"><title>struct2:c158623608_1&#45;&gt;struct0:c898102240_6</title>
<path fill="none" stroke="#337ab7" d="M141,-118.5C144.25,-118.5 146.51,-118.5 148.584,-118.5"/>
<polygon fill="#337ab7" stroke="#337ab7" points="149,-122 159,-118.5 149,-115 149,-122"/>
</g>
</g>
</svg>
