<?xml version="1.0" encoding="UTF-8" standalone="no"?>
<!DOCTYPE svg PUBLIC "-//W3C//DTD SVG 1.1//EN"
 "http://www.w3.org/Graphics/SVG/1.1/DTD/svg11.dtd">
<!-- Generated by graphviz version 2.38.0 (20140413.2041)
 -->
<!-- Title: g Pages: 1 -->
<svg width="436pt" height="1078pt"
 viewBox="0.00 0.00 436.00 1078.00" xmlns="http://www.w3.org/2000/svg" xmlns:xlink="http://www.w3.org/1999/xlink">
<g id="graph0" class="graph" transform="scale(1 1) rotate(0) translate(4 1074)">
<title>g</title>
<polygon fill="white" stroke="none" points="-4,4 -4,-1074 432,-1074 432,4 -4,4"/>
<text text-anchor="middle" x="214" y="-7" font-family="Verdana" font-size="10.00">Table: Person</text>
<!-- struct0 -->
<g id="node1" class="node"><title>struct0</title>
<polygon fill="none" stroke="#337ab7" points="0,-580.5 0,-652.5 118,-652.5 118,-580.5 0,-580.5"/>
<text text-anchor="middle" x="59" y="-641.3" font-family="Verdana" font-size="9.00" fill="#337ab7">Table: BusinessEntity</text>
<polyline fill="none" stroke="#337ab7" points="0,-634.5 118,-634.5 "/>
<text text-anchor="middle" x="59" y="-623.3" font-family="Verdana" font-size="9.00" fill="#337ab7">BusinessEntityID +</text>
<polyline fill="none" stroke="#337ab7" points="0,-616.5 118,-616.5 "/>
<text text-anchor="middle" x="59" y="-605.3" font-family="Verdana" font-size="9.00" fill="#337ab7">rowguid</text>
<polyline fill="none" stroke="#337ab7" points="0,-598.5 118,-598.5 "/>
<text text-anchor="middle" x="59" y="-587.3" font-family="Verdana" font-size="9.00" fill="#337ab7">ModifiedDate</text>
</g>
<!-- struct6 -->
<g id="node7" class="node"><title>struct6</title>
<polygon fill="none" stroke="black" points="136,-400.5 136,-652.5 255,-652.5 255,-400.5 136,-400.5"/>
<text text-anchor="middle" x="195.5" y="-641.3" font-family="Verdana" font-size="9.00">Table: Person</text>
<polyline fill="none" stroke="black" points="136,-634.5 255,-634.5 "/>
<text text-anchor="middle" x="195.5" y="-623.3" font-family="Verdana" font-size="9.00">BusinessEntityID +</text>
<polyline fill="none" stroke="black" points="136,-616.5 255,-616.5 "/>
<text text-anchor="middle" x="195.5" y="-605.3" font-family="Verdana" font-size="9.00">PersonType</text>
<polyline fill="none" stroke="black" points="136,-598.5 255,-598.5 "/>
<text text-anchor="middle" x="195.5" y="-587.3" font-family="Verdana" font-size="9.00">NameStyle</text>
<polyline fill="none" stroke="black" points="136,-580.5 255,-580.5 "/>
<text text-anchor="middle" x="195.5" y="-569.3" font-family="Verdana" font-size="9.00">Title</text>
<polyline fill="none" stroke="black" points="136,-562.5 255,-562.5 "/>
<text text-anchor="middle" x="195.5" y="-551.3" font-family="Verdana" font-size="9.00">FirstName</text>
<polyline fill="none" stroke="black" points="136,-544.5 255,-544.5 "/>
<text text-anchor="middle" x="195.5" y="-533.3" font-family="Verdana" font-size="9.00">MiddleName</text>
<polyline fill="none" stroke="black" points="136,-526.5 255,-526.5 "/>
<text text-anchor="middle" x="195.5" y="-515.3" font-family="Verdana" font-size="9.00">LastName</text>
<polyline fill="none" stroke="black" points="136,-508.5 255,-508.5 "/>
<text text-anchor="middle" x="195.5" y="-497.3" font-family="Verdana" font-size="9.00">Suffix</text>
<polyline fill="none" stroke="black" points="136,-490.5 255,-490.5 "/>
<text text-anchor="middle" x="195.5" y="-479.3" font-family="Verdana" font-size="9.00">EmailPromotion</text>
<polyline fill="none" stroke="black" points="136,-472.5 255,-472.5 "/>
<text text-anchor="middle" x="195.5" y="-461.3" font-family="Verdana" font-size="9.00">AdditionalContactInfo</text>
<polyline fill="none" stroke="black" points="136,-454.5 255,-454.5 "/>
<text text-anchor="middle" x="195.5" y="-443.3" font-family="Verdana" font-size="9.00">Demographics</text>
<polyline fill="none" stroke="black" points="136,-436.5 255,-436.5 "/>
<text text-anchor="middle" x="195.5" y="-425.3" font-family="Verdana" font-size="9.00">rowguid</text>
<polyline fill="none" stroke="black" points="136,-418.5 255,-418.5 "/>
<text text-anchor="middle" x="195.5" y="-407.3" font-family="Verdana" font-size="9.00">ModifiedDate</text>
</g>
<!-- struct0&#45;&gt;struct6 -->
<g id="edge8" class="edge"><title>struct0:c341576255_1&#45;&gt;struct6:c1509580416_1</title>
<path fill="none" stroke="#337ab7" d="M118,-625.5C121.25,-625.5 123.51,-625.5 125.584,-625.5"/>
<polygon fill="#337ab7" stroke="#337ab7" points="126,-629 136,-625.5 126,-622 126,-629"/>
</g>
<!-- struct1 -->
<g id="node2" class="node"><title>struct1</title>
<polygon fill="none" stroke="#337ab7" points="273,-961.5 273,-1069.5 428,-1069.5 428,-961.5 273,-961.5"/>
<text text-anchor="middle" x="350.5" y="-1058.3" font-family="Verdana" font-size="9.00" fill="#337ab7">Table: BusinessEntityContact</text>
<polyline fill="none" stroke="#337ab7" points="273,-1051.5 428,-1051.5 "/>
<text text-anchor="middle" x="350.5" y="-1040.3" font-family="Verdana" font-size="9.00" fill="#337ab7">+ BusinessEntityID</text>
<polyline fill="none" stroke="#337ab7" points="273,-1033.5 428,-1033.5 "/>
<text text-anchor="middle" x="350.5" y="-1022.3" font-family="Verdana" font-size="9.00" fill="#337ab7">+ PersonID</text>
<polyline fill="none" stroke="#337ab7" points="273,-1015.5 428,-1015.5 "/>
<text text-anchor="middle" x="350.5" y="-1004.3" font-family="Verdana" font-size="9.00" fill="#337ab7">+ ContactTypeID</text>
<polyline fill="none" stroke="#337ab7" points="273,-997.5 428,-997.5 "/>
<text text-anchor="middle" x="350.5" y="-986.3" font-family="Verdana" font-size="9.00" fill="#337ab7">rowguid</text>
<polyline fill="none" stroke="#337ab7" points="273,-979.5 428,-979.5 "/>
<text text-anchor="middle" x="350.5" y="-968.3" font-family="Verdana" font-size="9.00" fill="#337ab7">ModifiedDate</text>
</g>
<!-- struct2 -->
<g id="node3" class="node"><title>struct2</title>
<polygon fill="none" stroke="#337ab7" points="303,-798.5 303,-942.5 398,-942.5 398,-798.5 303,-798.5"/>
<text text-anchor="middle" x="350.5" y="-931.3" font-family="Verdana" font-size="9.00" fill="#337ab7">Table: Customer</text>
<polyline fill="none" stroke="#337ab7" points="303,-924.5 398,-924.5 "/>
<text text-anchor="middle" x="350.5" y="-913.3" font-family="Verdana" font-size="9.00" fill="#337ab7">CustomerID +</text>
<polyline fill="none" stroke="#337ab7" points="303,-906.5 398,-906.5 "/>
<text text-anchor="middle" x="350.5" y="-895.3" font-family="Verdana" font-size="9.00" fill="#337ab7">+ PersonID</text>
<polyline fill="none" stroke="#337ab7" points="303,-888.5 398,-888.5 "/>
<text text-anchor="middle" x="350.5" y="-877.3" font-family="Verdana" font-size="9.00" fill="#337ab7">+ StoreID</text>
<polyline fill="none" stroke="#337ab7" points="303,-870.5 398,-870.5 "/>
<text text-anchor="middle" x="350.5" y="-859.3" font-family="Verdana" font-size="9.00" fill="#337ab7">+ TerritoryID</text>
<polyline fill="none" stroke="#337ab7" points="303,-852.5 398,-852.5 "/>
<text text-anchor="middle" x="350.5" y="-841.3" font-family="Verdana" font-size="9.00" fill="#337ab7">AccountNumber</text>
<polyline fill="none" stroke="#337ab7" points="303,-834.5 398,-834.5 "/>
<text text-anchor="middle" x="350.5" y="-823.3" font-family="Verdana" font-size="9.00" fill="#337ab7">rowguid</text>
<polyline fill="none" stroke="#337ab7" points="303,-816.5 398,-816.5 "/>
<text text-anchor="middle" x="350.5" y="-805.3" font-family="Verdana" font-size="9.00" fill="#337ab7">ModifiedDate</text>
</g>
<!-- struct3 -->
<g id="node4" class="node"><title>struct3</title>
<polygon fill="none" stroke="#337ab7" points="294.5,-671.5 294.5,-779.5 406.5,-779.5 406.5,-671.5 294.5,-671.5"/>
<text text-anchor="middle" x="350.5" y="-768.3" font-family="Verdana" font-size="9.00" fill="#337ab7">Table: EmailAddress</text>
<polyline fill="none" stroke="#337ab7" points="294.5,-761.5 406.5,-761.5 "/>
<text text-anchor="middle" x="350.5" y="-750.3" font-family="Verdana" font-size="9.00" fill="#337ab7">+ BusinessEntityID</text>
<polyline fill="none" stroke="#337ab7" points="294.5,-743.5 406.5,-743.5 "/>
<text text-anchor="middle" x="350.5" y="-732.3" font-family="Verdana" font-size="9.00" fill="#337ab7">EmailAddressID</text>
<polyline fill="none" stroke="#337ab7" points="294.5,-725.5 406.5,-725.5 "/>
<text text-anchor="middle" x="350.5" y="-714.3" font-family="Verdana" font-size="9.00" fill="#337ab7">EmailAddress</text>
<polyline fill="none" stroke="#337ab7" points="294.5,-707.5 406.5,-707.5 "/>
<text text-anchor="middle" x="350.5" y="-696.3" font-family="Verdana" font-size="9.00" fill="#337ab7">rowguid</text>
<polyline fill="none" stroke="#337ab7" points="294.5,-689.5 406.5,-689.5 "/>
<text text-anchor="middle" x="350.5" y="-678.3" font-family="Verdana" font-size="9.00" fill="#337ab7">ModifiedDate</text>
</g>
<!-- struct4 -->
<g id="node5" class="node"><title>struct4</title>
<polygon fill="none" stroke="#337ab7" points="297.5,-346.5 297.5,-652.5 403.5,-652.5 403.5,-346.5 297.5,-346.5"/>
<text text-anchor="middle" x="350.5" y="-641.3" font-family="Verdana" font-size="9.00" fill="#337ab7">Table: Employee</text>
<polyline fill="none" stroke="#337ab7" points="297.5,-634.5 403.5,-634.5 "/>
<text text-anchor="middle" x="350.5" y="-623.3" font-family="Verdana" font-size="9.00" fill="#337ab7">BusinessEntityID +</text>
<polyline fill="none" stroke="#337ab7" points="297.5,-616.5 403.5,-616.5 "/>
<text text-anchor="middle" x="350.5" y="-605.3" font-family="Verdana" font-size="9.00" fill="#337ab7">NationalIDNumber</text>
<polyline fill="none" stroke="#337ab7" points="297.5,-598.5 403.5,-598.5 "/>
<text text-anchor="middle" x="350.5" y="-587.3" font-family="Verdana" font-size="9.00" fill="#337ab7">LoginID</text>
<polyline fill="none" stroke="#337ab7" points="297.5,-580.5 403.5,-580.5 "/>
<text text-anchor="middle" x="350.5" y="-569.3" font-family="Verdana" font-size="9.00" fill="#337ab7">OrganizationNode</text>
<polyline fill="none" stroke="#337ab7" points="297.5,-562.5 403.5,-562.5 "/>
<text text-anchor="middle" x="350.5" y="-551.3" font-family="Verdana" font-size="9.00" fill="#337ab7">OrganizationLevel</text>
<polyline fill="none" stroke="#337ab7" points="297.5,-544.5 403.5,-544.5 "/>
<text text-anchor="middle" x="350.5" y="-533.3" font-family="Verdana" font-size="9.00" fill="#337ab7">JobTitle</text>
<polyline fill="none" stroke="#337ab7" points="297.5,-526.5 403.5,-526.5 "/>
<text text-anchor="middle" x="350.5" y="-515.3" font-family="Verdana" font-size="9.00" fill="#337ab7">BirthDate</text>
<polyline fill="none" stroke="#337ab7" points="297.5,-508.5 403.5,-508.5 "/>
<text text-anchor="middle" x="350.5" y="-497.3" font-family="Verdana" font-size="9.00" fill="#337ab7">MaritalStatus</text>
<polyline fill="none" stroke="#337ab7" points="297.5,-490.5 403.5,-490.5 "/>
<text text-anchor="middle" x="350.5" y="-479.3" font-family="Verdana" font-size="9.00" fill="#337ab7">Gender</text>
<polyline fill="none" stroke="#337ab7" points="297.5,-472.5 403.5,-472.5 "/>
<text text-anchor="middle" x="350.5" y="-461.3" font-family="Verdana" font-size="9.00" fill="#337ab7">HireDate</text>
<polyline fill="none" stroke="#337ab7" points="297.5,-454.5 403.5,-454.5 "/>
<text text-anchor="middle" x="350.5" y="-443.3" font-family="Verdana" font-size="9.00" fill="#337ab7">SalariedFlag</text>
<polyline fill="none" stroke="#337ab7" points="297.5,-436.5 403.5,-436.5 "/>
<text text-anchor="middle" x="350.5" y="-425.3" font-family="Verdana" font-size="9.00" fill="#337ab7">VacationHours</text>
<polyline fill="none" stroke="#337ab7" points="297.5,-418.5 403.5,-418.5 "/>
<text text-anchor="middle" x="350.5" y="-407.3" font-family="Verdana" font-size="9.00" fill="#337ab7">SickLeaveHours</text>
<polyline fill="none" stroke="#337ab7" points="297.5,-400.5 403.5,-400.5 "/>
<text text-anchor="middle" x="350.5" y="-389.3" font-family="Verdana" font-size="9.00" fill="#337ab7">CurrentFlag</text>
<polyline fill="none" stroke="#337ab7" points="297.5,-382.5 403.5,-382.5 "/>
<text text-anchor="middle" x="350.5" y="-371.3" font-family="Verdana" font-size="9.00" fill="#337ab7">rowguid</text>
<polyline fill="none" stroke="#337ab7" points="297.5,-364.5 403.5,-364.5 "/>
<text text-anchor="middle" x="350.5" y="-353.3" font-family="Verdana" font-size="9.00" fill="#337ab7">ModifiedDate</text>
</g>
<!-- struct5 -->
<g id="node6" class="node"><title>struct5</title>
<polygon fill="none" stroke="#337ab7" points="297.5,-219.5 297.5,-327.5 403.5,-327.5 403.5,-219.5 297.5,-219.5"/>
<text text-anchor="middle" x="350.5" y="-316.3" font-family="Verdana" font-size="9.00" fill="#337ab7">Table: Password</text>
<polyline fill="none" stroke="#337ab7" points="297.5,-309.5 403.5,-309.5 "/>
<text text-anchor="middle" x="350.5" y="-298.3" font-family="Verdana" font-size="9.00" fill="#337ab7">+ BusinessEntityID</text>
<polyline fill="none" stroke="#337ab7" points="297.5,-291.5 403.5,-291.5 "/>
<text text-anchor="middle" x="350.5" y="-280.3" font-family="Verdana" font-size="9.00" fill="#337ab7">PasswordHash</text>
<polyline fill="none" stroke="#337ab7" points="297.5,-273.5 403.5,-273.5 "/>
<text text-anchor="middle" x="350.5" y="-262.3" font-family="Verdana" font-size="9.00" fill="#337ab7">PasswordSalt</text>
<polyline fill="none" stroke="#337ab7" points="297.5,-255.5 403.5,-255.5 "/>
<text text-anchor="middle" x="350.5" y="-244.3" font-family="Verdana" font-size="9.00" fill="#337ab7">rowguid</text>
<polyline fill="none" stroke="#337ab7" points="297.5,-237.5 403.5,-237.5 "/>
<text text-anchor="middle" x="350.5" y="-226.3" font-family="Verdana" font-size="9.00" fill="#337ab7">ModifiedDate</text>
</g>
<!-- struct6&#45;&gt;struct1 -->
<g id="edge4" class="edge"><title>struct6:c1509580416_1&#45;&gt;struct1:c437576597_2</title>
<path fill="none" stroke="black" d="M255,-625.5C296.085,-625.5 238.49,-967.471 264.927,-1018.23"/>
<polygon fill="black" stroke="black" points="262.955,-1021.13 273,-1024.5 267.247,-1015.6 262.955,-1021.13"/>
</g>
<!-- struct6&#45;&gt;struct2 -->
<g id="edge5" class="edge"><title>struct6:c1509580416_1&#45;&gt;struct2:c709577566_2</title>
<path fill="none" stroke="black" d="M255,-625.5C273.332,-625.5 269.652,-771.477 273,-789.5 281.358,-834.495 256.337,-888.315 291.27,-896.449"/>
<polygon fill="black" stroke="black" points="291.195,-899.96 301.5,-897.5 291.91,-892.997 291.195,-899.96"/>
</g>
<!-- struct6&#45;&gt;struct3 -->
<g id="edge6" class="edge"><title>struct6:c1509580416_1&#45;&gt;struct3:c933578364_1</title>
<path fill="none" stroke="black" d="M255,-625.5C280.919,-625.5 268.237,-723.604 284.807,-747.364"/>
<polygon fill="black" stroke="black" points="283.11,-750.426 293.5,-752.5 286.671,-744.4 283.11,-750.426"/>
</g>
<!-- struct6&#45;&gt;struct4 -->
<g id="edge7" class="edge"><title>struct6:c1509580416_1&#45;&gt;struct4:c981578535_1</title>
<path fill="none" stroke="black" d="M255,-625.5C269.554,-625.5 275.495,-625.5 286.415,-625.5"/>
<polygon fill="black" stroke="black" points="286.5,-629 296.5,-625.5 286.5,-622 286.5,-629"/>
</g>
<!-- struct6&#45;&gt;struct5 -->
<g id="edge1" class="edge"><title>struct6:c1509580416_1&#45;&gt;struct5:c1461580245_1</title>
<path fill="none" stroke="black" d="M255,-625.5C287.062,-625.5 263.093,-367.993 273,-337.5 277.75,-322.881 277.506,-308.296 286.763,-302.793"/>
<polygon fill="black" stroke="black" points="287.568,-306.199 296.5,-300.5 285.964,-299.385 287.568,-306.199"/>
</g>
<!-- struct7 -->
<g id="node8" class="node"><title>struct7</title>
<polygon fill="none" stroke="#337ab7" points="284,-128.5 284,-200.5 417,-200.5 417,-128.5 284,-128.5"/>
<text text-anchor="middle" x="350.5" y="-189.3" font-family="Verdana" font-size="9.00" fill="#337ab7">Table: PersonCreditCard</text>
<polyline fill="none" stroke="#337ab7" points="284,-182.5 417,-182.5 "/>
<text text-anchor="middle" x="350.5" y="-171.3" font-family="Verdana" font-size="9.00" fill="#337ab7">+ BusinessEntityID</text>
<polyline fill="none" stroke="#337ab7" points="284,-164.5 417,-164.5 "/>
<text text-anchor="middle" x="350.5" y="-153.3" font-family="Verdana" font-size="9.00" fill="#337ab7">+ CreditCardID</text>
<polyline fill="none" stroke="#337ab7" points="284,-146.5 417,-146.5 "/>
<text text-anchor="middle" x="350.5" y="-135.3" font-family="Verdana" font-size="9.00" fill="#337ab7">ModifiedDate</text>
</g>
<!-- struct6&#45;&gt;struct7 -->
<g id="edge2" class="edge"><title>struct6:c1509580416_1&#45;&gt;struct7:c1621580815_1</title>
<path fill="none" stroke="black" d="M255,-625.5C278.077,-625.5 269.612,-233.327 273,-210.5 274.752,-198.692 270.344,-185.197 273.473,-178.225"/>
<polygon fill="black" stroke="black" points="275.263,-181.238 282.5,-173.5 272.017,-175.036 275.263,-181.238"/>
</g>
<!-- struct8 -->
<g id="node9" class="node"><title>struct8</title>
<polygon fill="none" stroke="#337ab7" points="287.5,-19.5 287.5,-109.5 413.5,-109.5 413.5,-19.5 287.5,-19.5"/>
<text text-anchor="middle" x="350.5" y="-98.3" font-family="Verdana" font-size="9.00" fill="#337ab7">Table: PersonPhone</text>
<polyline fill="none" stroke="#337ab7" points="287.5,-91.5 413.5,-91.5 "/>
<text text-anchor="middle" x="350.5" y="-80.3" font-family="Verdana" font-size="9.00" fill="#337ab7">+ BusinessEntityID</text>
<polyline fill="none" stroke="#337ab7" points="287.5,-73.5 413.5,-73.5 "/>
<text text-anchor="middle" x="350.5" y="-62.3" font-family="Verdana" font-size="9.00" fill="#337ab7">PhoneNumber</text>
<polyline fill="none" stroke="#337ab7" points="287.5,-55.5 413.5,-55.5 "/>
<text text-anchor="middle" x="350.5" y="-44.3" font-family="Verdana" font-size="9.00" fill="#337ab7">+ PhoneNumberTypeID</text>
<polyline fill="none" stroke="#337ab7" points="287.5,-37.5 413.5,-37.5 "/>
<text text-anchor="middle" x="350.5" y="-26.3" font-family="Verdana" font-size="9.00" fill="#337ab7">ModifiedDate</text>
</g>
<!-- struct6&#45;&gt;struct8 -->
<g id="edge3" class="edge"><title>struct6:c1509580416_1&#45;&gt;struct8:c1653580929_1</title>
<path fill="none" stroke="black" d="M255,-625.5C283.184,-625.5 267.48,-146.139 273,-118.5 275.405,-106.456 272.5,-93.1275 277.02,-86.583"/>
<polygon fill="black" stroke="black" points="278.7,-89.6701 286.5,-82.5 275.931,-83.241 278.7,-89.6701"/>
</g>
</g>
</svg>
