<?xml version="1.0" encoding="UTF-8" standalone="no"?>
<!DOCTYPE svg PUBLIC "-//W3C//DTD SVG 1.1//EN"
 "http://www.w3.org/Graphics/SVG/1.1/DTD/svg11.dtd">
<!-- Generated by graphviz version 2.38.0 (20140413.2041)
 -->
<!-- Title: g Pages: 1 -->
<svg width="458pt" height="515pt"
 viewBox="0.00 0.00 458.00 515.00" xmlns="http://www.w3.org/2000/svg" xmlns:xlink="http://www.w3.org/1999/xlink">
<g id="graph0" class="graph" transform="scale(1 1) rotate(0) translate(4 511)">
<title>g</title>
<polygon fill="white" stroke="none" points="-4,4 -4,-511 454,-511 454,4 -4,4"/>
<text text-anchor="middle" x="225" y="-7" font-family="Verdana" font-size="10.00">Table: Vendor</text>
<!-- struct0 -->
<g id="node1" class="node"><title>struct0</title>
<polygon fill="#f7f7f9" stroke="#555555" points="0,-271.5 0,-343.5 118,-343.5 118,-271.5 0,-271.5"/>
<text text-anchor="middle" x="59" y="-332.3" font-family="Verdana" font-size="9.00" fill="#555555">Table: BusinessEntity</text>
<polyline fill="none" stroke="#555555" points="0,-325.5 118,-325.5 "/>
<text text-anchor="middle" x="59" y="-314.3" font-family="Verdana" font-size="9.00" fill="#555555">BusinessEntityID +</text>
<polyline fill="none" stroke="#555555" points="0,-307.5 118,-307.5 "/>
<text text-anchor="middle" x="59" y="-296.3" font-family="Verdana" font-size="9.00" fill="#555555">rowguid</text>
<polyline fill="none" stroke="#555555" points="0,-289.5 118,-289.5 "/>
<text text-anchor="middle" x="59" y="-278.3" font-family="Verdana" font-size="9.00" fill="#555555">ModifiedDate</text>
</g>
<!-- struct3 -->
<g id="node4" class="node"><title>struct3</title>
<polygon fill="#d9edf7" stroke="#1b809e" points="136,-181.5 136,-343.5 278,-343.5 278,-181.5 136,-181.5"/>
<text text-anchor="middle" x="207" y="-332.3" font-family="Verdana" font-size="9.00" fill="#1b809e">Table: Vendor</text>
<polyline fill="none" stroke="#1b809e" points="136,-325.5 278,-325.5 "/>
<text text-anchor="middle" x="207" y="-314.3" font-family="Verdana" font-size="9.00" fill="#1b809e">BusinessEntityID +</text>
<polyline fill="none" stroke="#1b809e" points="136,-307.5 278,-307.5 "/>
<text text-anchor="middle" x="207" y="-296.3" font-family="Verdana" font-size="9.00" fill="#1b809e">AccountNumber</text>
<polyline fill="none" stroke="#1b809e" points="136,-289.5 278,-289.5 "/>
<text text-anchor="middle" x="207" y="-278.3" font-family="Verdana" font-size="9.00" fill="#1b809e">Name</text>
<polyline fill="none" stroke="#1b809e" points="136,-271.5 278,-271.5 "/>
<text text-anchor="middle" x="207" y="-260.3" font-family="Verdana" font-size="9.00" fill="#1b809e">CreditRating</text>
<polyline fill="none" stroke="#1b809e" points="136,-253.5 278,-253.5 "/>
<text text-anchor="middle" x="207" y="-242.3" font-family="Verdana" font-size="9.00" fill="#1b809e">PreferredVendorStatus</text>
<polyline fill="none" stroke="#1b809e" points="136,-235.5 278,-235.5 "/>
<text text-anchor="middle" x="207" y="-224.3" font-family="Verdana" font-size="9.00" fill="#1b809e">ActiveFlag</text>
<polyline fill="none" stroke="#1b809e" points="136,-217.5 278,-217.5 "/>
<text text-anchor="middle" x="207" y="-206.3" font-family="Verdana" font-size="9.00" fill="#1b809e">PurchasingWebServiceURL</text>
<polyline fill="none" stroke="#1b809e" points="136,-199.5 278,-199.5 "/>
<text text-anchor="middle" x="207" y="-188.3" font-family="Verdana" font-size="9.00" fill="#1b809e">ModifiedDate</text>
</g>
<!-- struct0&#45;&gt;struct3 -->
<g id="edge3" class="edge"><title>struct0:c341576255_1&#45;&gt;struct3:c510624862_1</title>
<path fill="none" stroke="#337ab7" d="M118,-316.5C121.25,-316.5 123.51,-316.5 125.584,-316.5"/>
<polygon fill="#337ab7" stroke="#337ab7" points="126,-320 136,-316.5 126,-313 126,-320"/>
</g>
<!-- struct1 -->
<g id="node2" class="node"><title>struct1</title>
<polygon fill="#f7f7f9" stroke="#555555" points="313.5,-290.5 313.5,-506.5 432.5,-506.5 432.5,-290.5 313.5,-290.5"/>
<text text-anchor="middle" x="373" y="-495.3" font-family="Verdana" font-size="9.00" fill="#555555">Table: ProductVendor</text>
<polyline fill="none" stroke="#555555" points="313.5,-488.5 432.5,-488.5 "/>
<text text-anchor="middle" x="373" y="-477.3" font-family="Verdana" font-size="9.00" fill="#555555">+ ProductID</text>
<polyline fill="none" stroke="#555555" points="313.5,-470.5 432.5,-470.5 "/>
<text text-anchor="middle" x="373" y="-459.3" font-family="Verdana" font-size="9.00" fill="#555555">+ BusinessEntityID</text>
<polyline fill="none" stroke="#555555" points="313.5,-452.5 432.5,-452.5 "/>
<text text-anchor="middle" x="373" y="-441.3" font-family="Verdana" font-size="9.00" fill="#555555">AverageLeadTime</text>
<polyline fill="none" stroke="#555555" points="313.5,-434.5 432.5,-434.5 "/>
<text text-anchor="middle" x="373" y="-423.3" font-family="Verdana" font-size="9.00" fill="#555555">StandardPrice</text>
<polyline fill="none" stroke="#555555" points="313.5,-416.5 432.5,-416.5 "/>
<text text-anchor="middle" x="373" y="-405.3" font-family="Verdana" font-size="9.00" fill="#555555">LastReceiptCost</text>
<polyline fill="none" stroke="#555555" points="313.5,-398.5 432.5,-398.5 "/>
<text text-anchor="middle" x="373" y="-387.3" font-family="Verdana" font-size="9.00" fill="#555555">LastReceiptDate</text>
<polyline fill="none" stroke="#555555" points="313.5,-380.5 432.5,-380.5 "/>
<text text-anchor="middle" x="373" y="-369.3" font-family="Verdana" font-size="9.00" fill="#555555">MinOrderQty</text>
<polyline fill="none" stroke="#555555" points="313.5,-362.5 432.5,-362.5 "/>
<text text-anchor="middle" x="373" y="-351.3" font-family="Verdana" font-size="9.00" fill="#555555">MaxOrderQty</text>
<polyline fill="none" stroke="#555555" points="313.5,-344.5 432.5,-344.5 "/>
<text text-anchor="middle" x="373" y="-333.3" font-family="Verdana" font-size="9.00" fill="#555555">OnOrderQty</text>
<polyline fill="none" stroke="#555555" points="313.5,-326.5 432.5,-326.5 "/>
<text text-anchor="middle" x="373" y="-315.3" font-family="Verdana" font-size="9.00" fill="#555555">+ UnitMeasureCode</text>
<polyline fill="none" stroke="#555555" points="313.5,-308.5 432.5,-308.5 "/>
<text text-anchor="middle" x="373" y="-297.3" font-family="Verdana" font-size="9.00" fill="#555555">ModifiedDate</text>
</g>
<!-- struct2 -->
<g id="node3" class="node"><title>struct2</title>
<polygon fill="#f7f7f9" stroke="#555555" points="296,-19.5 296,-271.5 450,-271.5 450,-19.5 296,-19.5"/>
<text text-anchor="middle" x="373" y="-260.3" font-family="Verdana" font-size="9.00" fill="#555555">Table: PurchaseOrderHeader</text>
<polyline fill="none" stroke="#555555" points="296,-253.5 450,-253.5 "/>
<text text-anchor="middle" x="373" y="-242.3" font-family="Verdana" font-size="9.00" fill="#555555">PurchaseOrderID +</text>
<polyline fill="none" stroke="#555555" points="296,-235.5 450,-235.5 "/>
<text text-anchor="middle" x="373" y="-224.3" font-family="Verdana" font-size="9.00" fill="#555555">RevisionNumber</text>
<polyline fill="none" stroke="#555555" points="296,-217.5 450,-217.5 "/>
<text text-anchor="middle" x="373" y="-206.3" font-family="Verdana" font-size="9.00" fill="#555555">Status</text>
<polyline fill="none" stroke="#555555" points="296,-199.5 450,-199.5 "/>
<text text-anchor="middle" x="373" y="-188.3" font-family="Verdana" font-size="9.00" fill="#555555">+ EmployeeID</text>
<polyline fill="none" stroke="#555555" points="296,-181.5 450,-181.5 "/>
<text text-anchor="middle" x="373" y="-170.3" font-family="Verdana" font-size="9.00" fill="#555555">+ VendorID</text>
<polyline fill="none" stroke="#555555" points="296,-163.5 450,-163.5 "/>
<text text-anchor="middle" x="373" y="-152.3" font-family="Verdana" font-size="9.00" fill="#555555">+ ShipMethodID</text>
<polyline fill="none" stroke="#555555" points="296,-145.5 450,-145.5 "/>
<text text-anchor="middle" x="373" y="-134.3" font-family="Verdana" font-size="9.00" fill="#555555">OrderDate</text>
<polyline fill="none" stroke="#555555" points="296,-127.5 450,-127.5 "/>
<text text-anchor="middle" x="373" y="-116.3" font-family="Verdana" font-size="9.00" fill="#555555">ShipDate</text>
<polyline fill="none" stroke="#555555" points="296,-109.5 450,-109.5 "/>
<text text-anchor="middle" x="373" y="-98.3" font-family="Verdana" font-size="9.00" fill="#555555">SubTotal</text>
<polyline fill="none" stroke="#555555" points="296,-91.5 450,-91.5 "/>
<text text-anchor="middle" x="373" y="-80.3" font-family="Verdana" font-size="9.00" fill="#555555">TaxAmt</text>
<polyline fill="none" stroke="#555555" points="296,-73.5 450,-73.5 "/>
<text text-anchor="middle" x="373" y="-62.3" font-family="Verdana" font-size="9.00" fill="#555555">Freight</text>
<polyline fill="none" stroke="#555555" points="296,-55.5 450,-55.5 "/>
<text text-anchor="middle" x="373" y="-44.3" font-family="Verdana" font-size="9.00" fill="#555555">TotalDue</text>
<polyline fill="none" stroke="#555555" points="296,-37.5 450,-37.5 "/>
<text text-anchor="middle" x="373" y="-26.3" font-family="Verdana" font-size="9.00" fill="#555555">ModifiedDate</text>
</g>
<!-- struct3&#45;&gt;struct1 -->
<g id="edge1" class="edge"><title>struct3:c510624862_1&#45;&gt;struct1:c466100701_2</title>
<path fill="none" stroke="black" d="M278,-316.5C340.314,-316.5 256.772,-445.006 301.993,-460.065"/>
<polygon fill="black" stroke="black" points="301.604,-463.545 312,-461.5 302.598,-456.616 301.604,-463.545"/>
</g>
<!-- struct3&#45;&gt;struct2 -->
<g id="edge2" class="edge"><title>struct3:c510624862_1&#45;&gt;struct2:c690101499_5</title>
<path fill="none" stroke="black" d="M278,-316.5C306.344,-316.5 273.857,-205.263 287.469,-178.323"/>
<polygon fill="black" stroke="black" points="289.714,-181.029 296,-172.5 285.767,-175.247 289.714,-181.029"/>
</g>
</g>
</svg>
