<?xml version="1.0" encoding="UTF-8" standalone="no"?>
<!DOCTYPE svg PUBLIC "-//W3C//DTD SVG 1.1//EN"
 "http://www.w3.org/Graphics/SVG/1.1/DTD/svg11.dtd">
<!-- Generated by graphviz version 2.38.0 (20140413.2041)
 -->
<!-- Title: g Pages: 1 -->
<svg width="399pt" height="136pt"
 viewBox="0.00 0.00 399.00 136.00" xmlns="http://www.w3.org/2000/svg" xmlns:xlink="http://www.w3.org/1999/xlink">
<g id="graph0" class="graph" transform="scale(1 1) rotate(0) translate(4 132)">
<title>g</title>
<polygon fill="white" stroke="none" points="-4,4 -4,-132 395,-132 395,4 -4,4"/>
<text text-anchor="middle" x="195.5" y="-7" font-family="Verdana" font-size="10.00">Table: ProductDescription</text>
<!-- struct0 -->
<g id="node1" class="node"><title>struct0</title>
<polygon fill="none" stroke="black" points="0,-19.5 0,-109.5 137,-109.5 137,-19.5 0,-19.5"/>
<text text-anchor="middle" x="68.5" y="-98.3" font-family="Verdana" font-size="9.00">Table: ProductDescription</text>
<polyline fill="none" stroke="black" points="0,-91.5 137,-91.5 "/>
<text text-anchor="middle" x="68.5" y="-80.3" font-family="Verdana" font-size="9.00">ProductDescriptionID +</text>
<polyline fill="none" stroke="black" points="0,-73.5 137,-73.5 "/>
<text text-anchor="middle" x="68.5" y="-62.3" font-family="Verdana" font-size="9.00">Description</text>
<polyline fill="none" stroke="black" points="0,-55.5 137,-55.5 "/>
<text text-anchor="middle" x="68.5" y="-44.3" font-family="Verdana" font-size="9.00">rowguid</text>
<polyline fill="none" stroke="black" points="0,-37.5 137,-37.5 "/>
<text text-anchor="middle" x="68.5" y="-26.3" font-family="Verdana" font-size="9.00">ModifiedDate</text>
</g>
<!-- struct1 -->
<g id="node2" class="node"><title>struct1</title>
<polygon fill="none" stroke="#337ab7" points="155,-37.5 155,-127.5 391,-127.5 391,-37.5 155,-37.5"/>
<text text-anchor="middle" x="273" y="-116.3" font-family="Verdana" font-size="9.00" fill="#337ab7">Table: ProductModelProductDescriptionCulture</text>
<polyline fill="none" stroke="#337ab7" points="155,-109.5 391,-109.5 "/>
<text text-anchor="middle" x="273" y="-98.3" font-family="Verdana" font-size="9.00" fill="#337ab7">+ ProductModelID</text>
<polyline fill="none" stroke="#337ab7" points="155,-91.5 391,-91.5 "/>
<text text-anchor="middle" x="273" y="-80.3" font-family="Verdana" font-size="9.00" fill="#337ab7">+ ProductDescriptionID</text>
<polyline fill="none" stroke="#337ab7" points="155,-73.5 391,-73.5 "/>
<text text-anchor="middle" x="273" y="-62.3" font-family="Verdana" font-size="9.00" fill="#337ab7">+ CultureID</text>
<polyline fill="none" stroke="#337ab7" points="155,-55.5 391,-55.5 "/>
<text text-anchor="middle" x="273" y="-44.3" font-family="Verdana" font-size="9.00" fill="#337ab7">ModifiedDate</text>
</g>
<!-- struct0&#45;&gt;struct1 -->
<g id="edge1" class="edge"><title>struct0:c2069582411_1&#45;&gt;struct1:c242099903_2</title>
<path fill="none" stroke="black" d="M137,-82.5C140.25,-82.5 142.51,-82.5 144.584,-82.5"/>
<polygon fill="black" stroke="black" points="145,-86.0001 155,-82.5 145,-79.0001 145,-86.0001"/>
</g>
</g>
</svg>
