<?xml version="1.0" encoding="UTF-8" standalone="no"?>
<!DOCTYPE svg PUBLIC "-//W3C//DTD SVG 1.1//EN"
 "http://www.w3.org/Graphics/SVG/1.1/DTD/svg11.dtd">
<!-- Generated by graphviz version 2.38.0 (20140413.2041)
 -->
<!-- Title: g Pages: 1 -->
<svg width="290pt" height="371pt"
 viewBox="0.00 0.00 290.00 371.00" xmlns="http://www.w3.org/2000/svg" xmlns:xlink="http://www.w3.org/1999/xlink">
<g id="graph0" class="graph" transform="scale(1 1) rotate(0) translate(4 367)">
<title>g</title>
<polygon fill="white" stroke="none" points="-4,4 -4,-367 286,-367 286,4 -4,4"/>
<text text-anchor="middle" x="141" y="-7" font-family="Verdana" font-size="10.00">Table: PersonPhone</text>
<!-- struct0 -->
<g id="node1" class="node"><title>struct0</title>
<polygon fill="none" stroke="#337ab7" points="9.5,-110.5 9.5,-362.5 128.5,-362.5 128.5,-110.5 9.5,-110.5"/>
<text text-anchor="middle" x="69" y="-351.3" font-family="Verdana" font-size="9.00" fill="#337ab7">Table: Person</text>
<polyline fill="none" stroke="#337ab7" points="9.5,-344.5 128.5,-344.5 "/>
<text text-anchor="middle" x="69" y="-333.3" font-family="Verdana" font-size="9.00" fill="#337ab7">BusinessEntityID +</text>
<polyline fill="none" stroke="#337ab7" points="9.5,-326.5 128.5,-326.5 "/>
<text text-anchor="middle" x="69" y="-315.3" font-family="Verdana" font-size="9.00" fill="#337ab7">PersonType</text>
<polyline fill="none" stroke="#337ab7" points="9.5,-308.5 128.5,-308.5 "/>
<text text-anchor="middle" x="69" y="-297.3" font-family="Verdana" font-size="9.00" fill="#337ab7">NameStyle</text>
<polyline fill="none" stroke="#337ab7" points="9.5,-290.5 128.5,-290.5 "/>
<text text-anchor="middle" x="69" y="-279.3" font-family="Verdana" font-size="9.00" fill="#337ab7">Title</text>
<polyline fill="none" stroke="#337ab7" points="9.5,-272.5 128.5,-272.5 "/>
<text text-anchor="middle" x="69" y="-261.3" font-family="Verdana" font-size="9.00" fill="#337ab7">FirstName</text>
<polyline fill="none" stroke="#337ab7" points="9.5,-254.5 128.5,-254.5 "/>
<text text-anchor="middle" x="69" y="-243.3" font-family="Verdana" font-size="9.00" fill="#337ab7">MiddleName</text>
<polyline fill="none" stroke="#337ab7" points="9.5,-236.5 128.5,-236.5 "/>
<text text-anchor="middle" x="69" y="-225.3" font-family="Verdana" font-size="9.00" fill="#337ab7">LastName</text>
<polyline fill="none" stroke="#337ab7" points="9.5,-218.5 128.5,-218.5 "/>
<text text-anchor="middle" x="69" y="-207.3" font-family="Verdana" font-size="9.00" fill="#337ab7">Suffix</text>
<polyline fill="none" stroke="#337ab7" points="9.5,-200.5 128.5,-200.5 "/>
<text text-anchor="middle" x="69" y="-189.3" font-family="Verdana" font-size="9.00" fill="#337ab7">EmailPromotion</text>
<polyline fill="none" stroke="#337ab7" points="9.5,-182.5 128.5,-182.5 "/>
<text text-anchor="middle" x="69" y="-171.3" font-family="Verdana" font-size="9.00" fill="#337ab7">AdditionalContactInfo</text>
<polyline fill="none" stroke="#337ab7" points="9.5,-164.5 128.5,-164.5 "/>
<text text-anchor="middle" x="69" y="-153.3" font-family="Verdana" font-size="9.00" fill="#337ab7">Demographics</text>
<polyline fill="none" stroke="#337ab7" points="9.5,-146.5 128.5,-146.5 "/>
<text text-anchor="middle" x="69" y="-135.3" font-family="Verdana" font-size="9.00" fill="#337ab7">rowguid</text>
<polyline fill="none" stroke="#337ab7" points="9.5,-128.5 128.5,-128.5 "/>
<text text-anchor="middle" x="69" y="-117.3" font-family="Verdana" font-size="9.00" fill="#337ab7">ModifiedDate</text>
</g>
<!-- struct1 -->
<g id="node2" class="node"><title>struct1</title>
<polygon fill="none" stroke="black" points="156,-154.5 156,-244.5 282,-244.5 282,-154.5 156,-154.5"/>
<text text-anchor="middle" x="219" y="-233.3" font-family="Verdana" font-size="9.00">Table: PersonPhone</text>
<polyline fill="none" stroke="black" points="156,-226.5 282,-226.5 "/>
<text text-anchor="middle" x="219" y="-215.3" font-family="Verdana" font-size="9.00">+ BusinessEntityID</text>
<polyline fill="none" stroke="black" points="156,-208.5 282,-208.5 "/>
<text text-anchor="middle" x="219" y="-197.3" font-family="Verdana" font-size="9.00">PhoneNumber</text>
<polyline fill="none" stroke="black" points="156,-190.5 282,-190.5 "/>
<text text-anchor="middle" x="219" y="-179.3" font-family="Verdana" font-size="9.00">+ PhoneNumberTypeID</text>
<polyline fill="none" stroke="black" points="156,-172.5 282,-172.5 "/>
<text text-anchor="middle" x="219" y="-161.3" font-family="Verdana" font-size="9.00">ModifiedDate</text>
</g>
<!-- struct0&#45;&gt;struct1 -->
<g id="edge1" class="edge"><title>struct0:c1509580416_1&#45;&gt;struct1:c1653580929_1</title>
<path fill="none" stroke="#337ab7" d="M130,-335.5C179.717,-335.5 113.637,-234.366 146.165,-219.353"/>
<polygon fill="#337ab7" stroke="#337ab7" points="146.821,-222.792 156,-217.5 145.525,-215.913 146.821,-222.792"/>
</g>
<!-- struct2 -->
<g id="node3" class="node"><title>struct2</title>
<polygon fill="none" stroke="#337ab7" points="0,-19.5 0,-91.5 138,-91.5 138,-19.5 0,-19.5"/>
<text text-anchor="middle" x="69" y="-80.3" font-family="Verdana" font-size="9.00" fill="#337ab7">Table: PhoneNumberType</text>
<polyline fill="none" stroke="#337ab7" points="0,-73.5 138,-73.5 "/>
<text text-anchor="middle" x="69" y="-62.3" font-family="Verdana" font-size="9.00" fill="#337ab7">PhoneNumberTypeID +</text>
<polyline fill="none" stroke="#337ab7" points="0,-55.5 138,-55.5 "/>
<text text-anchor="middle" x="69" y="-44.3" font-family="Verdana" font-size="9.00" fill="#337ab7">Name</text>
<polyline fill="none" stroke="#337ab7" points="0,-37.5 138,-37.5 "/>
<text text-anchor="middle" x="69" y="-26.3" font-family="Verdana" font-size="9.00" fill="#337ab7">ModifiedDate</text>
</g>
<!-- struct2&#45;&gt;struct1 -->
<g id="edge2" class="edge"><title>struct2:c1685581043_1&#45;&gt;struct1:c1653580929_3</title>
<path fill="none" stroke="#337ab7" d="M138,-64.5C186.501,-64.5 116.163,-163.933 146.096,-179.469"/>
<polygon fill="#337ab7" stroke="#337ab7" points="145.501,-182.92 156,-181.5 146.907,-176.063 145.501,-182.92"/>
</g>
</g>
</svg>
