<?xml version="1.0" encoding="UTF-8" standalone="no"?>
<!DOCTYPE svg PUBLIC "-//W3C//DTD SVG 1.1//EN"
 "http://www.w3.org/Graphics/SVG/1.1/DTD/svg11.dtd">
<!-- Generated by graphviz version 2.38.0 (20140413.2041)
 -->
<!-- Title: g Pages: 1 -->
<svg width="303pt" height="245pt"
 viewBox="0.00 0.00 303.00 245.00" xmlns="http://www.w3.org/2000/svg" xmlns:xlink="http://www.w3.org/1999/xlink">
<g id="graph0" class="graph" transform="scale(1 1) rotate(0) translate(4 241)">
<title>g</title>
<polygon fill="white" stroke="none" points="-4,4 -4,-241 299,-241 299,4 -4,4"/>
<text text-anchor="middle" x="147.5" y="-7" font-family="Verdana" font-size="10.00">Table: ProductModelIllustration</text>
<!-- struct0 -->
<g id="node1" class="node"><title>struct0</title>
<polygon fill="none" stroke="#337ab7" points="6.5,-19.5 6.5,-91.5 106.5,-91.5 106.5,-19.5 6.5,-19.5"/>
<text text-anchor="middle" x="56.5" y="-80.3" font-family="Verdana" font-size="9.00" fill="#337ab7">Table: Illustration</text>
<polyline fill="none" stroke="#337ab7" points="6.5,-73.5 106.5,-73.5 "/>
<text text-anchor="middle" x="56.5" y="-62.3" font-family="Verdana" font-size="9.00" fill="#337ab7">IllustrationID +</text>
<polyline fill="none" stroke="#337ab7" points="6.5,-55.5 106.5,-55.5 "/>
<text text-anchor="middle" x="56.5" y="-44.3" font-family="Verdana" font-size="9.00" fill="#337ab7">Diagram</text>
<polyline fill="none" stroke="#337ab7" points="6.5,-37.5 106.5,-37.5 "/>
<text text-anchor="middle" x="56.5" y="-26.3" font-family="Verdana" font-size="9.00" fill="#337ab7">ModifiedDate</text>
</g>
<!-- struct2 -->
<g id="node3" class="node"><title>struct2</title>
<polygon fill="none" stroke="black" points="131,-100.5 131,-172.5 295,-172.5 295,-100.5 131,-100.5"/>
<text text-anchor="middle" x="213" y="-161.3" font-family="Verdana" font-size="9.00">Table: ProductModelIllustration</text>
<polyline fill="none" stroke="black" points="131,-154.5 295,-154.5 "/>
<text text-anchor="middle" x="213" y="-143.3" font-family="Verdana" font-size="9.00">+ ProductModelID</text>
<polyline fill="none" stroke="black" points="131,-136.5 295,-136.5 "/>
<text text-anchor="middle" x="213" y="-125.3" font-family="Verdana" font-size="9.00">+ IllustrationID</text>
<polyline fill="none" stroke="black" points="131,-118.5 295,-118.5 "/>
<text text-anchor="middle" x="213" y="-107.3" font-family="Verdana" font-size="9.00">ModifiedDate</text>
</g>
<!-- struct0&#45;&gt;struct2 -->
<g id="edge2" class="edge"><title>struct0:c1301579675_1&#45;&gt;struct2:c210099789_2</title>
<path fill="none" stroke="#337ab7" d="M107.5,-64.5C132.949,-64.5 110.425,-110.185 121.632,-123.748"/>
<polygon fill="#337ab7" stroke="#337ab7" points="120.416,-127.031 131,-127.5 123.018,-120.533 120.416,-127.031"/>
</g>
<!-- struct1 -->
<g id="node2" class="node"><title>struct1</title>
<polygon fill="none" stroke="#337ab7" points="0,-110.5 0,-236.5 113,-236.5 113,-110.5 0,-110.5"/>
<text text-anchor="middle" x="56.5" y="-225.3" font-family="Verdana" font-size="9.00" fill="#337ab7">Table: ProductModel</text>
<polyline fill="none" stroke="#337ab7" points="0,-218.5 113,-218.5 "/>
<text text-anchor="middle" x="56.5" y="-207.3" font-family="Verdana" font-size="9.00" fill="#337ab7">ProductModelID +</text>
<polyline fill="none" stroke="#337ab7" points="0,-200.5 113,-200.5 "/>
<text text-anchor="middle" x="56.5" y="-189.3" font-family="Verdana" font-size="9.00" fill="#337ab7">Name</text>
<polyline fill="none" stroke="#337ab7" points="0,-182.5 113,-182.5 "/>
<text text-anchor="middle" x="56.5" y="-171.3" font-family="Verdana" font-size="9.00" fill="#337ab7">CatalogDescription</text>
<polyline fill="none" stroke="#337ab7" points="0,-164.5 113,-164.5 "/>
<text text-anchor="middle" x="56.5" y="-153.3" font-family="Verdana" font-size="9.00" fill="#337ab7">Instructions</text>
<polyline fill="none" stroke="#337ab7" points="0,-146.5 113,-146.5 "/>
<text text-anchor="middle" x="56.5" y="-135.3" font-family="Verdana" font-size="9.00" fill="#337ab7">rowguid</text>
<polyline fill="none" stroke="#337ab7" points="0,-128.5 113,-128.5 "/>
<text text-anchor="middle" x="56.5" y="-117.3" font-family="Verdana" font-size="9.00" fill="#337ab7">ModifiedDate</text>
</g>
<!-- struct1&#45;&gt;struct2 -->
<g id="edge1" class="edge"><title>struct1:c162099618_1&#45;&gt;struct2:c210099789_1</title>
<path fill="none" stroke="#337ab7" d="M113,-209.5C137.931,-209.5 112.57,-163.938 121.785,-149.699"/>
<polygon fill="#337ab7" stroke="#337ab7" points="123.351,-152.832 131,-145.5 120.449,-146.462 123.351,-152.832"/>
</g>
</g>
</svg>
