<?xml version="1.0" encoding="UTF-8" standalone="no"?>
<!DOCTYPE svg PUBLIC "-//W3C//DTD SVG 1.1//EN"
 "http://www.w3.org/Graphics/SVG/1.1/DTD/svg11.dtd">
<!-- Generated by graphviz version 2.38.0 (20140413.2041)
 -->
<!-- Title: g Pages: 1 -->
<svg width="289pt" height="136pt"
 viewBox="0.00 0.00 289.00 136.00" xmlns="http://www.w3.org/2000/svg" xmlns:xlink="http://www.w3.org/1999/xlink">
<g id="graph0" class="graph" transform="scale(1 1) rotate(0) translate(4 132)">
<title>g</title>
<polygon fill="white" stroke="none" points="-4,4 -4,-132 285,-132 285,4 -4,4"/>
<text text-anchor="middle" x="140.5" y="-7" font-family="Verdana" font-size="10.00">Table: ContactType</text>
<!-- struct0 -->
<g id="node1" class="node"><title>struct0</title>
<polygon fill="#f7f7f9" stroke="#555555" points="126,-19.5 126,-127.5 281,-127.5 281,-19.5 126,-19.5"/>
<text text-anchor="middle" x="203.5" y="-116.3" font-family="Verdana" font-size="9.00" fill="#555555">Table: BusinessEntityContact</text>
<polyline fill="none" stroke="#555555" points="126,-109.5 281,-109.5 "/>
<text text-anchor="middle" x="203.5" y="-98.3" font-family="Verdana" font-size="9.00" fill="#555555">+ BusinessEntityID</text>
<polyline fill="none" stroke="#555555" points="126,-91.5 281,-91.5 "/>
<text text-anchor="middle" x="203.5" y="-80.3" font-family="Verdana" font-size="9.00" fill="#555555">+ PersonID</text>
<polyline fill="none" stroke="#555555" points="126,-73.5 281,-73.5 "/>
<text text-anchor="middle" x="203.5" y="-62.3" font-family="Verdana" font-size="9.00" fill="#555555">+ ContactTypeID</text>
<polyline fill="none" stroke="#555555" points="126,-55.5 281,-55.5 "/>
<text text-anchor="middle" x="203.5" y="-44.3" font-family="Verdana" font-size="9.00" fill="#555555">rowguid</text>
<polyline fill="none" stroke="#555555" points="126,-37.5 281,-37.5 "/>
<text text-anchor="middle" x="203.5" y="-26.3" font-family="Verdana" font-size="9.00" fill="#555555">ModifiedDate</text>
</g>
<!-- struct1 -->
<g id="node2" class="node"><title>struct1</title>
<polygon fill="#d9edf7" stroke="#1b809e" points="0,-19.5 0,-91.5 108,-91.5 108,-19.5 0,-19.5"/>
<text text-anchor="middle" x="54" y="-80.3" font-family="Verdana" font-size="9.00" fill="#1b809e">Table: ContactType</text>
<polyline fill="none" stroke="#1b809e" points="0,-73.5 108,-73.5 "/>
<text text-anchor="middle" x="54" y="-62.3" font-family="Verdana" font-size="9.00" fill="#1b809e">ContactTypeID +</text>
<polyline fill="none" stroke="#1b809e" points="0,-55.5 108,-55.5 "/>
<text text-anchor="middle" x="54" y="-44.3" font-family="Verdana" font-size="9.00" fill="#1b809e">Name</text>
<polyline fill="none" stroke="#1b809e" points="0,-37.5 108,-37.5 "/>
<text text-anchor="middle" x="54" y="-26.3" font-family="Verdana" font-size="9.00" fill="#1b809e">ModifiedDate</text>
</g>
<!-- struct1&#45;&gt;struct0 -->
<g id="edge1" class="edge"><title>struct1:c485576768_1&#45;&gt;struct0:c437576597_3</title>
<path fill="none" stroke="black" d="M108,-64.5C111.25,-64.5 113.51,-64.5 115.584,-64.5"/>
<polygon fill="black" stroke="black" points="116,-68.0001 126,-64.5 116,-61.0001 116,-68.0001"/>
</g>
</g>
</svg>
