<?xml version="1.0" encoding="UTF-8" standalone="no"?>
<!DOCTYPE svg PUBLIC "-//W3C//DTD SVG 1.1//EN"
 "http://www.w3.org/Graphics/SVG/1.1/DTD/svg11.dtd">
<!-- Generated by graphviz version 2.38.0 (20140413.2041)
 -->
<!-- Title: g Pages: 1 -->
<svg width="280pt" height="263pt"
 viewBox="0.00 0.00 280.00 263.00" xmlns="http://www.w3.org/2000/svg" xmlns:xlink="http://www.w3.org/1999/xlink">
<g id="graph0" class="graph" transform="scale(1 1) rotate(0) translate(4 259)">
<title>g</title>
<polygon fill="white" stroke="none" points="-4,4 -4,-259 276,-259 276,4 -4,4"/>
<text text-anchor="middle" x="136" y="-7" font-family="Verdana" font-size="10.00">Table: Currency</text>
<!-- struct0 -->
<g id="node1" class="node"><title>struct0</title>
<polygon fill="#f7f7f9" stroke="#555555" points="111,-182.5 111,-254.5 272,-254.5 272,-182.5 111,-182.5"/>
<text text-anchor="middle" x="191.5" y="-243.3" font-family="Verdana" font-size="9.00" fill="#555555">Table: CountryRegionCurrency</text>
<polyline fill="none" stroke="#555555" points="111,-236.5 272,-236.5 "/>
<text text-anchor="middle" x="191.5" y="-225.3" font-family="Verdana" font-size="9.00" fill="#555555">+ CountryRegionCode</text>
<polyline fill="none" stroke="#555555" points="111,-218.5 272,-218.5 "/>
<text text-anchor="middle" x="191.5" y="-207.3" font-family="Verdana" font-size="9.00" fill="#555555">+ CurrencyCode</text>
<polyline fill="none" stroke="#555555" points="111,-200.5 272,-200.5 "/>
<text text-anchor="middle" x="191.5" y="-189.3" font-family="Verdana" font-size="9.00" fill="#555555">ModifiedDate</text>
</g>
<!-- struct1 -->
<g id="node2" class="node"><title>struct1</title>
<polygon fill="#d9edf7" stroke="#1b809e" points="0,-55.5 0,-127.5 93,-127.5 93,-55.5 0,-55.5"/>
<text text-anchor="middle" x="46.5" y="-116.3" font-family="Verdana" font-size="9.00" fill="#1b809e">Table: Currency</text>
<polyline fill="none" stroke="#1b809e" points="0,-109.5 93,-109.5 "/>
<text text-anchor="middle" x="46.5" y="-98.3" font-family="Verdana" font-size="9.00" fill="#1b809e">CurrencyCode +</text>
<polyline fill="none" stroke="#1b809e" points="0,-91.5 93,-91.5 "/>
<text text-anchor="middle" x="46.5" y="-80.3" font-family="Verdana" font-size="9.00" fill="#1b809e">Name</text>
<polyline fill="none" stroke="#1b809e" points="0,-73.5 93,-73.5 "/>
<text text-anchor="middle" x="46.5" y="-62.3" font-family="Verdana" font-size="9.00" fill="#1b809e">ModifiedDate</text>
</g>
<!-- struct1&#45;&gt;struct0 -->
<g id="edge1" class="edge"><title>struct1:c645577338_1&#45;&gt;struct0:c517576882_2</title>
<path fill="none" stroke="black" d="M93,-100.5C137.881,-100.5 74.7291,-191.571 101.042,-207.223"/>
<polygon fill="black" stroke="black" points="100.471,-210.683 111,-209.5 102.032,-203.859 100.471,-210.683"/>
</g>
<!-- struct2 -->
<g id="node3" class="node"><title>struct2</title>
<polygon fill="#f7f7f9" stroke="#555555" points="133.5,-19.5 133.5,-163.5 249.5,-163.5 249.5,-19.5 133.5,-19.5"/>
<text text-anchor="middle" x="191.5" y="-152.3" font-family="Verdana" font-size="9.00" fill="#555555">Table: CurrencyRate</text>
<polyline fill="none" stroke="#555555" points="133.5,-145.5 249.5,-145.5 "/>
<text text-anchor="middle" x="191.5" y="-134.3" font-family="Verdana" font-size="9.00" fill="#555555">CurrencyRateID +</text>
<polyline fill="none" stroke="#555555" points="133.5,-127.5 249.5,-127.5 "/>
<text text-anchor="middle" x="191.5" y="-116.3" font-family="Verdana" font-size="9.00" fill="#555555">CurrencyRateDate</text>
<polyline fill="none" stroke="#555555" points="133.5,-109.5 249.5,-109.5 "/>
<text text-anchor="middle" x="191.5" y="-98.3" font-family="Verdana" font-size="9.00" fill="#555555">+ FromCurrencyCode</text>
<polyline fill="none" stroke="#555555" points="133.5,-91.5 249.5,-91.5 "/>
<text text-anchor="middle" x="191.5" y="-80.3" font-family="Verdana" font-size="9.00" fill="#555555">+ ToCurrencyCode</text>
<polyline fill="none" stroke="#555555" points="133.5,-73.5 249.5,-73.5 "/>
<text text-anchor="middle" x="191.5" y="-62.3" font-family="Verdana" font-size="9.00" fill="#555555">AverageRate</text>
<polyline fill="none" stroke="#555555" points="133.5,-55.5 249.5,-55.5 "/>
<text text-anchor="middle" x="191.5" y="-44.3" font-family="Verdana" font-size="9.00" fill="#555555">EndOfDayRate</text>
<polyline fill="none" stroke="#555555" points="133.5,-37.5 249.5,-37.5 "/>
<text text-anchor="middle" x="191.5" y="-26.3" font-family="Verdana" font-size="9.00" fill="#555555">ModifiedDate</text>
</g>
<!-- struct1&#45;&gt;struct2 -->
<g id="edge2" class="edge"><title>struct1:c645577338_1&#45;&gt;struct2:c677577452_3</title>
<path fill="none" stroke="black" d="M93,-100.5C106.578,-100.5 112.28,-100.5 122.289,-100.5"/>
<polygon fill="black" stroke="black" points="122.5,-104 132.5,-100.5 122.5,-97.0001 122.5,-104"/>
</g>
<!-- struct1&#45;&gt;struct2 -->
<g id="edge3" class="edge"><title>struct1:c645577338_1&#45;&gt;struct2:c677577452_4</title>
<path fill="none" stroke="black" d="M93,-100.5C108.223,-100.5 112.004,-89.2928 122.4,-84.5648"/>
<polygon fill="black" stroke="black" points="123.404,-87.932 132.5,-82.5 122.002,-81.0739 123.404,-87.932"/>
</g>
</g>
</svg>
