<?xml version="1.0" encoding="UTF-8" standalone="no"?>
<!DOCTYPE svg PUBLIC "-//W3C//DTD SVG 1.1//EN"
 "http://www.w3.org/Graphics/SVG/1.1/DTD/svg11.dtd">
<!-- Generated by graphviz version 2.38.0 (20140413.2041)
 -->
<!-- Title: g Pages: 1 -->
<svg width="180pt" height="154pt"
 viewBox="0.00 0.00 180.00 154.00" xmlns="http://www.w3.org/2000/svg" xmlns:xlink="http://www.w3.org/1999/xlink">
<g id="graph0" class="graph" transform="scale(1 1) rotate(0) translate(4 150)">
<title>g</title>
<polygon fill="white" stroke="none" points="-4,4 -4,-150 176,-150 176,4 -4,4"/>
<text text-anchor="middle" x="86" y="-7" font-family="Verdana" font-size="10.00">View: vStoreWithDemographics</text>
<!-- struct0 -->
<g id="node1" class="node"><title>struct0</title>
<polygon fill="#f7f7f9" stroke="#555555" points="33,-19.5 33,-145.5 139,-145.5 139,-19.5 33,-19.5"/>
<text text-anchor="middle" x="86" y="-134.3" font-family="Verdana" font-size="9.00" fill="#555555">Table: Store</text>
<polyline fill="none" stroke="#555555" points="33,-127.5 139,-127.5 "/>
<text text-anchor="middle" x="86" y="-116.3" font-family="Verdana" font-size="9.00" fill="#555555">BusinessEntityID +</text>
<polyline fill="none" stroke="#555555" points="33,-109.5 139,-109.5 "/>
<text text-anchor="middle" x="86" y="-98.3" font-family="Verdana" font-size="9.00" fill="#555555">Name</text>
<polyline fill="none" stroke="#555555" points="33,-91.5 139,-91.5 "/>
<text text-anchor="middle" x="86" y="-80.3" font-family="Verdana" font-size="9.00" fill="#555555">+ SalesPersonID</text>
<polyline fill="none" stroke="#555555" points="33,-73.5 139,-73.5 "/>
<text text-anchor="middle" x="86" y="-62.3" font-family="Verdana" font-size="9.00" fill="#555555">Demographics</text>
<polyline fill="none" stroke="#555555" points="33,-55.5 139,-55.5 "/>
<text text-anchor="middle" x="86" y="-44.3" font-family="Verdana" font-size="9.00" fill="#555555">rowguid</text>
<polyline fill="none" stroke="#555555" points="33,-37.5 139,-37.5 "/>
<text text-anchor="middle" x="86" y="-26.3" font-family="Verdana" font-size="9.00" fill="#555555">ModifiedDate</text>
</g>
</g>
</svg>
