<?xml version="1.0" encoding="UTF-8" standalone="no"?>
<!DOCTYPE svg PUBLIC "-//W3C//DTD SVG 1.1//EN"
 "http://www.w3.org/Graphics/SVG/1.1/DTD/svg11.dtd">
<!-- Generated by graphviz version 2.38.0 (20140413.2041)
 -->
<!-- Title: g Pages: 1 -->
<svg width="164pt" height="1477pt"
 viewBox="0.00 0.00 164.00 1477.00" xmlns="http://www.w3.org/2000/svg" xmlns:xlink="http://www.w3.org/1999/xlink">
<g id="graph0" class="graph" transform="scale(1 1) rotate(0) translate(4 1473)">
<title>g</title>
<polygon fill="white" stroke="none" points="-4,4 -4,-1473 160,-1473 160,4 -4,4"/>
<text text-anchor="middle" x="78" y="-7" font-family="Verdana" font-size="10.00">View: vIndividualCustomer</text>
<!-- struct0 -->
<g id="node1" class="node"><title>struct0</title>
<polygon fill="#f7f7f9" stroke="#555555" points="27,-19.5 27,-199.5 129,-199.5 129,-19.5 27,-19.5"/>
<text text-anchor="middle" x="78" y="-188.3" font-family="Verdana" font-size="9.00" fill="#555555">Table: Address</text>
<polyline fill="none" stroke="#555555" points="27,-181.5 129,-181.5 "/>
<text text-anchor="middle" x="78" y="-170.3" font-family="Verdana" font-size="9.00" fill="#555555">AddressID +</text>
<polyline fill="none" stroke="#555555" points="27,-163.5 129,-163.5 "/>
<text text-anchor="middle" x="78" y="-152.3" font-family="Verdana" font-size="9.00" fill="#555555">AddressLine1</text>
<polyline fill="none" stroke="#555555" points="27,-145.5 129,-145.5 "/>
<text text-anchor="middle" x="78" y="-134.3" font-family="Verdana" font-size="9.00" fill="#555555">AddressLine2</text>
<polyline fill="none" stroke="#555555" points="27,-127.5 129,-127.5 "/>
<text text-anchor="middle" x="78" y="-116.3" font-family="Verdana" font-size="9.00" fill="#555555">City</text>
<polyline fill="none" stroke="#555555" points="27,-109.5 129,-109.5 "/>
<text text-anchor="middle" x="78" y="-98.3" font-family="Verdana" font-size="9.00" fill="#555555">+ StateProvinceID</text>
<polyline fill="none" stroke="#555555" points="27,-91.5 129,-91.5 "/>
<text text-anchor="middle" x="78" y="-80.3" font-family="Verdana" font-size="9.00" fill="#555555">PostalCode</text>
<polyline fill="none" stroke="#555555" points="27,-73.5 129,-73.5 "/>
<text text-anchor="middle" x="78" y="-62.3" font-family="Verdana" font-size="9.00" fill="#555555">SpatialLocation</text>
<polyline fill="none" stroke="#555555" points="27,-55.5 129,-55.5 "/>
<text text-anchor="middle" x="78" y="-44.3" font-family="Verdana" font-size="9.00" fill="#555555">rowguid</text>
<polyline fill="none" stroke="#555555" points="27,-37.5 129,-37.5 "/>
<text text-anchor="middle" x="78" y="-26.3" font-family="Verdana" font-size="9.00" fill="#555555">ModifiedDate</text>
</g>
<!-- struct1 -->
<g id="node2" class="node"><title>struct1</title>
<polygon fill="#f7f7f9" stroke="#555555" points="23,-218.5 23,-308.5 133,-308.5 133,-218.5 23,-218.5"/>
<text text-anchor="middle" x="78" y="-297.3" font-family="Verdana" font-size="9.00" fill="#555555">Table: AddressType</text>
<polyline fill="none" stroke="#555555" points="23,-290.5 133,-290.5 "/>
<text text-anchor="middle" x="78" y="-279.3" font-family="Verdana" font-size="9.00" fill="#555555">AddressTypeID +</text>
<polyline fill="none" stroke="#555555" points="23,-272.5 133,-272.5 "/>
<text text-anchor="middle" x="78" y="-261.3" font-family="Verdana" font-size="9.00" fill="#555555">Name</text>
<polyline fill="none" stroke="#555555" points="23,-254.5 133,-254.5 "/>
<text text-anchor="middle" x="78" y="-243.3" font-family="Verdana" font-size="9.00" fill="#555555">rowguid</text>
<polyline fill="none" stroke="#555555" points="23,-236.5 133,-236.5 "/>
<text text-anchor="middle" x="78" y="-225.3" font-family="Verdana" font-size="9.00" fill="#555555">ModifiedDate</text>
</g>
<!-- struct2 -->
<g id="node3" class="node"><title>struct2</title>
<polygon fill="#f7f7f9" stroke="#555555" points="0,-327.5 0,-435.5 156,-435.5 156,-327.5 0,-327.5"/>
<text text-anchor="middle" x="78" y="-424.3" font-family="Verdana" font-size="9.00" fill="#555555">Table: BusinessEntityAddress</text>
<polyline fill="none" stroke="#555555" points="0,-417.5 156,-417.5 "/>
<text text-anchor="middle" x="78" y="-406.3" font-family="Verdana" font-size="9.00" fill="#555555">+ BusinessEntityID</text>
<polyline fill="none" stroke="#555555" points="0,-399.5 156,-399.5 "/>
<text text-anchor="middle" x="78" y="-388.3" font-family="Verdana" font-size="9.00" fill="#555555">+ AddressID</text>
<polyline fill="none" stroke="#555555" points="0,-381.5 156,-381.5 "/>
<text text-anchor="middle" x="78" y="-370.3" font-family="Verdana" font-size="9.00" fill="#555555">+ AddressTypeID</text>
<polyline fill="none" stroke="#555555" points="0,-363.5 156,-363.5 "/>
<text text-anchor="middle" x="78" y="-352.3" font-family="Verdana" font-size="9.00" fill="#555555">rowguid</text>
<polyline fill="none" stroke="#555555" points="0,-345.5 156,-345.5 "/>
<text text-anchor="middle" x="78" y="-334.3" font-family="Verdana" font-size="9.00" fill="#555555">ModifiedDate</text>
</g>
<!-- struct3 -->
<g id="node4" class="node"><title>struct3</title>
<polygon fill="#f7f7f9" stroke="#555555" points="17.5,-454.5 17.5,-526.5 138.5,-526.5 138.5,-454.5 17.5,-454.5"/>
<text text-anchor="middle" x="78" y="-515.3" font-family="Verdana" font-size="9.00" fill="#555555">Table: CountryRegion</text>
<polyline fill="none" stroke="#555555" points="17.5,-508.5 138.5,-508.5 "/>
<text text-anchor="middle" x="78" y="-497.3" font-family="Verdana" font-size="9.00" fill="#555555">CountryRegionCode +</text>
<polyline fill="none" stroke="#555555" points="17.5,-490.5 138.5,-490.5 "/>
<text text-anchor="middle" x="78" y="-479.3" font-family="Verdana" font-size="9.00" fill="#555555">Name</text>
<polyline fill="none" stroke="#555555" points="17.5,-472.5 138.5,-472.5 "/>
<text text-anchor="middle" x="78" y="-461.3" font-family="Verdana" font-size="9.00" fill="#555555">ModifiedDate</text>
</g>
<!-- struct4 -->
<g id="node5" class="node"><title>struct4</title>
<polygon fill="#f7f7f9" stroke="#555555" points="30.5,-545.5 30.5,-689.5 125.5,-689.5 125.5,-545.5 30.5,-545.5"/>
<text text-anchor="middle" x="78" y="-678.3" font-family="Verdana" font-size="9.00" fill="#555555">Table: Customer</text>
<polyline fill="none" stroke="#555555" points="30.5,-671.5 125.5,-671.5 "/>
<text text-anchor="middle" x="78" y="-660.3" font-family="Verdana" font-size="9.00" fill="#555555">CustomerID +</text>
<polyline fill="none" stroke="#555555" points="30.5,-653.5 125.5,-653.5 "/>
<text text-anchor="middle" x="78" y="-642.3" font-family="Verdana" font-size="9.00" fill="#555555">+ PersonID</text>
<polyline fill="none" stroke="#555555" points="30.5,-635.5 125.5,-635.5 "/>
<text text-anchor="middle" x="78" y="-624.3" font-family="Verdana" font-size="9.00" fill="#555555">+ StoreID</text>
<polyline fill="none" stroke="#555555" points="30.5,-617.5 125.5,-617.5 "/>
<text text-anchor="middle" x="78" y="-606.3" font-family="Verdana" font-size="9.00" fill="#555555">+ TerritoryID</text>
<polyline fill="none" stroke="#555555" points="30.5,-599.5 125.5,-599.5 "/>
<text text-anchor="middle" x="78" y="-588.3" font-family="Verdana" font-size="9.00" fill="#555555">AccountNumber</text>
<polyline fill="none" stroke="#555555" points="30.5,-581.5 125.5,-581.5 "/>
<text text-anchor="middle" x="78" y="-570.3" font-family="Verdana" font-size="9.00" fill="#555555">rowguid</text>
<polyline fill="none" stroke="#555555" points="30.5,-563.5 125.5,-563.5 "/>
<text text-anchor="middle" x="78" y="-552.3" font-family="Verdana" font-size="9.00" fill="#555555">ModifiedDate</text>
</g>
<!-- struct5 -->
<g id="node6" class="node"><title>struct5</title>
<polygon fill="#f7f7f9" stroke="#555555" points="22,-708.5 22,-816.5 134,-816.5 134,-708.5 22,-708.5"/>
<text text-anchor="middle" x="78" y="-805.3" font-family="Verdana" font-size="9.00" fill="#555555">Table: EmailAddress</text>
<polyline fill="none" stroke="#555555" points="22,-798.5 134,-798.5 "/>
<text text-anchor="middle" x="78" y="-787.3" font-family="Verdana" font-size="9.00" fill="#555555">+ BusinessEntityID</text>
<polyline fill="none" stroke="#555555" points="22,-780.5 134,-780.5 "/>
<text text-anchor="middle" x="78" y="-769.3" font-family="Verdana" font-size="9.00" fill="#555555">EmailAddressID</text>
<polyline fill="none" stroke="#555555" points="22,-762.5 134,-762.5 "/>
<text text-anchor="middle" x="78" y="-751.3" font-family="Verdana" font-size="9.00" fill="#555555">EmailAddress</text>
<polyline fill="none" stroke="#555555" points="22,-744.5 134,-744.5 "/>
<text text-anchor="middle" x="78" y="-733.3" font-family="Verdana" font-size="9.00" fill="#555555">rowguid</text>
<polyline fill="none" stroke="#555555" points="22,-726.5 134,-726.5 "/>
<text text-anchor="middle" x="78" y="-715.3" font-family="Verdana" font-size="9.00" fill="#555555">ModifiedDate</text>
</g>
<!-- struct6 -->
<g id="node7" class="node"><title>struct6</title>
<polygon fill="#f7f7f9" stroke="#555555" points="18.5,-835.5 18.5,-1087.5 137.5,-1087.5 137.5,-835.5 18.5,-835.5"/>
<text text-anchor="middle" x="78" y="-1076.3" font-family="Verdana" font-size="9.00" fill="#555555">Table: Person</text>
<polyline fill="none" stroke="#555555" points="18.5,-1069.5 137.5,-1069.5 "/>
<text text-anchor="middle" x="78" y="-1058.3" font-family="Verdana" font-size="9.00" fill="#555555">BusinessEntityID +</text>
<polyline fill="none" stroke="#555555" points="18.5,-1051.5 137.5,-1051.5 "/>
<text text-anchor="middle" x="78" y="-1040.3" font-family="Verdana" font-size="9.00" fill="#555555">PersonType</text>
<polyline fill="none" stroke="#555555" points="18.5,-1033.5 137.5,-1033.5 "/>
<text text-anchor="middle" x="78" y="-1022.3" font-family="Verdana" font-size="9.00" fill="#555555">NameStyle</text>
<polyline fill="none" stroke="#555555" points="18.5,-1015.5 137.5,-1015.5 "/>
<text text-anchor="middle" x="78" y="-1004.3" font-family="Verdana" font-size="9.00" fill="#555555">Title</text>
<polyline fill="none" stroke="#555555" points="18.5,-997.5 137.5,-997.5 "/>
<text text-anchor="middle" x="78" y="-986.3" font-family="Verdana" font-size="9.00" fill="#555555">FirstName</text>
<polyline fill="none" stroke="#555555" points="18.5,-979.5 137.5,-979.5 "/>
<text text-anchor="middle" x="78" y="-968.3" font-family="Verdana" font-size="9.00" fill="#555555">MiddleName</text>
<polyline fill="none" stroke="#555555" points="18.5,-961.5 137.5,-961.5 "/>
<text text-anchor="middle" x="78" y="-950.3" font-family="Verdana" font-size="9.00" fill="#555555">LastName</text>
<polyline fill="none" stroke="#555555" points="18.5,-943.5 137.5,-943.5 "/>
<text text-anchor="middle" x="78" y="-932.3" font-family="Verdana" font-size="9.00" fill="#555555">Suffix</text>
<polyline fill="none" stroke="#555555" points="18.5,-925.5 137.5,-925.5 "/>
<text text-anchor="middle" x="78" y="-914.3" font-family="Verdana" font-size="9.00" fill="#555555">EmailPromotion</text>
<polyline fill="none" stroke="#555555" points="18.5,-907.5 137.5,-907.5 "/>
<text text-anchor="middle" x="78" y="-896.3" font-family="Verdana" font-size="9.00" fill="#555555">AdditionalContactInfo</text>
<polyline fill="none" stroke="#555555" points="18.5,-889.5 137.5,-889.5 "/>
<text text-anchor="middle" x="78" y="-878.3" font-family="Verdana" font-size="9.00" fill="#555555">Demographics</text>
<polyline fill="none" stroke="#555555" points="18.5,-871.5 137.5,-871.5 "/>
<text text-anchor="middle" x="78" y="-860.3" font-family="Verdana" font-size="9.00" fill="#555555">rowguid</text>
<polyline fill="none" stroke="#555555" points="18.5,-853.5 137.5,-853.5 "/>
<text text-anchor="middle" x="78" y="-842.3" font-family="Verdana" font-size="9.00" fill="#555555">ModifiedDate</text>
</g>
<!-- struct7 -->
<g id="node8" class="node"><title>struct7</title>
<polygon fill="#f7f7f9" stroke="#555555" points="15,-1106.5 15,-1196.5 141,-1196.5 141,-1106.5 15,-1106.5"/>
<text text-anchor="middle" x="78" y="-1185.3" font-family="Verdana" font-size="9.00" fill="#555555">Table: PersonPhone</text>
<polyline fill="none" stroke="#555555" points="15,-1178.5 141,-1178.5 "/>
<text text-anchor="middle" x="78" y="-1167.3" font-family="Verdana" font-size="9.00" fill="#555555">+ BusinessEntityID</text>
<polyline fill="none" stroke="#555555" points="15,-1160.5 141,-1160.5 "/>
<text text-anchor="middle" x="78" y="-1149.3" font-family="Verdana" font-size="9.00" fill="#555555">PhoneNumber</text>
<polyline fill="none" stroke="#555555" points="15,-1142.5 141,-1142.5 "/>
<text text-anchor="middle" x="78" y="-1131.3" font-family="Verdana" font-size="9.00" fill="#555555">+ PhoneNumberTypeID</text>
<polyline fill="none" stroke="#555555" points="15,-1124.5 141,-1124.5 "/>
<text text-anchor="middle" x="78" y="-1113.3" font-family="Verdana" font-size="9.00" fill="#555555">ModifiedDate</text>
</g>
<!-- struct8 -->
<g id="node9" class="node"><title>struct8</title>
<polygon fill="#f7f7f9" stroke="#555555" points="9,-1215.5 9,-1287.5 147,-1287.5 147,-1215.5 9,-1215.5"/>
<text text-anchor="middle" x="78" y="-1276.3" font-family="Verdana" font-size="9.00" fill="#555555">Table: PhoneNumberType</text>
<polyline fill="none" stroke="#555555" points="9,-1269.5 147,-1269.5 "/>
<text text-anchor="middle" x="78" y="-1258.3" font-family="Verdana" font-size="9.00" fill="#555555">PhoneNumberTypeID +</text>
<polyline fill="none" stroke="#555555" points="9,-1251.5 147,-1251.5 "/>
<text text-anchor="middle" x="78" y="-1240.3" font-family="Verdana" font-size="9.00" fill="#555555">Name</text>
<polyline fill="none" stroke="#555555" points="9,-1233.5 147,-1233.5 "/>
<text text-anchor="middle" x="78" y="-1222.3" font-family="Verdana" font-size="9.00" fill="#555555">ModifiedDate</text>
</g>
<!-- struct9 -->
<g id="node10" class="node"><title>struct9</title>
<polygon fill="#f7f7f9" stroke="#555555" points="12.5,-1306.5 12.5,-1468.5 143.5,-1468.5 143.5,-1306.5 12.5,-1306.5"/>
<text text-anchor="middle" x="78" y="-1457.3" font-family="Verdana" font-size="9.00" fill="#555555">Table: StateProvince</text>
<polyline fill="none" stroke="#555555" points="12.5,-1450.5 143.5,-1450.5 "/>
<text text-anchor="middle" x="78" y="-1439.3" font-family="Verdana" font-size="9.00" fill="#555555">StateProvinceID +</text>
<polyline fill="none" stroke="#555555" points="12.5,-1432.5 143.5,-1432.5 "/>
<text text-anchor="middle" x="78" y="-1421.3" font-family="Verdana" font-size="9.00" fill="#555555">StateProvinceCode</text>
<polyline fill="none" stroke="#555555" points="12.5,-1414.5 143.5,-1414.5 "/>
<text text-anchor="middle" x="78" y="-1403.3" font-family="Verdana" font-size="9.00" fill="#555555">+ CountryRegionCode</text>
<polyline fill="none" stroke="#555555" points="12.5,-1396.5 143.5,-1396.5 "/>
<text text-anchor="middle" x="78" y="-1385.3" font-family="Verdana" font-size="9.00" fill="#555555">IsOnlyStateProvinceFlag</text>
<polyline fill="none" stroke="#555555" points="12.5,-1378.5 143.5,-1378.5 "/>
<text text-anchor="middle" x="78" y="-1367.3" font-family="Verdana" font-size="9.00" fill="#555555">Name</text>
<polyline fill="none" stroke="#555555" points="12.5,-1360.5 143.5,-1360.5 "/>
<text text-anchor="middle" x="78" y="-1349.3" font-family="Verdana" font-size="9.00" fill="#555555">+ TerritoryID</text>
<polyline fill="none" stroke="#555555" points="12.5,-1342.5 143.5,-1342.5 "/>
<text text-anchor="middle" x="78" y="-1331.3" font-family="Verdana" font-size="9.00" fill="#555555">rowguid</text>
<polyline fill="none" stroke="#555555" points="12.5,-1324.5 143.5,-1324.5 "/>
<text text-anchor="middle" x="78" y="-1313.3" font-family="Verdana" font-size="9.00" fill="#555555">ModifiedDate</text>
</g>
</g>
</svg>
