<?xml version="1.0" encoding="UTF-8" standalone="no"?>
<!DOCTYPE svg PUBLIC "-//W3C//DTD SVG 1.1//EN"
 "http://www.w3.org/Graphics/SVG/1.1/DTD/svg11.dtd">
<!-- Generated by graphviz version 2.38.0 (20140413.2041)
 -->
<!-- Title: g Pages: 1 -->
<svg width="164pt" height="1006pt"
 viewBox="0.00 0.00 164.00 1006.00" xmlns="http://www.w3.org/2000/svg" xmlns:xlink="http://www.w3.org/1999/xlink">
<g id="graph0" class="graph" transform="scale(1 1) rotate(0) translate(4 1002)">
<title>g</title>
<polygon fill="white" stroke="none" points="-4,4 -4,-1002 160,-1002 160,4 -4,4"/>
<text text-anchor="middle" x="78" y="-7" font-family="Verdana" font-size="10.00">View: vVendorWithContacts</text>
<!-- struct0 -->
<g id="node1" class="node"><title>struct0</title>
<polygon fill="#f7f7f9" stroke="#555555" points="0.5,-19.5 0.5,-127.5 155.5,-127.5 155.5,-19.5 0.5,-19.5"/>
<text text-anchor="middle" x="78" y="-116.3" font-family="Verdana" font-size="9.00" fill="#555555">Table: BusinessEntityContact</text>
<polyline fill="none" stroke="#555555" points="0.5,-109.5 155.5,-109.5 "/>
<text text-anchor="middle" x="78" y="-98.3" font-family="Verdana" font-size="9.00" fill="#555555">+ BusinessEntityID</text>
<polyline fill="none" stroke="#555555" points="0.5,-91.5 155.5,-91.5 "/>
<text text-anchor="middle" x="78" y="-80.3" font-family="Verdana" font-size="9.00" fill="#555555">+ PersonID</text>
<polyline fill="none" stroke="#555555" points="0.5,-73.5 155.5,-73.5 "/>
<text text-anchor="middle" x="78" y="-62.3" font-family="Verdana" font-size="9.00" fill="#555555">+ ContactTypeID</text>
<polyline fill="none" stroke="#555555" points="0.5,-55.5 155.5,-55.5 "/>
<text text-anchor="middle" x="78" y="-44.3" font-family="Verdana" font-size="9.00" fill="#555555">rowguid</text>
<polyline fill="none" stroke="#555555" points="0.5,-37.5 155.5,-37.5 "/>
<text text-anchor="middle" x="78" y="-26.3" font-family="Verdana" font-size="9.00" fill="#555555">ModifiedDate</text>
</g>
<!-- struct1 -->
<g id="node2" class="node"><title>struct1</title>
<polygon fill="#f7f7f9" stroke="#555555" points="24,-146.5 24,-218.5 132,-218.5 132,-146.5 24,-146.5"/>
<text text-anchor="middle" x="78" y="-207.3" font-family="Verdana" font-size="9.00" fill="#555555">Table: ContactType</text>
<polyline fill="none" stroke="#555555" points="24,-200.5 132,-200.5 "/>
<text text-anchor="middle" x="78" y="-189.3" font-family="Verdana" font-size="9.00" fill="#555555">ContactTypeID +</text>
<polyline fill="none" stroke="#555555" points="24,-182.5 132,-182.5 "/>
<text text-anchor="middle" x="78" y="-171.3" font-family="Verdana" font-size="9.00" fill="#555555">Name</text>
<polyline fill="none" stroke="#555555" points="24,-164.5 132,-164.5 "/>
<text text-anchor="middle" x="78" y="-153.3" font-family="Verdana" font-size="9.00" fill="#555555">ModifiedDate</text>
</g>
<!-- struct2 -->
<g id="node3" class="node"><title>struct2</title>
<polygon fill="#f7f7f9" stroke="#555555" points="22,-237.5 22,-345.5 134,-345.5 134,-237.5 22,-237.5"/>
<text text-anchor="middle" x="78" y="-334.3" font-family="Verdana" font-size="9.00" fill="#555555">Table: EmailAddress</text>
<polyline fill="none" stroke="#555555" points="22,-327.5 134,-327.5 "/>
<text text-anchor="middle" x="78" y="-316.3" font-family="Verdana" font-size="9.00" fill="#555555">+ BusinessEntityID</text>
<polyline fill="none" stroke="#555555" points="22,-309.5 134,-309.5 "/>
<text text-anchor="middle" x="78" y="-298.3" font-family="Verdana" font-size="9.00" fill="#555555">EmailAddressID</text>
<polyline fill="none" stroke="#555555" points="22,-291.5 134,-291.5 "/>
<text text-anchor="middle" x="78" y="-280.3" font-family="Verdana" font-size="9.00" fill="#555555">EmailAddress</text>
<polyline fill="none" stroke="#555555" points="22,-273.5 134,-273.5 "/>
<text text-anchor="middle" x="78" y="-262.3" font-family="Verdana" font-size="9.00" fill="#555555">rowguid</text>
<polyline fill="none" stroke="#555555" points="22,-255.5 134,-255.5 "/>
<text text-anchor="middle" x="78" y="-244.3" font-family="Verdana" font-size="9.00" fill="#555555">ModifiedDate</text>
</g>
<!-- struct3 -->
<g id="node4" class="node"><title>struct3</title>
<polygon fill="#f7f7f9" stroke="#555555" points="18.5,-364.5 18.5,-616.5 137.5,-616.5 137.5,-364.5 18.5,-364.5"/>
<text text-anchor="middle" x="78" y="-605.3" font-family="Verdana" font-size="9.00" fill="#555555">Table: Person</text>
<polyline fill="none" stroke="#555555" points="18.5,-598.5 137.5,-598.5 "/>
<text text-anchor="middle" x="78" y="-587.3" font-family="Verdana" font-size="9.00" fill="#555555">BusinessEntityID +</text>
<polyline fill="none" stroke="#555555" points="18.5,-580.5 137.5,-580.5 "/>
<text text-anchor="middle" x="78" y="-569.3" font-family="Verdana" font-size="9.00" fill="#555555">PersonType</text>
<polyline fill="none" stroke="#555555" points="18.5,-562.5 137.5,-562.5 "/>
<text text-anchor="middle" x="78" y="-551.3" font-family="Verdana" font-size="9.00" fill="#555555">NameStyle</text>
<polyline fill="none" stroke="#555555" points="18.5,-544.5 137.5,-544.5 "/>
<text text-anchor="middle" x="78" y="-533.3" font-family="Verdana" font-size="9.00" fill="#555555">Title</text>
<polyline fill="none" stroke="#555555" points="18.5,-526.5 137.5,-526.5 "/>
<text text-anchor="middle" x="78" y="-515.3" font-family="Verdana" font-size="9.00" fill="#555555">FirstName</text>
<polyline fill="none" stroke="#555555" points="18.5,-508.5 137.5,-508.5 "/>
<text text-anchor="middle" x="78" y="-497.3" font-family="Verdana" font-size="9.00" fill="#555555">MiddleName</text>
<polyline fill="none" stroke="#555555" points="18.5,-490.5 137.5,-490.5 "/>
<text text-anchor="middle" x="78" y="-479.3" font-family="Verdana" font-size="9.00" fill="#555555">LastName</text>
<polyline fill="none" stroke="#555555" points="18.5,-472.5 137.5,-472.5 "/>
<text text-anchor="middle" x="78" y="-461.3" font-family="Verdana" font-size="9.00" fill="#555555">Suffix</text>
<polyline fill="none" stroke="#555555" points="18.5,-454.5 137.5,-454.5 "/>
<text text-anchor="middle" x="78" y="-443.3" font-family="Verdana" font-size="9.00" fill="#555555">EmailPromotion</text>
<polyline fill="none" stroke="#555555" points="18.5,-436.5 137.5,-436.5 "/>
<text text-anchor="middle" x="78" y="-425.3" font-family="Verdana" font-size="9.00" fill="#555555">AdditionalContactInfo</text>
<polyline fill="none" stroke="#555555" points="18.5,-418.5 137.5,-418.5 "/>
<text text-anchor="middle" x="78" y="-407.3" font-family="Verdana" font-size="9.00" fill="#555555">Demographics</text>
<polyline fill="none" stroke="#555555" points="18.5,-400.5 137.5,-400.5 "/>
<text text-anchor="middle" x="78" y="-389.3" font-family="Verdana" font-size="9.00" fill="#555555">rowguid</text>
<polyline fill="none" stroke="#555555" points="18.5,-382.5 137.5,-382.5 "/>
<text text-anchor="middle" x="78" y="-371.3" font-family="Verdana" font-size="9.00" fill="#555555">ModifiedDate</text>
</g>
<!-- struct4 -->
<g id="node5" class="node"><title>struct4</title>
<polygon fill="#f7f7f9" stroke="#555555" points="15,-635.5 15,-725.5 141,-725.5 141,-635.5 15,-635.5"/>
<text text-anchor="middle" x="78" y="-714.3" font-family="Verdana" font-size="9.00" fill="#555555">Table: PersonPhone</text>
<polyline fill="none" stroke="#555555" points="15,-707.5 141,-707.5 "/>
<text text-anchor="middle" x="78" y="-696.3" font-family="Verdana" font-size="9.00" fill="#555555">+ BusinessEntityID</text>
<polyline fill="none" stroke="#555555" points="15,-689.5 141,-689.5 "/>
<text text-anchor="middle" x="78" y="-678.3" font-family="Verdana" font-size="9.00" fill="#555555">PhoneNumber</text>
<polyline fill="none" stroke="#555555" points="15,-671.5 141,-671.5 "/>
<text text-anchor="middle" x="78" y="-660.3" font-family="Verdana" font-size="9.00" fill="#555555">+ PhoneNumberTypeID</text>
<polyline fill="none" stroke="#555555" points="15,-653.5 141,-653.5 "/>
<text text-anchor="middle" x="78" y="-642.3" font-family="Verdana" font-size="9.00" fill="#555555">ModifiedDate</text>
</g>
<!-- struct5 -->
<g id="node6" class="node"><title>struct5</title>
<polygon fill="#f7f7f9" stroke="#555555" points="9,-744.5 9,-816.5 147,-816.5 147,-744.5 9,-744.5"/>
<text text-anchor="middle" x="78" y="-805.3" font-family="Verdana" font-size="9.00" fill="#555555">Table: PhoneNumberType</text>
<polyline fill="none" stroke="#555555" points="9,-798.5 147,-798.5 "/>
<text text-anchor="middle" x="78" y="-787.3" font-family="Verdana" font-size="9.00" fill="#555555">PhoneNumberTypeID +</text>
<polyline fill="none" stroke="#555555" points="9,-780.5 147,-780.5 "/>
<text text-anchor="middle" x="78" y="-769.3" font-family="Verdana" font-size="9.00" fill="#555555">Name</text>
<polyline fill="none" stroke="#555555" points="9,-762.5 147,-762.5 "/>
<text text-anchor="middle" x="78" y="-751.3" font-family="Verdana" font-size="9.00" fill="#555555">ModifiedDate</text>
</g>
<!-- struct6 -->
<g id="node7" class="node"><title>struct6</title>
<polygon fill="#f7f7f9" stroke="#555555" points="7,-835.5 7,-997.5 149,-997.5 149,-835.5 7,-835.5"/>
<text text-anchor="middle" x="78" y="-986.3" font-family="Verdana" font-size="9.00" fill="#555555">Table: Vendor</text>
<polyline fill="none" stroke="#555555" points="7,-979.5 149,-979.5 "/>
<text text-anchor="middle" x="78" y="-968.3" font-family="Verdana" font-size="9.00" fill="#555555">BusinessEntityID +</text>
<polyline fill="none" stroke="#555555" points="7,-961.5 149,-961.5 "/>
<text text-anchor="middle" x="78" y="-950.3" font-family="Verdana" font-size="9.00" fill="#555555">AccountNumber</text>
<polyline fill="none" stroke="#555555" points="7,-943.5 149,-943.5 "/>
<text text-anchor="middle" x="78" y="-932.3" font-family="Verdana" font-size="9.00" fill="#555555">Name</text>
<polyline fill="none" stroke="#555555" points="7,-925.5 149,-925.5 "/>
<text text-anchor="middle" x="78" y="-914.3" font-family="Verdana" font-size="9.00" fill="#555555">CreditRating</text>
<polyline fill="none" stroke="#555555" points="7,-907.5 149,-907.5 "/>
<text text-anchor="middle" x="78" y="-896.3" font-family="Verdana" font-size="9.00" fill="#555555">PreferredVendorStatus</text>
<polyline fill="none" stroke="#555555" points="7,-889.5 149,-889.5 "/>
<text text-anchor="middle" x="78" y="-878.3" font-family="Verdana" font-size="9.00" fill="#555555">ActiveFlag</text>
<polyline fill="none" stroke="#555555" points="7,-871.5 149,-871.5 "/>
<text text-anchor="middle" x="78" y="-860.3" font-family="Verdana" font-size="9.00" fill="#555555">PurchasingWebServiceURL</text>
<polyline fill="none" stroke="#555555" points="7,-853.5 149,-853.5 "/>
<text text-anchor="middle" x="78" y="-842.3" font-family="Verdana" font-size="9.00" fill="#555555">ModifiedDate</text>
</g>
</g>
</svg>
