<?xml version="1.0" encoding="UTF-8" standalone="no"?>
<!DOCTYPE svg PUBLIC "-//W3C//DTD SVG 1.1//EN"
 "http://www.w3.org/Graphics/SVG/1.1/DTD/svg11.dtd">
<!-- Generated by graphviz version 2.38.0 (20140413.2041)
 -->
<!-- Title: g Pages: 1 -->
<svg width="169pt" height="897pt"
 viewBox="0.00 0.00 169.00 897.00" xmlns="http://www.w3.org/2000/svg" xmlns:xlink="http://www.w3.org/1999/xlink">
<g id="graph0" class="graph" transform="scale(1 1) rotate(0) translate(4 893)">
<title>g</title>
<polygon fill="white" stroke="none" points="-4,4 -4,-893 165,-893 165,4 -4,4"/>
<text text-anchor="middle" x="80.5" y="-7" font-family="Verdana" font-size="10.00">View: vVendorWithAddresses</text>
<!-- struct0 -->
<g id="node1" class="node"><title>struct0</title>
<polygon fill="#f7f7f9" stroke="#555555" points="29.5,-19.5 29.5,-199.5 131.5,-199.5 131.5,-19.5 29.5,-19.5"/>
<text text-anchor="middle" x="80.5" y="-188.3" font-family="Verdana" font-size="9.00" fill="#555555">Table: Address</text>
<polyline fill="none" stroke="#555555" points="29.5,-181.5 131.5,-181.5 "/>
<text text-anchor="middle" x="80.5" y="-170.3" font-family="Verdana" font-size="9.00" fill="#555555">AddressID +</text>
<polyline fill="none" stroke="#555555" points="29.5,-163.5 131.5,-163.5 "/>
<text text-anchor="middle" x="80.5" y="-152.3" font-family="Verdana" font-size="9.00" fill="#555555">AddressLine1</text>
<polyline fill="none" stroke="#555555" points="29.5,-145.5 131.5,-145.5 "/>
<text text-anchor="middle" x="80.5" y="-134.3" font-family="Verdana" font-size="9.00" fill="#555555">AddressLine2</text>
<polyline fill="none" stroke="#555555" points="29.5,-127.5 131.5,-127.5 "/>
<text text-anchor="middle" x="80.5" y="-116.3" font-family="Verdana" font-size="9.00" fill="#555555">City</text>
<polyline fill="none" stroke="#555555" points="29.5,-109.5 131.5,-109.5 "/>
<text text-anchor="middle" x="80.5" y="-98.3" font-family="Verdana" font-size="9.00" fill="#555555">+ StateProvinceID</text>
<polyline fill="none" stroke="#555555" points="29.5,-91.5 131.5,-91.5 "/>
<text text-anchor="middle" x="80.5" y="-80.3" font-family="Verdana" font-size="9.00" fill="#555555">PostalCode</text>
<polyline fill="none" stroke="#555555" points="29.5,-73.5 131.5,-73.5 "/>
<text text-anchor="middle" x="80.5" y="-62.3" font-family="Verdana" font-size="9.00" fill="#555555">SpatialLocation</text>
<polyline fill="none" stroke="#555555" points="29.5,-55.5 131.5,-55.5 "/>
<text text-anchor="middle" x="80.5" y="-44.3" font-family="Verdana" font-size="9.00" fill="#555555">rowguid</text>
<polyline fill="none" stroke="#555555" points="29.5,-37.5 131.5,-37.5 "/>
<text text-anchor="middle" x="80.5" y="-26.3" font-family="Verdana" font-size="9.00" fill="#555555">ModifiedDate</text>
</g>
<!-- struct1 -->
<g id="node2" class="node"><title>struct1</title>
<polygon fill="#f7f7f9" stroke="#555555" points="25.5,-218.5 25.5,-308.5 135.5,-308.5 135.5,-218.5 25.5,-218.5"/>
<text text-anchor="middle" x="80.5" y="-297.3" font-family="Verdana" font-size="9.00" fill="#555555">Table: AddressType</text>
<polyline fill="none" stroke="#555555" points="25.5,-290.5 135.5,-290.5 "/>
<text text-anchor="middle" x="80.5" y="-279.3" font-family="Verdana" font-size="9.00" fill="#555555">AddressTypeID +</text>
<polyline fill="none" stroke="#555555" points="25.5,-272.5 135.5,-272.5 "/>
<text text-anchor="middle" x="80.5" y="-261.3" font-family="Verdana" font-size="9.00" fill="#555555">Name</text>
<polyline fill="none" stroke="#555555" points="25.5,-254.5 135.5,-254.5 "/>
<text text-anchor="middle" x="80.5" y="-243.3" font-family="Verdana" font-size="9.00" fill="#555555">rowguid</text>
<polyline fill="none" stroke="#555555" points="25.5,-236.5 135.5,-236.5 "/>
<text text-anchor="middle" x="80.5" y="-225.3" font-family="Verdana" font-size="9.00" fill="#555555">ModifiedDate</text>
</g>
<!-- struct2 -->
<g id="node3" class="node"><title>struct2</title>
<polygon fill="#f7f7f9" stroke="#555555" points="2.5,-327.5 2.5,-435.5 158.5,-435.5 158.5,-327.5 2.5,-327.5"/>
<text text-anchor="middle" x="80.5" y="-424.3" font-family="Verdana" font-size="9.00" fill="#555555">Table: BusinessEntityAddress</text>
<polyline fill="none" stroke="#555555" points="2.5,-417.5 158.5,-417.5 "/>
<text text-anchor="middle" x="80.5" y="-406.3" font-family="Verdana" font-size="9.00" fill="#555555">+ BusinessEntityID</text>
<polyline fill="none" stroke="#555555" points="2.5,-399.5 158.5,-399.5 "/>
<text text-anchor="middle" x="80.5" y="-388.3" font-family="Verdana" font-size="9.00" fill="#555555">+ AddressID</text>
<polyline fill="none" stroke="#555555" points="2.5,-381.5 158.5,-381.5 "/>
<text text-anchor="middle" x="80.5" y="-370.3" font-family="Verdana" font-size="9.00" fill="#555555">+ AddressTypeID</text>
<polyline fill="none" stroke="#555555" points="2.5,-363.5 158.5,-363.5 "/>
<text text-anchor="middle" x="80.5" y="-352.3" font-family="Verdana" font-size="9.00" fill="#555555">rowguid</text>
<polyline fill="none" stroke="#555555" points="2.5,-345.5 158.5,-345.5 "/>
<text text-anchor="middle" x="80.5" y="-334.3" font-family="Verdana" font-size="9.00" fill="#555555">ModifiedDate</text>
</g>
<!-- struct3 -->
<g id="node4" class="node"><title>struct3</title>
<polygon fill="#f7f7f9" stroke="#555555" points="20,-454.5 20,-526.5 141,-526.5 141,-454.5 20,-454.5"/>
<text text-anchor="middle" x="80.5" y="-515.3" font-family="Verdana" font-size="9.00" fill="#555555">Table: CountryRegion</text>
<polyline fill="none" stroke="#555555" points="20,-508.5 141,-508.5 "/>
<text text-anchor="middle" x="80.5" y="-497.3" font-family="Verdana" font-size="9.00" fill="#555555">CountryRegionCode +</text>
<polyline fill="none" stroke="#555555" points="20,-490.5 141,-490.5 "/>
<text text-anchor="middle" x="80.5" y="-479.3" font-family="Verdana" font-size="9.00" fill="#555555">Name</text>
<polyline fill="none" stroke="#555555" points="20,-472.5 141,-472.5 "/>
<text text-anchor="middle" x="80.5" y="-461.3" font-family="Verdana" font-size="9.00" fill="#555555">ModifiedDate</text>
</g>
<!-- struct4 -->
<g id="node5" class="node"><title>struct4</title>
<polygon fill="#f7f7f9" stroke="#555555" points="15,-545.5 15,-707.5 146,-707.5 146,-545.5 15,-545.5"/>
<text text-anchor="middle" x="80.5" y="-696.3" font-family="Verdana" font-size="9.00" fill="#555555">Table: StateProvince</text>
<polyline fill="none" stroke="#555555" points="15,-689.5 146,-689.5 "/>
<text text-anchor="middle" x="80.5" y="-678.3" font-family="Verdana" font-size="9.00" fill="#555555">StateProvinceID +</text>
<polyline fill="none" stroke="#555555" points="15,-671.5 146,-671.5 "/>
<text text-anchor="middle" x="80.5" y="-660.3" font-family="Verdana" font-size="9.00" fill="#555555">StateProvinceCode</text>
<polyline fill="none" stroke="#555555" points="15,-653.5 146,-653.5 "/>
<text text-anchor="middle" x="80.5" y="-642.3" font-family="Verdana" font-size="9.00" fill="#555555">+ CountryRegionCode</text>
<polyline fill="none" stroke="#555555" points="15,-635.5 146,-635.5 "/>
<text text-anchor="middle" x="80.5" y="-624.3" font-family="Verdana" font-size="9.00" fill="#555555">IsOnlyStateProvinceFlag</text>
<polyline fill="none" stroke="#555555" points="15,-617.5 146,-617.5 "/>
<text text-anchor="middle" x="80.5" y="-606.3" font-family="Verdana" font-size="9.00" fill="#555555">Name</text>
<polyline fill="none" stroke="#555555" points="15,-599.5 146,-599.5 "/>
<text text-anchor="middle" x="80.5" y="-588.3" font-family="Verdana" font-size="9.00" fill="#555555">+ TerritoryID</text>
<polyline fill="none" stroke="#555555" points="15,-581.5 146,-581.5 "/>
<text text-anchor="middle" x="80.5" y="-570.3" font-family="Verdana" font-size="9.00" fill="#555555">rowguid</text>
<polyline fill="none" stroke="#555555" points="15,-563.5 146,-563.5 "/>
<text text-anchor="middle" x="80.5" y="-552.3" font-family="Verdana" font-size="9.00" fill="#555555">ModifiedDate</text>
</g>
<!-- struct5 -->
<g id="node6" class="node"><title>struct5</title>
<polygon fill="#f7f7f9" stroke="#555555" points="9.5,-726.5 9.5,-888.5 151.5,-888.5 151.5,-726.5 9.5,-726.5"/>
<text text-anchor="middle" x="80.5" y="-877.3" font-family="Verdana" font-size="9.00" fill="#555555">Table: Vendor</text>
<polyline fill="none" stroke="#555555" points="9.5,-870.5 151.5,-870.5 "/>
<text text-anchor="middle" x="80.5" y="-859.3" font-family="Verdana" font-size="9.00" fill="#555555">BusinessEntityID +</text>
<polyline fill="none" stroke="#555555" points="9.5,-852.5 151.5,-852.5 "/>
<text text-anchor="middle" x="80.5" y="-841.3" font-family="Verdana" font-size="9.00" fill="#555555">AccountNumber</text>
<polyline fill="none" stroke="#555555" points="9.5,-834.5 151.5,-834.5 "/>
<text text-anchor="middle" x="80.5" y="-823.3" font-family="Verdana" font-size="9.00" fill="#555555">Name</text>
<polyline fill="none" stroke="#555555" points="9.5,-816.5 151.5,-816.5 "/>
<text text-anchor="middle" x="80.5" y="-805.3" font-family="Verdana" font-size="9.00" fill="#555555">CreditRating</text>
<polyline fill="none" stroke="#555555" points="9.5,-798.5 151.5,-798.5 "/>
<text text-anchor="middle" x="80.5" y="-787.3" font-family="Verdana" font-size="9.00" fill="#555555">PreferredVendorStatus</text>
<polyline fill="none" stroke="#555555" points="9.5,-780.5 151.5,-780.5 "/>
<text text-anchor="middle" x="80.5" y="-769.3" font-family="Verdana" font-size="9.00" fill="#555555">ActiveFlag</text>
<polyline fill="none" stroke="#555555" points="9.5,-762.5 151.5,-762.5 "/>
<text text-anchor="middle" x="80.5" y="-751.3" font-family="Verdana" font-size="9.00" fill="#555555">PurchasingWebServiceURL</text>
<polyline fill="none" stroke="#555555" points="9.5,-744.5 151.5,-744.5 "/>
<text text-anchor="middle" x="80.5" y="-733.3" font-family="Verdana" font-size="9.00" fill="#555555">ModifiedDate</text>
</g>
</g>
</svg>
