<?xml version="1.0" encoding="UTF-8" standalone="no"?>
<!DOCTYPE svg PUBLIC "-//W3C//DTD SVG 1.1//EN"
 "http://www.w3.org/Graphics/SVG/1.1/DTD/svg11.dtd">
<!-- Generated by graphviz version 2.38.0 (20140413.2041)
 -->
<!-- Title: g Pages: 1 -->
<svg width="164pt" height="1530pt"
 viewBox="0.00 0.00 164.00 1530.00" xmlns="http://www.w3.org/2000/svg" xmlns:xlink="http://www.w3.org/1999/xlink">
<g id="graph0" class="graph" transform="scale(1 1) rotate(0) translate(4 1526)">
<title>g</title>
<polygon fill="white" stroke="none" points="-4,4 -4,-1526 160,-1526 160,4 -4,4"/>
<text text-anchor="middle" x="78" y="-7" font-family="Verdana" font-size="10.00">View: vEmployee</text>
<!-- struct0 -->
<g id="node1" class="node"><title>struct0</title>
<polygon fill="#f7f7f9" stroke="#555555" points="27,-19.5 27,-199.5 129,-199.5 129,-19.5 27,-19.5"/>
<text text-anchor="middle" x="78" y="-188.3" font-family="Verdana" font-size="9.00" fill="#555555">Table: Address</text>
<polyline fill="none" stroke="#555555" points="27,-181.5 129,-181.5 "/>
<text text-anchor="middle" x="78" y="-170.3" font-family="Verdana" font-size="9.00" fill="#555555">AddressID +</text>
<polyline fill="none" stroke="#555555" points="27,-163.5 129,-163.5 "/>
<text text-anchor="middle" x="78" y="-152.3" font-family="Verdana" font-size="9.00" fill="#555555">AddressLine1</text>
<polyline fill="none" stroke="#555555" points="27,-145.5 129,-145.5 "/>
<text text-anchor="middle" x="78" y="-134.3" font-family="Verdana" font-size="9.00" fill="#555555">AddressLine2</text>
<polyline fill="none" stroke="#555555" points="27,-127.5 129,-127.5 "/>
<text text-anchor="middle" x="78" y="-116.3" font-family="Verdana" font-size="9.00" fill="#555555">City</text>
<polyline fill="none" stroke="#555555" points="27,-109.5 129,-109.5 "/>
<text text-anchor="middle" x="78" y="-98.3" font-family="Verdana" font-size="9.00" fill="#555555">+ StateProvinceID</text>
<polyline fill="none" stroke="#555555" points="27,-91.5 129,-91.5 "/>
<text text-anchor="middle" x="78" y="-80.3" font-family="Verdana" font-size="9.00" fill="#555555">PostalCode</text>
<polyline fill="none" stroke="#555555" points="27,-73.5 129,-73.5 "/>
<text text-anchor="middle" x="78" y="-62.3" font-family="Verdana" font-size="9.00" fill="#555555">SpatialLocation</text>
<polyline fill="none" stroke="#555555" points="27,-55.5 129,-55.5 "/>
<text text-anchor="middle" x="78" y="-44.3" font-family="Verdana" font-size="9.00" fill="#555555">rowguid</text>
<polyline fill="none" stroke="#555555" points="27,-37.5 129,-37.5 "/>
<text text-anchor="middle" x="78" y="-26.3" font-family="Verdana" font-size="9.00" fill="#555555">ModifiedDate</text>
</g>
<!-- struct1 -->
<g id="node2" class="node"><title>struct1</title>
<polygon fill="#f7f7f9" stroke="#555555" points="0,-218.5 0,-326.5 156,-326.5 156,-218.5 0,-218.5"/>
<text text-anchor="middle" x="78" y="-315.3" font-family="Verdana" font-size="9.00" fill="#555555">Table: BusinessEntityAddress</text>
<polyline fill="none" stroke="#555555" points="0,-308.5 156,-308.5 "/>
<text text-anchor="middle" x="78" y="-297.3" font-family="Verdana" font-size="9.00" fill="#555555">+ BusinessEntityID</text>
<polyline fill="none" stroke="#555555" points="0,-290.5 156,-290.5 "/>
<text text-anchor="middle" x="78" y="-279.3" font-family="Verdana" font-size="9.00" fill="#555555">+ AddressID</text>
<polyline fill="none" stroke="#555555" points="0,-272.5 156,-272.5 "/>
<text text-anchor="middle" x="78" y="-261.3" font-family="Verdana" font-size="9.00" fill="#555555">+ AddressTypeID</text>
<polyline fill="none" stroke="#555555" points="0,-254.5 156,-254.5 "/>
<text text-anchor="middle" x="78" y="-243.3" font-family="Verdana" font-size="9.00" fill="#555555">rowguid</text>
<polyline fill="none" stroke="#555555" points="0,-236.5 156,-236.5 "/>
<text text-anchor="middle" x="78" y="-225.3" font-family="Verdana" font-size="9.00" fill="#555555">ModifiedDate</text>
</g>
<!-- struct2 -->
<g id="node3" class="node"><title>struct2</title>
<polygon fill="#f7f7f9" stroke="#555555" points="17.5,-345.5 17.5,-417.5 138.5,-417.5 138.5,-345.5 17.5,-345.5"/>
<text text-anchor="middle" x="78" y="-406.3" font-family="Verdana" font-size="9.00" fill="#555555">Table: CountryRegion</text>
<polyline fill="none" stroke="#555555" points="17.5,-399.5 138.5,-399.5 "/>
<text text-anchor="middle" x="78" y="-388.3" font-family="Verdana" font-size="9.00" fill="#555555">CountryRegionCode +</text>
<polyline fill="none" stroke="#555555" points="17.5,-381.5 138.5,-381.5 "/>
<text text-anchor="middle" x="78" y="-370.3" font-family="Verdana" font-size="9.00" fill="#555555">Name</text>
<polyline fill="none" stroke="#555555" points="17.5,-363.5 138.5,-363.5 "/>
<text text-anchor="middle" x="78" y="-352.3" font-family="Verdana" font-size="9.00" fill="#555555">ModifiedDate</text>
</g>
<!-- struct3 -->
<g id="node4" class="node"><title>struct3</title>
<polygon fill="#f7f7f9" stroke="#555555" points="22,-436.5 22,-544.5 134,-544.5 134,-436.5 22,-436.5"/>
<text text-anchor="middle" x="78" y="-533.3" font-family="Verdana" font-size="9.00" fill="#555555">Table: EmailAddress</text>
<polyline fill="none" stroke="#555555" points="22,-526.5 134,-526.5 "/>
<text text-anchor="middle" x="78" y="-515.3" font-family="Verdana" font-size="9.00" fill="#555555">+ BusinessEntityID</text>
<polyline fill="none" stroke="#555555" points="22,-508.5 134,-508.5 "/>
<text text-anchor="middle" x="78" y="-497.3" font-family="Verdana" font-size="9.00" fill="#555555">EmailAddressID</text>
<polyline fill="none" stroke="#555555" points="22,-490.5 134,-490.5 "/>
<text text-anchor="middle" x="78" y="-479.3" font-family="Verdana" font-size="9.00" fill="#555555">EmailAddress</text>
<polyline fill="none" stroke="#555555" points="22,-472.5 134,-472.5 "/>
<text text-anchor="middle" x="78" y="-461.3" font-family="Verdana" font-size="9.00" fill="#555555">rowguid</text>
<polyline fill="none" stroke="#555555" points="22,-454.5 134,-454.5 "/>
<text text-anchor="middle" x="78" y="-443.3" font-family="Verdana" font-size="9.00" fill="#555555">ModifiedDate</text>
</g>
<!-- struct4 -->
<g id="node5" class="node"><title>struct4</title>
<polygon fill="#f7f7f9" stroke="#555555" points="25,-563.5 25,-869.5 131,-869.5 131,-563.5 25,-563.5"/>
<text text-anchor="middle" x="78" y="-858.3" font-family="Verdana" font-size="9.00" fill="#555555">Table: Employee</text>
<polyline fill="none" stroke="#555555" points="25,-851.5 131,-851.5 "/>
<text text-anchor="middle" x="78" y="-840.3" font-family="Verdana" font-size="9.00" fill="#555555">BusinessEntityID +</text>
<polyline fill="none" stroke="#555555" points="25,-833.5 131,-833.5 "/>
<text text-anchor="middle" x="78" y="-822.3" font-family="Verdana" font-size="9.00" fill="#555555">NationalIDNumber</text>
<polyline fill="none" stroke="#555555" points="25,-815.5 131,-815.5 "/>
<text text-anchor="middle" x="78" y="-804.3" font-family="Verdana" font-size="9.00" fill="#555555">LoginID</text>
<polyline fill="none" stroke="#555555" points="25,-797.5 131,-797.5 "/>
<text text-anchor="middle" x="78" y="-786.3" font-family="Verdana" font-size="9.00" fill="#555555">OrganizationNode</text>
<polyline fill="none" stroke="#555555" points="25,-779.5 131,-779.5 "/>
<text text-anchor="middle" x="78" y="-768.3" font-family="Verdana" font-size="9.00" fill="#555555">OrganizationLevel</text>
<polyline fill="none" stroke="#555555" points="25,-761.5 131,-761.5 "/>
<text text-anchor="middle" x="78" y="-750.3" font-family="Verdana" font-size="9.00" fill="#555555">JobTitle</text>
<polyline fill="none" stroke="#555555" points="25,-743.5 131,-743.5 "/>
<text text-anchor="middle" x="78" y="-732.3" font-family="Verdana" font-size="9.00" fill="#555555">BirthDate</text>
<polyline fill="none" stroke="#555555" points="25,-725.5 131,-725.5 "/>
<text text-anchor="middle" x="78" y="-714.3" font-family="Verdana" font-size="9.00" fill="#555555">MaritalStatus</text>
<polyline fill="none" stroke="#555555" points="25,-707.5 131,-707.5 "/>
<text text-anchor="middle" x="78" y="-696.3" font-family="Verdana" font-size="9.00" fill="#555555">Gender</text>
<polyline fill="none" stroke="#555555" points="25,-689.5 131,-689.5 "/>
<text text-anchor="middle" x="78" y="-678.3" font-family="Verdana" font-size="9.00" fill="#555555">HireDate</text>
<polyline fill="none" stroke="#555555" points="25,-671.5 131,-671.5 "/>
<text text-anchor="middle" x="78" y="-660.3" font-family="Verdana" font-size="9.00" fill="#555555">SalariedFlag</text>
<polyline fill="none" stroke="#555555" points="25,-653.5 131,-653.5 "/>
<text text-anchor="middle" x="78" y="-642.3" font-family="Verdana" font-size="9.00" fill="#555555">VacationHours</text>
<polyline fill="none" stroke="#555555" points="25,-635.5 131,-635.5 "/>
<text text-anchor="middle" x="78" y="-624.3" font-family="Verdana" font-size="9.00" fill="#555555">SickLeaveHours</text>
<polyline fill="none" stroke="#555555" points="25,-617.5 131,-617.5 "/>
<text text-anchor="middle" x="78" y="-606.3" font-family="Verdana" font-size="9.00" fill="#555555">CurrentFlag</text>
<polyline fill="none" stroke="#555555" points="25,-599.5 131,-599.5 "/>
<text text-anchor="middle" x="78" y="-588.3" font-family="Verdana" font-size="9.00" fill="#555555">rowguid</text>
<polyline fill="none" stroke="#555555" points="25,-581.5 131,-581.5 "/>
<text text-anchor="middle" x="78" y="-570.3" font-family="Verdana" font-size="9.00" fill="#555555">ModifiedDate</text>
</g>
<!-- struct5 -->
<g id="node6" class="node"><title>struct5</title>
<polygon fill="#f7f7f9" stroke="#555555" points="18.5,-888.5 18.5,-1140.5 137.5,-1140.5 137.5,-888.5 18.5,-888.5"/>
<text text-anchor="middle" x="78" y="-1129.3" font-family="Verdana" font-size="9.00" fill="#555555">Table: Person</text>
<polyline fill="none" stroke="#555555" points="18.5,-1122.5 137.5,-1122.5 "/>
<text text-anchor="middle" x="78" y="-1111.3" font-family="Verdana" font-size="9.00" fill="#555555">BusinessEntityID +</text>
<polyline fill="none" stroke="#555555" points="18.5,-1104.5 137.5,-1104.5 "/>
<text text-anchor="middle" x="78" y="-1093.3" font-family="Verdana" font-size="9.00" fill="#555555">PersonType</text>
<polyline fill="none" stroke="#555555" points="18.5,-1086.5 137.5,-1086.5 "/>
<text text-anchor="middle" x="78" y="-1075.3" font-family="Verdana" font-size="9.00" fill="#555555">NameStyle</text>
<polyline fill="none" stroke="#555555" points="18.5,-1068.5 137.5,-1068.5 "/>
<text text-anchor="middle" x="78" y="-1057.3" font-family="Verdana" font-size="9.00" fill="#555555">Title</text>
<polyline fill="none" stroke="#555555" points="18.5,-1050.5 137.5,-1050.5 "/>
<text text-anchor="middle" x="78" y="-1039.3" font-family="Verdana" font-size="9.00" fill="#555555">FirstName</text>
<polyline fill="none" stroke="#555555" points="18.5,-1032.5 137.5,-1032.5 "/>
<text text-anchor="middle" x="78" y="-1021.3" font-family="Verdana" font-size="9.00" fill="#555555">MiddleName</text>
<polyline fill="none" stroke="#555555" points="18.5,-1014.5 137.5,-1014.5 "/>
<text text-anchor="middle" x="78" y="-1003.3" font-family="Verdana" font-size="9.00" fill="#555555">LastName</text>
<polyline fill="none" stroke="#555555" points="18.5,-996.5 137.5,-996.5 "/>
<text text-anchor="middle" x="78" y="-985.3" font-family="Verdana" font-size="9.00" fill="#555555">Suffix</text>
<polyline fill="none" stroke="#555555" points="18.5,-978.5 137.5,-978.5 "/>
<text text-anchor="middle" x="78" y="-967.3" font-family="Verdana" font-size="9.00" fill="#555555">EmailPromotion</text>
<polyline fill="none" stroke="#555555" points="18.5,-960.5 137.5,-960.5 "/>
<text text-anchor="middle" x="78" y="-949.3" font-family="Verdana" font-size="9.00" fill="#555555">AdditionalContactInfo</text>
<polyline fill="none" stroke="#555555" points="18.5,-942.5 137.5,-942.5 "/>
<text text-anchor="middle" x="78" y="-931.3" font-family="Verdana" font-size="9.00" fill="#555555">Demographics</text>
<polyline fill="none" stroke="#555555" points="18.5,-924.5 137.5,-924.5 "/>
<text text-anchor="middle" x="78" y="-913.3" font-family="Verdana" font-size="9.00" fill="#555555">rowguid</text>
<polyline fill="none" stroke="#555555" points="18.5,-906.5 137.5,-906.5 "/>
<text text-anchor="middle" x="78" y="-895.3" font-family="Verdana" font-size="9.00" fill="#555555">ModifiedDate</text>
</g>
<!-- struct6 -->
<g id="node7" class="node"><title>struct6</title>
<polygon fill="#f7f7f9" stroke="#555555" points="15,-1159.5 15,-1249.5 141,-1249.5 141,-1159.5 15,-1159.5"/>
<text text-anchor="middle" x="78" y="-1238.3" font-family="Verdana" font-size="9.00" fill="#555555">Table: PersonPhone</text>
<polyline fill="none" stroke="#555555" points="15,-1231.5 141,-1231.5 "/>
<text text-anchor="middle" x="78" y="-1220.3" font-family="Verdana" font-size="9.00" fill="#555555">+ BusinessEntityID</text>
<polyline fill="none" stroke="#555555" points="15,-1213.5 141,-1213.5 "/>
<text text-anchor="middle" x="78" y="-1202.3" font-family="Verdana" font-size="9.00" fill="#555555">PhoneNumber</text>
<polyline fill="none" stroke="#555555" points="15,-1195.5 141,-1195.5 "/>
<text text-anchor="middle" x="78" y="-1184.3" font-family="Verdana" font-size="9.00" fill="#555555">+ PhoneNumberTypeID</text>
<polyline fill="none" stroke="#555555" points="15,-1177.5 141,-1177.5 "/>
<text text-anchor="middle" x="78" y="-1166.3" font-family="Verdana" font-size="9.00" fill="#555555">ModifiedDate</text>
</g>
<!-- struct7 -->
<g id="node8" class="node"><title>struct7</title>
<polygon fill="#f7f7f9" stroke="#555555" points="9,-1268.5 9,-1340.5 147,-1340.5 147,-1268.5 9,-1268.5"/>
<text text-anchor="middle" x="78" y="-1329.3" font-family="Verdana" font-size="9.00" fill="#555555">Table: PhoneNumberType</text>
<polyline fill="none" stroke="#555555" points="9,-1322.5 147,-1322.5 "/>
<text text-anchor="middle" x="78" y="-1311.3" font-family="Verdana" font-size="9.00" fill="#555555">PhoneNumberTypeID +</text>
<polyline fill="none" stroke="#555555" points="9,-1304.5 147,-1304.5 "/>
<text text-anchor="middle" x="78" y="-1293.3" font-family="Verdana" font-size="9.00" fill="#555555">Name</text>
<polyline fill="none" stroke="#555555" points="9,-1286.5 147,-1286.5 "/>
<text text-anchor="middle" x="78" y="-1275.3" font-family="Verdana" font-size="9.00" fill="#555555">ModifiedDate</text>
</g>
<!-- struct8 -->
<g id="node9" class="node"><title>struct8</title>
<polygon fill="#f7f7f9" stroke="#555555" points="12.5,-1359.5 12.5,-1521.5 143.5,-1521.5 143.5,-1359.5 12.5,-1359.5"/>
<text text-anchor="middle" x="78" y="-1510.3" font-family="Verdana" font-size="9.00" fill="#555555">Table: StateProvince</text>
<polyline fill="none" stroke="#555555" points="12.5,-1503.5 143.5,-1503.5 "/>
<text text-anchor="middle" x="78" y="-1492.3" font-family="Verdana" font-size="9.00" fill="#555555">StateProvinceID +</text>
<polyline fill="none" stroke="#555555" points="12.5,-1485.5 143.5,-1485.5 "/>
<text text-anchor="middle" x="78" y="-1474.3" font-family="Verdana" font-size="9.00" fill="#555555">StateProvinceCode</text>
<polyline fill="none" stroke="#555555" points="12.5,-1467.5 143.5,-1467.5 "/>
<text text-anchor="middle" x="78" y="-1456.3" font-family="Verdana" font-size="9.00" fill="#555555">+ CountryRegionCode</text>
<polyline fill="none" stroke="#555555" points="12.5,-1449.5 143.5,-1449.5 "/>
<text text-anchor="middle" x="78" y="-1438.3" font-family="Verdana" font-size="9.00" fill="#555555">IsOnlyStateProvinceFlag</text>
<polyline fill="none" stroke="#555555" points="12.5,-1431.5 143.5,-1431.5 "/>
<text text-anchor="middle" x="78" y="-1420.3" font-family="Verdana" font-size="9.00" fill="#555555">Name</text>
<polyline fill="none" stroke="#555555" points="12.5,-1413.5 143.5,-1413.5 "/>
<text text-anchor="middle" x="78" y="-1402.3" font-family="Verdana" font-size="9.00" fill="#555555">+ TerritoryID</text>
<polyline fill="none" stroke="#555555" points="12.5,-1395.5 143.5,-1395.5 "/>
<text text-anchor="middle" x="78" y="-1384.3" font-family="Verdana" font-size="9.00" fill="#555555">rowguid</text>
<polyline fill="none" stroke="#555555" points="12.5,-1377.5 143.5,-1377.5 "/>
<text text-anchor="middle" x="78" y="-1366.3" font-family="Verdana" font-size="9.00" fill="#555555">ModifiedDate</text>
</g>
</g>
</svg>
