<?xml version="1.0" encoding="UTF-8" standalone="no"?>
<!DOCTYPE svg PUBLIC "-//W3C//DTD SVG 1.1//EN"
 "http://www.w3.org/Graphics/SVG/1.1/DTD/svg11.dtd">
<!-- Generated by graphviz version 2.38.0 (20140413.2041)
 -->
<!-- Title: g Pages: 1 -->
<svg width="221pt" height="154pt"
 viewBox="0.00 0.00 221.00 154.00" xmlns="http://www.w3.org/2000/svg" xmlns:xlink="http://www.w3.org/1999/xlink">
<g id="graph0" class="graph" transform="scale(1 1) rotate(0) translate(4 150)">
<title>g</title>
<polygon fill="white" stroke="none" points="-4,4 -4,-150 217,-150 217,4 -4,4"/>
<text text-anchor="middle" x="106.5" y="-7" font-family="Verdana" font-size="10.00">View: vProductModelCatalogDescription</text>
<!-- struct0 -->
<g id="node1" class="node"><title>struct0</title>
<polygon fill="#f7f7f9" stroke="#555555" points="50,-19.5 50,-145.5 163,-145.5 163,-19.5 50,-19.5"/>
<text text-anchor="middle" x="106.5" y="-134.3" font-family="Verdana" font-size="9.00" fill="#555555">Table: ProductModel</text>
<polyline fill="none" stroke="#555555" points="50,-127.5 163,-127.5 "/>
<text text-anchor="middle" x="106.5" y="-116.3" font-family="Verdana" font-size="9.00" fill="#555555">ProductModelID +</text>
<polyline fill="none" stroke="#555555" points="50,-109.5 163,-109.5 "/>
<text text-anchor="middle" x="106.5" y="-98.3" font-family="Verdana" font-size="9.00" fill="#555555">Name</text>
<polyline fill="none" stroke="#555555" points="50,-91.5 163,-91.5 "/>
<text text-anchor="middle" x="106.5" y="-80.3" font-family="Verdana" font-size="9.00" fill="#555555">CatalogDescription</text>
<polyline fill="none" stroke="#555555" points="50,-73.5 163,-73.5 "/>
<text text-anchor="middle" x="106.5" y="-62.3" font-family="Verdana" font-size="9.00" fill="#555555">Instructions</text>
<polyline fill="none" stroke="#555555" points="50,-55.5 163,-55.5 "/>
<text text-anchor="middle" x="106.5" y="-44.3" font-family="Verdana" font-size="9.00" fill="#555555">rowguid</text>
<polyline fill="none" stroke="#555555" points="50,-37.5 163,-37.5 "/>
<text text-anchor="middle" x="106.5" y="-26.3" font-family="Verdana" font-size="9.00" fill="#555555">ModifiedDate</text>
</g>
</g>
</svg>
