<?xml version="1.0" encoding="UTF-8" standalone="no"?>
<!DOCTYPE svg PUBLIC "-//W3C//DTD SVG 1.1//EN"
 "http://www.w3.org/Graphics/SVG/1.1/DTD/svg11.dtd">
<!-- Generated by graphviz version 2.38.0 (20140413.2041)
 -->
<!-- Title: g Pages: 1 -->
<svg width="163pt" height="280pt"
 viewBox="0.00 0.00 163.00 280.00" xmlns="http://www.w3.org/2000/svg" xmlns:xlink="http://www.w3.org/1999/xlink">
<g id="graph0" class="graph" transform="scale(1 1) rotate(0) translate(4 276)">
<title>g</title>
<polygon fill="white" stroke="none" points="-4,4 -4,-276 159,-276 159,4 -4,4"/>
<text text-anchor="middle" x="77.5" y="-7" font-family="Verdana" font-size="10.00">View: vPersonDemographics</text>
<!-- struct0 -->
<g id="node1" class="node"><title>struct0</title>
<polygon fill="#f7f7f9" stroke="#555555" points="18,-19.5 18,-271.5 137,-271.5 137,-19.5 18,-19.5"/>
<text text-anchor="middle" x="77.5" y="-260.3" font-family="Verdana" font-size="9.00" fill="#555555">Table: Person</text>
<polyline fill="none" stroke="#555555" points="18,-253.5 137,-253.5 "/>
<text text-anchor="middle" x="77.5" y="-242.3" font-family="Verdana" font-size="9.00" fill="#555555">BusinessEntityID +</text>
<polyline fill="none" stroke="#555555" points="18,-235.5 137,-235.5 "/>
<text text-anchor="middle" x="77.5" y="-224.3" font-family="Verdana" font-size="9.00" fill="#555555">PersonType</text>
<polyline fill="none" stroke="#555555" points="18,-217.5 137,-217.5 "/>
<text text-anchor="middle" x="77.5" y="-206.3" font-family="Verdana" font-size="9.00" fill="#555555">NameStyle</text>
<polyline fill="none" stroke="#555555" points="18,-199.5 137,-199.5 "/>
<text text-anchor="middle" x="77.5" y="-188.3" font-family="Verdana" font-size="9.00" fill="#555555">Title</text>
<polyline fill="none" stroke="#555555" points="18,-181.5 137,-181.5 "/>
<text text-anchor="middle" x="77.5" y="-170.3" font-family="Verdana" font-size="9.00" fill="#555555">FirstName</text>
<polyline fill="none" stroke="#555555" points="18,-163.5 137,-163.5 "/>
<text text-anchor="middle" x="77.5" y="-152.3" font-family="Verdana" font-size="9.00" fill="#555555">MiddleName</text>
<polyline fill="none" stroke="#555555" points="18,-145.5 137,-145.5 "/>
<text text-anchor="middle" x="77.5" y="-134.3" font-family="Verdana" font-size="9.00" fill="#555555">LastName</text>
<polyline fill="none" stroke="#555555" points="18,-127.5 137,-127.5 "/>
<text text-anchor="middle" x="77.5" y="-116.3" font-family="Verdana" font-size="9.00" fill="#555555">Suffix</text>
<polyline fill="none" stroke="#555555" points="18,-109.5 137,-109.5 "/>
<text text-anchor="middle" x="77.5" y="-98.3" font-family="Verdana" font-size="9.00" fill="#555555">EmailPromotion</text>
<polyline fill="none" stroke="#555555" points="18,-91.5 137,-91.5 "/>
<text text-anchor="middle" x="77.5" y="-80.3" font-family="Verdana" font-size="9.00" fill="#555555">AdditionalContactInfo</text>
<polyline fill="none" stroke="#555555" points="18,-73.5 137,-73.5 "/>
<text text-anchor="middle" x="77.5" y="-62.3" font-family="Verdana" font-size="9.00" fill="#555555">Demographics</text>
<polyline fill="none" stroke="#555555" points="18,-55.5 137,-55.5 "/>
<text text-anchor="middle" x="77.5" y="-44.3" font-family="Verdana" font-size="9.00" fill="#555555">rowguid</text>
<polyline fill="none" stroke="#555555" points="18,-37.5 137,-37.5 "/>
<text text-anchor="middle" x="77.5" y="-26.3" font-family="Verdana" font-size="9.00" fill="#555555">ModifiedDate</text>
</g>
</g>
</svg>
