<?xml version="1.0" encoding="UTF-8" standalone="no"?>
<!DOCTYPE svg PUBLIC "-//W3C//DTD SVG 1.1//EN"
 "http://www.w3.org/Graphics/SVG/1.1/DTD/svg11.dtd">
<!-- Generated by graphviz version 2.38.0 (20140413.2041)
 -->
<!-- Title: g Pages: 1 -->
<svg width="244pt" height="859pt"
 viewBox="0.00 0.00 244.00 859.00" xmlns="http://www.w3.org/2000/svg" xmlns:xlink="http://www.w3.org/1999/xlink">
<g id="graph0" class="graph" transform="scale(1 1) rotate(0) translate(4 855)">
<title>g</title>
<polygon fill="white" stroke="none" points="-4,4 -4,-855 240,-855 240,4 -4,4"/>
<text text-anchor="middle" x="118" y="-7" font-family="Verdana" font-size="10.00">View: vProductAndDescription</text>
<!-- struct0 -->
<g id="node1" class="node"><title>struct0</title>
<polygon fill="#f7f7f9" stroke="#555555" points="46,-19.5 46,-487.5 190,-487.5 190,-19.5 46,-19.5"/>
<text text-anchor="middle" x="118" y="-476.3" font-family="Verdana" font-size="9.00" fill="#555555">Table: Product</text>
<polyline fill="none" stroke="#555555" points="46,-469.5 190,-469.5 "/>
<text text-anchor="middle" x="118" y="-458.3" font-family="Verdana" font-size="9.00" fill="#555555">ProductID +</text>
<polyline fill="none" stroke="#555555" points="46,-451.5 190,-451.5 "/>
<text text-anchor="middle" x="118" y="-440.3" font-family="Verdana" font-size="9.00" fill="#555555">Name</text>
<polyline fill="none" stroke="#555555" points="46,-433.5 190,-433.5 "/>
<text text-anchor="middle" x="118" y="-422.3" font-family="Verdana" font-size="9.00" fill="#555555">ProductNumber</text>
<polyline fill="none" stroke="#555555" points="46,-415.5 190,-415.5 "/>
<text text-anchor="middle" x="118" y="-404.3" font-family="Verdana" font-size="9.00" fill="#555555">MakeFlag</text>
<polyline fill="none" stroke="#555555" points="46,-397.5 190,-397.5 "/>
<text text-anchor="middle" x="118" y="-386.3" font-family="Verdana" font-size="9.00" fill="#555555">FinishedGoodsFlag</text>
<polyline fill="none" stroke="#555555" points="46,-379.5 190,-379.5 "/>
<text text-anchor="middle" x="118" y="-368.3" font-family="Verdana" font-size="9.00" fill="#555555">Color</text>
<polyline fill="none" stroke="#555555" points="46,-361.5 190,-361.5 "/>
<text text-anchor="middle" x="118" y="-350.3" font-family="Verdana" font-size="9.00" fill="#555555">SafetyStockLevel</text>
<polyline fill="none" stroke="#555555" points="46,-343.5 190,-343.5 "/>
<text text-anchor="middle" x="118" y="-332.3" font-family="Verdana" font-size="9.00" fill="#555555">ReorderPoint</text>
<polyline fill="none" stroke="#555555" points="46,-325.5 190,-325.5 "/>
<text text-anchor="middle" x="118" y="-314.3" font-family="Verdana" font-size="9.00" fill="#555555">StandardCost</text>
<polyline fill="none" stroke="#555555" points="46,-307.5 190,-307.5 "/>
<text text-anchor="middle" x="118" y="-296.3" font-family="Verdana" font-size="9.00" fill="#555555">ListPrice</text>
<polyline fill="none" stroke="#555555" points="46,-289.5 190,-289.5 "/>
<text text-anchor="middle" x="118" y="-278.3" font-family="Verdana" font-size="9.00" fill="#555555">Size</text>
<polyline fill="none" stroke="#555555" points="46,-271.5 190,-271.5 "/>
<text text-anchor="middle" x="118" y="-260.3" font-family="Verdana" font-size="9.00" fill="#555555">+ SizeUnitMeasureCode</text>
<polyline fill="none" stroke="#555555" points="46,-253.5 190,-253.5 "/>
<text text-anchor="middle" x="118" y="-242.3" font-family="Verdana" font-size="9.00" fill="#555555">+ WeightUnitMeasureCode</text>
<polyline fill="none" stroke="#555555" points="46,-235.5 190,-235.5 "/>
<text text-anchor="middle" x="118" y="-224.3" font-family="Verdana" font-size="9.00" fill="#555555">Weight</text>
<polyline fill="none" stroke="#555555" points="46,-217.5 190,-217.5 "/>
<text text-anchor="middle" x="118" y="-206.3" font-family="Verdana" font-size="9.00" fill="#555555">DaysToManufacture</text>
<polyline fill="none" stroke="#555555" points="46,-199.5 190,-199.5 "/>
<text text-anchor="middle" x="118" y="-188.3" font-family="Verdana" font-size="9.00" fill="#555555">ProductLine</text>
<polyline fill="none" stroke="#555555" points="46,-181.5 190,-181.5 "/>
<text text-anchor="middle" x="118" y="-170.3" font-family="Verdana" font-size="9.00" fill="#555555">Class</text>
<polyline fill="none" stroke="#555555" points="46,-163.5 190,-163.5 "/>
<text text-anchor="middle" x="118" y="-152.3" font-family="Verdana" font-size="9.00" fill="#555555">Style</text>
<polyline fill="none" stroke="#555555" points="46,-145.5 190,-145.5 "/>
<text text-anchor="middle" x="118" y="-134.3" font-family="Verdana" font-size="9.00" fill="#555555">+ ProductSubcategoryID</text>
<polyline fill="none" stroke="#555555" points="46,-127.5 190,-127.5 "/>
<text text-anchor="middle" x="118" y="-116.3" font-family="Verdana" font-size="9.00" fill="#555555">+ ProductModelID</text>
<polyline fill="none" stroke="#555555" points="46,-109.5 190,-109.5 "/>
<text text-anchor="middle" x="118" y="-98.3" font-family="Verdana" font-size="9.00" fill="#555555">SellStartDate</text>
<polyline fill="none" stroke="#555555" points="46,-91.5 190,-91.5 "/>
<text text-anchor="middle" x="118" y="-80.3" font-family="Verdana" font-size="9.00" fill="#555555">SellEndDate</text>
<polyline fill="none" stroke="#555555" points="46,-73.5 190,-73.5 "/>
<text text-anchor="middle" x="118" y="-62.3" font-family="Verdana" font-size="9.00" fill="#555555">DiscontinuedDate</text>
<polyline fill="none" stroke="#555555" points="46,-55.5 190,-55.5 "/>
<text text-anchor="middle" x="118" y="-44.3" font-family="Verdana" font-size="9.00" fill="#555555">rowguid</text>
<polyline fill="none" stroke="#555555" points="46,-37.5 190,-37.5 "/>
<text text-anchor="middle" x="118" y="-26.3" font-family="Verdana" font-size="9.00" fill="#555555">ModifiedDate</text>
</g>
<!-- struct1 -->
<g id="node2" class="node"><title>struct1</title>
<polygon fill="#f7f7f9" stroke="#555555" points="49.5,-506.5 49.5,-596.5 186.5,-596.5 186.5,-506.5 49.5,-506.5"/>
<text text-anchor="middle" x="118" y="-585.3" font-family="Verdana" font-size="9.00" fill="#555555">Table: ProductDescription</text>
<polyline fill="none" stroke="#555555" points="49.5,-578.5 186.5,-578.5 "/>
<text text-anchor="middle" x="118" y="-567.3" font-family="Verdana" font-size="9.00" fill="#555555">ProductDescriptionID +</text>
<polyline fill="none" stroke="#555555" points="49.5,-560.5 186.5,-560.5 "/>
<text text-anchor="middle" x="118" y="-549.3" font-family="Verdana" font-size="9.00" fill="#555555">Description</text>
<polyline fill="none" stroke="#555555" points="49.5,-542.5 186.5,-542.5 "/>
<text text-anchor="middle" x="118" y="-531.3" font-family="Verdana" font-size="9.00" fill="#555555">rowguid</text>
<polyline fill="none" stroke="#555555" points="49.5,-524.5 186.5,-524.5 "/>
<text text-anchor="middle" x="118" y="-513.3" font-family="Verdana" font-size="9.00" fill="#555555">ModifiedDate</text>
</g>
<!-- struct2 -->
<g id="node3" class="node"><title>struct2</title>
<polygon fill="#f7f7f9" stroke="#555555" points="61.5,-615.5 61.5,-741.5 174.5,-741.5 174.5,-615.5 61.5,-615.5"/>
<text text-anchor="middle" x="118" y="-730.3" font-family="Verdana" font-size="9.00" fill="#555555">Table: ProductModel</text>
<polyline fill="none" stroke="#555555" points="61.5,-723.5 174.5,-723.5 "/>
<text text-anchor="middle" x="118" y="-712.3" font-family="Verdana" font-size="9.00" fill="#555555">ProductModelID +</text>
<polyline fill="none" stroke="#555555" points="61.5,-705.5 174.5,-705.5 "/>
<text text-anchor="middle" x="118" y="-694.3" font-family="Verdana" font-size="9.00" fill="#555555">Name</text>
<polyline fill="none" stroke="#555555" points="61.5,-687.5 174.5,-687.5 "/>
<text text-anchor="middle" x="118" y="-676.3" font-family="Verdana" font-size="9.00" fill="#555555">CatalogDescription</text>
<polyline fill="none" stroke="#555555" points="61.5,-669.5 174.5,-669.5 "/>
<text text-anchor="middle" x="118" y="-658.3" font-family="Verdana" font-size="9.00" fill="#555555">Instructions</text>
<polyline fill="none" stroke="#555555" points="61.5,-651.5 174.5,-651.5 "/>
<text text-anchor="middle" x="118" y="-640.3" font-family="Verdana" font-size="9.00" fill="#555555">rowguid</text>
<polyline fill="none" stroke="#555555" points="61.5,-633.5 174.5,-633.5 "/>
<text text-anchor="middle" x="118" y="-622.3" font-family="Verdana" font-size="9.00" fill="#555555">ModifiedDate</text>
</g>
<!-- struct3 -->
<g id="node4" class="node"><title>struct3</title>
<polygon fill="#f7f7f9" stroke="#555555" points="0,-760.5 0,-850.5 236,-850.5 236,-760.5 0,-760.5"/>
<text text-anchor="middle" x="118" y="-839.3" font-family="Verdana" font-size="9.00" fill="#555555">Table: ProductModelProductDescriptionCulture</text>
<polyline fill="none" stroke="#555555" points="0,-832.5 236,-832.5 "/>
<text text-anchor="middle" x="118" y="-821.3" font-family="Verdana" font-size="9.00" fill="#555555">+ ProductModelID</text>
<polyline fill="none" stroke="#555555" points="0,-814.5 236,-814.5 "/>
<text text-anchor="middle" x="118" y="-803.3" font-family="Verdana" font-size="9.00" fill="#555555">+ ProductDescriptionID</text>
<polyline fill="none" stroke="#555555" points="0,-796.5 236,-796.5 "/>
<text text-anchor="middle" x="118" y="-785.3" font-family="Verdana" font-size="9.00" fill="#555555">+ CultureID</text>
<polyline fill="none" stroke="#555555" points="0,-778.5 236,-778.5 "/>
<text text-anchor="middle" x="118" y="-767.3" font-family="Verdana" font-size="9.00" fill="#555555">ModifiedDate</text>
</g>
</g>
</svg>
