<?xml version="1.0" encoding="UTF-8" standalone="no"?>
<!DOCTYPE svg PUBLIC "-//W3C//DTD SVG 1.1//EN"
 "http://www.w3.org/Graphics/SVG/1.1/DTD/svg11.dtd">
<!-- Generated by graphviz version 2.38.0 (20140413.2041)
 -->
<!-- Title: g Pages: 1 -->
<svg width="169pt" height="280pt"
 viewBox="0.00 0.00 169.00 280.00" xmlns="http://www.w3.org/2000/svg" xmlns:xlink="http://www.w3.org/1999/xlink">
<g id="graph0" class="graph" transform="scale(1 1) rotate(0) translate(4 276)">
<title>g</title>
<polygon fill="white" stroke="none" points="-4,4 -4,-276 165,-276 165,4 -4,4"/>
<text text-anchor="middle" x="80.5" y="-7" font-family="Verdana" font-size="10.00">View: vAdditionalContactInfo</text>
<!-- struct0 -->
<g id="node1" class="node"><title>struct0</title>
<polygon fill="#f7f7f9" stroke="#555555" points="21,-19.5 21,-271.5 140,-271.5 140,-19.5 21,-19.5"/>
<text text-anchor="middle" x="80.5" y="-260.3" font-family="Verdana" font-size="9.00" fill="#555555">Table: Person</text>
<polyline fill="none" stroke="#555555" points="21,-253.5 140,-253.5 "/>
<text text-anchor="middle" x="80.5" y="-242.3" font-family="Verdana" font-size="9.00" fill="#555555">BusinessEntityID +</text>
<polyline fill="none" stroke="#555555" points="21,-235.5 140,-235.5 "/>
<text text-anchor="middle" x="80.5" y="-224.3" font-family="Verdana" font-size="9.00" fill="#555555">PersonType</text>
<polyline fill="none" stroke="#555555" points="21,-217.5 140,-217.5 "/>
<text text-anchor="middle" x="80.5" y="-206.3" font-family="Verdana" font-size="9.00" fill="#555555">NameStyle</text>
<polyline fill="none" stroke="#555555" points="21,-199.5 140,-199.5 "/>
<text text-anchor="middle" x="80.5" y="-188.3" font-family="Verdana" font-size="9.00" fill="#555555">Title</text>
<polyline fill="none" stroke="#555555" points="21,-181.5 140,-181.5 "/>
<text text-anchor="middle" x="80.5" y="-170.3" font-family="Verdana" font-size="9.00" fill="#555555">FirstName</text>
<polyline fill="none" stroke="#555555" points="21,-163.5 140,-163.5 "/>
<text text-anchor="middle" x="80.5" y="-152.3" font-family="Verdana" font-size="9.00" fill="#555555">MiddleName</text>
<polyline fill="none" stroke="#555555" points="21,-145.5 140,-145.5 "/>
<text text-anchor="middle" x="80.5" y="-134.3" font-family="Verdana" font-size="9.00" fill="#555555">LastName</text>
<polyline fill="none" stroke="#555555" points="21,-127.5 140,-127.5 "/>
<text text-anchor="middle" x="80.5" y="-116.3" font-family="Verdana" font-size="9.00" fill="#555555">Suffix</text>
<polyline fill="none" stroke="#555555" points="21,-109.5 140,-109.5 "/>
<text text-anchor="middle" x="80.5" y="-98.3" font-family="Verdana" font-size="9.00" fill="#555555">EmailPromotion</text>
<polyline fill="none" stroke="#555555" points="21,-91.5 140,-91.5 "/>
<text text-anchor="middle" x="80.5" y="-80.3" font-family="Verdana" font-size="9.00" fill="#555555">AdditionalContactInfo</text>
<polyline fill="none" stroke="#555555" points="21,-73.5 140,-73.5 "/>
<text text-anchor="middle" x="80.5" y="-62.3" font-family="Verdana" font-size="9.00" fill="#555555">Demographics</text>
<polyline fill="none" stroke="#555555" points="21,-55.5 140,-55.5 "/>
<text text-anchor="middle" x="80.5" y="-44.3" font-family="Verdana" font-size="9.00" fill="#555555">rowguid</text>
<polyline fill="none" stroke="#555555" points="21,-37.5 140,-37.5 "/>
<text text-anchor="middle" x="80.5" y="-26.3" font-family="Verdana" font-size="9.00" fill="#555555">ModifiedDate</text>
</g>
</g>
</svg>
