<?xml version="1.0" encoding="UTF-8" standalone="no"?>
<!DOCTYPE svg PUBLIC "-//W3C//DTD SVG 1.1//EN"
 "http://www.w3.org/Graphics/SVG/1.1/DTD/svg11.dtd">
<!-- Generated by graphviz version 2.38.0 (20140413.2041)
 -->
<!-- Title: g Pages: 1 -->
<svg width="192pt" height="859pt"
 viewBox="0.00 0.00 192.00 859.00" xmlns="http://www.w3.org/2000/svg" xmlns:xlink="http://www.w3.org/1999/xlink">
<g id="graph0" class="graph" transform="scale(1 1) rotate(0) translate(4 855)">
<title>g</title>
<polygon fill="white" stroke="none" points="-4,4 -4,-855 188,-855 188,4 -4,4"/>
<text text-anchor="middle" x="92" y="-7" font-family="Verdana" font-size="10.00">View: vEmployeeDepartment</text>
<!-- struct0 -->
<g id="node1" class="node"><title>struct0</title>
<polygon fill="#f7f7f9" stroke="#555555" points="39.5,-19.5 39.5,-109.5 144.5,-109.5 144.5,-19.5 39.5,-19.5"/>
<text text-anchor="middle" x="92" y="-98.3" font-family="Verdana" font-size="9.00" fill="#555555">Table: Department</text>
<polyline fill="none" stroke="#555555" points="39.5,-91.5 144.5,-91.5 "/>
<text text-anchor="middle" x="92" y="-80.3" font-family="Verdana" font-size="9.00" fill="#555555">DepartmentID +</text>
<polyline fill="none" stroke="#555555" points="39.5,-73.5 144.5,-73.5 "/>
<text text-anchor="middle" x="92" y="-62.3" font-family="Verdana" font-size="9.00" fill="#555555">Name</text>
<polyline fill="none" stroke="#555555" points="39.5,-55.5 144.5,-55.5 "/>
<text text-anchor="middle" x="92" y="-44.3" font-family="Verdana" font-size="9.00" fill="#555555">GroupName</text>
<polyline fill="none" stroke="#555555" points="39.5,-37.5 144.5,-37.5 "/>
<text text-anchor="middle" x="92" y="-26.3" font-family="Verdana" font-size="9.00" fill="#555555">ModifiedDate</text>
</g>
<!-- struct1 -->
<g id="node2" class="node"><title>struct1</title>
<polygon fill="#f7f7f9" stroke="#555555" points="39,-128.5 39,-434.5 145,-434.5 145,-128.5 39,-128.5"/>
<text text-anchor="middle" x="92" y="-423.3" font-family="Verdana" font-size="9.00" fill="#555555">Table: Employee</text>
<polyline fill="none" stroke="#555555" points="39,-416.5 145,-416.5 "/>
<text text-anchor="middle" x="92" y="-405.3" font-family="Verdana" font-size="9.00" fill="#555555">BusinessEntityID +</text>
<polyline fill="none" stroke="#555555" points="39,-398.5 145,-398.5 "/>
<text text-anchor="middle" x="92" y="-387.3" font-family="Verdana" font-size="9.00" fill="#555555">NationalIDNumber</text>
<polyline fill="none" stroke="#555555" points="39,-380.5 145,-380.5 "/>
<text text-anchor="middle" x="92" y="-369.3" font-family="Verdana" font-size="9.00" fill="#555555">LoginID</text>
<polyline fill="none" stroke="#555555" points="39,-362.5 145,-362.5 "/>
<text text-anchor="middle" x="92" y="-351.3" font-family="Verdana" font-size="9.00" fill="#555555">OrganizationNode</text>
<polyline fill="none" stroke="#555555" points="39,-344.5 145,-344.5 "/>
<text text-anchor="middle" x="92" y="-333.3" font-family="Verdana" font-size="9.00" fill="#555555">OrganizationLevel</text>
<polyline fill="none" stroke="#555555" points="39,-326.5 145,-326.5 "/>
<text text-anchor="middle" x="92" y="-315.3" font-family="Verdana" font-size="9.00" fill="#555555">JobTitle</text>
<polyline fill="none" stroke="#555555" points="39,-308.5 145,-308.5 "/>
<text text-anchor="middle" x="92" y="-297.3" font-family="Verdana" font-size="9.00" fill="#555555">BirthDate</text>
<polyline fill="none" stroke="#555555" points="39,-290.5 145,-290.5 "/>
<text text-anchor="middle" x="92" y="-279.3" font-family="Verdana" font-size="9.00" fill="#555555">MaritalStatus</text>
<polyline fill="none" stroke="#555555" points="39,-272.5 145,-272.5 "/>
<text text-anchor="middle" x="92" y="-261.3" font-family="Verdana" font-size="9.00" fill="#555555">Gender</text>
<polyline fill="none" stroke="#555555" points="39,-254.5 145,-254.5 "/>
<text text-anchor="middle" x="92" y="-243.3" font-family="Verdana" font-size="9.00" fill="#555555">HireDate</text>
<polyline fill="none" stroke="#555555" points="39,-236.5 145,-236.5 "/>
<text text-anchor="middle" x="92" y="-225.3" font-family="Verdana" font-size="9.00" fill="#555555">SalariedFlag</text>
<polyline fill="none" stroke="#555555" points="39,-218.5 145,-218.5 "/>
<text text-anchor="middle" x="92" y="-207.3" font-family="Verdana" font-size="9.00" fill="#555555">VacationHours</text>
<polyline fill="none" stroke="#555555" points="39,-200.5 145,-200.5 "/>
<text text-anchor="middle" x="92" y="-189.3" font-family="Verdana" font-size="9.00" fill="#555555">SickLeaveHours</text>
<polyline fill="none" stroke="#555555" points="39,-182.5 145,-182.5 "/>
<text text-anchor="middle" x="92" y="-171.3" font-family="Verdana" font-size="9.00" fill="#555555">CurrentFlag</text>
<polyline fill="none" stroke="#555555" points="39,-164.5 145,-164.5 "/>
<text text-anchor="middle" x="92" y="-153.3" font-family="Verdana" font-size="9.00" fill="#555555">rowguid</text>
<polyline fill="none" stroke="#555555" points="39,-146.5 145,-146.5 "/>
<text text-anchor="middle" x="92" y="-135.3" font-family="Verdana" font-size="9.00" fill="#555555">ModifiedDate</text>
</g>
<!-- struct2 -->
<g id="node3" class="node"><title>struct2</title>
<polygon fill="#f7f7f9" stroke="#555555" points="0,-453.5 0,-579.5 184,-579.5 184,-453.5 0,-453.5"/>
<text text-anchor="middle" x="92" y="-568.3" font-family="Verdana" font-size="9.00" fill="#555555">Table: EmployeeDepartmentHistory</text>
<polyline fill="none" stroke="#555555" points="0,-561.5 184,-561.5 "/>
<text text-anchor="middle" x="92" y="-550.3" font-family="Verdana" font-size="9.00" fill="#555555">+ BusinessEntityID</text>
<polyline fill="none" stroke="#555555" points="0,-543.5 184,-543.5 "/>
<text text-anchor="middle" x="92" y="-532.3" font-family="Verdana" font-size="9.00" fill="#555555">+ DepartmentID</text>
<polyline fill="none" stroke="#555555" points="0,-525.5 184,-525.5 "/>
<text text-anchor="middle" x="92" y="-514.3" font-family="Verdana" font-size="9.00" fill="#555555">+ ShiftID</text>
<polyline fill="none" stroke="#555555" points="0,-507.5 184,-507.5 "/>
<text text-anchor="middle" x="92" y="-496.3" font-family="Verdana" font-size="9.00" fill="#555555">StartDate</text>
<polyline fill="none" stroke="#555555" points="0,-489.5 184,-489.5 "/>
<text text-anchor="middle" x="92" y="-478.3" font-family="Verdana" font-size="9.00" fill="#555555">EndDate</text>
<polyline fill="none" stroke="#555555" points="0,-471.5 184,-471.5 "/>
<text text-anchor="middle" x="92" y="-460.3" font-family="Verdana" font-size="9.00" fill="#555555">ModifiedDate</text>
</g>
<!-- struct3 -->
<g id="node4" class="node"><title>struct3</title>
<polygon fill="#f7f7f9" stroke="#555555" points="32.5,-598.5 32.5,-850.5 151.5,-850.5 151.5,-598.5 32.5,-598.5"/>
<text text-anchor="middle" x="92" y="-839.3" font-family="Verdana" font-size="9.00" fill="#555555">Table: Person</text>
<polyline fill="none" stroke="#555555" points="32.5,-832.5 151.5,-832.5 "/>
<text text-anchor="middle" x="92" y="-821.3" font-family="Verdana" font-size="9.00" fill="#555555">BusinessEntityID +</text>
<polyline fill="none" stroke="#555555" points="32.5,-814.5 151.5,-814.5 "/>
<text text-anchor="middle" x="92" y="-803.3" font-family="Verdana" font-size="9.00" fill="#555555">PersonType</text>
<polyline fill="none" stroke="#555555" points="32.5,-796.5 151.5,-796.5 "/>
<text text-anchor="middle" x="92" y="-785.3" font-family="Verdana" font-size="9.00" fill="#555555">NameStyle</text>
<polyline fill="none" stroke="#555555" points="32.5,-778.5 151.5,-778.5 "/>
<text text-anchor="middle" x="92" y="-767.3" font-family="Verdana" font-size="9.00" fill="#555555">Title</text>
<polyline fill="none" stroke="#555555" points="32.5,-760.5 151.5,-760.5 "/>
<text text-anchor="middle" x="92" y="-749.3" font-family="Verdana" font-size="9.00" fill="#555555">FirstName</text>
<polyline fill="none" stroke="#555555" points="32.5,-742.5 151.5,-742.5 "/>
<text text-anchor="middle" x="92" y="-731.3" font-family="Verdana" font-size="9.00" fill="#555555">MiddleName</text>
<polyline fill="none" stroke="#555555" points="32.5,-724.5 151.5,-724.5 "/>
<text text-anchor="middle" x="92" y="-713.3" font-family="Verdana" font-size="9.00" fill="#555555">LastName</text>
<polyline fill="none" stroke="#555555" points="32.5,-706.5 151.5,-706.5 "/>
<text text-anchor="middle" x="92" y="-695.3" font-family="Verdana" font-size="9.00" fill="#555555">Suffix</text>
<polyline fill="none" stroke="#555555" points="32.5,-688.5 151.5,-688.5 "/>
<text text-anchor="middle" x="92" y="-677.3" font-family="Verdana" font-size="9.00" fill="#555555">EmailPromotion</text>
<polyline fill="none" stroke="#555555" points="32.5,-670.5 151.5,-670.5 "/>
<text text-anchor="middle" x="92" y="-659.3" font-family="Verdana" font-size="9.00" fill="#555555">AdditionalContactInfo</text>
<polyline fill="none" stroke="#555555" points="32.5,-652.5 151.5,-652.5 "/>
<text text-anchor="middle" x="92" y="-641.3" font-family="Verdana" font-size="9.00" fill="#555555">Demographics</text>
<polyline fill="none" stroke="#555555" points="32.5,-634.5 151.5,-634.5 "/>
<text text-anchor="middle" x="92" y="-623.3" font-family="Verdana" font-size="9.00" fill="#555555">rowguid</text>
<polyline fill="none" stroke="#555555" points="32.5,-616.5 151.5,-616.5 "/>
<text text-anchor="middle" x="92" y="-605.3" font-family="Verdana" font-size="9.00" fill="#555555">ModifiedDate</text>
</g>
</g>
</svg>
