<?xml version="1.0" encoding="UTF-8" standalone="no"?>
<!DOCTYPE svg PUBLIC "-//W3C//DTD SVG 1.1//EN"
 "http://www.w3.org/Graphics/SVG/1.1/DTD/svg11.dtd">
<!-- Generated by graphviz version 2.38.0 (20140413.2041)
 -->
<!-- Title: g Pages: 1 -->
<svg width="203pt" height="281pt"
 viewBox="0.00 0.00 203.00 281.00" xmlns="http://www.w3.org/2000/svg" xmlns:xlink="http://www.w3.org/1999/xlink">
<g id="graph0" class="graph" transform="scale(1 1) rotate(0) translate(4 277)">
<title>g</title>
<polygon fill="white" stroke="none" points="-4,4 -4,-277 199,-277 199,4 -4,4"/>
<text text-anchor="middle" x="97.5" y="-7" font-family="Verdana" font-size="10.00">View: vStateProvinceCountryRegion</text>
<!-- struct0 -->
<g id="node1" class="node"><title>struct0</title>
<polygon fill="#f7f7f9" stroke="#555555" points="37,-19.5 37,-91.5 158,-91.5 158,-19.5 37,-19.5"/>
<text text-anchor="middle" x="97.5" y="-80.3" font-family="Verdana" font-size="9.00" fill="#555555">Table: CountryRegion</text>
<polyline fill="none" stroke="#555555" points="37,-73.5 158,-73.5 "/>
<text text-anchor="middle" x="97.5" y="-62.3" font-family="Verdana" font-size="9.00" fill="#555555">CountryRegionCode +</text>
<polyline fill="none" stroke="#555555" points="37,-55.5 158,-55.5 "/>
<text text-anchor="middle" x="97.5" y="-44.3" font-family="Verdana" font-size="9.00" fill="#555555">Name</text>
<polyline fill="none" stroke="#555555" points="37,-37.5 158,-37.5 "/>
<text text-anchor="middle" x="97.5" y="-26.3" font-family="Verdana" font-size="9.00" fill="#555555">ModifiedDate</text>
</g>
<!-- struct1 -->
<g id="node2" class="node"><title>struct1</title>
<polygon fill="#f7f7f9" stroke="#555555" points="32,-110.5 32,-272.5 163,-272.5 163,-110.5 32,-110.5"/>
<text text-anchor="middle" x="97.5" y="-261.3" font-family="Verdana" font-size="9.00" fill="#555555">Table: StateProvince</text>
<polyline fill="none" stroke="#555555" points="32,-254.5 163,-254.5 "/>
<text text-anchor="middle" x="97.5" y="-243.3" font-family="Verdana" font-size="9.00" fill="#555555">StateProvinceID +</text>
<polyline fill="none" stroke="#555555" points="32,-236.5 163,-236.5 "/>
<text text-anchor="middle" x="97.5" y="-225.3" font-family="Verdana" font-size="9.00" fill="#555555">StateProvinceCode</text>
<polyline fill="none" stroke="#555555" points="32,-218.5 163,-218.5 "/>
<text text-anchor="middle" x="97.5" y="-207.3" font-family="Verdana" font-size="9.00" fill="#555555">+ CountryRegionCode</text>
<polyline fill="none" stroke="#555555" points="32,-200.5 163,-200.5 "/>
<text text-anchor="middle" x="97.5" y="-189.3" font-family="Verdana" font-size="9.00" fill="#555555">IsOnlyStateProvinceFlag</text>
<polyline fill="none" stroke="#555555" points="32,-182.5 163,-182.5 "/>
<text text-anchor="middle" x="97.5" y="-171.3" font-family="Verdana" font-size="9.00" fill="#555555">Name</text>
<polyline fill="none" stroke="#555555" points="32,-164.5 163,-164.5 "/>
<text text-anchor="middle" x="97.5" y="-153.3" font-family="Verdana" font-size="9.00" fill="#555555">+ TerritoryID</text>
<polyline fill="none" stroke="#555555" points="32,-146.5 163,-146.5 "/>
<text text-anchor="middle" x="97.5" y="-135.3" font-family="Verdana" font-size="9.00" fill="#555555">rowguid</text>
<polyline fill="none" stroke="#555555" points="32,-128.5 163,-128.5 "/>
<text text-anchor="middle" x="97.5" y="-117.3" font-family="Verdana" font-size="9.00" fill="#555555">ModifiedDate</text>
</g>
</g>
</svg>
