<?xml version="1.0" encoding="UTF-8" standalone="no"?>
<!DOCTYPE svg PUBLIC "-//W3C//DTD SVG 1.1//EN"
 "http://www.w3.org/Graphics/SVG/1.1/DTD/svg11.dtd">
<!-- Generated by graphviz version 2.38.0 (20140413.2041)
 -->
<!-- Title: g Pages: 1 -->
<svg width="215pt" height="1526pt"
 viewBox="0.00 0.00 215.00 1526.00" xmlns="http://www.w3.org/2000/svg" xmlns:xlink="http://www.w3.org/1999/xlink">
<g id="graph0" class="graph" transform="scale(1 1) rotate(0) translate(4 1522)">
<title>g</title>
<polygon fill="white" stroke="none" points="-4,4 -4,-1522 211,-1522 211,4 -4,4"/>
<text text-anchor="middle" x="103.5" y="-7" font-family="Verdana" font-size="10.00">View: vSalesPersonSalesByFiscalYears</text>
<!-- struct0 -->
<g id="node1" class="node"><title>struct0</title>
<polygon fill="#f7f7f9" stroke="#555555" points="50.5,-19.5 50.5,-325.5 156.5,-325.5 156.5,-19.5 50.5,-19.5"/>
<text text-anchor="middle" x="103.5" y="-314.3" font-family="Verdana" font-size="9.00" fill="#555555">Table: Employee</text>
<polyline fill="none" stroke="#555555" points="50.5,-307.5 156.5,-307.5 "/>
<text text-anchor="middle" x="103.5" y="-296.3" font-family="Verdana" font-size="9.00" fill="#555555">BusinessEntityID +</text>
<polyline fill="none" stroke="#555555" points="50.5,-289.5 156.5,-289.5 "/>
<text text-anchor="middle" x="103.5" y="-278.3" font-family="Verdana" font-size="9.00" fill="#555555">NationalIDNumber</text>
<polyline fill="none" stroke="#555555" points="50.5,-271.5 156.5,-271.5 "/>
<text text-anchor="middle" x="103.5" y="-260.3" font-family="Verdana" font-size="9.00" fill="#555555">LoginID</text>
<polyline fill="none" stroke="#555555" points="50.5,-253.5 156.5,-253.5 "/>
<text text-anchor="middle" x="103.5" y="-242.3" font-family="Verdana" font-size="9.00" fill="#555555">OrganizationNode</text>
<polyline fill="none" stroke="#555555" points="50.5,-235.5 156.5,-235.5 "/>
<text text-anchor="middle" x="103.5" y="-224.3" font-family="Verdana" font-size="9.00" fill="#555555">OrganizationLevel</text>
<polyline fill="none" stroke="#555555" points="50.5,-217.5 156.5,-217.5 "/>
<text text-anchor="middle" x="103.5" y="-206.3" font-family="Verdana" font-size="9.00" fill="#555555">JobTitle</text>
<polyline fill="none" stroke="#555555" points="50.5,-199.5 156.5,-199.5 "/>
<text text-anchor="middle" x="103.5" y="-188.3" font-family="Verdana" font-size="9.00" fill="#555555">BirthDate</text>
<polyline fill="none" stroke="#555555" points="50.5,-181.5 156.5,-181.5 "/>
<text text-anchor="middle" x="103.5" y="-170.3" font-family="Verdana" font-size="9.00" fill="#555555">MaritalStatus</text>
<polyline fill="none" stroke="#555555" points="50.5,-163.5 156.5,-163.5 "/>
<text text-anchor="middle" x="103.5" y="-152.3" font-family="Verdana" font-size="9.00" fill="#555555">Gender</text>
<polyline fill="none" stroke="#555555" points="50.5,-145.5 156.5,-145.5 "/>
<text text-anchor="middle" x="103.5" y="-134.3" font-family="Verdana" font-size="9.00" fill="#555555">HireDate</text>
<polyline fill="none" stroke="#555555" points="50.5,-127.5 156.5,-127.5 "/>
<text text-anchor="middle" x="103.5" y="-116.3" font-family="Verdana" font-size="9.00" fill="#555555">SalariedFlag</text>
<polyline fill="none" stroke="#555555" points="50.5,-109.5 156.5,-109.5 "/>
<text text-anchor="middle" x="103.5" y="-98.3" font-family="Verdana" font-size="9.00" fill="#555555">VacationHours</text>
<polyline fill="none" stroke="#555555" points="50.5,-91.5 156.5,-91.5 "/>
<text text-anchor="middle" x="103.5" y="-80.3" font-family="Verdana" font-size="9.00" fill="#555555">SickLeaveHours</text>
<polyline fill="none" stroke="#555555" points="50.5,-73.5 156.5,-73.5 "/>
<text text-anchor="middle" x="103.5" y="-62.3" font-family="Verdana" font-size="9.00" fill="#555555">CurrentFlag</text>
<polyline fill="none" stroke="#555555" points="50.5,-55.5 156.5,-55.5 "/>
<text text-anchor="middle" x="103.5" y="-44.3" font-family="Verdana" font-size="9.00" fill="#555555">rowguid</text>
<polyline fill="none" stroke="#555555" points="50.5,-37.5 156.5,-37.5 "/>
<text text-anchor="middle" x="103.5" y="-26.3" font-family="Verdana" font-size="9.00" fill="#555555">ModifiedDate</text>
</g>
<!-- struct1 -->
<g id="node2" class="node"><title>struct1</title>
<polygon fill="#f7f7f9" stroke="#555555" points="44,-344.5 44,-596.5 163,-596.5 163,-344.5 44,-344.5"/>
<text text-anchor="middle" x="103.5" y="-585.3" font-family="Verdana" font-size="9.00" fill="#555555">Table: Person</text>
<polyline fill="none" stroke="#555555" points="44,-578.5 163,-578.5 "/>
<text text-anchor="middle" x="103.5" y="-567.3" font-family="Verdana" font-size="9.00" fill="#555555">BusinessEntityID +</text>
<polyline fill="none" stroke="#555555" points="44,-560.5 163,-560.5 "/>
<text text-anchor="middle" x="103.5" y="-549.3" font-family="Verdana" font-size="9.00" fill="#555555">PersonType</text>
<polyline fill="none" stroke="#555555" points="44,-542.5 163,-542.5 "/>
<text text-anchor="middle" x="103.5" y="-531.3" font-family="Verdana" font-size="9.00" fill="#555555">NameStyle</text>
<polyline fill="none" stroke="#555555" points="44,-524.5 163,-524.5 "/>
<text text-anchor="middle" x="103.5" y="-513.3" font-family="Verdana" font-size="9.00" fill="#555555">Title</text>
<polyline fill="none" stroke="#555555" points="44,-506.5 163,-506.5 "/>
<text text-anchor="middle" x="103.5" y="-495.3" font-family="Verdana" font-size="9.00" fill="#555555">FirstName</text>
<polyline fill="none" stroke="#555555" points="44,-488.5 163,-488.5 "/>
<text text-anchor="middle" x="103.5" y="-477.3" font-family="Verdana" font-size="9.00" fill="#555555">MiddleName</text>
<polyline fill="none" stroke="#555555" points="44,-470.5 163,-470.5 "/>
<text text-anchor="middle" x="103.5" y="-459.3" font-family="Verdana" font-size="9.00" fill="#555555">LastName</text>
<polyline fill="none" stroke="#555555" points="44,-452.5 163,-452.5 "/>
<text text-anchor="middle" x="103.5" y="-441.3" font-family="Verdana" font-size="9.00" fill="#555555">Suffix</text>
<polyline fill="none" stroke="#555555" points="44,-434.5 163,-434.5 "/>
<text text-anchor="middle" x="103.5" y="-423.3" font-family="Verdana" font-size="9.00" fill="#555555">EmailPromotion</text>
<polyline fill="none" stroke="#555555" points="44,-416.5 163,-416.5 "/>
<text text-anchor="middle" x="103.5" y="-405.3" font-family="Verdana" font-size="9.00" fill="#555555">AdditionalContactInfo</text>
<polyline fill="none" stroke="#555555" points="44,-398.5 163,-398.5 "/>
<text text-anchor="middle" x="103.5" y="-387.3" font-family="Verdana" font-size="9.00" fill="#555555">Demographics</text>
<polyline fill="none" stroke="#555555" points="44,-380.5 163,-380.5 "/>
<text text-anchor="middle" x="103.5" y="-369.3" font-family="Verdana" font-size="9.00" fill="#555555">rowguid</text>
<polyline fill="none" stroke="#555555" points="44,-362.5 163,-362.5 "/>
<text text-anchor="middle" x="103.5" y="-351.3" font-family="Verdana" font-size="9.00" fill="#555555">ModifiedDate</text>
</g>
<!-- struct2 -->
<g id="node3" class="node"><title>struct2</title>
<polygon fill="#f7f7f9" stroke="#555555" points="35.5,-615.5 35.5,-1101.5 171.5,-1101.5 171.5,-615.5 35.5,-615.5"/>
<text text-anchor="middle" x="103.5" y="-1090.3" font-family="Verdana" font-size="9.00" fill="#555555">Table: SalesOrderHeader</text>
<polyline fill="none" stroke="#555555" points="35.5,-1083.5 171.5,-1083.5 "/>
<text text-anchor="middle" x="103.5" y="-1072.3" font-family="Verdana" font-size="9.00" fill="#555555">SalesOrderID +</text>
<polyline fill="none" stroke="#555555" points="35.5,-1065.5 171.5,-1065.5 "/>
<text text-anchor="middle" x="103.5" y="-1054.3" font-family="Verdana" font-size="9.00" fill="#555555">RevisionNumber</text>
<polyline fill="none" stroke="#555555" points="35.5,-1047.5 171.5,-1047.5 "/>
<text text-anchor="middle" x="103.5" y="-1036.3" font-family="Verdana" font-size="9.00" fill="#555555">OrderDate</text>
<polyline fill="none" stroke="#555555" points="35.5,-1029.5 171.5,-1029.5 "/>
<text text-anchor="middle" x="103.5" y="-1018.3" font-family="Verdana" font-size="9.00" fill="#555555">DueDate</text>
<polyline fill="none" stroke="#555555" points="35.5,-1011.5 171.5,-1011.5 "/>
<text text-anchor="middle" x="103.5" y="-1000.3" font-family="Verdana" font-size="9.00" fill="#555555">ShipDate</text>
<polyline fill="none" stroke="#555555" points="35.5,-993.5 171.5,-993.5 "/>
<text text-anchor="middle" x="103.5" y="-982.3" font-family="Verdana" font-size="9.00" fill="#555555">Status</text>
<polyline fill="none" stroke="#555555" points="35.5,-975.5 171.5,-975.5 "/>
<text text-anchor="middle" x="103.5" y="-964.3" font-family="Verdana" font-size="9.00" fill="#555555">OnlineOrderFlag</text>
<polyline fill="none" stroke="#555555" points="35.5,-957.5 171.5,-957.5 "/>
<text text-anchor="middle" x="103.5" y="-946.3" font-family="Verdana" font-size="9.00" fill="#555555">SalesOrderNumber</text>
<polyline fill="none" stroke="#555555" points="35.5,-939.5 171.5,-939.5 "/>
<text text-anchor="middle" x="103.5" y="-928.3" font-family="Verdana" font-size="9.00" fill="#555555">PurchaseOrderNumber</text>
<polyline fill="none" stroke="#555555" points="35.5,-921.5 171.5,-921.5 "/>
<text text-anchor="middle" x="103.5" y="-910.3" font-family="Verdana" font-size="9.00" fill="#555555">AccountNumber</text>
<polyline fill="none" stroke="#555555" points="35.5,-903.5 171.5,-903.5 "/>
<text text-anchor="middle" x="103.5" y="-892.3" font-family="Verdana" font-size="9.00" fill="#555555">+ CustomerID</text>
<polyline fill="none" stroke="#555555" points="35.5,-885.5 171.5,-885.5 "/>
<text text-anchor="middle" x="103.5" y="-874.3" font-family="Verdana" font-size="9.00" fill="#555555">+ SalesPersonID</text>
<polyline fill="none" stroke="#555555" points="35.5,-867.5 171.5,-867.5 "/>
<text text-anchor="middle" x="103.5" y="-856.3" font-family="Verdana" font-size="9.00" fill="#555555">+ TerritoryID</text>
<polyline fill="none" stroke="#555555" points="35.5,-849.5 171.5,-849.5 "/>
<text text-anchor="middle" x="103.5" y="-838.3" font-family="Verdana" font-size="9.00" fill="#555555">+ BillToAddressID</text>
<polyline fill="none" stroke="#555555" points="35.5,-831.5 171.5,-831.5 "/>
<text text-anchor="middle" x="103.5" y="-820.3" font-family="Verdana" font-size="9.00" fill="#555555">+ ShipToAddressID</text>
<polyline fill="none" stroke="#555555" points="35.5,-813.5 171.5,-813.5 "/>
<text text-anchor="middle" x="103.5" y="-802.3" font-family="Verdana" font-size="9.00" fill="#555555">+ ShipMethodID</text>
<polyline fill="none" stroke="#555555" points="35.5,-795.5 171.5,-795.5 "/>
<text text-anchor="middle" x="103.5" y="-784.3" font-family="Verdana" font-size="9.00" fill="#555555">+ CreditCardID</text>
<polyline fill="none" stroke="#555555" points="35.5,-777.5 171.5,-777.5 "/>
<text text-anchor="middle" x="103.5" y="-766.3" font-family="Verdana" font-size="9.00" fill="#555555">CreditCardApprovalCode</text>
<polyline fill="none" stroke="#555555" points="35.5,-759.5 171.5,-759.5 "/>
<text text-anchor="middle" x="103.5" y="-748.3" font-family="Verdana" font-size="9.00" fill="#555555">+ CurrencyRateID</text>
<polyline fill="none" stroke="#555555" points="35.5,-741.5 171.5,-741.5 "/>
<text text-anchor="middle" x="103.5" y="-730.3" font-family="Verdana" font-size="9.00" fill="#555555">SubTotal</text>
<polyline fill="none" stroke="#555555" points="35.5,-723.5 171.5,-723.5 "/>
<text text-anchor="middle" x="103.5" y="-712.3" font-family="Verdana" font-size="9.00" fill="#555555">TaxAmt</text>
<polyline fill="none" stroke="#555555" points="35.5,-705.5 171.5,-705.5 "/>
<text text-anchor="middle" x="103.5" y="-694.3" font-family="Verdana" font-size="9.00" fill="#555555">Freight</text>
<polyline fill="none" stroke="#555555" points="35.5,-687.5 171.5,-687.5 "/>
<text text-anchor="middle" x="103.5" y="-676.3" font-family="Verdana" font-size="9.00" fill="#555555">TotalDue</text>
<polyline fill="none" stroke="#555555" points="35.5,-669.5 171.5,-669.5 "/>
<text text-anchor="middle" x="103.5" y="-658.3" font-family="Verdana" font-size="9.00" fill="#555555">Comment</text>
<polyline fill="none" stroke="#555555" points="35.5,-651.5 171.5,-651.5 "/>
<text text-anchor="middle" x="103.5" y="-640.3" font-family="Verdana" font-size="9.00" fill="#555555">rowguid</text>
<polyline fill="none" stroke="#555555" points="35.5,-633.5 171.5,-633.5 "/>
<text text-anchor="middle" x="103.5" y="-622.3" font-family="Verdana" font-size="9.00" fill="#555555">ModifiedDate</text>
</g>
<!-- struct3 -->
<g id="node4" class="node"><title>struct3</title>
<polygon fill="#f7f7f9" stroke="#555555" points="50,-1120.5 50,-1300.5 157,-1300.5 157,-1120.5 50,-1120.5"/>
<text text-anchor="middle" x="103.5" y="-1289.3" font-family="Verdana" font-size="9.00" fill="#555555">Table: SalesPerson</text>
<polyline fill="none" stroke="#555555" points="50,-1282.5 157,-1282.5 "/>
<text text-anchor="middle" x="103.5" y="-1271.3" font-family="Verdana" font-size="9.00" fill="#555555">BusinessEntityID +</text>
<polyline fill="none" stroke="#555555" points="50,-1264.5 157,-1264.5 "/>
<text text-anchor="middle" x="103.5" y="-1253.3" font-family="Verdana" font-size="9.00" fill="#555555">+ TerritoryID</text>
<polyline fill="none" stroke="#555555" points="50,-1246.5 157,-1246.5 "/>
<text text-anchor="middle" x="103.5" y="-1235.3" font-family="Verdana" font-size="9.00" fill="#555555">SalesQuota</text>
<polyline fill="none" stroke="#555555" points="50,-1228.5 157,-1228.5 "/>
<text text-anchor="middle" x="103.5" y="-1217.3" font-family="Verdana" font-size="9.00" fill="#555555">Bonus</text>
<polyline fill="none" stroke="#555555" points="50,-1210.5 157,-1210.5 "/>
<text text-anchor="middle" x="103.5" y="-1199.3" font-family="Verdana" font-size="9.00" fill="#555555">CommissionPct</text>
<polyline fill="none" stroke="#555555" points="50,-1192.5 157,-1192.5 "/>
<text text-anchor="middle" x="103.5" y="-1181.3" font-family="Verdana" font-size="9.00" fill="#555555">SalesYTD</text>
<polyline fill="none" stroke="#555555" points="50,-1174.5 157,-1174.5 "/>
<text text-anchor="middle" x="103.5" y="-1163.3" font-family="Verdana" font-size="9.00" fill="#555555">SalesLastYear</text>
<polyline fill="none" stroke="#555555" points="50,-1156.5 157,-1156.5 "/>
<text text-anchor="middle" x="103.5" y="-1145.3" font-family="Verdana" font-size="9.00" fill="#555555">rowguid</text>
<polyline fill="none" stroke="#555555" points="50,-1138.5 157,-1138.5 "/>
<text text-anchor="middle" x="103.5" y="-1127.3" font-family="Verdana" font-size="9.00" fill="#555555">ModifiedDate</text>
</g>
<!-- struct4 -->
<g id="node5" class="node"><title>struct4</title>
<polygon fill="#f7f7f9" stroke="#555555" points="43,-1319.5 43,-1517.5 164,-1517.5 164,-1319.5 43,-1319.5"/>
<text text-anchor="middle" x="103.5" y="-1506.3" font-family="Verdana" font-size="9.00" fill="#555555">Table: SalesTerritory</text>
<polyline fill="none" stroke="#555555" points="43,-1499.5 164,-1499.5 "/>
<text text-anchor="middle" x="103.5" y="-1488.3" font-family="Verdana" font-size="9.00" fill="#555555">TerritoryID +</text>
<polyline fill="none" stroke="#555555" points="43,-1481.5 164,-1481.5 "/>
<text text-anchor="middle" x="103.5" y="-1470.3" font-family="Verdana" font-size="9.00" fill="#555555">Name</text>
<polyline fill="none" stroke="#555555" points="43,-1463.5 164,-1463.5 "/>
<text text-anchor="middle" x="103.5" y="-1452.3" font-family="Verdana" font-size="9.00" fill="#555555">+ CountryRegionCode</text>
<polyline fill="none" stroke="#555555" points="43,-1445.5 164,-1445.5 "/>
<text text-anchor="middle" x="103.5" y="-1434.3" font-family="Verdana" font-size="9.00" fill="#555555">Group</text>
<polyline fill="none" stroke="#555555" points="43,-1427.5 164,-1427.5 "/>
<text text-anchor="middle" x="103.5" y="-1416.3" font-family="Verdana" font-size="9.00" fill="#555555">SalesYTD</text>
<polyline fill="none" stroke="#555555" points="43,-1409.5 164,-1409.5 "/>
<text text-anchor="middle" x="103.5" y="-1398.3" font-family="Verdana" font-size="9.00" fill="#555555">SalesLastYear</text>
<polyline fill="none" stroke="#555555" points="43,-1391.5 164,-1391.5 "/>
<text text-anchor="middle" x="103.5" y="-1380.3" font-family="Verdana" font-size="9.00" fill="#555555">CostYTD</text>
<polyline fill="none" stroke="#555555" points="43,-1373.5 164,-1373.5 "/>
<text text-anchor="middle" x="103.5" y="-1362.3" font-family="Verdana" font-size="9.00" fill="#555555">CostLastYear</text>
<polyline fill="none" stroke="#555555" points="43,-1355.5 164,-1355.5 "/>
<text text-anchor="middle" x="103.5" y="-1344.3" font-family="Verdana" font-size="9.00" fill="#555555">rowguid</text>
<polyline fill="none" stroke="#555555" points="43,-1337.5 164,-1337.5 "/>
<text text-anchor="middle" x="103.5" y="-1326.3" font-family="Verdana" font-size="9.00" fill="#555555">ModifiedDate</text>
</g>
</g>
</svg>
