<?xml version="1.0" encoding="UTF-8" standalone="no"?>
<!DOCTYPE svg PUBLIC "-//W3C//DTD SVG 1.1//EN"
 "http://www.w3.org/Graphics/SVG/1.1/DTD/svg11.dtd">
<!-- Generated by graphviz version 2.38.0 (20140413.2041)
 -->
<!-- Title: g Pages: 1 -->
<svg width="163pt" height="970pt"
 viewBox="0.00 0.00 163.00 970.00" xmlns="http://www.w3.org/2000/svg" xmlns:xlink="http://www.w3.org/1999/xlink">
<g id="graph0" class="graph" transform="scale(1 1) rotate(0) translate(4 966)">
<title>g</title>
<polygon fill="white" stroke="none" points="-4,4 -4,-966 159,-966 159,4 -4,4"/>
<text text-anchor="middle" x="77.5" y="-7" font-family="Verdana" font-size="10.00">View: vStoreWithContacts</text>
<!-- struct0 -->
<g id="node1" class="node"><title>struct0</title>
<polygon fill="#f7f7f9" stroke="#555555" points="0,-19.5 0,-127.5 155,-127.5 155,-19.5 0,-19.5"/>
<text text-anchor="middle" x="77.5" y="-116.3" font-family="Verdana" font-size="9.00" fill="#555555">Table: BusinessEntityContact</text>
<polyline fill="none" stroke="#555555" points="0,-109.5 155,-109.5 "/>
<text text-anchor="middle" x="77.5" y="-98.3" font-family="Verdana" font-size="9.00" fill="#555555">+ BusinessEntityID</text>
<polyline fill="none" stroke="#555555" points="0,-91.5 155,-91.5 "/>
<text text-anchor="middle" x="77.5" y="-80.3" font-family="Verdana" font-size="9.00" fill="#555555">+ PersonID</text>
<polyline fill="none" stroke="#555555" points="0,-73.5 155,-73.5 "/>
<text text-anchor="middle" x="77.5" y="-62.3" font-family="Verdana" font-size="9.00" fill="#555555">+ ContactTypeID</text>
<polyline fill="none" stroke="#555555" points="0,-55.5 155,-55.5 "/>
<text text-anchor="middle" x="77.5" y="-44.3" font-family="Verdana" font-size="9.00" fill="#555555">rowguid</text>
<polyline fill="none" stroke="#555555" points="0,-37.5 155,-37.5 "/>
<text text-anchor="middle" x="77.5" y="-26.3" font-family="Verdana" font-size="9.00" fill="#555555">ModifiedDate</text>
</g>
<!-- struct1 -->
<g id="node2" class="node"><title>struct1</title>
<polygon fill="#f7f7f9" stroke="#555555" points="23.5,-146.5 23.5,-218.5 131.5,-218.5 131.5,-146.5 23.5,-146.5"/>
<text text-anchor="middle" x="77.5" y="-207.3" font-family="Verdana" font-size="9.00" fill="#555555">Table: ContactType</text>
<polyline fill="none" stroke="#555555" points="23.5,-200.5 131.5,-200.5 "/>
<text text-anchor="middle" x="77.5" y="-189.3" font-family="Verdana" font-size="9.00" fill="#555555">ContactTypeID +</text>
<polyline fill="none" stroke="#555555" points="23.5,-182.5 131.5,-182.5 "/>
<text text-anchor="middle" x="77.5" y="-171.3" font-family="Verdana" font-size="9.00" fill="#555555">Name</text>
<polyline fill="none" stroke="#555555" points="23.5,-164.5 131.5,-164.5 "/>
<text text-anchor="middle" x="77.5" y="-153.3" font-family="Verdana" font-size="9.00" fill="#555555">ModifiedDate</text>
</g>
<!-- struct2 -->
<g id="node3" class="node"><title>struct2</title>
<polygon fill="#f7f7f9" stroke="#555555" points="21.5,-237.5 21.5,-345.5 133.5,-345.5 133.5,-237.5 21.5,-237.5"/>
<text text-anchor="middle" x="77.5" y="-334.3" font-family="Verdana" font-size="9.00" fill="#555555">Table: EmailAddress</text>
<polyline fill="none" stroke="#555555" points="21.5,-327.5 133.5,-327.5 "/>
<text text-anchor="middle" x="77.5" y="-316.3" font-family="Verdana" font-size="9.00" fill="#555555">+ BusinessEntityID</text>
<polyline fill="none" stroke="#555555" points="21.5,-309.5 133.5,-309.5 "/>
<text text-anchor="middle" x="77.5" y="-298.3" font-family="Verdana" font-size="9.00" fill="#555555">EmailAddressID</text>
<polyline fill="none" stroke="#555555" points="21.5,-291.5 133.5,-291.5 "/>
<text text-anchor="middle" x="77.5" y="-280.3" font-family="Verdana" font-size="9.00" fill="#555555">EmailAddress</text>
<polyline fill="none" stroke="#555555" points="21.5,-273.5 133.5,-273.5 "/>
<text text-anchor="middle" x="77.5" y="-262.3" font-family="Verdana" font-size="9.00" fill="#555555">rowguid</text>
<polyline fill="none" stroke="#555555" points="21.5,-255.5 133.5,-255.5 "/>
<text text-anchor="middle" x="77.5" y="-244.3" font-family="Verdana" font-size="9.00" fill="#555555">ModifiedDate</text>
</g>
<!-- struct3 -->
<g id="node4" class="node"><title>struct3</title>
<polygon fill="#f7f7f9" stroke="#555555" points="18,-364.5 18,-616.5 137,-616.5 137,-364.5 18,-364.5"/>
<text text-anchor="middle" x="77.5" y="-605.3" font-family="Verdana" font-size="9.00" fill="#555555">Table: Person</text>
<polyline fill="none" stroke="#555555" points="18,-598.5 137,-598.5 "/>
<text text-anchor="middle" x="77.5" y="-587.3" font-family="Verdana" font-size="9.00" fill="#555555">BusinessEntityID +</text>
<polyline fill="none" stroke="#555555" points="18,-580.5 137,-580.5 "/>
<text text-anchor="middle" x="77.5" y="-569.3" font-family="Verdana" font-size="9.00" fill="#555555">PersonType</text>
<polyline fill="none" stroke="#555555" points="18,-562.5 137,-562.5 "/>
<text text-anchor="middle" x="77.5" y="-551.3" font-family="Verdana" font-size="9.00" fill="#555555">NameStyle</text>
<polyline fill="none" stroke="#555555" points="18,-544.5 137,-544.5 "/>
<text text-anchor="middle" x="77.5" y="-533.3" font-family="Verdana" font-size="9.00" fill="#555555">Title</text>
<polyline fill="none" stroke="#555555" points="18,-526.5 137,-526.5 "/>
<text text-anchor="middle" x="77.5" y="-515.3" font-family="Verdana" font-size="9.00" fill="#555555">FirstName</text>
<polyline fill="none" stroke="#555555" points="18,-508.5 137,-508.5 "/>
<text text-anchor="middle" x="77.5" y="-497.3" font-family="Verdana" font-size="9.00" fill="#555555">MiddleName</text>
<polyline fill="none" stroke="#555555" points="18,-490.5 137,-490.5 "/>
<text text-anchor="middle" x="77.5" y="-479.3" font-family="Verdana" font-size="9.00" fill="#555555">LastName</text>
<polyline fill="none" stroke="#555555" points="18,-472.5 137,-472.5 "/>
<text text-anchor="middle" x="77.5" y="-461.3" font-family="Verdana" font-size="9.00" fill="#555555">Suffix</text>
<polyline fill="none" stroke="#555555" points="18,-454.5 137,-454.5 "/>
<text text-anchor="middle" x="77.5" y="-443.3" font-family="Verdana" font-size="9.00" fill="#555555">EmailPromotion</text>
<polyline fill="none" stroke="#555555" points="18,-436.5 137,-436.5 "/>
<text text-anchor="middle" x="77.5" y="-425.3" font-family="Verdana" font-size="9.00" fill="#555555">AdditionalContactInfo</text>
<polyline fill="none" stroke="#555555" points="18,-418.5 137,-418.5 "/>
<text text-anchor="middle" x="77.5" y="-407.3" font-family="Verdana" font-size="9.00" fill="#555555">Demographics</text>
<polyline fill="none" stroke="#555555" points="18,-400.5 137,-400.5 "/>
<text text-anchor="middle" x="77.5" y="-389.3" font-family="Verdana" font-size="9.00" fill="#555555">rowguid</text>
<polyline fill="none" stroke="#555555" points="18,-382.5 137,-382.5 "/>
<text text-anchor="middle" x="77.5" y="-371.3" font-family="Verdana" font-size="9.00" fill="#555555">ModifiedDate</text>
</g>
<!-- struct4 -->
<g id="node5" class="node"><title>struct4</title>
<polygon fill="#f7f7f9" stroke="#555555" points="14.5,-635.5 14.5,-725.5 140.5,-725.5 140.5,-635.5 14.5,-635.5"/>
<text text-anchor="middle" x="77.5" y="-714.3" font-family="Verdana" font-size="9.00" fill="#555555">Table: PersonPhone</text>
<polyline fill="none" stroke="#555555" points="14.5,-707.5 140.5,-707.5 "/>
<text text-anchor="middle" x="77.5" y="-696.3" font-family="Verdana" font-size="9.00" fill="#555555">+ BusinessEntityID</text>
<polyline fill="none" stroke="#555555" points="14.5,-689.5 140.5,-689.5 "/>
<text text-anchor="middle" x="77.5" y="-678.3" font-family="Verdana" font-size="9.00" fill="#555555">PhoneNumber</text>
<polyline fill="none" stroke="#555555" points="14.5,-671.5 140.5,-671.5 "/>
<text text-anchor="middle" x="77.5" y="-660.3" font-family="Verdana" font-size="9.00" fill="#555555">+ PhoneNumberTypeID</text>
<polyline fill="none" stroke="#555555" points="14.5,-653.5 140.5,-653.5 "/>
<text text-anchor="middle" x="77.5" y="-642.3" font-family="Verdana" font-size="9.00" fill="#555555">ModifiedDate</text>
</g>
<!-- struct5 -->
<g id="node6" class="node"><title>struct5</title>
<polygon fill="#f7f7f9" stroke="#555555" points="8.5,-744.5 8.5,-816.5 146.5,-816.5 146.5,-744.5 8.5,-744.5"/>
<text text-anchor="middle" x="77.5" y="-805.3" font-family="Verdana" font-size="9.00" fill="#555555">Table: PhoneNumberType</text>
<polyline fill="none" stroke="#555555" points="8.5,-798.5 146.5,-798.5 "/>
<text text-anchor="middle" x="77.5" y="-787.3" font-family="Verdana" font-size="9.00" fill="#555555">PhoneNumberTypeID +</text>
<polyline fill="none" stroke="#555555" points="8.5,-780.5 146.5,-780.5 "/>
<text text-anchor="middle" x="77.5" y="-769.3" font-family="Verdana" font-size="9.00" fill="#555555">Name</text>
<polyline fill="none" stroke="#555555" points="8.5,-762.5 146.5,-762.5 "/>
<text text-anchor="middle" x="77.5" y="-751.3" font-family="Verdana" font-size="9.00" fill="#555555">ModifiedDate</text>
</g>
<!-- struct6 -->
<g id="node7" class="node"><title>struct6</title>
<polygon fill="#f7f7f9" stroke="#555555" points="24.5,-835.5 24.5,-961.5 130.5,-961.5 130.5,-835.5 24.5,-835.5"/>
<text text-anchor="middle" x="77.5" y="-950.3" font-family="Verdana" font-size="9.00" fill="#555555">Table: Store</text>
<polyline fill="none" stroke="#555555" points="24.5,-943.5 130.5,-943.5 "/>
<text text-anchor="middle" x="77.5" y="-932.3" font-family="Verdana" font-size="9.00" fill="#555555">BusinessEntityID +</text>
<polyline fill="none" stroke="#555555" points="24.5,-925.5 130.5,-925.5 "/>
<text text-anchor="middle" x="77.5" y="-914.3" font-family="Verdana" font-size="9.00" fill="#555555">Name</text>
<polyline fill="none" stroke="#555555" points="24.5,-907.5 130.5,-907.5 "/>
<text text-anchor="middle" x="77.5" y="-896.3" font-family="Verdana" font-size="9.00" fill="#555555">+ SalesPersonID</text>
<polyline fill="none" stroke="#555555" points="24.5,-889.5 130.5,-889.5 "/>
<text text-anchor="middle" x="77.5" y="-878.3" font-family="Verdana" font-size="9.00" fill="#555555">Demographics</text>
<polyline fill="none" stroke="#555555" points="24.5,-871.5 130.5,-871.5 "/>
<text text-anchor="middle" x="77.5" y="-860.3" font-family="Verdana" font-size="9.00" fill="#555555">rowguid</text>
<polyline fill="none" stroke="#555555" points="24.5,-853.5 130.5,-853.5 "/>
<text text-anchor="middle" x="77.5" y="-842.3" font-family="Verdana" font-size="9.00" fill="#555555">ModifiedDate</text>
</g>
</g>
</svg>
