<?xml version="1.0" encoding="UTF-8" standalone="no"?>
<!DOCTYPE svg PUBLIC "-//W3C//DTD SVG 1.1//EN"
 "http://www.w3.org/Graphics/SVG/1.1/DTD/svg11.dtd">
<!-- Generated by graphviz version 2.38.0 (20140413.2041)
 -->
<!-- Title: g Pages: 1 -->
<svg width="201pt" height="986pt"
 viewBox="0.00 0.00 201.00 986.00" xmlns="http://www.w3.org/2000/svg" xmlns:xlink="http://www.w3.org/1999/xlink">
<g id="graph0" class="graph" transform="scale(1 1) rotate(0) translate(4 982)">
<title>g</title>
<polygon fill="white" stroke="none" points="-4,4 -4,-982 197,-982 197,4 -4,4"/>
<text text-anchor="middle" x="96.5" y="-7" font-family="Verdana" font-size="10.00">View: vEmployeeDepartmentHistory</text>
<!-- struct0 -->
<g id="node1" class="node"><title>struct0</title>
<polygon fill="#f7f7f9" stroke="#555555" points="44,-19.5 44,-109.5 149,-109.5 149,-19.5 44,-19.5"/>
<text text-anchor="middle" x="96.5" y="-98.3" font-family="Verdana" font-size="9.00" fill="#555555">Table: Department</text>
<polyline fill="none" stroke="#555555" points="44,-91.5 149,-91.5 "/>
<text text-anchor="middle" x="96.5" y="-80.3" font-family="Verdana" font-size="9.00" fill="#555555">DepartmentID +</text>
<polyline fill="none" stroke="#555555" points="44,-73.5 149,-73.5 "/>
<text text-anchor="middle" x="96.5" y="-62.3" font-family="Verdana" font-size="9.00" fill="#555555">Name</text>
<polyline fill="none" stroke="#555555" points="44,-55.5 149,-55.5 "/>
<text text-anchor="middle" x="96.5" y="-44.3" font-family="Verdana" font-size="9.00" fill="#555555">GroupName</text>
<polyline fill="none" stroke="#555555" points="44,-37.5 149,-37.5 "/>
<text text-anchor="middle" x="96.5" y="-26.3" font-family="Verdana" font-size="9.00" fill="#555555">ModifiedDate</text>
</g>
<!-- struct1 -->
<g id="node2" class="node"><title>struct1</title>
<polygon fill="#f7f7f9" stroke="#555555" points="43.5,-128.5 43.5,-434.5 149.5,-434.5 149.5,-128.5 43.5,-128.5"/>
<text text-anchor="middle" x="96.5" y="-423.3" font-family="Verdana" font-size="9.00" fill="#555555">Table: Employee</text>
<polyline fill="none" stroke="#555555" points="43.5,-416.5 149.5,-416.5 "/>
<text text-anchor="middle" x="96.5" y="-405.3" font-family="Verdana" font-size="9.00" fill="#555555">BusinessEntityID +</text>
<polyline fill="none" stroke="#555555" points="43.5,-398.5 149.5,-398.5 "/>
<text text-anchor="middle" x="96.5" y="-387.3" font-family="Verdana" font-size="9.00" fill="#555555">NationalIDNumber</text>
<polyline fill="none" stroke="#555555" points="43.5,-380.5 149.5,-380.5 "/>
<text text-anchor="middle" x="96.5" y="-369.3" font-family="Verdana" font-size="9.00" fill="#555555">LoginID</text>
<polyline fill="none" stroke="#555555" points="43.5,-362.5 149.5,-362.5 "/>
<text text-anchor="middle" x="96.5" y="-351.3" font-family="Verdana" font-size="9.00" fill="#555555">OrganizationNode</text>
<polyline fill="none" stroke="#555555" points="43.5,-344.5 149.5,-344.5 "/>
<text text-anchor="middle" x="96.5" y="-333.3" font-family="Verdana" font-size="9.00" fill="#555555">OrganizationLevel</text>
<polyline fill="none" stroke="#555555" points="43.5,-326.5 149.5,-326.5 "/>
<text text-anchor="middle" x="96.5" y="-315.3" font-family="Verdana" font-size="9.00" fill="#555555">JobTitle</text>
<polyline fill="none" stroke="#555555" points="43.5,-308.5 149.5,-308.5 "/>
<text text-anchor="middle" x="96.5" y="-297.3" font-family="Verdana" font-size="9.00" fill="#555555">BirthDate</text>
<polyline fill="none" stroke="#555555" points="43.5,-290.5 149.5,-290.5 "/>
<text text-anchor="middle" x="96.5" y="-279.3" font-family="Verdana" font-size="9.00" fill="#555555">MaritalStatus</text>
<polyline fill="none" stroke="#555555" points="43.5,-272.5 149.5,-272.5 "/>
<text text-anchor="middle" x="96.5" y="-261.3" font-family="Verdana" font-size="9.00" fill="#555555">Gender</text>
<polyline fill="none" stroke="#555555" points="43.5,-254.5 149.5,-254.5 "/>
<text text-anchor="middle" x="96.5" y="-243.3" font-family="Verdana" font-size="9.00" fill="#555555">HireDate</text>
<polyline fill="none" stroke="#555555" points="43.5,-236.5 149.5,-236.5 "/>
<text text-anchor="middle" x="96.5" y="-225.3" font-family="Verdana" font-size="9.00" fill="#555555">SalariedFlag</text>
<polyline fill="none" stroke="#555555" points="43.5,-218.5 149.5,-218.5 "/>
<text text-anchor="middle" x="96.5" y="-207.3" font-family="Verdana" font-size="9.00" fill="#555555">VacationHours</text>
<polyline fill="none" stroke="#555555" points="43.5,-200.5 149.5,-200.5 "/>
<text text-anchor="middle" x="96.5" y="-189.3" font-family="Verdana" font-size="9.00" fill="#555555">SickLeaveHours</text>
<polyline fill="none" stroke="#555555" points="43.5,-182.5 149.5,-182.5 "/>
<text text-anchor="middle" x="96.5" y="-171.3" font-family="Verdana" font-size="9.00" fill="#555555">CurrentFlag</text>
<polyline fill="none" stroke="#555555" points="43.5,-164.5 149.5,-164.5 "/>
<text text-anchor="middle" x="96.5" y="-153.3" font-family="Verdana" font-size="9.00" fill="#555555">rowguid</text>
<polyline fill="none" stroke="#555555" points="43.5,-146.5 149.5,-146.5 "/>
<text text-anchor="middle" x="96.5" y="-135.3" font-family="Verdana" font-size="9.00" fill="#555555">ModifiedDate</text>
</g>
<!-- struct2 -->
<g id="node3" class="node"><title>struct2</title>
<polygon fill="#f7f7f9" stroke="#555555" points="4.5,-453.5 4.5,-579.5 188.5,-579.5 188.5,-453.5 4.5,-453.5"/>
<text text-anchor="middle" x="96.5" y="-568.3" font-family="Verdana" font-size="9.00" fill="#555555">Table: EmployeeDepartmentHistory</text>
<polyline fill="none" stroke="#555555" points="4.5,-561.5 188.5,-561.5 "/>
<text text-anchor="middle" x="96.5" y="-550.3" font-family="Verdana" font-size="9.00" fill="#555555">+ BusinessEntityID</text>
<polyline fill="none" stroke="#555555" points="4.5,-543.5 188.5,-543.5 "/>
<text text-anchor="middle" x="96.5" y="-532.3" font-family="Verdana" font-size="9.00" fill="#555555">+ DepartmentID</text>
<polyline fill="none" stroke="#555555" points="4.5,-525.5 188.5,-525.5 "/>
<text text-anchor="middle" x="96.5" y="-514.3" font-family="Verdana" font-size="9.00" fill="#555555">+ ShiftID</text>
<polyline fill="none" stroke="#555555" points="4.5,-507.5 188.5,-507.5 "/>
<text text-anchor="middle" x="96.5" y="-496.3" font-family="Verdana" font-size="9.00" fill="#555555">StartDate</text>
<polyline fill="none" stroke="#555555" points="4.5,-489.5 188.5,-489.5 "/>
<text text-anchor="middle" x="96.5" y="-478.3" font-family="Verdana" font-size="9.00" fill="#555555">EndDate</text>
<polyline fill="none" stroke="#555555" points="4.5,-471.5 188.5,-471.5 "/>
<text text-anchor="middle" x="96.5" y="-460.3" font-family="Verdana" font-size="9.00" fill="#555555">ModifiedDate</text>
</g>
<!-- struct3 -->
<g id="node4" class="node"><title>struct3</title>
<polygon fill="#f7f7f9" stroke="#555555" points="37,-598.5 37,-850.5 156,-850.5 156,-598.5 37,-598.5"/>
<text text-anchor="middle" x="96.5" y="-839.3" font-family="Verdana" font-size="9.00" fill="#555555">Table: Person</text>
<polyline fill="none" stroke="#555555" points="37,-832.5 156,-832.5 "/>
<text text-anchor="middle" x="96.5" y="-821.3" font-family="Verdana" font-size="9.00" fill="#555555">BusinessEntityID +</text>
<polyline fill="none" stroke="#555555" points="37,-814.5 156,-814.5 "/>
<text text-anchor="middle" x="96.5" y="-803.3" font-family="Verdana" font-size="9.00" fill="#555555">PersonType</text>
<polyline fill="none" stroke="#555555" points="37,-796.5 156,-796.5 "/>
<text text-anchor="middle" x="96.5" y="-785.3" font-family="Verdana" font-size="9.00" fill="#555555">NameStyle</text>
<polyline fill="none" stroke="#555555" points="37,-778.5 156,-778.5 "/>
<text text-anchor="middle" x="96.5" y="-767.3" font-family="Verdana" font-size="9.00" fill="#555555">Title</text>
<polyline fill="none" stroke="#555555" points="37,-760.5 156,-760.5 "/>
<text text-anchor="middle" x="96.5" y="-749.3" font-family="Verdana" font-size="9.00" fill="#555555">FirstName</text>
<polyline fill="none" stroke="#555555" points="37,-742.5 156,-742.5 "/>
<text text-anchor="middle" x="96.5" y="-731.3" font-family="Verdana" font-size="9.00" fill="#555555">MiddleName</text>
<polyline fill="none" stroke="#555555" points="37,-724.5 156,-724.5 "/>
<text text-anchor="middle" x="96.5" y="-713.3" font-family="Verdana" font-size="9.00" fill="#555555">LastName</text>
<polyline fill="none" stroke="#555555" points="37,-706.5 156,-706.5 "/>
<text text-anchor="middle" x="96.5" y="-695.3" font-family="Verdana" font-size="9.00" fill="#555555">Suffix</text>
<polyline fill="none" stroke="#555555" points="37,-688.5 156,-688.5 "/>
<text text-anchor="middle" x="96.5" y="-677.3" font-family="Verdana" font-size="9.00" fill="#555555">EmailPromotion</text>
<polyline fill="none" stroke="#555555" points="37,-670.5 156,-670.5 "/>
<text text-anchor="middle" x="96.5" y="-659.3" font-family="Verdana" font-size="9.00" fill="#555555">AdditionalContactInfo</text>
<polyline fill="none" stroke="#555555" points="37,-652.5 156,-652.5 "/>
<text text-anchor="middle" x="96.5" y="-641.3" font-family="Verdana" font-size="9.00" fill="#555555">Demographics</text>
<polyline fill="none" stroke="#555555" points="37,-634.5 156,-634.5 "/>
<text text-anchor="middle" x="96.5" y="-623.3" font-family="Verdana" font-size="9.00" fill="#555555">rowguid</text>
<polyline fill="none" stroke="#555555" points="37,-616.5 156,-616.5 "/>
<text text-anchor="middle" x="96.5" y="-605.3" font-family="Verdana" font-size="9.00" fill="#555555">ModifiedDate</text>
</g>
<!-- struct4 -->
<g id="node5" class="node"><title>struct4</title>
<polygon fill="#f7f7f9" stroke="#555555" points="57.5,-869.5 57.5,-977.5 135.5,-977.5 135.5,-869.5 57.5,-869.5"/>
<text text-anchor="middle" x="96.5" y="-966.3" font-family="Verdana" font-size="9.00" fill="#555555">Table: Shift</text>
<polyline fill="none" stroke="#555555" points="57.5,-959.5 135.5,-959.5 "/>
<text text-anchor="middle" x="96.5" y="-948.3" font-family="Verdana" font-size="9.00" fill="#555555">ShiftID +</text>
<polyline fill="none" stroke="#555555" points="57.5,-941.5 135.5,-941.5 "/>
<text text-anchor="middle" x="96.5" y="-930.3" font-family="Verdana" font-size="9.00" fill="#555555">Name</text>
<polyline fill="none" stroke="#555555" points="57.5,-923.5 135.5,-923.5 "/>
<text text-anchor="middle" x="96.5" y="-912.3" font-family="Verdana" font-size="9.00" fill="#555555">StartTime</text>
<polyline fill="none" stroke="#555555" points="57.5,-905.5 135.5,-905.5 "/>
<text text-anchor="middle" x="96.5" y="-894.3" font-family="Verdana" font-size="9.00" fill="#555555">EndTime</text>
<polyline fill="none" stroke="#555555" points="57.5,-887.5 135.5,-887.5 "/>
<text text-anchor="middle" x="96.5" y="-876.3" font-family="Verdana" font-size="9.00" fill="#555555">ModifiedDate</text>
</g>
</g>
</svg>
